# Merged(arrow/base_geom)

v -0.444166 -0.831968 -0.399269
v -0.420148 -0.831968 0.297258
v -0.444166 -0.831968 0.297258
v 0.444507 -0.831968 0.297258
v -0.444166 0.825287 0.297258
v 0.468526 -0.831968 0.297258
v 0.444507 -0.831968 0.321277
v -0.420148 0.801269 0.297258
v -0.444166 0.825287 -0.399269
v 0.468526 -0.831968 -0.399269
v 0.444507 -0.788356 0.297258
v -0.420148 -0.831968 0.321277
v -0.056251 0.801269 0.297258
v -0.420148 0.801269 0.321277
v 0.468526 0.825287 -0.399269
v 0.444507 0.801269 0.297258
v 0.468526 -0.831968 0.321277
v 0.444507 -0.775125 0.321277
v -0.043015 0.801269 0.297258
v 0.468526 0.825287 0.297258
v -0.444166 -0.831968 0.321277
v 0.468526 -0.775125 0.321277
v -0.056251 0.801269 0.321277
v 0.444507 0.801269 0.321277
v 0.468526 -0.831968 0.369313
v -0.043015 0.801269 0.321277
v -0.056251 0.801269 0.273939
v 0.468526 -0.776653 0.369313
v -0.043015 -0.776675 0.368593
v -0.043015 0.801269 0.273939
v -0.056251 -0.776675 0.368593
v -0.043015 -0.776653 0.369313
v -0.444166 -0.776653 0.369313
v 0.468526 -0.775125 0.369313
v -0.056251 -0.778093 0.321298
v -0.444166 -0.775125 0.321277
v -0.043015 -0.778093 0.321298
v -0.444166 -0.775125 0.369313
v 0.444507 -0.831968 0.321277
v 0.468526 -0.831968 0.321277
v -0.444166 -0.831968 0.321277
v 0.468526 -0.775125 0.321277
v 0.468526 -0.831968 0.369313
v -0.444166 -0.831968 0.369313
v 0.468526 -0.776653 0.369313
v -0.043015 -0.776675 0.368593
v -0.056251 -0.776675 0.368593
v -0.043015 -0.776653 0.369313
v -0.444166 -0.776653 0.369313
v -0.056251 -0.776653 0.369313
v -0.444166 0.825287 0.370814
v -0.056251 -0.775125 0.370814
v -0.056251 0.825287 0.370814
v -0.444166 -0.775125 0.370814
v -0.056251 0.825287 0.322778
v -0.444166 -0.775125 0.322778
v -0.056251 -0.776653 0.370814
v -0.056251 -0.775125 0.322778
v -0.444166 0.825287 0.322778
v -0.444166 -0.776653 0.370814
v -0.420148 0.825287 0.322778
v -0.056251 -0.776653 0.322778
v -0.444166 -0.831968 -0.399269
v -0.420148 -0.831968 0.297258
v -0.444166 -0.831968 0.297258
v 0.444507 -0.831968 0.297258
v 0.468526 -0.831968 0.297258
v 0.444507 -0.831968 0.321277
v 0.468526 -0.831968 0.321277
v -0.444166 -0.831968 0.321277
v 0.468526 -0.831968 0.369313
v -0.444166 -0.831968 0.369313
v 0.468526 0.825287 0.322778
v -0.043015 0.825287 0.370814
v 0.468526 0.825287 0.370814
v -0.043015 0.825287 0.322778
v 0.468526 -0.775125 0.370814
v 0.468526 0.801269 0.322778
v -0.043015 -0.775125 0.322778
v -0.043015 -0.775125 0.370814
v 0.468526 -0.775125 0.322778
v 0.468526 -0.776653 0.370814
v -0.043015 -0.776653 0.322778
v -0.043015 -0.776653 0.370814
vt 1.0 0.0
vt 0.439525 1.0
vt 1.0 1.0
vt 1.0 0.0
vt 0.439525 1.0
vt 0.0 0.0
vt 0.425023 1.0
vt 0.0 1.0
vt 0.0 1.0
vt 0.425023 0.000954
vt 0.425023 1.0
vt 0.0 0.000954
vt 0.425023 0.0
vt 0.0 0.0
vt 0.0 0.000663
vt 0.020833 0.69476
vt 0.0 0.69476
vt 0.020833 0.227595
vt 0.0 0.395833
vt 0.0 0.227595
vt -0.020833 0.000663
vt -0.020833 0.395833
vt 0.020833 0.000663
vt 0.020833 0.395833
vt -0.020833 0.69476
vt -0.020833 0.227595
vt 0.395833 0.000663
vt 0.227595 0.69476
vt 0.227595 0.000663
vt 0.020833 0.385417
vt 0.385417 0.69476
vt 0.395833 0.69476
vt 0.020833 0.0
vt 0.020833 0.0
vt 0.0 0.221855
vt 0.0 0.0
vt 0.020833 0.221855
vt 0.0 0.69476
vt 0.020833 0.684343
vt 0.020833 0.69476
vt 0.221855 0.000663
vt 0.221855 0.69476
vt -0.020833 0.000663
vt -0.020833 0.69476
vt 0.020833 0.000663
vt 0.0 0.000663
vt 0.0 0.684343
vt -0.020833 0.221855
vt -0.020833 0.0
vt 0.439525 1.0
vt 1.0 0.000954
vt 1.0 1.0
vt 0.439525 0.000954
vt 1.0 0.0
vt 0.439525 0.0
vn 0.0 -1.0 0.0
vn 1.0 0.0 0.0
vn -1.0 0.0 0.0
vn 0.0 0.0 -1.0
vn 0.0 1.0 0.0
vn 0.0 0.029973 0.999551
vn 0.0 0.0 1.0
vn 0.0 -0.029973 -0.999551
vn 0.0 -0.999551 0.029973
vn 0.0 0.999551 -0.029973
vn 1.0 0.0 0.0
vn -1.0 0.0 0.0
vn 0.0 0.0 -1.0
vn 0.0 0.0 1.0
vn 0.0 -0.999551 0.029973
vn 0.0 0.999551 -0.029973
vn 0.0 0.0 1.0
vn 0.0 0.0 -1.0
vn -1.0 0.0 0.0
vn 0.0 -1.0 0.0
vn 1.0 0.0 0.0
vn 0.0 1.0 0.0
vn 0.0 -1.0 0.0
vn 0.0 1.0 0.0
vn 0.0 1.0 0.0
vn 1.0 0.0 0.0
vn 0.0 0.0 -1.0
vn -1.0 0.0 0.0
vn 0.0 -1.0 0.0
vn 0.0 0.0 1.0
usemtl base_geom
f 2//1 1//1 4//1
f 6//1 1//1 10//1
f 2//1 7//1 12//1
f 11//2 7//2 4//2
f 2//3 14//3 8//3
f 15//4 1//4 9//4
f 1//4 15//4 10//4
# UNHIT_FACE f 17//1 12//1 7//1
f 14//3 2//3 12//3
f 7//2 11//2 18//2
f 14//5 13//5 8//5
f 18//2 11//2 16//2
# UNHIT_FACE f 17//1 21//1 12//1
f 23//5 19//5 13//5
f 13//5 14//5 23//5
# UNHIT_FACE f 18//2 16//2 24//2
f 19//5 24//5 16//5
f 19//5 23//5 26//5
# UNHIT_FACE f 27//3 23//3 13//3
f 24//5 19//5 26//5
f 23//6 29//6 26//6
# UNHIT_FACE f 26//2 30//2 19//2
# UNHIT_FACE f 27//3 31//3 23//3
f 29//6 23//6 31//6
# UNHIT_FACE f 29//2 30//2 26//2
# UNHIT_FACE f 31//3 27//3 35//3
# UNHIT_FACE f 30//2 29//2 37//2
f 4//5 1//5 2//5
f 2//7 5//7 3//7
f 5//3 1//3 3//3
f 8//7 5//7 2//7
f 1//3 5//3 9//3
f 10//5 1//5 6//5
f 4//7 6//7 11//7
f 12//5 7//5 2//5
f 13//7 5//7 8//7
f 5//5 15//5 9//5
f 15//2 6//2 10//2
f 11//7 6//7 16//7
# UNHIT_FACE f 7//5 12//5 17//5
f 19//7 5//7 13//7
f 15//5 5//5 20//5
f 6//2 15//2 20//2
f 20//7 16//7 6//7
# UNHIT_FACE f 12//5 21//5 17//5
f 22//4 7//4 18//4
f 16//7 5//7 19//7
f 16//7 20//7 5//7
# UNHIT_FACE f 28//2 22//2 34//2
f 21//3 33//3 36//3
# UNHIT_FACE f 36//3 33//3 38//3
f 3//4 5//4 2//4
f 3//2 1//2 5//2
f 2//4 5//4 8//4
f 9//2 5//2 1//2
f 11//4 6//4 4//4
f 4//3 7//3 11//3
f 8//4 5//4 13//4
f 8//2 14//2 2//2
f 9//1 15//1 5//1
f 9//7 1//7 15//7
f 10//7 15//7 1//7
f 10//3 6//3 15//3
f 16//4 6//4 11//4
f 12//2 2//2 14//2
f 18//3 11//3 7//3
f 13//4 5//4 19//4
f 8//1 13//1 14//1
f 20//1 5//1 15//1
f 20//3 15//3 6//3
f 6//4 16//4 20//4
f 16//3 11//3 18//3
f 18//7 7//7 22//7
f 19//4 5//4 16//4
f 13//1 19//1 23//1
f 23//1 14//1 13//1
f 5//4 20//4 16//4
f 24//3 16//3 18//3
f 16//1 24//1 19//1
f 26//1 23//1 19//1
# UNHIT_FACE f 13//2 23//2 27//2
f 26//1 19//1 24//1
f 26//8 29//8 23//8
# UNHIT_FACE f 19//3 30//3 26//3
# UNHIT_FACE f 23//2 31//2 27//2
f 34//3 22//3 28//3
f 28//4 25//4 32//4
f 31//8 23//8 29//8
# UNHIT_FACE f 26//3 30//3 29//3
# UNHIT_FACE f 35//2 27//2 31//2
f 36//2 33//2 21//2
# UNHIT_FACE f 35//9 29//9 31//9
# UNHIT_FACE f 31//10 29//10 35//10
# UNHIT_FACE f 37//3 29//3 30//3
f 38//2 33//2 36//2
# UNHIT_FACE f 29//9 35//9 37//9
# UNHIT_FACE f 37//10 35//10 29//10
f 32/2/7 25/1/7 28/3/7
f 39//13 42//13 40//13
f 42//11 43//11 40//11
f 43//11 42//11 45//11
f 49//12 41//12 44//12
# UNHIT_FACE f 40//14 42//14 39//14
f 40//12 43//12 42//12
f 45//12 42//12 43//12
f 44//13 48//13 43//13
f 44//11 41//11 49//11
f 50//13 48//13 44//13
f 49//13 50//13 44//13
# UNHIT_FACE f 48//15 47//15 46//15
# UNHIT_FACE f 46//16 47//16 48//16
f 47//15 48//15 50//15
f 50//16 48//16 47//16
f 43/4/14 48/5/14 44/6/14
f 44/6/14 48/5/14 50/7/14
f 44/6/14 50/7/14 49/8/14
f 51/9/17 52/10/17 53/11/17
f 52/10/17 51/9/17 54/12/17
# UNHIT_FACE f 54/12/17 57/13/17 52/10/17
# UNHIT_FACE f 57/13/17 54/12/17 60/14/17
f 53//18 52//18 51//18
f 54//18 51//18 52//18
f 53//19 55//19 52//19
f 53//20 51//20 55//20
f 54//21 56//21 51//21
f 54//22 52//22 56//22
f 52//18 57//18 54//18
f 58//19 52//19 55//19
f 59//20 55//20 51//20
f 59//21 51//21 56//21
f 58//22 56//22 52//22
f 60//18 54//18 57//18
# UNHIT_FACE f 52//19 58//19 57//19
f 58//17 55//17 56//17
# UNHIT_FACE f 61//20 55//20 59//20
f 59//17 56//17 61//17
# UNHIT_FACE f 62//19 57//19 58//19
f 61//17 56//17 55//17
f 52/15/21 55/16/21 53/17/21
f 55/18/22 51/19/22 53/20/22
f 51/17/19 56/21/19 54/15/19
f 56/22/20 52/20/20 54/19/20
# UNHIT_FACE f 55/16/21 52/15/21 58/23/21
f 51/19/22 55/18/22 59/24/22
f 56/21/19 51/17/19 59/25/19
# UNHIT_FACE f 52/20/20 56/22/20 58/26/20
# UNHIT_FACE f 57/14/21 58/23/21 52/15/21
f 56/27/18 55/28/18 58/29/18
# UNHIT_FACE f 59/24/22 55/18/22 61/30/22
f 61/31/18 56/27/18 59/32/18
# UNHIT_FACE f 58/23/21 57/14/21 62/33/21
f 55/28/18 56/27/18 61/31/18
# UNHIT_FACE f 63//23 64//23 65//23
f 66//23 63//23 67//23
f 68//23 64//23 66//23
f 71//23 70//23 69//23
f 70//23 71//23 72//23
f 65//24 64//24 63//24
f 67//24 63//24 66//24
f 66//24 64//24 68//24
f 69//24 70//24 71//24
f 72//24 71//24 70//24
f 73/34/25 74/35/25 75/36/25
f 74/35/25 73/34/25 76/37/25
f 75/38/26 78/39/26 73/40/26
f 73/38/27 79/41/27 76/42/27
f 79/43/28 74/38/28 76/44/28
f 81/45/26 75/38/26 77/46/26
f 75/38/26 81/45/26 78/39/26
f 78/47/27 79/41/27 73/38/27
# UNHIT_FACE f 74/38/28 79/43/28 80/46/28
f 79/48/29 77/36/29 80/35/29
# UNHIT_FACE f 77/36/29 79/48/29 81/49/29
f 79/41/27 78/47/27 81/46/27
# UNHIT_FACE f 83/49/28 80/46/28 79/43/28
# UNHIT_FACE f 80/46/28 83/49/28 84/36/28
f 75//29 74//29 73//29
f 76//29 73//29 74//29
f 75//27 77//27 74//27
f 73//28 78//28 75//28
f 76//30 79//30 73//30
f 76//26 74//26 79//26
f 80//27 74//27 77//27
f 77//28 75//28 81//28
f 78//28 81//28 75//28
f 73//30 79//30 78//30
f 80//26 79//26 74//26
f 80//25 77//25 79//25
f 77//27 82//27 80//27
f 81//25 79//25 77//25
f 81//30 78//30 79//30
# UNHIT_FACE f 79//26 80//26 83//26
f 84//27 80//27 82//27
# UNHIT_FACE f 84//26 83//26 80//26
f 74/50/30 77/51/30 75/52/30
f 77/51/30 74/50/30 80/53/30
# UNHIT_FACE f 80/53/30 82/54/30 77/51/30
# UNHIT_FACE f 82/54/30 80/53/30 84/55/30
