# Merged(arrow/base_geom)

v 0.451501 -0.831057 -0.428958
v 0.451501 0.836631 0.416757
v 0.451501 -0.831057 0.416757
v 0.451501 0.836631 -0.428958
v 0.423923 -0.831057 0.416757
v 0.423923 0.836631 -0.428958
v 0.423923 -0.831057 -0.428958
v 0.423923 0.836631 0.416757
v 0.375662 0.792967 0.49949
v 0.370259 0.792967 0.482861
v 0.36692 0.792967 0.493138
v 0.381066 0.792967 0.482861
v 0.368013 0.76098 0.489775
v 0.370322 0.795265 0.492033
v 0.36692 0.721725 0.493138
v 0.384405 0.792967 0.493138
v 0.370259 0.762613 0.482861
v 0.372362 0.795265 0.485755
v 0.375662 0.721725 0.49949
v 0.375662 0.795265 0.495913
v 0.381003 0.795265 0.492033
v 0.381066 0.762613 0.482861
v 0.375662 0.766538 0.482861
v 0.378963 0.795265 0.485755
v 0.368013 0.76098 0.446633
v 0.370259 0.754066 0.482861
v 0.384405 0.721725 0.493138
v 0.383312 0.76098 0.489775
v 0.375662 0.766538 0.446633
v 0.370259 0.721725 0.482861
v 0.383312 0.76098 0.446633
v 0.370935 0.751987 0.482861
v 0.381066 0.721725 0.482861
v 0.38039 0.751987 0.446633
v 0.370935 0.751987 0.446633
v 0.38039 0.751987 0.482861
v 0.381066 0.754066 0.482861
v 0.375662 0.751987 0.446633
v -0.403407 0.836631 0.416757
v -0.430984 -0.831057 0.416757
v -0.403407 -0.831057 0.416757
v -0.430984 0.836631 0.416757
v -0.403407 0.289928 -0.392188
v 0.423923 0.253158 -0.392188
v -0.403407 0.253158 -0.392188
v 0.423923 0.289928 -0.392188
v -0.403407 0.253158 0.407565
v 0.423923 0.289928 0.407565
v 0.423923 0.253158 0.407565
v -0.403407 0.289928 0.407565
v 0.423923 -0.794287 0.416757
v -0.403407 -0.831057 0.416757
v 0.423923 -0.831057 0.416757
v -0.403407 -0.794287 0.416757
v 0.423923 -0.794287 -0.40138
v 0.423923 0.799862 -0.392188
v 0.423923 -0.794287 -0.392188
v 0.423923 0.799862 -0.40138
v -0.403407 -0.794287 -0.392188
v -0.403407 0.799862 -0.40138
v -0.403407 0.799862 -0.392188
v -0.403407 -0.794287 -0.40138
v -0.403407 -0.831057 -0.428958
v -0.430984 -0.831057 0.416757
v -0.430984 -0.831057 -0.428958
v -0.403407 -0.831057 0.416757
v -0.430984 0.836631 -0.428958
v -0.403407 0.836631 0.416757
v -0.430984 0.836631 0.416757
v -0.403407 0.836631 -0.428958
v -0.403407 -0.25218 -0.392188
v 0.423923 -0.28895 -0.392188
v -0.403407 -0.28895 -0.392188
v 0.423923 -0.25218 -0.392188
v -0.403407 -0.28895 0.407565
v 0.423923 -0.25218 0.407565
v 0.423923 -0.28895 0.407565
v -0.403407 -0.25218 0.407565
v 0.423923 0.799861 -0.40138
v -0.403407 0.61601 -0.40138
v 0.423923 0.61601 -0.40138
v -0.403407 0.799861 -0.40138
v 0.423923 0.61601 -0.428958
v -0.403407 0.799861 -0.428958
v -0.403407 0.61601 -0.428958
v 0.423923 0.799861 -0.428958
v -0.428686 -0.831057 0.446633
v 0.449203 0.832035 0.446633
v -0.428686 0.832035 0.446633
v 0.449203 -0.831057 0.446633
v 0.449203 0.832035 0.419055
v -0.428686 -0.831057 0.419055
v -0.428686 0.832035 0.419055
v 0.449203 -0.831057 0.419055
v 0.423923 0.836631 0.416757
v -0.403407 0.799861 0.416757
v 0.423923 0.799861 0.416757
v -0.403407 0.836631 0.416757
v 0.423923 -0.831057 -0.428958
v 0.423923 -0.794287 0.416757
v 0.423923 -0.831057 0.416757
v 0.423923 -0.794287 -0.428958
v -0.403407 -0.831057 0.416757
v -0.403407 -0.794287 -0.428958
v -0.403407 -0.831057 -0.428958
v -0.403407 -0.794287 0.416757
v 0.372363 0.258354 0.485756
v 0.375662 0.258354 0.495912
v 0.370323 0.258354 0.492032
v 0.378962 0.258354 0.485756
v 0.375662 0.260652 0.49949
v 0.370259 0.260652 0.482861
v 0.381066 0.260652 0.482861
v 0.381002 0.258354 0.492032
v 0.36692 0.260652 0.493138
v 0.375662 0.331894 0.49949
v 0.384405 0.260652 0.493138
v 0.370259 0.291006 0.482861
v 0.375662 0.28708 0.482861
v 0.36692 0.331894 0.493138
v 0.384405 0.331894 0.493138
v 0.368013 0.292638 0.489775
v 0.381066 0.291006 0.482861
v 0.383312 0.292638 0.489775
v 0.375662 0.28708 0.446633
v 0.383312 0.292638 0.446633
v 0.370259 0.331894 0.482861
v 0.381066 0.299552 0.482861
v 0.368013 0.292638 0.446633
v 0.370259 0.299552 0.482861
v 0.381066 0.331894 0.482861
v 0.370935 0.301631 0.446633
v 0.370935 0.301631 0.482861
v 0.38039 0.301631 0.482861
v 0.38039 0.301631 0.446633
v 0.375662 0.301631 0.446633
v 0.451501 0.836631 0.416757
v 0.423923 -0.831057 0.416757
v 0.451501 -0.831057 0.416757
v 0.423923 0.836631 0.416757
v 0.423923 0.836631 0.416757
v -0.403407 0.836631 -0.428958
v -0.403407 0.836631 0.416757
v 0.423923 0.836631 -0.428958
v -0.403407 0.799861 0.416757
v 0.423923 0.799861 -0.428958
v -0.403407 0.799861 -0.428958
v 0.423923 0.799861 0.416757
v 0.423923 -0.610436 -0.40138
v -0.403407 -0.794287 -0.40138
v 0.423923 -0.794287 -0.40138
v -0.403407 -0.610436 -0.40138
v 0.423923 -0.794287 -0.428958
v -0.403407 -0.610436 -0.428958
v -0.403407 -0.794287 -0.428958
v 0.423923 -0.610436 -0.428958
v 0.375662 0.331894 0.49949
v 0.384405 0.721725 0.493138
v 0.375662 0.721725 0.49949
v 0.384405 0.331894 0.493138
v 0.36692 0.331894 0.493138
v 0.381066 0.331894 0.482861
v 0.36692 0.721725 0.493138
v 0.381066 0.721725 0.482861
v 0.370259 0.721725 0.482861
v 0.370259 0.331894 0.482861
vt 0.555556 0.0
vt 0.0 1.679794
vt 0.0 0.0
vt 0.555556 1.679794
vt 0.020833 1.259846
vt 0.0 0.0
vt 0.020833 0.0
vt 0.0 1.259846
vt 0.027778 -0.458333
vt 0.0 0.0
vt 0.0 -0.458333
vt 0.027778 0.0
vt 0.0 0.0
vt -0.555556 1.679794
vt -0.555556 0.0
vt 0.0 1.679794
vt 0.0 0.0
vt 0.662847 1.25637
vt 0.0 1.25637
vt 0.662847 0.0
vt 0.0 0.662847
vt 0.020833 0.0
vt 0.020833 0.662847
vt 0.020833 1.25637
vt -0.020833 0.662847
vt -0.020833 0.0
vt -0.020833 1.25637
vt -0.662847 1.25637
vt -0.662847 0.0
vt 0.027778 -0.458333
vt 0.0 0.0
vt 0.0 -0.458333
vt 0.027778 0.0
vt 0.020833 1.259846
vt 0.0 0.0
vt 0.020833 0.0
vt 0.0 1.259846
vn 1.0 0.0 0.0
vn -1.0 0.0 0.0
vn 0.0 -1.0 0.0
vn 0.0 1.0 0.0
vn 0.0 0.0 -1.0
vn 0.0 0.0 1.0
vn 0.0 0.6991520315202214 0.7149730322334875
vn -0.42025102043890905 0.6991520340032599 -0.5784250281317019
vn -0.6799798771871457 0.6991518737244435 0.2209389600956657
vn 0.4202510204389087 0.6991520340032601 -0.5784250281317019
vn -0.9510565608316645 0.0 -0.3090168573056278
vn -0.34718506290247486 0.930987168674874 0.11280702043820862
vn -0.9510565608316645 0.0 0.3090168573056278
vn 0.6799798771871455 0.6991518737244438 0.2209389600956657
vn -0.5877850844899974 0.0 -0.8090171162905557
vn -0.21457205168590765 0.9309872242552985 -0.2953330711395434
vn 0.0 0.0 1.0
vn 0.0 0.9309871131740588 0.3650520443770069
vn 0.3471850629024744 0.9309871686748742 0.11280702043820862
vn 0.5877850844899974 0.0 -0.8090171162905557
vn 0.0 0.0 -1.0
vn 0.2145720516859073 0.9309872242552987 -0.29533307113954343
vn -0.5877850844899977 0.8090171162905556 0.0
vn -0.9510565608316646 0.30901685730562756 0.0
vn 0.9510565608316645 0.0 0.3090168573056278
vn 0.9510565608316645 0.0 -0.3090168573056278
vn 0.0 1.0 0.0
vn -0.9510565608316643 -0.309016857305628 0.0
vn 0.9510565608316643 0.309016857305628 0.0
vn 0.5877850844899972 0.8090171162905558 0.0
vn -0.5877850844899972 -0.8090171162905558 0.0
vn 0.5877850844899977 -0.8090171162905556 0.0
vn 0.9510565608316646 -0.30901685730562756 0.0
vn 0.0 -1.0 0.0
vn 0.6799798771871457 -0.6991518737244435 -0.2209389600956657
vn 0.42025102043890905 -0.6991520340032599 0.5784250281317019
vn 0.0 -0.6991520315202214 -0.7149730322334875
vn -0.4202510204389087 -0.6991520340032601 0.5784250281317019
vn 0.34718506290247486 -0.930987168674874 -0.11280702043820862
vn -0.6799798771871455 -0.6991518737244438 -0.2209389600956657
vn 0.5877850844899974 0.0 0.8090171162905557
vn 0.21457205168590765 -0.9309872242552985 0.2953330711395434
vn 0.0 -0.9309871131740588 -0.3650520443770069
vn -0.3471850629024744 -0.9309871686748742 -0.11280702043820862
vn -0.5877850844899974 0.0 0.8090171162905557
vn -0.2145720516859073 -0.9309872242552987 0.29533307113954343
vn 0.0 0.0 1.0
vn 0.0 0.0 -1.0
vn 0.0 0.0 -1.0
vn 0.0 0.0 1.0
vn 0.0 -1.0 0.0
vn 0.0 1.0 0.0
vn -1.0 0.0 0.0
vn 1.0 0.0 0.0
vn 0.0 0.0 1.0
vn 0.0 0.0 -1.0
vn 1.0 0.0 0.0
vn -1.0 0.0 0.0
vn 0.0 0.0 1.0
vn 0.0 0.0 -1.0
vn 0.0 -1.0 0.0
vn 0.0 1.0 0.0
vn 0.0 -1.0 0.0
vn 0.0 1.0 0.0
vn 1.0 0.0 0.0
vn 0.0 0.0 -1.0
vn 0.0 0.0 1.0
vn -1.0 0.0 0.0
vn 0.0 0.0 -1.0
vn 0.0 0.0 1.0
vn 0.0 -1.0 0.0
vn 0.0 1.0 0.0
vn -1.0 0.0 0.0
vn 1.0 0.0 0.0
vn 0.0 0.0 1.0
vn 0.0 0.0 -1.0
vn 0.0 -1.0 0.0
vn 0.0 1.0 0.0
vn 1.0 0.0 0.0
vn -1.0 0.0 0.0
vn 0.0 0.0 1.0
vn 0.0 0.0 -1.0
vn 0.0 1.0 0.0
vn 0.0 -1.0 0.0
vn -1.0 0.0 0.0
vn 1.0 0.0 0.0
vn 0.0 0.0 1.0
vn 0.0 0.0 -1.0
vn 1.0 0.0 0.0
vn -1.0 0.0 0.0
vn 0.0 -1.0 0.0
vn 0.0 1.0 0.0
vn 0.0 0.0 -1.0
vn 0.0 0.0 1.0
vn -0.21450107680716488 -0.931034333378782 -0.2952361057162446
vn 0.0 -0.9310344916249793 0.36493119269886526
vn -0.3470701792694292 -0.9310344808999165 0.11277005824823107
vn 0.21450107680716526 -0.931034333378782 -0.2952361057162446
vn 0.0 -0.6992278684804946 0.7148988655328978
vn -0.420206800656252 -0.6992276682903186 -0.5783657256265459
vn 0.4202068006562523 -0.6992276682903183 -0.5783657256265459
vn 0.3470701792694296 -0.9310344808999163 0.11277005824823107
vn -0.6799090260673725 -0.6992280268080535 0.22091600846980947
vn 0.0 0.0 1.0
vn 0.6799090260673727 -0.6992280268080533 0.22091600846980947
vn -0.5877850844899974 0.0 -0.8090171162905557
vn 0.0 0.0 -1.0
vn -0.9510565608316645 0.0 0.3090168573056278
vn 0.9510565608316645 0.0 0.3090168573056278
vn -0.9510565608316645 0.0 -0.3090168573056278
vn 0.5877850844899974 0.0 -0.8090171162905557
vn 0.9510565608316645 0.0 -0.3090168573056278
vn -0.9510565608316643 -0.309016857305628 0.0
vn 0.0 -1.0 0.0
vn -0.5877850844899972 -0.8090171162905558 0.0
vn 0.9510565608316646 -0.30901685730562756 0.0
vn 0.5877850844899977 -0.8090171162905556 0.0
vn 0.9510565608316643 0.309016857305628 0.0
vn -0.5877850844899977 0.8090171162905556 0.0
vn -0.9510565608316646 0.30901685730562756 0.0
vn 0.5877850844899972 0.8090171162905558 0.0
vn 0.0 1.0 0.0
vn 0.3470701792694292 0.9310344808999165 -0.11277005824823107
vn 0.0 0.9310344916249793 -0.36493119269886526
vn 0.21450107680716488 0.931034333378782 0.2952361057162446
vn -0.21450107680716526 0.931034333378782 0.2952361057162446
vn 0.0 0.6992278684804946 -0.7148988655328978
vn 0.420206800656252 0.6992276682903186 0.5783657256265459
vn -0.4202068006562523 0.6992276682903183 0.5783657256265459
vn -0.3470701792694296 0.9310344808999163 -0.11277005824823107
vn 0.6799090260673725 0.6992280268080535 -0.22091600846980947
vn -0.6799090260673727 0.6992280268080533 -0.22091600846980947
vn 0.5877850844899974 0.0 0.8090171162905557
vn -0.5877850844899974 0.0 0.8090171162905557
vn 0.0 0.0 1.0
vn 0.0 0.0 -1.0
vn 0.0 1.0 0.0
vn 0.0 -1.0 0.0
vn -1.0 0.0 0.0
vn 1.0 0.0 0.0
vn 0.0 0.0 -1.0
vn 0.0 0.0 1.0
vn 0.0 0.0 1.0
vn 0.0 0.0 -1.0
vn 0.0 -1.0 0.0
vn 0.0 1.0 0.0
vn 1.0 0.0 0.0
vn -1.0 0.0 0.0
vn 0.0 0.0 1.0
vn 0.9510565608316643 0.0 0.3090168573056277
vn -0.9510565608316643 0.0 0.3090168573056277
vn 0.5877850844899974 0.0 -0.8090171162905556
vn -0.5877850844899974 0.0 -0.8090171162905556
vn 0.0 0.0 -1.0
vn -0.9510565608316643 0.0 -0.3090168573056277
vn 0.9510565608316643 0.0 -0.3090168573056277
vn -0.5877850844899974 0.0 0.8090171162905556
vn 0.5877850844899974 0.0 0.8090171162905556
usemtl base_geom
f 1/1/1 2/2/1 3/3/1
f 2/2/1 1/1/1 4/4/1
f 3//2 2//2 1//2
f 4//2 1//2 2//2
f 5//3 1//3 3//3
f 3//4 1//4 5//4
f 4//6 6//6 1//6
f 6//4 2//4 4//4
f 4//3 2//3 6//3
f 1//3 5//3 7//3
f 7//4 5//4 1//4
f 6//5 1//5 7//5
f 7//6 1//6 6//6
f 2//4 6//4 8//4
f 8//3 6//3 2//3
f 5//2 6//2 7//2
f 7//1 6//1 5//1
f 10//8 13//11 11//9
f 14//12 10//8 11//9
f 15//13 9//7 11//9
f 9//7 14//12 11//9
f 12//10 17//15 10//8
f 18//16 12//10 10//8
f 13//11 10//8 17//15
f 11//9 13//11 15//13
f 10//8 14//12 18//16
f 9//7 15//13 19//17
f 19//17 16//14 9//7
f 12//10 21//19 16//14
f 16//14 22//20 12//10
f 17//23 25//24 13//24
f 26//15 15//13 13//11
f 16//14 19//17 27//25
f 20//18 16//14 21//19
f 22//20 16//14 28//26
f 29//27 17//23 23//27
f 18//16 20//18 24//22
f 25//24 17//23 29//27
f 25//24 26//28 13//24
f 15//13 26//15 30//15
f 27//25 28//26 16//14
f 31//29 22//30 28//29
f 22//30 29//27 23//27
f 25//24 32//31 26//28
f 33//20 28//26 27//25
f 29//27 22//30 31//29
f 28//29 34//32 31//29
f 28//26 33//20 37//20
f 38//34 32//31 35//31
f 36//32 38//34 34//32
f 11//35 13//25 10//36
f 11//35 9//37 15//26
f 11//35 14//39 9//37
f 10//36 17//41 12//38
f 17//41 10//36 13//25
f 15//26 13//25 11//35
f 19//21 15//26 9//37
f 9//37 16//40 19//21
f 9//37 20//43 16//40
f 12//38 22//45 16//40
f 24//46 18//42 12//38
f 13//33 25//33 17//32
f 13//25 15//26 26//41
f 27//11 19//21 16//40
f 21//44 16//40 20//43
f 24//46 12//38 21//44
f 28//13 16//40 22//45
f 12//38 23//17 22//45
f 29//34 17//32 25//33
f 13//33 26//29 25//33
f 30//41 26//41 15//26
f 16//40 28//13 27//11
f 21//44 20//43 24//46
f 28//28 22//31 31//28
f 23//34 29//34 22//31
f 27//11 28//13 33//45
f 31//28 22//31 29//34
f 31//28 34//23 28//28
f 35//30 25//33 32//30
f 37//45 33//45 28//13
f 37//24 28//28 34//23
f 36//23 38//27 32//30
f 40/6/47 39/5/47 42/8/47
f 41//48 40//48 39//48
f 42//48 39//48 40//48
f 51/9/55 52/10/55 53/11/55
f 52/10/55 51/9/55 54/12/55
f 53//56 52//56 51//56
f 54//56 51//56 52//56
f 55//60 60//60 58//60
f 58//59 60//59 55//59
f 60//60 55//60 62//60
f 62//59 55//59 60//59
f 63//63 64//63 65//63
f 64//63 63//63 66//63
f 65//64 64//64 63//64
f 66//64 63//64 64//64
f 65//65 67//65 64//65
f 67//66 63//66 65//66
f 65//67 63//67 67//67
f 69//65 64//65 67//65
f 63//66 67//66 70//66
f 70//67 67//67 63//67
f 68//65 63//65 70//65
f 70//68 63//68 68//68
f 68//64 67//64 69//64
f 69//63 67//63 68//63
f 67//64 68//64 70//64
f 70//63 68//63 67//63
f 64/13/68 67/14/68 65/15/68
f 67/14/68 64/13/68 69/16/68
f 80//77 83//77 81//77
f 81//78 83//78 80//78
f 83//77 80//77 85//77
f 85//78 80//78 83//78
f 84//76 83//76 85//76
f 85//75 83//75 84//75
f 83//76 84//76 86//76
f 86//75 84//75 83//75
f 87/17/81 88/18/81 89/19/81
f 88/18/81 87/17/81 90/20/81
f 89/19/82 88/18/82 87/17/82
f 90/20/82 87/17/82 88/18/82
f 91/21/83 89/22/83 88/23/83
f 88/23/84 89/22/84 91/21/84
f 89/24/85 92/17/85 87/22/85
f 87/22/86 92/17/86 89/24/86
f 92/17/84 90/25/84 87/26/84
f 87/26/83 90/25/83 92/17/83
f 88/27/85 91/19/85 90/26/85
f 89/22/83 91/21/83 93/17/83
f 93/17/84 91/21/84 89/22/84
f 92/17/85 89/24/85 93/19/85
f 93/19/86 89/24/86 92/17/86
f 90/25/84 92/17/84 94/21/84
f 94/21/83 92/17/83 90/25/83
f 91/19/86 90/26/86 94/17/86
f 94/17/85 90/26/85 91/19/85
f 94/29/81 91/28/81 92/17/81
f 92//82 91//82 94//82
f 95/30/87 96/31/87 97/32/87
f 96/31/87 95/30/87 98/33/87
f 97//88 96//88 95//88
f 98//88 95//88 96//88
f 103//91 99//91 101//91
f 101//92 99//92 103//92
f 99//93 104//93 102//93
f 102//94 104//94 99//94
f 99//91 103//91 105//91
f 105//92 103//92 99//92
f 104//93 99//93 105//93
f 105//94 99//94 104//94
f 108//96 107//95 110//98
f 109//97 111//99 115//103
f 112//100 109//97 115//103
f 116//104 115//103 111//99
f 111//99 114//102 117//105
f 115//103 118//106 112//100
f 114//102 113//101 117//105
f 115//103 116//104 120//108
f 111//99 121//109 116//104
f 121//109 111//99 117//105
f 118//106 115//103 122//110
f 113//101 124//112 117//105
f 122//110 115//103 120//108
f 117//105 124//112 121//109
f 118//115 125//114 119//114
f 119//114 126//116 123//117
f 124//112 113//101 123//111
f 127//106 122//110 120//108
f 128//111 121//109 124//112
f 125//114 122//113 129//113
f 126//116 119//114 125//114
f 123//117 126//116 124//116
f 122//110 127//106 130//106
f 122//113 132//119 129//113
f 132//119 122//113 130//120
f 126//116 134//121 128//118
f 134//121 126//116 135//121
f 136//122 134//121 135//121
f 110//126 107//125 108//124
f 108//124 109//123 111//127
f 115//131 109//123 112//128
f 111//127 115//131 116//107
f 117//132 114//130 111//127
f 112//128 118//133 115//131
f 120//112 116//107 115//131
f 116//107 121//110 111//127
f 117//132 111//127 121//110
f 122//109 115//131 118//133
f 117//132 124//108 113//129
f 120//112 115//131 122//109
f 121//110 124//108 117//132
f 118//121 125//122 122//118
f 123//119 126//120 119//122
f 123//134 113//129 124//108
f 120//112 122//109 127//133
f 124//108 121//110 128//134
f 129//118 122//118 125//122
f 125//122 119//122 126//120
f 124//120 126//120 123//119
f 130//133 127//133 122//109
f 131//134 128//134 121//110
f 124//120 128//113 126//120
f 129//118 132//117 122//118
f 130//116 122//118 132//117
f 128//113 134//115 126//120
f 135//115 126//120 134//115
f 133//117 132//117 134//115
f 135//115 134//115 136//114
f 136//114 134//115 132//117
f 138/35/135 137/34/135 140/37/135
f 139//136 138//136 137//136
f 140//136 137//136 138//136
f 141//137 142//137 143//137
f 142//137 141//137 144//137
f 143//138 142//138 141//138
f 144//138 141//138 142//138
f 146//141 142//141 144//141
f 144//142 142//142 146//142
f 142//141 146//141 147//141
f 147//142 146//142 142//142
f 149//146 154//146 152//146
f 152//145 154//145 149//145
f 154//146 149//146 156//146
f 156//145 149//145 154//145
f 154//144 153//144 155//144
f 155//143 153//143 154//143
f 153//144 154//144 156//144
f 156//143 154//143 153//143
f 157//149 158//150 159//149
f 158//150 157//149 160//150
f 159//149 161//151 157//149
f 162//152 158//150 160//150
f 161//151 159//149 163//151
f 158//150 162//152 164//152
f 165//153 161//151 163//151
f 161//151 165//153 166//153
f 159//154 158//155 157//154
f 160//155 157//154 158//155
f 157//154 161//156 159//154
f 160//155 158//155 162//157
f 163//156 159//154 161//156
f 164//157 162//157 158//155
f 163//156 161//156 165//158
f 166//158 165//158 161//156
