# Merged(arrow/base_geom)

v -0.248618 0.949262 -0.249641
v -0.248618 -0.938671 0.229061
v -0.248618 0.949262 0.229061
v -0.248618 -0.938671 -0.249641
v -0.233008 0.949262 0.229061
v -0.233008 -0.938671 -0.249641
v -0.233008 0.949262 -0.249641
v -0.233008 -0.938671 0.229061
v -0.205691 0.133405 0.275891
v -0.210639 -0.087252 0.272296
v -0.205691 -0.087252 0.275891
v -0.210639 0.133405 0.272296
v -0.200742 0.133405 0.272296
v -0.208749 0.133405 0.266478
v -0.200742 -0.087252 0.272296
v -0.208749 -0.087252 0.266478
v -0.202632 -0.087252 0.266478
v -0.202632 0.133405 0.266478
v 0.235288 -0.93867 0.229061
v 0.250898 0.949262 0.229061
v 0.235288 0.949262 0.229061
v 0.250898 -0.93867 0.229061
v -0.203823 0.175032 0.268117
v -0.205691 0.175032 0.273865
v -0.202668 0.175032 0.27167
v -0.207558 0.175032 0.268117
v -0.205691 0.173731 0.275891
v -0.202632 0.173731 0.266478
v -0.208749 0.173731 0.266478
v -0.208713 0.175032 0.27167
v -0.200742 0.173731 0.272296
v -0.205691 0.133405 0.275891
v -0.210639 0.173731 0.272296
v -0.202632 0.156549 0.266478
v -0.205691 0.158771 0.266478
v -0.200742 0.133405 0.272296
v -0.210639 0.133405 0.272296
v -0.201361 0.155625 0.270392
v -0.208749 0.156549 0.266478
v -0.210021 0.155625 0.270392
v -0.205691 0.158771 0.245972
v -0.210021 0.155625 0.245972
v -0.202632 0.133405 0.266478
v -0.208749 0.151712 0.266478
v -0.201361 0.155625 0.245972
v -0.202632 0.151712 0.266478
v -0.208749 0.133405 0.266478
v -0.203014 0.150535 0.245972
v -0.203014 0.150535 0.266478
v -0.208367 0.150535 0.266478
v -0.208367 0.150535 0.245972
v -0.205691 0.150535 0.245972
v -0.233008 0.928449 0.229061
v 0.235288 0.949262 0.229061
v -0.233008 0.949262 0.229061
v 0.235288 0.928449 0.229061
v -0.233008 0.928449 -0.234031
v -0.233008 -0.917858 -0.228828
v -0.233008 0.928449 -0.228828
v -0.233008 -0.917858 -0.234031
v 0.235288 0.928449 -0.228828
v 0.235288 -0.917858 -0.234031
v 0.235288 -0.917858 -0.228828
v 0.235288 0.928449 -0.234031
v -0.233008 0.824383 -0.234031
v 0.235288 0.928449 -0.234031
v -0.233008 0.928449 -0.234031
v 0.235288 0.824383 -0.234031
v -0.233008 0.928449 -0.249641
v 0.235288 0.824383 -0.249641
v 0.235288 0.928449 -0.249641
v -0.233008 0.824383 -0.249641
v 0.235288 -0.00381 -0.228828
v -0.233008 0.017003 -0.228828
v 0.235288 0.017003 -0.228828
v -0.233008 -0.00381 -0.228828
v 0.235288 0.017003 0.223858
v -0.233008 -0.00381 0.223858
v -0.233008 0.017003 0.223858
v 0.235288 -0.00381 0.223858
v 0.249597 0.949262 0.245972
v -0.247317 -0.936069 0.245972
v 0.249597 -0.936069 0.245972
v -0.247317 0.949262 0.245972
v -0.247317 -0.936069 0.230362
v 0.249597 0.949262 0.230362
v 0.249597 -0.936069 0.230362
v -0.247317 0.949262 0.230362
v 0.235288 0.949262 -0.249641
v 0.250898 0.949262 0.229061
v 0.250898 0.949262 -0.249641
v 0.235288 0.949262 0.229061
v 0.250898 -0.938671 -0.249641
v 0.235288 -0.938671 0.229061
v 0.250898 -0.938671 0.229061
v 0.235288 -0.938671 -0.249641
v 0.235288 -0.46994 -0.228828
v -0.233008 -0.449127 -0.228828
v 0.235288 -0.449127 -0.228828
v -0.233008 -0.46994 -0.228828
v 0.235288 -0.449127 0.223858
v -0.233008 -0.46994 0.223858
v -0.233008 -0.449127 0.223858
v 0.235288 -0.46994 0.223858
v -0.233008 -0.917858 -0.234031
v 0.235288 -0.813792 -0.234031
v -0.233008 -0.813792 -0.234031
v 0.235288 -0.917858 -0.234031
v -0.233008 -0.813792 -0.249641
v 0.235288 -0.917858 -0.249641
v 0.235288 -0.813792 -0.249641
v -0.233008 -0.917858 -0.249641
v -0.233008 -0.938671 0.229061
v 0.235288 -0.917858 0.229061
v -0.233008 -0.917858 0.229061
v 0.235288 -0.938671 0.229061
v 0.235288 0.462319 -0.228828
v -0.233008 0.483132 -0.228828
v 0.235288 0.483132 -0.228828
v -0.233008 0.462319 -0.228828
v 0.235288 0.483132 0.223858
v -0.233008 0.462319 0.223858
v -0.233008 0.483132 0.223858
v 0.235288 0.462319 0.223858
v -0.233008 0.949262 -0.249641
v -0.233008 0.928449 0.229061
v -0.233008 0.949262 0.229061
v -0.233008 0.928449 -0.249641
v 0.235288 0.949262 0.229061
v 0.235288 0.928449 -0.249641
v 0.235288 0.949262 -0.249641
v 0.235288 0.928449 0.229061
v -0.205691 -0.127577 0.275891
v -0.202632 -0.127577 0.266478
v -0.200742 -0.127577 0.272296
v -0.208749 -0.127577 0.266478
v -0.201361 -0.109472 0.270392
v -0.202668 -0.128878 0.27167
v -0.200742 -0.087252 0.272296
v -0.210639 -0.127577 0.272296
v -0.202632 -0.110396 0.266478
v -0.203822 -0.128878 0.268116
v -0.205691 -0.087252 0.275891
v -0.205691 -0.128878 0.273866
v -0.208714 -0.128878 0.27167
v -0.208749 -0.110396 0.266478
v -0.205691 -0.112618 0.266478
v -0.207559 -0.128878 0.268116
v -0.201361 -0.109472 0.245972
v -0.202632 -0.105558 0.266478
v -0.210639 -0.087252 0.272296
v -0.210021 -0.109472 0.270392
v -0.205691 -0.112618 0.245972
v -0.202632 -0.087252 0.266478
v -0.210021 -0.109472 0.245972
v -0.203014 -0.104381 0.266478
v -0.208749 -0.087252 0.266478
v -0.208367 -0.104381 0.245972
v -0.203014 -0.104381 0.245972
v -0.208367 -0.104381 0.266478
v -0.208749 -0.105558 0.266478
v -0.205691 -0.104381 0.245972
v -0.248618 -0.93867 0.229061
v -0.233008 0.949262 0.229061
v -0.248618 0.949262 0.229061
v -0.233008 -0.93867 0.229061
v -0.233008 -0.938671 0.229061
v 0.235288 -0.938671 -0.249641
v 0.235288 -0.938671 0.229061
v -0.233008 -0.938671 -0.249641
v 0.235288 -0.917858 0.229061
v -0.233008 -0.917858 -0.249641
v 0.235288 -0.917858 -0.249641
v -0.233008 -0.917858 0.229061
v -0.233008 -0.046737 -0.234031
v 0.235288 0.057328 -0.234031
v -0.233008 0.057328 -0.234031
v 0.235288 -0.046737 -0.234031
v -0.233008 0.057328 -0.249641
v 0.235288 -0.046737 -0.249641
v 0.235288 0.057328 -0.249641
v -0.233008 -0.046737 -0.249641
vt 0.555556 0.0
vt 0.0 3.359588
vt 0.0 0.0
vt 0.555556 3.359588
vt 0.020833 2.519691
vt 0.0 0.0
vt 0.020833 0.0
vt 0.0 2.519691
vt 0.027778 -0.458333
vt 0.0 0.0
vt 0.0 -0.458333
vt 0.027778 0.0
vt 0.0 0.0
vt 0.662847 2.516213
vt 0.0 2.516213
vt 0.662847 0.0
vt 0.0 0.662847
vt 0.020833 0.0
vt 0.020833 0.662847
vt 0.020833 2.516213
vt -0.020833 0.662847
vt -0.020833 0.0
vt -0.020833 2.516213
vt -0.662847 2.516213
vt -0.662847 0.0
vt 0.0 0.0
vt -0.555556 3.359588
vt -0.555556 0.0
vt 0.0 3.359588
vt 0.027778 -0.458333
vt 0.0 0.0
vt 0.0 -0.458333
vt 0.027778 0.0
vt 0.020833 2.519691
vt 0.0 0.0
vt 0.020833 0.0
vt 0.0 2.519691
vn -1.0 0.0 0.0
vn 1.0 0.0 0.0
vn 0.0 1.0 0.0
vn 0.0 -1.0 0.0
vn 0.0 0.0 -1.0
vn 0.0 0.0 1.0
vn 0.0 0.0 1.0
vn -0.9510565608316643 0.0 0.3090168573056277
vn 0.9510565608316643 0.0 0.3090168573056277
vn -0.5877850844899974 0.0 -0.8090171162905556
vn 0.5877850844899974 0.0 -0.8090171162905556
vn 0.0 0.0 -1.0
vn 0.9510565608316643 0.0 -0.3090168573056277
vn -0.9510565608316643 0.0 -0.3090168573056277
vn 0.5877850844899974 0.0 0.8090171162905556
vn -0.5877850844899974 0.0 0.8090171162905556
vn 0.0 0.0 1.0
vn 0.0 0.0 -1.0
vn 0.21450107680716488 0.931034333378782 -0.2952361057162446
vn 0.0 0.9310344916249793 0.36493119269886526
vn 0.3470701792694292 0.9310344808999165 0.11277005824823107
vn -0.21450107680716526 0.931034333378782 -0.2952361057162446
vn 0.0 0.6992278684804946 0.7148988655328978
vn 0.420206800656252 0.6992276682903186 -0.5783657256265459
vn -0.4202068006562523 0.6992276682903183 -0.5783657256265459
vn -0.3470701792694296 0.9310344808999163 0.11277005824823107
vn 0.6799090260673725 0.6992280268080535 0.22091600846980947
vn 0.0 0.0 1.0
vn -0.6799090260673727 0.6992280268080533 0.22091600846980947
vn 0.5877850844899974 0.0 -0.8090171162905557
vn 0.0 0.0 -1.0
vn 0.9510565608316645 0.0 0.3090168573056278
vn -0.9510565608316645 0.0 0.3090168573056278
vn 0.9510565608316645 0.0 -0.3090168573056278
vn -0.5877850844899974 0.0 -0.8090171162905557
vn -0.9510565608316645 0.0 -0.3090168573056278
vn 0.9510565608316643 0.309016857305628 0.0
vn 0.0 1.0 0.0
vn 0.5877850844899972 0.8090171162905558 0.0
vn -0.9510565608316646 0.30901685730562756 0.0
vn -0.5877850844899977 0.8090171162905556 0.0
vn -0.9510565608316643 -0.309016857305628 0.0
vn 0.5877850844899977 -0.8090171162905556 0.0
vn 0.9510565608316646 -0.30901685730562756 0.0
vn -0.5877850844899972 -0.8090171162905558 0.0
vn 0.0 -1.0 0.0
vn -0.3470701792694292 -0.9310344808999165 -0.11277005824823107
vn 0.0 -0.9310344916249793 -0.36493119269886526
vn -0.21450107680716488 -0.931034333378782 0.2952361057162446
vn 0.21450107680716526 -0.931034333378782 0.2952361057162446
vn 0.0 -0.6992278684804946 -0.7148988655328978
vn -0.420206800656252 -0.6992276682903186 0.5783657256265459
vn 0.4202068006562523 -0.6992276682903183 0.5783657256265459
vn 0.3470701792694296 -0.9310344808999163 -0.11277005824823107
vn -0.6799090260673725 -0.6992280268080535 -0.22091600846980947
vn 0.6799090260673727 -0.6992280268080533 -0.22091600846980947
vn -0.5877850844899974 0.0 0.8090171162905557
vn 0.5877850844899974 0.0 0.8090171162905557
vn 0.0 0.0 1.0
vn 0.0 0.0 -1.0
vn -1.0 0.0 0.0
vn 1.0 0.0 0.0
vn 0.0 0.0 1.0
vn 0.0 0.0 -1.0
vn 0.0 1.0 0.0
vn 0.0 -1.0 0.0
vn 0.0 0.0 1.0
vn 0.0 0.0 -1.0
vn 0.0 1.0 0.0
vn 0.0 -1.0 0.0
vn -1.0 0.0 0.0
vn 1.0 0.0 0.0
vn 0.0 0.0 -1.0
vn 0.0 0.0 1.0
vn 0.0 1.0 0.0
vn 0.0 -1.0 0.0
vn 1.0 0.0 0.0
vn -1.0 0.0 0.0
vn 0.0 0.0 1.0
vn 0.0 0.0 -1.0
vn 0.0 -1.0 0.0
vn 0.0 1.0 0.0
vn 1.0 0.0 0.0
vn -1.0 0.0 0.0
vn 0.0 1.0 0.0
vn 0.0 -1.0 0.0
vn -1.0 0.0 0.0
vn 0.0 0.0 -1.0
vn 0.0 0.0 1.0
vn 1.0 0.0 0.0
vn 0.0 0.0 -1.0
vn 0.0 0.0 1.0
vn 0.0 1.0 0.0
vn 0.0 -1.0 0.0
vn 1.0 0.0 0.0
vn -1.0 0.0 0.0
vn 0.0 0.0 1.0
vn 0.0 0.0 -1.0
vn 0.0 1.0 0.0
vn 0.0 -1.0 0.0
vn -1.0 0.0 0.0
vn 1.0 0.0 0.0
vn 0.0 0.0 1.0
vn 0.0 0.0 -1.0
vn 0.0 0.0 -1.0
vn 0.0 0.0 1.0
vn 0.0 1.0 0.0
vn 0.0 -1.0 0.0
vn 1.0 0.0 0.0
vn -1.0 0.0 0.0
vn -1.0 0.0 0.0
vn 1.0 0.0 0.0
vn 0.0 1.0 0.0
vn 0.0 -1.0 0.0
vn 0.0 0.0 -1.0
vn 0.0 0.0 1.0
vn 0.0 -0.6991520315202214 0.7149730322334875
vn 0.42025102043890905 -0.6991520340032599 -0.5784250281317019
vn 0.6799798771871457 -0.6991518737244435 0.2209389600956657
vn -0.4202510204389087 -0.6991520340032601 -0.5784250281317019
vn 0.9510565608316645 0.0 -0.3090168573056278
vn 0.34718506290247486 -0.930987168674874 0.11280702043820862
vn 0.9510565608316645 0.0 0.3090168573056278
vn -0.6799798771871455 -0.6991518737244438 0.2209389600956657
vn 0.5877850844899974 0.0 -0.8090171162905557
vn 0.21457205168590765 -0.9309872242552985 -0.2953330711395434
vn 0.0 0.0 1.0
vn 0.0 -0.9309871131740588 0.3650520443770069
vn -0.3471850629024744 -0.9309871686748742 0.11280702043820862
vn -0.5877850844899974 0.0 -0.8090171162905557
vn 0.0 0.0 -1.0
vn -0.2145720516859073 -0.9309872242552987 -0.29533307113954343
vn 0.5877850844899977 -0.8090171162905556 0.0
vn 0.9510565608316646 -0.30901685730562756 0.0
vn -0.9510565608316645 0.0 0.3090168573056278
vn -0.9510565608316645 0.0 -0.3090168573056278
vn 0.0 -1.0 0.0
vn 0.9510565608316643 0.309016857305628 0.0
vn -0.9510565608316643 -0.309016857305628 0.0
vn -0.5877850844899972 -0.8090171162905558 0.0
vn 0.5877850844899972 0.8090171162905558 0.0
vn -0.5877850844899977 0.8090171162905556 0.0
vn -0.9510565608316646 0.30901685730562756 0.0
vn 0.0 1.0 0.0
vn -0.6799798771871457 0.6991518737244435 -0.2209389600956657
vn -0.42025102043890905 0.6991520340032599 0.5784250281317019
vn 0.0 0.6991520315202214 -0.7149730322334875
vn 0.4202510204389087 0.6991520340032601 0.5784250281317019
vn -0.34718506290247486 0.930987168674874 -0.11280702043820862
vn 0.6799798771871455 0.6991518737244438 -0.2209389600956657
vn -0.5877850844899974 0.0 0.8090171162905557
vn -0.21457205168590765 0.9309872242552985 0.2953330711395434
vn 0.0 0.9309871131740588 -0.3650520443770069
vn 0.3471850629024744 0.9309871686748742 -0.11280702043820862
vn 0.5877850844899974 0.0 0.8090171162905557
vn 0.2145720516859073 0.9309872242552987 0.29533307113954343
vn 0.0 0.0 1.0
vn 0.0 0.0 -1.0
vn 0.0 -1.0 0.0
vn 0.0 1.0 0.0
vn 1.0 0.0 0.0
vn -1.0 0.0 0.0
vn 0.0 0.0 -1.0
vn 0.0 0.0 1.0
vn 0.0 0.0 1.0
vn 0.0 0.0 -1.0
vn 0.0 1.0 0.0
vn 0.0 -1.0 0.0
vn -1.0 0.0 0.0
vn 1.0 0.0 0.0
usemtl base_geom
f 1/1/1 2/2/1 3/3/1
f 2/2/1 1/1/1 4/4/1
f 3//2 2//2 1//2
f 4//2 1//2 2//2
f 5//3 1//3 3//3
f 3//4 1//4 5//4
f 4//6 6//6 1//6
f 6//4 2//4 4//4
f 4//3 2//3 6//3
f 1//3 5//3 7//3
f 7//4 5//4 1//4
f 7//6 1//6 6//6
f 2//4 6//4 8//4
f 8//3 6//3 2//3
f 5//2 6//2 7//2
f 7//1 6//1 5//1
f 9//7 10//8 11//7
f 10//8 9//7 12//8
f 11//7 13//9 9//7
f 14//10 10//8 12//8
f 13//9 11//7 15//9
f 10//8 14//10 16//10
f 17//11 13//9 15//9
f 13//9 17//11 18//11
f 11//12 10//13 9//12
f 12//13 9//12 10//13
f 9//12 13//14 11//12
f 12//13 10//13 14//15
f 15//14 11//12 13//14
f 16//15 14//15 10//13
f 15//14 13//14 17//16
f 21//18 20//18 19//18
f 22//18 19//18 20//18
f 31//27 32//28 36//32
f 27//23 37//33 32//28
f 37//33 27//23 33//29
f 38//34 31//27 36//32
f 33//29 40//36 37//33
f 35//38 42//40 39//41
f 41//38 38//37 45//37
f 42//40 35//38 41//38
f 37//33 44//35 47//35
f 48//43 38//37 46//44
f 42//40 50//45 44//42
f 50//45 42//40 51//45
f 50//45 48//43 49//43
f 48//43 50//45 52//46
f 26//50 23//49 24//48
f 23//49 28//52 25//47
f 27//51 31//55 32//31
f 33//56 30//54 27//51
f 36//36 32//31 31//55
f 32//31 37//34 27//51
f 33//56 27//51 37//34
f 36//36 31//55 38//33
f 37//34 40//32 33//56
f 39//43 42//44 35//46
f 40//44 44//37 42//44
f 45//42 48//41 38//42
f 51//39 42//44 50//39
f 53/9/59 54/10/59 55/11/59
f 54/10/59 53/9/59 56/12/59
f 55//60 54//60 53//60
f 57//64 62//64 60//64
f 60//63 62//63 57//63
f 62//64 57//64 64//64
f 64//63 57//63 62//63
f 65//70 70//70 68//70
f 68//69 70//69 65//69
f 70//70 65//70 72//70
f 72//69 65//69 70//69
f 70//68 69//68 71//68
f 71//67 69//67 70//67
f 69//68 70//68 72//68
f 72//67 70//67 69//67
f 81/13/79 82/14/79 83/15/79
f 82/14/79 81/13/79 84/16/79
f 83/15/80 82/14/80 81/13/80
f 84/16/80 81/13/80 82/14/80
f 85/17/81 83/18/81 82/19/81
f 82/19/82 83/18/82 85/17/82
f 83/20/83 86/13/83 81/18/83
f 81/18/84 86/13/84 83/20/84
f 86/13/82 84/21/82 81/22/82
f 81/22/81 84/21/81 86/13/81
f 82/23/83 85/15/83 84/22/83
f 83/18/81 85/17/81 87/13/81
f 87/13/82 85/17/82 83/18/82
f 87/15/84 83/20/84 86/13/84
f 84/21/82 86/13/82 88/17/82
f 88/17/81 86/13/81 84/21/81
f 85/15/84 84/22/84 88/13/84
f 88/13/83 84/22/83 85/15/83
f 87/15/79 86/13/79 85/24/79
f 88/25/79 85/24/79 86/13/79
f 85//80 86//80 87//80
f 86//80 85//80 88//80
f 89//85 90//85 91//85
f 90//85 89//85 92//85
f 91//86 90//86 89//86
f 92//86 89//86 90//86
f 91//87 93//87 90//87
f 93//88 89//88 91//88
f 91//89 89//89 93//89
f 95//87 90//87 93//87
f 96//89 93//89 89//89
f 94//87 89//87 96//87
f 96//90 89//90 94//90
f 94//86 93//86 95//86
f 95//85 93//85 94//85
f 93//86 94//86 96//86
f 96//85 94//85 93//85
f 90/26/90 93/27/90 91/28/90
f 93/27/90 90/26/90 95/29/90
f 107//100 109//100 106//100
f 109//99 106//99 111//99
f 111//100 106//100 109//100
f 110//98 109//98 111//98
f 111//97 109//97 110//97
f 109//98 110//98 112//98
f 112//97 110//97 109//97
f 113/30/103 114/31/103 115/32/103
f 114/31/103 113/30/103 116/33/103
f 116//104 113//104 114//104
f 129//113 125//113 127//113
f 127//114 125//114 129//114
f 125//115 130//115 128//115
f 128//116 130//116 125//116
f 125//113 129//113 131//113
f 131//114 129//114 125//114
f 130//115 125//115 131//115
f 131//116 125//116 130//116
f 138//122 134//118 135//119
f 139//123 133//117 135//119
f 135//119 137//121 139//123
f 133//117 139//123 143//127
f 143//127 140//124 133//117
f 144//128 140//124 145//129
f 149//134 141//133 153//137
f 139//123 150//125 154//125
f 151//135 152//136 140//124
f 148//132 144//128 145//129
f 146//140 153//137 147//137
f 149//134 156//141 150//138
f 153//137 146//140 155//139
f 156//141 149//134 159//141
f 158//142 152//139 161//143
f 162//144 156//141 159//141
f 156//141 162//144 160//142
f 135//145 138//149 133//147
f 139//136 137//135 135//145
f 143//131 139//136 133//147
f 133//147 140//150 143//131
f 133//147 144//153 140//150
f 151//121 143//131 140//150
f 148//156 144//153 142//152
f 140//150 152//123 151//121
f 147//144 153//144 146//141
f 155//138 146//141 153//144
f 155//138 158//133 152//138
f 159//140 149//143 156//140
f 161//155 157//155 152//123
f 161//134 152//138 158//133
f 160//133 162//137 156//140
f 158//133 162//137 160//133
f 164/35/157 163/34/157 166/37/157
f 165//158 164//158 163//158
f 166//158 163//158 164//158
f 167//159 168//159 169//159
f 168//159 167//159 170//159
f 169//160 168//160 167//160
f 170//160 167//160 168//160
f 172//163 168//163 170//163
f 170//164 168//164 172//164
f 168//163 172//163 173//163
f 173//164 172//164 168//164
f 176//167 179//167 177//167
f 177//168 179//168 176//168
f 178//167 180//167 175//167
f 181//168 176//168 179//168
f 180//168 175//168 182//168
f 182//167 175//167 180//167
f 180//166 179//166 181//166
f 181//165 179//165 180//165
f 179//166 180//166 182//166
f 182//165 180//165 179//165
