# Merged(arrow/base_geom)

v 0.515998 -0.635909 0.466585
v -0.502741 -0.635909 0.466585
v -0.502741 -0.635909 0.50948
v 0.515998 -0.635909 0.50948
v 0.515998 0.687499 0.50948
v 0.376937 -0.453608 0.50948
v -0.502741 0.687499 0.50948
v 0.387315 -0.444114 0.50948
v -0.363681 -0.453608 0.50948
v -0.473899 0.111796 0.50948
v 0.387315 0.495703 0.50948
v 0.376937 -0.453608 0.466585
v -0.363681 -0.453608 0.466585
v -0.374058 -0.444114 0.50948
v -0.473899 0.583633 0.50948
v -0.44709 0.594357 0.50948
v 0.366151 0.505198 0.50948
v 0.387315 -0.444114 0.466585
v -0.374058 -0.444114 0.466585
v -0.470123 0.108631 0.50948
v -0.473899 0.111796 0.520203
v -0.470123 0.586798 0.50948
v -0.452007 0.594045 0.50948
v -0.442172 0.594045 0.50948
v -0.352895 0.505198 0.50948
v 0.387315 0.495703 0.466585
v -0.374058 0.495703 0.50948
v -0.465976 0.105969 0.50948
v -0.473899 0.583633 0.520203
v -0.470123 0.586798 0.520203
v -0.465976 0.58946 0.50948
v -0.456845 0.593113 0.50948
v -0.44709 0.594357 0.520203
v -0.437334 0.593113 0.50948
v -0.442172 0.594045 0.520203
v -0.420281 0.583633 0.50948
v 0.366151 0.505198 0.466585
v -0.374058 0.495703 0.466585
v -0.420281 0.111796 0.50948
v -0.461527 0.103853 0.50948
v -0.470123 0.108631 0.520203
v -0.473899 0.216553 0.535379
v -0.465976 0.58946 0.520203
v -0.461527 0.591577 0.50948
v -0.452007 0.594045 0.520203
v -0.432653 0.591577 0.50948
v -0.437334 0.593113 0.520203
v -0.424057 0.586798 0.50948
v -0.352895 0.505198 0.466585
v -0.424057 0.108631 0.50948
v -0.456845 0.102317 0.50948
v -0.465976 0.105969 0.520203
v -0.424057 0.108631 0.520203
v -0.473899 0.469157 0.535379
v -0.420281 0.111796 0.520203
v -0.424057 0.586798 0.520203
v -0.428203 0.58946 0.520203
v -0.461527 0.591577 0.520203
v -0.456845 0.593113 0.520203
v -0.428203 0.58946 0.50948
v -0.432653 0.591577 0.520203
v -0.420281 0.583633 0.520203
v -0.428203 0.105969 0.50948
v -0.452007 0.101385 0.50948
v -0.461527 0.103853 0.520203
v -0.428203 0.105969 0.520203
v -0.420281 0.216553 0.535379
v -0.432653 0.103853 0.50948
v -0.44709 0.101073 0.50948
v -0.456845 0.102317 0.520203
v -0.432653 0.103853 0.520203
v -0.437334 0.102317 0.50948
v -0.442172 0.101385 0.50948
v -0.452007 0.101385 0.520203
v -0.437334 0.102317 0.520203
v -0.44709 0.101073 0.520203
v -0.442172 0.101385 0.520203
v -0.473899 0.111796 0.50948
v -0.473899 0.583633 0.50948
v -0.473899 0.111796 0.520203
v -0.473899 0.583633 0.520203
v -0.420281 0.583633 0.50948
v -0.420281 0.111796 0.50948
v -0.473899 0.216553 0.535379
v -0.473899 0.469157 0.535379
v -0.420281 0.111796 0.520203
v -0.420281 0.583633 0.520203
v -0.473899 0.347715 0.54165
v -0.420281 0.216553 0.535379
v -0.420281 0.347715 0.54165
v -0.420281 0.469157 0.535379
v 0.387315 -0.803077 -0.3913
v -0.374058 -0.803077 0.39152
v -0.374058 -0.803077 -0.3913
v 0.387315 -0.803077 0.39152
v -0.374058 -0.744421 -0.3913
v 0.387315 -0.744421 0.39152
v -0.374058 -0.744421 0.39152
v 0.387315 -0.744421 -0.3913
v -0.374058 -0.744421 -0.3913
v 0.387315 -0.744421 0.39152
v -0.374058 -0.744421 0.39152
v 0.387315 -0.744421 -0.3913
v -0.502741 -0.744421 0.466585
v 0.515998 -0.744421 -0.519983
v 0.515998 -0.744421 0.466585
v -0.502741 -0.744421 -0.519983
v 0.515998 -0.635909 0.466585
v -0.502741 -0.635909 -0.519983
v -0.502741 -0.635909 0.466585
v 0.515998 -0.635909 -0.519983
v -0.502741 -0.635909 0.50948
v -0.502741 0.687499 -0.519983
v 0.515998 0.687499 -0.519983
v 0.515998 0.687499 0.50948
v -0.502741 0.687499 0.50948
v 0.376937 -0.453608 0.50948
v -0.363681 -0.453608 0.50948
v 0.376937 -0.453608 0.466585
v -0.363681 -0.453608 0.466585
v 0.387315 -0.444114 0.466585
v -0.374058 -0.444114 0.466585
v 0.387315 0.495703 0.466585
v 0.366151 0.505198 0.466585
v -0.374058 0.495703 0.466585
v -0.352895 0.505198 0.466585
vt 0.003906 0.988577
vt 0.999119 0.958646
vt 0.999119 0.988577
vt 0.003906 0.958646
vt 1.998237 1.072915
vt 1.861855 1.200622
vt 0.999118 1.072914
vt 1.872033 1.207273
vt 1.998238 2.0
vt 1.135501 1.200621
vt 1.027406 1.596704
vt 0.999119 2.0
vt 1.872033 1.865642
vt 1.125323 1.207273
vt 1.027406 1.927239
vt 1.053699 1.934752
vt 1.851277 1.872293
vt 1.031109 1.594487
vt 1.031109 1.929457
vt 1.048876 1.934533
vt 1.058521 1.934533
vt 1.146079 1.872293
vt 1.035175 1.592622
vt 0.999118 1.348568
vt 1.009635 1.352019
vt 0.999118 1.352019
vt 0.999119 1.595318
vt 1.009636 1.598769
vt 0.999119 1.598769
vt 1.035176 1.931321
vt 1.044131 1.93388
vt 0.999118 1.053304
vt 1.009635 1.056756
vt 0.999118 1.056756
vt 1.063266 1.93388
vt 0.999118 0.978942
vt 0.988601 0.97549
vt 0.999118 0.97549
vt 1.079991 1.927239
vt 1.876137 1.867707
vt 1.079991 1.596704
vt 1.125323 1.865642
vt 1.039539 1.591139
vt 0.999118 1.278188
vt 1.009635 1.281639
vt 0.999118 1.281639
vt 1.009635 1.348568
vt 1.009636 1.595318
vt 1.009636 1.504522
vt 0.999119 1.501071
vt 1.009636 1.501071
vt 0.999119 1.504522
vt 1.03954 1.932804
vt 0.999118 1.17234
vt 1.009635 1.175792
vt 0.999118 1.175792
vt 1.009635 1.053304
vt 0.988601 0.978942
vt 1.067858 1.932804
vt 0.999118 1.099228
vt 0.988601 1.095776
vt 0.999118 1.095776
vt 0.988601 1.099228
vt 1.076288 1.929457
vt 1.126131 1.867707
vt 1.855289 1.874388
vt 1.076288 1.594487
vt 1.044131 1.590063
vt 0.999118 1.202601
vt 1.009635 1.206052
vt 0.999118 1.206052
vt 1.009635 1.278188
vt 1.079991 1.59116
vt 1.027406 1.665311
vt 1.027406 1.59116
vt 1.072222 1.931321
vt 1.009635 1.401488
vt 0.999118 1.398036
vt 1.009635 1.398036
vt 0.999118 1.401488
vt 0.999118 1.28787
vt 1.009635 1.291321
vt 0.999118 1.291321
vt 1.009635 1.17234
vt 0.999118 1.217237
vt 0.988601 1.213786
vt 0.999118 1.213786
vt 0.988601 1.217237
vt 0.999119 1.539013
vt 0.988602 1.535561
vt 0.999119 1.535561
vt 1.072221 1.592622
vt 0.999118 1.411776
vt 0.988601 1.408324
vt 0.999118 1.408324
vt 1.048876 1.58941
vt 0.999118 1.123021
vt 1.009635 1.126473
vt 0.999118 1.126473
vt 1.009635 1.202601
vt 1.027406 1.836932
vt 1.079991 1.917827
vt 1.027406 1.917827
vt 1.079991 1.665311
vt 1.009635 1.28787
vt 0.999118 1.331074
vt 0.988601 1.327623
vt 0.999118 1.327623
vt 0.988601 1.331074
vt 0.999118 1.438911
vt 0.988601 1.435459
vt 0.999118 1.435459
vt 0.988602 1.539013
vt 1.067857 1.591139
vt 0.999118 1.347251
vt 0.988601 1.3438
vt 0.999118 1.3438
vt 0.988601 1.411776
vt 0.988601 1.347251
vt 1.053698 1.589192
vt 0.999118 1.040727
vt 1.009635 1.044179
vt 0.999118 1.044179
vt 1.009635 1.123021
vt 0.988601 1.438911
vt 1.063266 1.590063
vt 0.999118 1.276466
vt 0.988601 1.273014
vt 0.999118 1.273014
vt 0.988601 1.276466
vt 1.058521 1.58941
vt 0.999118 0.957042
vt 1.009635 0.960493
vt 0.999118 0.960493
vt 1.009635 1.040727
vt 0.999118 1.200557
vt 0.988601 1.197105
vt 0.999118 1.197105
vt 0.988601 1.200557
vt 0.999118 1.038308
vt 0.988601 1.034856
vt 0.999118 1.034856
vt 1.009635 0.957042
vt 0.999118 1.120743
vt 0.988601 1.117292
vt 0.999118 1.117292
vt 0.988601 1.120743
vt 0.988601 1.038308
vt 1.009636 1.596704
vt 0.999119 1.927239
vt 0.999119 1.596704
vt 1.009636 1.927239
vt 1.024519 1.670089
vt 1.024519 1.847045
vt 0.988602 1.927239
vt 1.03067 1.761972
vt 1.027406 1.836932
vt 1.079991 1.917827
vt 0.988602 1.596704
vt 1.027406 1.67014
vt 1.079991 1.762128
vt 1.027406 1.762128
vt 1.027406 1.759736
vt 1.079991 1.844924
vt 1.027406 1.844924
vt 1.079991 1.836932
vt 0.973718 1.847045
vt 0.973718 1.670089
vt 1.079991 1.67014
vt 1.079991 1.759736
vt 0.967568 1.761972
vt 1.868621 0.999576
vt 1.12483 0.958646
vt 1.868621 0.958646
vt 1.12483 0.999576
vt 1.994332 1.075295
vt 0.999119 0.999576
vt 1.994332 0.999576
vt 0.999119 1.075295
vt 1.12613 1.206432
vt 1.865913 1.199751
vt 1.876136 1.206432
vt 1.136353 1.199751
vt 1.876137 1.867707
vt 1.126131 1.867707
vt 1.855289 1.874388
vt 1.146978 1.874387
vn 0.0 -1.0 0.0
vn -1.0 0.0 0.0
vn 0.0 0.0 -1.0
vn 1.0 0.0 0.0
vn 0.0 1.0 0.0
vn -0.675012 0.737807 0.0
vn 0.675012 0.737807 0.0
vn -0.409325 -0.912389 0.0
vn 0.409325 -0.912389 0.0
vn 0.0 0.0 1.0
vn 0.675012 -0.737807 0.0
vn -0.675012 -0.737807 0.0
vn 0.409325 0.912389 0.0
vn 0.642376 0.766389 0.0
vn 0.592515 0.805559 0.0
vn 0.592515 -0.805559 0.0
vn 0.642376 -0.766389 0.0
vn 0.126496 -0.991967 0.0
vn -0.126496 -0.991967 0.0
vn 0.485856 0.874039 0.0
vn 0.485856 -0.874039 0.0
vn 0.250959 -0.967998 0.0
vn -0.250959 -0.967998 0.0
vn -0.409325 0.912389 0.0
vn 0.371391 0.928477 0.0
vn 0.0 0.07187 -0.997414
vn 0.0 0.095675 -0.995413
vn 0.0 -0.065851 -0.997829
vn 0.371391 -0.928477 0.0
vn -0.371391 -0.928477 0.0
vn -0.642376 -0.766389 0.0
vn -0.592515 -0.805559 0.0
vn -0.592515 0.805559 0.0
vn -0.642376 0.766389 0.0
vn 0.250959 0.967998 0.0
vn 0.0 -0.091568 -0.995799
vn -0.485856 -0.874039 0.0
vn -0.485856 0.874039 0.0
vn 0.126496 0.991967 0.0
vn -0.371391 0.928477 0.0
vn -0.250959 0.967998 0.0
vn -0.126496 0.991967 0.0
vn 0.0 -0.07187 0.997414
vn 0.0 -0.095675 0.995413
vn 0.0 0.065851 0.997829
vn 0.0 0.091568 0.995799
vn -1.0 0.0 0.0
vn 1.0 0.0 0.0
vn 0.0 0.095675 -0.995413
vn 0.0 -0.065851 -0.997829
vn 0.0 -0.091568 -0.995799
vn 0.0 -0.001909 -0.999998
vn 0.0 -0.095675 0.995413
vn 0.0 0.065851 0.997829
vn 0.0 0.091568 0.995799
vn 0.0 0.001909 0.999998
vn 0.0 -1.0 0.0
vn -1.0 0.0 0.0
vn 0.0 0.0 -1.0
vn 1.0 0.0 0.0
vn 0.0 1.0 0.0
vn 0.0 0.0 1.0
vn 0.0 -1.0 0.0
vn -1.0 0.0 0.0
vn 0.0 0.0 -1.0
vn 1.0 0.0 0.0
vn 0.0 1.0 0.0
vn 0.0 0.0 1.0
vn 0.0 -1.0 0.0
vn 0.0 0.0 -1.0
vn 0.0 1.0 0.0
vn 0.0 0.0 1.0
usemtl base_geom
f 1//4 5//4 4//4
f 8//6 12//6 6//6
f 11//2 18//2 8//2
f 12//6 8//6 18//6
f 19//7 9//7 13//7
f 9//7 19//7 14//7
f 17//8 26//8 11//8
f 18//2 11//2 26//2
f 19//4 27//4 14//4
f 26//8 17//8 37//8
f 27//4 19//4 38//4
f 37//1 25//1 49//1
f 49//9 27//9 38//9
f 27//9 49//9 25//9
f 2//5 3//5 1//5
f 4//5 1//5 3//5
f 4//2 5//2 1//2
f 3//3 6//3 4//3
f 5//3 4//3 8//3
f 8//3 4//3 6//3
f 9//3 6//3 3//3
f 7//3 10//3 3//3
f 11//3 5//3 8//3
f 6//11 12//11 8//11
f 9//3 3//3 14//3
f 14//3 3//3 10//3
f 15//3 10//3 7//3
f 5//3 16//3 7//3
f 17//3 5//3 11//3
f 8//4 18//4 11//4
f 18//11 8//11 12//11
f 13//12 9//12 19//12
f 14//12 19//12 9//12
f 20//3 14//3 10//3
f 22//3 15//3 7//3
f 16//3 23//3 7//3
f 16//3 5//3 24//3
f 25//3 5//3 17//3
f 11//13 26//13 17//13
f 26//4 11//4 18//4
f 14//2 27//2 19//2
f 28//3 14//3 20//3
f 10//14 21//14 20//15
f 22//16 30//16 15//17
f 31//3 22//3 7//3
f 23//3 32//3 7//3
f 16//1 33//1 23//18
f 24//3 5//3 34//3
f 24//19 35//19 16//1
f 36//3 5//3 25//3
f 17//5 37//5 25//5
f 37//13 17//13 26//13
f 38//2 19//2 27//2
f 27//3 14//3 39//3
f 40//3 14//3 28//3
f 20//15 41//15 28//20
f 29//17 15//17 30//16
f 44//3 31//3 7//3
f 32//3 44//3 7//3
f 23//18 45//18 32//22
f 45//18 23//18 33//1
f 34//3 5//3 46//3
f 48//3 5//3 36//3
f 25//3 27//3 36//3
f 49//5 25//5 37//5
f 37//3 26//3 38//3
f 38//24 27//24 49//24
f 39//3 14//3 50//3
f 36//3 27//3 39//3
f 51//3 14//3 40//3
f 28//20 52//20 40//25
f 52//20 28//20 41//15
f 21//26 53//3 41//3
f 21//26 42//27 55//26
f 30//3 56//3 29//28
f 43//3 57//3 30//3
f 59//22 32//22 45//18
f 46//3 5//3 60//3
f 60//3 5//3 48//3
f 36//31 62//31 48//32
f 25//24 49//24 27//24
f 50//3 14//3 63//3
f 64//3 14//3 51//3
f 40//25 65//25 51//35
f 65//25 40//25 52//20
f 41//3 66//3 52//3
f 53//3 66//3 41//3
f 55//26 53//3 21//26
f 29//28 62//28 54//36
f 67//27 55//26 42//27
f 62//28 29//28 56//3
f 57//3 56//3 30//3
f 61//3 57//3 43//3
f 58//3 61//3 43//3
f 58//29 44//29 59//22
f 61//30 46//30 57//37
f 48//32 56//32 60//37
f 56//32 48//32 62//31
f 63//3 14//3 68//3
f 55//34 39//34 53//33
f 53//33 50//33 66//38
f 69//3 14//3 64//3
f 51//35 70//35 64//39
f 70//35 51//35 65//25
f 52//3 71//3 65//3
f 66//3 71//3 52//3
f 68//3 14//3 72//3
f 68//40 71//40 63//38
f 66//38 63//38 71//40
f 69//3 73//3 14//3
f 64//39 74//39 69//5
f 74//39 64//39 70//35
f 65//3 75//3 70//3
f 71//3 75//3 65//3
f 72//3 14//3 73//3
f 72//41 75//41 68//40
f 73//42 77//42 72//41
f 75//41 72//41 77//42
f 77//42 73//42 76//5
f 1/1/1 3/2/1 2/3/1
f 3/2/1 1/1/1 4/4/1
f 4/5/10 6/6/10 3/7/10
f 8/8/10 4/5/10 5/9/10
f 6/6/10 4/5/10 8/8/10
f 3/7/10 6/6/10 9/10/10
f 3/7/10 10/11/10 7/12/10
f 8/8/10 5/9/10 11/13/10
f 14/14/10 3/7/10 9/10/10
f 10/11/10 3/7/10 14/14/10
f 7/12/10 10/11/10 15/15/10
f 7/12/10 16/16/10 5/9/10
f 11/13/10 5/9/10 17/17/10
f 10/11/10 14/14/10 20/18/10
f 7/12/10 15/15/10 22/19/10
f 7/12/10 23/20/10 16/16/10
f 24/21/10 5/9/10 16/16/10
f 17/17/10 5/9/10 25/22/10
f 20/18/10 14/14/10 28/23/10
f 20/24/32 21/25/31 10/26/31
f 15/27/34 30/28/33 22/29/33
f 7/12/10 22/19/10 31/30/10
f 23/32/42 33/33/5 16/34/5
f 34/35/10 5/9/10 24/21/10
f 25/22/10 5/9/10 36/39/10
f 39/41/10 14/14/10 27/42/10
f 28/23/10 14/14/10 40/43/10
f 21/25/31 20/24/32 41/47/32
f 30/28/33 15/27/34 29/48/34
f 43/49/38 22/50/33 30/51/33
f 22/50/33 43/49/38 31/52/38
f 7/12/10 31/30/10 44/53/10
f 7/12/10 44/53/10 32/31/10
f 35/37/39 16/36/5 33/58/5
f 46/59/10 5/9/10 34/35/10
f 24/60/39 47/61/35 34/62/35
f 47/61/35 24/60/39 35/63/39
f 36/39/10 5/9/10 48/64/10
f 36/39/10 27/42/10 25/22/10
f 38/65/10 26/40/10 37/66/10
f 50/67/10 14/14/10 39/41/10
f 39/41/10 27/42/10 36/39/10
f 40/43/10 14/14/10 51/68/10
f 40/69/30 52/70/37 28/71/37
f 41/45/32 28/44/37 52/72/37
f 41/18/10 53/67/10 21/11/43
f 55/73/43 42/74/44 21/75/43
f 29/15/45 56/64/10 30/19/10
f 58/77/40 31/78/38 43/79/38
f 31/78/38 58/77/40 44/80/40
f 60/76/10 5/9/10 46/59/10
f 34/85/35 61/86/25 46/87/25
f 48/64/10 5/9/10 60/76/10
f 63/92/10 14/14/10 50/67/10
f 39/93/17 53/94/16 50/95/16
f 51/68/10 14/14/10 64/96/10
f 51/97/23 65/98/30 40/99/30
f 52/70/37 40/69/30 65/100/30
f 52/23/10 66/92/10 41/18/10
f 41/18/10 66/92/10 53/67/10
f 21/11/43 53/67/10 55/41/43
f 54/101/46 62/102/45 29/103/45
f 42/74/44 55/73/43 67/104/44
f 56/64/10 29/15/45 62/39/45
f 30/19/10 56/64/10 57/76/10
f 43/30/10 61/59/10 58/53/10
f 59/31/10 35/21/10 45/20/10
f 68/114/10 14/14/10 63/92/10
f 50/115/16 66/116/21 63/117/21
f 53/94/16 39/93/17 55/118/17
f 66/116/21 50/115/16 53/119/16
f 64/96/10 14/14/10 69/120/10
f 64/121/19 70/122/23 51/123/23
f 56/111/15 60/110/20 57/125/20
f 72/126/10 14/14/10 68/114/10
f 71/128/29 63/127/21 66/130/21
f 70/68/10 75/126/10 65/43/10
f 73/131/10 14/14/10 72/126/10
f 75/137/22 68/136/29 71/139/29
f 74/133/19 69/132/1 76/143/1
f 77/145/18 72/144/22 75/147/22
f 76/141/1 73/140/18 77/148/18
f 78//48 79//48 80//48
f 79//48 81//48 80//48
f 80//48 81//48 84//48
f 81//48 85//48 84//48
f 82//47 83//47 87//47
f 88//48 84//48 85//48
f 83//47 86//47 87//47
f 88//52 90//52 84//49
f 85//51 91//51 88//52
f 91//51 85//51 87//50
f 86//47 89//47 91//47
f 89//49 84//49 90//52
f 87//47 86//47 91//47
f 90//52 88//52 91//51
f 90//47 91//47 89//47
f 80/149/47 79/150/47 78/151/47
f 80/149/47 81/152/47 79/150/47
f 84/153/47 81/152/47 80/149/47
f 84/153/47 85/154/47 81/152/47
f 87/155/48 83/151/48 82/150/48
f 85/154/47 84/153/47 88/156/47
f 84/160/53 90/161/56 88/162/56
f 88/163/56 91/164/55 85/165/55
f 87/158/54 85/157/55 91/166/55
f 91/167/48 89/168/48 86/159/48
f 90/161/56 84/160/53 89/169/53
f 91/167/48 86/159/48 87/155/48
f 91/164/55 88/163/56 90/170/56
f 89/168/48 91/167/48 90/171/48
f 92//57 93//57 94//57
f 93//57 92//57 95//57
f 93//58 96//58 94//58
f 96//59 92//59 94//59
f 92//60 97//60 95//60
f 96//58 93//58 98//58
f 92//59 96//59 99//59
f 97//60 92//60 99//60
f 94//61 93//61 92//61
f 95//61 92//61 93//61
f 94//60 96//60 93//60
f 94//62 92//62 96//62
f 95//58 97//58 92//58
f 95//59 93//59 97//59
f 98//60 93//60 96//60
f 99//62 96//62 92//62
f 99//58 92//58 97//58
f 98//59 97//59 93//59
f 97/172/62 93/173/62 95/174/62
f 93/173/62 97/172/62 98/175/62
f 109//65 105//65 107//65
f 105//65 109//65 111//65
f 110//64 113//64 109//64
f 111//65 109//65 113//65
f 114//66 108//66 111//66
f 112//64 113//64 110//64
f 111//65 113//65 114//65
f 115//66 108//66 114//66
f 113//64 112//64 116//64
f 113//67 115//67 114//67
f 115//67 113//67 116//67
f 100//67 104//67 102//67
f 103//67 105//67 100//67
f 101//67 105//67 103//67
f 101//67 102//67 106//67
f 106//67 102//67 104//67
f 104//67 100//67 107//67
f 105//67 107//67 100//67
f 105//67 101//67 106//67
f 106//65 104//65 108//65
f 107//66 109//66 104//66
f 107//68 105//68 109//68
f 106//64 108//64 105//64
f 110//65 108//65 104//65
f 110//66 104//66 109//66
f 111//68 109//68 105//68
f 111//64 105//64 108//64
f 109//66 113//66 110//66
f 113//68 109//68 111//68
f 111//64 108//64 114//64
f 110//66 113//66 112//66
f 114//68 113//68 111//68
f 114//64 108//64 115//64
f 116//66 112//66 113//66
f 114//63 115//63 113//63
f 116//63 113//63 115//63
f 108/176/68 104/177/68 106/178/68
f 104/177/68 108/176/68 110/179/68
f 102//63 104//63 100//63
f 100//63 105//63 103//63
f 103//63 105//63 101//63
f 106//63 102//63 101//63
f 104//63 102//63 106//63
f 107//63 100//63 104//63
f 100//63 107//63 105//63
f 106//63 101//63 105//63
f 104//64 109//64 107//64
f 105//66 108//66 106//66
f 109//64 104//64 110//64
f 108//66 105//66 111//66
f 117//71 120//71 118//71
f 120//71 117//71 119//71
f 118//69 120//69 117//69
f 119//69 117//69 120//69
f 121//70 119//70 122//70
f 120//70 122//70 119//70
f 123//70 121//70 122//70
f 125//70 123//70 122//70
f 126//70 124//70 125//70
f 119/181/72 122/180/72 120/183/72
f 122/180/72 121/182/72 123/184/72
f 122/180/72 123/184/72 125/185/72
f 125/185/72 124/186/72 126/187/72
