# Merged(arrow/base_geom)

v 0.586022 -0.489775 0.402557
v 0.586022 0.571645 0.402557
v -0.609009 0.576188 0.402557
v 0.590566 0.576188 0.402557
v -0.609009 0.576188 0.38243
v 0.586022 0.576188 0.402557
v 0.590566 -0.494319 0.402557
v 0.590566 -0.494319 0.38243
v 0.590566 0.576188 0.38243
v -0.609009 -0.494319 0.38243
v 0.590566 -0.494319 0.352031
v -0.609009 0.576188 -0.549922
v 0.590566 0.576188 -0.549922
v -0.609009 -0.494319 0.352031
v -0.609009 -0.623386 0.352031
v 0.590566 -0.623386 -0.549922
v -0.609009 -0.623386 -0.549922
v -0.499956 0.467136 0.467899
v 0.481514 0.430785 0.467899
v -0.499956 0.430785 0.467899
v -0.454254 0.467136 0.467899
v 0.481514 0.467136 0.467899
v -0.499956 0.430785 0.536057
v -0.443791 0.456674 0.467899
v -0.443791 0.467136 0.467899
v -0.443791 0.467136 0.536057
v 0.425349 0.467136 0.467899
v 0.481514 0.467136 0.536057
v 0.425349 0.430785 0.467899
v -0.499956 0.467136 0.536057
v -0.443791 0.430785 0.536057
v -0.443791 0.430785 0.467899
v -0.443791 0.467136 0.513338
v 0.481514 0.430785 0.536057
v 0.425349 0.430785 0.536057
v -0.443791 0.430785 0.513338
v -0.371462 0.467136 0.518196
v 0.425349 0.467136 0.536057
v 0.425349 0.430785 0.513338
v -0.371462 0.430785 0.518196
v -0.371565 0.467136 0.542994
v 0.425349 0.467136 0.513338
v 0.353122 0.430785 0.542994
v -0.371565 0.430785 0.542994
v -0.299228 0.467136 0.548674
v -0.299078 0.430785 0.522171
v 0.353122 0.467136 0.542994
v 0.353019 0.430785 0.518196
v -0.299228 0.430785 0.548674
v -0.299078 0.467136 0.522171
v 0.353019 0.467136 0.518196
v 0.280785 0.430785 0.548674
v -0.226803 0.467136 0.553092
v -0.226652 0.430785 0.525264
v -0.226803 0.430785 0.553092
v 0.280785 0.467136 0.548674
v 0.280636 0.430785 0.522171
v 0.280636 0.467136 0.522171
v -0.226652 0.467136 0.525264
v 0.20836 0.430785 0.553092
v -0.154313 0.467136 0.55625
v -0.154193 0.430785 0.527473
v -0.154313 0.430785 0.55625
v 0.20836 0.467136 0.553092
v 0.208209 0.430785 0.525264
v 0.208209 0.467136 0.525264
v -0.154193 0.467136 0.527473
v 0.13587 0.430785 0.55625
v -0.081778 0.467136 0.558144
v -0.081713 0.430785 0.528799
v -0.081778 0.430785 0.558144
v 0.13587 0.467136 0.55625
v 0.13575 0.430785 0.527473
v 0.13575 0.467136 0.527473
v -0.081713 0.467136 0.528799
v 0.063335 0.430785 0.558144
v -0.009221 0.467136 0.558776
v -0.009221 0.430785 0.529241
v -0.009221 0.430785 0.558776
v 0.063335 0.467136 0.558144
v 0.06327 0.430785 0.528799
v 0.06327 0.467136 0.528799
v -0.009221 0.467136 0.529241
v -0.604465 0.571645 0.402557
v -0.604465 -0.489775 0.409965
v -0.604465 0.571645 0.409965
v -0.604465 -0.489775 0.402557
v 0.586022 0.571645 0.409965
v -0.609009 -0.489775 0.409965
v 0.586022 -0.489775 0.402557
v -0.609009 0.571645 0.402557
v 0.586022 -0.489775 0.409965
v 0.586022 0.576188 0.409965
v -0.609009 0.571645 0.409965
v 0.586022 0.571645 0.402557
v -0.609009 -0.489775 0.402557
v -0.609009 0.576188 0.402557
v 0.590566 0.576188 0.409965
v -0.609009 -0.494319 0.409965
v 0.590566 0.576188 0.402557
v 0.586022 -0.494319 0.402557
v -0.609009 0.576188 0.38243
v 0.586022 -0.494319 0.409965
v -0.609009 0.576188 0.409965
v 0.590566 0.576188 0.467899
v 0.586022 0.576188 0.402557
v 0.590566 -0.494319 0.402557
v -0.609009 -0.494319 0.402557
v 0.590566 -0.494319 0.409965
v -0.609009 -0.494319 0.467899
v 0.590566 -0.494319 0.38243
v 0.590566 0.576188 0.38243
v -0.609009 -0.494319 0.38243
v 0.590566 -0.494319 0.352031
v 0.590566 -0.494319 0.467899
v -0.609009 0.576188 0.467899
v -0.499956 0.467136 0.467899
v 0.481514 0.430785 0.467899
v -0.499956 0.430785 0.467899
v -0.454254 0.467136 0.467899
v 0.481514 0.467136 0.467899
v -0.443791 0.456674 0.467899
v -0.443791 0.467136 0.467899
v 0.425349 0.467136 0.467899
v 0.481514 0.467136 0.536057
v -0.443791 0.430785 0.467899
v 0.590566 -0.494319 0.352031
v -0.609009 -0.494319 0.352031
v -0.609009 -0.623386 0.352031
v 0.590566 -0.623386 -0.549922
v 0.590566 -0.623386 0.352031
v -0.609009 -0.623386 -0.549922
vt 5.87808 1.746364
vt 5.269284 1.756617
vt 5.269284 1.746364
vt 1.756617 0.065752
vt 1.746364 0.611111
vt 1.746364 0.065752
vt 5.880395 1.756617
vt -5.269284 1.756617
vt -5.880395 1.772104
vt 1.756617 0.611111
vt -2.231594 0.611111
vt -1.756617 0.065752
vt -1.756617 0.611111
vt 5.880395 2.231594
vt 1.772104 0.065752
vt -5.269284 1.772104
vt -1.772104 0.065752
vt 5.269284 2.231594
vt 2.231594 0.611111
vt -1.772104 0.0
vt -5.880395 0.0
vt -5.269284 0.611111
vt -5.880395 0.611111
vt 2.231594 0.0
vt -2.231594 0.0
vt -5.269284 0.0
vt 71.88533 7.5
vt 78.63533 7.25
vt 71.88533 7.25
vt 78.63533 7.5
vt -22.657772 7.25
vt -23.126522 7.5
vt -23.126522 7.25
vt 72.271599 7.5
vt 71.88533 23.126522
vt 72.271599 22.657772
vt 72.199646 23.126522
vt 78.249062 7.5
vt 22.657772 7.5
vt 23.126522 7.25
vt 78.249062 7.25
vt -22.657772 7.5
vt -71.88533 23.126522
vt -72.271599 22.657772
vt -71.88533 22.657772
vt 72.271599 23.126522
vt 72.271599 22.814022
vt 71.88533 22.657772
vt 78.249062 23.126522
vt 78.63533 22.657772
vt 78.63533 23.126522
vt 22.657772 7.25
vt -78.249062 22.657772
vt -78.249062 23.126522
vt -78.63533 23.126522
vt 72.271599 7.25
vt -72.271599 22.814022
vt -72.271599 23.126522
vt 72.271599 7.428045
vt 72.769043 22.780615
vt 78.249062 22.657772
vt -78.63533 22.657772
vt -78.249062 22.814022
vt -72.769043 22.780615
vt 0.0 0.0
vt 0.5 0.25
vt 0.0 0.25
vt 72.768333 22.610062
vt 78.249062 22.814022
vt -77.752319 22.610062
vt -72.768333 22.610062
vt 0.5 0.0
vt 73.265831 22.571003
vt 77.752319 22.610062
vt 3.0 0.25
vt 2.5 0.0
vt 3.0 0.0
vt -77.751617 22.780615
vt -73.265831 22.571003
vt 1.0 0.25
vt 73.266853 22.753271
vt -73.266853 22.753271
vt 77.751617 22.780615
vt 2.5 0.25
vt -77.254829 22.571003
vt 1.0 0.0
vt 73.763924 22.540613
vt -73.763924 22.540613
vt 77.254829 22.571003
vt 2.0 0.0
vt -77.253807 22.753271
vt 1.5 0.25
vt 73.764961 22.732
vt -73.764961 22.732
vt 1.5 0.0
vt 77.253807 22.753271
vt 2.0 0.25
vt -76.756737 22.540613
vt 74.262474 22.5189
vt -74.262474 22.5189
vt 76.756737 22.540613
vt -76.755692 22.732
vt 74.263298 22.716806
vt -74.263298 22.716806
vt 76.755692 22.732
vt -76.258186 22.5189
vt 74.76133 22.505869
vt -74.76133 22.505869
vt 76.258186 22.5189
vt -76.257362 22.716806
vt 74.76178 22.707687
vt -74.76178 22.707687
vt 76.257362 22.716806
vt -75.759331 22.505869
vt 75.26033 22.501522
vt -75.26033 22.501522
vt 75.759331 22.505869
vt -75.758881 22.707687
vt 75.26033 22.704647
vt -75.26033 22.704647
vt 75.758881 22.707687
vt -23.524961 0.887651
vt -23.524961 8.21875
vt -23.524961 0.918901
vt 79.35408 23.524961
vt 79.38533 23.126522
vt 79.38533 23.524961
vt -23.524961 8.25
vt 71.13533 23.524961
vt 23.126522 8.25
vt 23.524961 0.887651
vt 23.524961 8.25
vt -23.126522 0.887651
vt -79.35408 23.524961
vt -71.13533 23.126522
vt -71.13533 23.524961
vt -79.38533 23.126522
vt -79.38533 23.524961
vt 71.13533 23.126522
vt 23.126522 0.887651
vt -23.126522 8.25
vt 71.13533 8.25
vt 71.88533 7.5
vt 79.38533 8.25
vt 78.63533 7.25
vt 79.38533 0.887651
vt 71.13533 0.887651
vt 71.88533 7.25
vt 72.199646 7.5
vt 78.63533 7.5
vt 72.271599 7.5
vt 78.249062 7.5
vt 22.657772 7.5
vt 23.126522 7.25
vt 23.126522 7.5
vt -0.079584 0.608796
vt -0.089838 0.611111
vt -0.079584 0.068067
vt -0.079584 0.611111
vt -0.079584 0.065752
vt 5.87808 1.746364
vt 5.880395 1.756617
vt 5.880395 1.746364
vt -5.87808 1.746364
vt -5.269284 1.746364
vt -5.269284 1.756617
vt -5.880395 1.772104
vt -5.880395 1.746364
vt -0.089838 0.065752
vt -5.880395 1.756617
vt -5.880395 1.772104
vt 1.772104 0.065752
vt -5.269284 1.772104
vt 2.231594 0.0
vt 1.772104 0.0
vt -5.269284 2.231594
vt -5.880395 2.231594
vn -1.0 0.0 0.0
vn 0.0 0.0 -1.0
vn 0.0 1.0 0.0
vn 0.0 0.0 1.0
vn 0.0 -1.0 0.0
vn 1.0 0.0 0.0
vn -1.0 0.0 0.0
vn 0.0 0.0 -1.0
vn 0.0 1.0 0.0
vn 0.0 0.0 1.0
vn 0.0 -1.0 0.0
vn 1.0 0.0 0.0
vn 0.095613 0.0 -0.995419
vn 0.086944 0.0 -0.996213
vn 0.060928 0.0 -0.998142
vn 0.067012 0.0 -0.997752
vn -0.060928 0.0 0.998142
vn -0.067012 0.0 0.997752
vn 0.048753 0.0 -0.998811
vn -0.048753 0.0 0.998811
vn -0.095613 0.0 -0.995419
vn -0.086944 0.0 -0.996213
vn 0.069587 0.0 -0.997576
vn -0.067012 0.0 -0.997752
vn -0.060928 0.0 -0.998142
vn 0.067012 0.0 0.997752
vn 0.060928 0.0 0.998142
vn 0.036571 0.0 -0.999331
vn -0.036571 0.0 0.999331
vn -0.069587 0.0 -0.997576
vn -0.048753 0.0 -0.998811
vn 0.048753 0.0 0.998811
vn 0.052208 0.0 -0.998636
vn 0.024384 0.0 -0.999703
vn -0.024384 0.0 0.999703
vn 0.034814 0.0 -0.999394
vn -0.052208 0.0 -0.998636
vn -0.036571 0.0 -0.999331
vn 0.036571 0.0 0.999331
vn 0.012193 0.0 -0.999926
vn -0.012193 0.0 0.999926
vn 0.01741 0.0 -0.999848
vn -0.034814 0.0 -0.999394
vn -0.024384 0.0 -0.999703
vn 0.024384 0.0 0.999703
vn 0.008705 0.0 -0.999962
vn -0.01741 0.0 -0.999848
vn -0.012193 0.0 -0.999926
vn 0.012193 0.0 0.999926
vn -0.008705 0.0 -0.999962
vn -0.095613 0.0 0.995419
vn -0.086944 0.0 0.996213
vn 0.095613 0.0 0.995419
vn 0.086944 0.0 0.996213
vn -0.069587 0.0 0.997576
vn 0.069587 0.0 0.997576
vn -0.052208 0.0 0.998636
vn -0.034814 0.0 0.999394
vn 0.052208 0.0 0.998636
vn -0.01741 0.0 0.999848
vn 0.034814 0.0 0.999394
vn -0.008705 0.0 0.999962
vn 0.01741 0.0 0.999848
vn 0.008705 0.0 0.999962
vn -1.0 0.0 0.0
vn 0.0 0.0 -1.0
vn 0.0 1.0 0.0
vn 0.0 0.0 1.0
vn 0.0 -1.0 0.0
vn 1.0 0.0 0.0
vn -1.0 0.0 0.0
vn 0.0 0.0 -1.0
vn 0.0 1.0 0.0
vn 0.0 0.0 1.0
vn 0.0 -1.0 0.0
vn 1.0 0.0 0.0
usemtl base_geom
f 2//4 1//4 4//4
f 4//2 1//2 2//2
f 3//5 5//5 6//5
f 7//1 4//1 8//1
f 9//5 6//5 5//5
f 9//1 8//1 4//1
f 5//6 10//6 12//6
f 9//5 5//5 13//5
f 8//1 9//1 11//1
f 14//3 10//3 11//3
f 14//6 12//6 10//6
f 12//5 13//5 5//5
f 13//1 11//1 9//1
f 15//6 12//6 14//6
f 13//4 12//4 16//4
f 16//1 11//1 13//1
f 17//6 12//6 15//6
f 17//4 16//4 12//4
f 6/1/3 5/2/3 3/3/3
f 8/4/6 4/5/6 7/6/6
f 5/2/3 6/1/3 9/7/3
f 4/5/6 8/4/6 9/10/6
f 12/11/1 10/12/1 5/13/1
f 13/14/3 5/2/3 9/7/3
f 11/15/6 9/10/6 8/4/6
f 11/9/5 10/8/5 14/16/5
f 10/12/1 12/11/1 14/17/1
f 5/2/3 13/14/3 12/18/3
f 9/10/6 11/15/6 13/19/6
f 14/17/1 12/11/1 15/20/1
f 16/21/2 12/22/2 13/23/2
f 13/19/6 11/15/6 16/24/6
f 15/20/1 12/11/1 17/25/1
f 12/22/2 16/21/2 17/26/2
# UNHIT_FACE f 20//12 18//12 23//12
# UNHIT_FACE f 20//10 24//10 18//10
# UNHIT_FACE f 18//8 24//8 20//8
f 21//11 26//11 18//11
# UNHIT_FACE f 29//8 19//8 20//8
f 30//12 23//12 18//12
f 23//9 31//9 20//9
# UNHIT_FACE f 21//10 24//10 25//10
# UNHIT_FACE f 25//8 24//8 21//8
# UNHIT_FACE f 33//11 21//11 25//11
f 30//11 18//11 26//11
f 33//11 26//11 21//11
f 22//11 28//11 27//11
f 34//7 28//7 19//7
f 19//9 29//9 35//9
# UNHIT_FACE f 32//8 29//8 20//8
f 30//8 26//8 23//8
f 36//9 20//9 31//9
f 31//8 23//8 26//8
f 20//9 36//9 32//9
f 24//8 27//8 32//8
# UNHIT_FACE f 25//12 32//12 24//12
# UNHIT_FACE f 24//7 32//7 25//7
f 25//8 27//8 24//8
f 33//12 32//12 25//12
f 25//7 32//7 33//7
f 33//11 37//11 26//11
f 28//11 38//11 27//11
f 34//8 35//8 28//8
f 34//9 19//9 35//9
# UNHIT_FACE f 29//9 39//9 35//9
f 29//8 32//8 27//8
f 40//9 36//9 31//9
f 26//13 41//14 31//13
f 32//12 33//12 36//12
f 36//7 33//7 32//7
f 41//11 26//11 37//11
# UNHIT_FACE f 40//15 33//16 37//15
# UNHIT_FACE f 37//17 33//18 40//17
# UNHIT_FACE f 42//11 27//11 38//11
f 38//8 28//8 35//8
f 35//9 39//9 43//9
# UNHIT_FACE f 39//7 27//7 29//7
f 29//12 27//12 39//12
# UNHIT_FACE f 33//16 40//15 36//16
# UNHIT_FACE f 36//18 40//17 33//18
f 44//9 40//9 31//9
f 44//14 31//13 41//14
f 45//11 41//11 37//11
# UNHIT_FACE f 37//15 46//19 40//15
# UNHIT_FACE f 40//17 46//20 37//17
f 27//7 39//7 42//7
f 42//12 39//12 27//12
f 38//11 47//11 42//11
f 35//21 43//22 38//21
f 39//9 48//9 43//9
f 49//9 40//9 44//9
f 41//14 45//23 44//14
f 50//11 45//11 37//11
# UNHIT_FACE f 46//19 37//15 50//19
# UNHIT_FACE f 50//20 37//17 46//20
f 46//9 40//9 49//9
# UNHIT_FACE f 39//24 51//25 42//24
# UNHIT_FACE f 42//26 51//27 39//26
f 42//11 47//11 51//11
f 47//22 38//21 43//22
f 43//9 48//9 52//9
# UNHIT_FACE f 51//25 39//24 48//25
# UNHIT_FACE f 48//27 39//26 51//27
f 49//23 44//14 45//23
f 53//11 45//11 50//11
# UNHIT_FACE f 50//19 54//28 46//19
# UNHIT_FACE f 46//20 54//29 50//20
f 55//9 46//9 49//9
f 47//11 56//11 51//11
f 43//22 52//30 47//22
f 48//9 57//9 52//9
# UNHIT_FACE f 48//25 58//31 51//25
# UNHIT_FACE f 51//27 58//32 48//27
f 45//23 53//33 49//23
f 59//11 53//11 50//11
# UNHIT_FACE f 54//28 50//19 59//28
# UNHIT_FACE f 59//29 50//20 54//29
f 54//9 46//9 55//9
f 55//33 49//23 53//33
f 51//11 56//11 58//11
f 56//30 47//22 52//30
f 52//9 57//9 60//9
# UNHIT_FACE f 58//31 48//25 57//31
# UNHIT_FACE f 57//32 48//27 58//32
f 61//11 53//11 59//11
# UNHIT_FACE f 59//28 62//34 54//28
# UNHIT_FACE f 54//29 62//35 59//29
f 63//9 54//9 55//9
f 53//33 61//36 55//33
f 56//11 64//11 58//11
f 52//30 60//37 56//30
f 57//9 65//9 60//9
# UNHIT_FACE f 57//31 66//38 58//31
# UNHIT_FACE f 58//32 66//39 57//32
f 67//11 61//11 59//11
# UNHIT_FACE f 62//34 59//28 67//34
# UNHIT_FACE f 67//35 59//29 62//35
f 62//9 54//9 63//9
f 63//36 55//33 61//36
f 58//11 64//11 66//11
f 64//37 56//30 60//37
f 60//9 65//9 68//9
# UNHIT_FACE f 66//38 57//31 65//38
# UNHIT_FACE f 65//39 57//32 66//39
f 69//11 61//11 67//11
# UNHIT_FACE f 67//34 70//40 62//34
# UNHIT_FACE f 62//35 70//41 67//35
f 71//9 62//9 63//9
f 61//36 69//42 63//36
f 64//11 72//11 66//11
f 60//37 68//43 64//37
f 65//9 73//9 68//9
# UNHIT_FACE f 65//38 74//44 66//38
# UNHIT_FACE f 66//39 74//45 65//39
f 75//11 69//11 67//11
# UNHIT_FACE f 70//40 67//34 75//40
# UNHIT_FACE f 75//41 67//35 70//41
f 70//9 62//9 71//9
f 71//42 63//36 69//42
f 66//11 72//11 74//11
f 72//43 64//37 68//43
f 68//9 73//9 76//9
# UNHIT_FACE f 74//44 65//38 73//44
# UNHIT_FACE f 73//45 65//39 74//45
f 77//11 69//11 75//11
# UNHIT_FACE f 75//40 78//8 70//40
# UNHIT_FACE f 70//41 78//10 75//41
f 79//9 70//9 71//9
f 69//42 77//46 71//42
f 72//11 80//11 74//11
f 68//43 76//47 72//43
f 73//9 81//9 76//9
# UNHIT_FACE f 73//44 82//48 74//44
# UNHIT_FACE f 74//45 82//49 73//45
f 83//11 77//11 75//11
# UNHIT_FACE f 78//8 75//40 83//8
# UNHIT_FACE f 83//10 75//41 78//10
f 78//9 70//9 79//9
f 79//46 71//42 77//46
f 74//11 80//11 82//11
f 80//47 72//43 76//47
f 81//9 78//9 76//9
# UNHIT_FACE f 82//48 73//44 81//48
# UNHIT_FACE f 81//49 73//45 82//49
f 80//11 77//11 83//11
# UNHIT_FACE f 83//8 81//48 78//8
# UNHIT_FACE f 78//10 81//49 83//10
f 76//9 78//9 79//9
f 77//50 80//47 79//50
f 82//11 80//11 83//11
f 76//47 79//50 80//47
# UNHIT_FACE f 81//48 83//8 82//48
# UNHIT_FACE f 82//49 83//10 81//49
f 23/31/7 18/32/7 20/33/7
f 18/35/9 26/36/9 21/37/9
# UNHIT_FACE f 20/29/10 19/28/10 29/41/10
f 18/32/7 23/31/7 30/42/7
f 20/43/11 31/44/11 23/45/11
f 25/46/9 21/37/9 33/47/9
f 26/36/9 18/35/9 30/48/9
f 21/37/9 26/36/9 33/47/9
f 27/49/9 28/50/9 22/51/9
f 19/40/12 28/39/12 34/52/12
f 35/53/11 29/54/11 19/55/11
# UNHIT_FACE f 20/29/10 29/41/10 32/56/10
f 23/29/10 26/34/10 30/27/10
f 31/44/11 20/43/11 36/57/11
f 26/34/10 23/29/10 31/56/10
f 32/58/11 36/57/11 20/43/11
f 32/56/10 27/38/10 24/59/10
f 24/59/10 27/38/10 25/34/10
f 26/36/9 37/60/9 33/47/9
f 27/49/9 38/61/9 28/50/9
f 28/30/10 35/41/10 34/28/10
f 35/53/11 19/55/11 34/62/11
# UNHIT_FACE f 35/53/11 39/63/11 29/54/11
f 27/38/10 32/56/10 29/41/10
f 31/44/11 36/57/11 40/64/11
f 31/65/51 41/66/52 26/67/51
f 37/60/9 26/36/9 41/68/9
# UNHIT_FACE f 38/61/9 27/49/9 42/69/9
f 35/41/10 28/30/10 38/38/10
f 43/70/11 39/63/11 35/53/11
f 31/44/11 40/64/11 44/71/11
f 41/66/52 31/65/51 44/72/52
f 37/60/9 41/68/9 45/73/9
f 42/69/9 47/74/9 38/61/9
f 38/75/53 43/76/54 35/77/53
f 43/70/11 48/78/11 39/63/11
f 44/71/11 40/64/11 49/79/11
f 44/72/52 45/80/55 41/66/52
f 37/60/9 45/73/9 50/81/9
f 49/79/11 40/64/11 46/82/11
f 51/83/9 47/74/9 42/69/9
f 43/76/54 38/75/53 47/84/54
f 52/85/11 48/78/11 43/70/11
f 45/80/55 44/72/52 49/86/55
f 50/81/9 45/73/9 53/87/9
f 49/79/11 46/82/11 55/88/11
f 51/83/9 56/89/9 47/74/9
f 47/84/54 52/90/56 43/76/54
f 52/85/11 57/91/11 48/78/11
f 49/86/55 53/92/57 45/80/55
f 50/81/9 53/87/9 59/93/9
f 55/88/11 46/82/11 54/94/11
f 53/92/57 49/86/55 55/95/57
f 58/96/9 56/89/9 51/83/9
f 52/90/56 47/84/54 56/97/56
f 60/98/11 57/91/11 52/85/11
f 59/93/9 53/87/9 61/99/9
f 55/88/11 54/94/11 63/100/11
f 55/95/57 61/97/58 53/92/57
f 58/96/9 64/101/9 56/89/9
f 56/97/56 60/95/59 52/90/56
f 60/98/11 65/102/11 57/91/11
f 59/93/9 61/99/9 67/103/9
f 63/100/11 54/94/11 62/104/11
f 61/97/58 55/95/57 63/90/58
f 66/105/9 64/101/9 58/96/9
f 60/95/59 56/97/56 64/92/59
f 68/106/11 65/102/11 60/98/11
f 67/103/9 61/99/9 69/107/9
f 63/100/11 62/104/11 71/108/11
f 63/90/58 69/84/60 61/97/58
f 66/105/9 72/109/9 64/101/9
f 64/92/59 68/86/61 60/95/59
f 68/106/11 73/110/11 65/102/11
f 67/103/9 69/107/9 75/111/9
f 71/108/11 62/104/11 70/112/11
f 69/84/60 63/90/58 71/76/60
f 74/113/9 72/109/9 66/105/9
f 68/86/61 64/92/59 72/80/61
f 76/114/11 73/110/11 68/106/11
f 75/111/9 69/107/9 77/115/9
f 71/108/11 70/112/11 79/116/11
f 71/76/60 77/75/62 69/84/60
f 74/113/9 80/117/9 72/109/9
f 72/80/61 76/72/63 68/86/61
f 76/114/11 81/118/11 73/110/11
f 75/111/9 77/115/9 83/119/9
f 79/116/11 70/112/11 78/120/11
f 77/75/62 71/76/60 79/77/62
f 82/121/9 80/117/9 74/113/9
f 76/72/63 72/80/61 80/66/63
f 76/114/11 78/120/11 81/118/11
f 83/119/9 77/115/9 80/117/9
f 79/116/11 78/120/11 76/114/11
f 79/65/64 80/66/63 77/67/64
f 83/119/9 80/117/9 82/121/9
f 80/66/63 79/65/64 76/72/63
f 84//65 85//65 86//65
f 85//65 84//65 87//65
f 85//66 89//66 86//66
f 88//67 84//67 86//67
f 84//68 91//68 87//68
f 90//69 85//69 87//69
f 88//66 86//66 93//66
f 94//66 86//66 89//66
# UNHIT_FACE f 85//66 92//66 89//66
f 84//67 88//67 95//67
# UNHIT_FACE f 87//68 96//68 90//68
f 96//68 87//68 91//68
# UNHIT_FACE f 91//68 84//68 97//68
f 85//69 90//69 92//69
f 88//66 98//66 92//66
f 90//70 88//70 92//70
# UNHIT_FACE f 94//66 93//66 86//66
# UNHIT_FACE f 93//66 98//66 88//66
f 89//66 92//66 99//66
f 88//70 90//70 95//70
# UNHIT_FACE f 95//68 97//68 84//68
f 90//68 96//68 101//68
# UNHIT_FACE f 92//66 98//66 103//66
f 104//66 93//66 94//66
f 103//66 99//66 92//66
f 106//68 97//68 95//68
f 100//68 90//68 107//68
# UNHIT_FACE f 106//68 95//68 100//68
f 108//68 101//68 96//68
# UNHIT_FACE f 101//68 107//68 90//68
f 109//66 103//66 98//66
f 86//70 85//70 84//70
f 87//70 84//70 85//70
# UNHIT_FACE f 85//68 88//68 86//68
# UNHIT_FACE f 86//66 88//66 85//66
# UNHIT_FACE f 86//68 89//68 85//68
f 86//69 84//69 88//69
# UNHIT_FACE f 84//66 90//66 87//66
# UNHIT_FACE f 87//68 90//68 84//68
# UNHIT_FACE f 87//66 91//66 84//66
f 87//67 85//67 90//67
# UNHIT_FACE f 88//68 85//68 92//68
# UNHIT_FACE f 92//66 85//66 88//66
f 93//68 86//68 88//68
# UNHIT_FACE f 89//68 86//68 94//68
# UNHIT_FACE f 89//68 92//68 85//68
f 95//69 88//69 84//69
# UNHIT_FACE f 90//66 84//66 95//66
# UNHIT_FACE f 95//68 84//68 90//68
# UNHIT_FACE f 90//66 96//66 87//66
f 91//66 87//66 96//66
# UNHIT_FACE f 97//66 84//66 91//66
f 92//67 90//67 85//67
# UNHIT_FACE f 92//68 98//68 88//68
f 92//65 88//65 90//65
# UNHIT_FACE f 86//68 93//68 94//68
# UNHIT_FACE f 88//68 98//68 93//68
# UNHIT_FACE f 89//70 94//70 99//70
f 99//68 92//68 89//68
f 95//65 90//65 88//65
f 84//66 97//66 95//66
f 101//66 96//66 90//66
f 96//70 102//70 91//70
f 97//70 91//70 102//70
# UNHIT_FACE f 103//68 98//68 92//68
f 94//68 93//68 104//68
f 98//69 105//69 93//69
# UNHIT_FACE f 94//70 104//70 99//70
f 92//68 99//68 103//68
f 95//66 97//66 106//66
f 107//66 90//66 100//66
# UNHIT_FACE f 100//66 95//66 106//66
f 96//66 101//66 108//66
# UNHIT_FACE f 90//66 107//66 101//66
f 108//70 102//70 96//70
# UNHIT_FACE f 98//68 103//68 109//68
f 93//69 105//69 104//69
f 98//65 109//65 105//65
f 99//70 104//70 110//70
f 99//67 110//67 103//67
# UNHIT_FACE f 100//69 106//69 112//69
f 113//67 108//67 101//67
f 107//67 114//67 101//67
f 113//70 102//70 108//70
f 109//67 103//67 115//67
f 116//69 104//69 105//69
f 115//65 105//65 109//65
f 116//70 110//70 104//70
f 115//67 103//67 110//67
# UNHIT_FACE f 111//67 114//67 107//67
f 101//67 114//67 113//67
f 105//66 117//66 116//66
f 105//66 115//66 118//66
f 116//66 119//66 110//66
f 110//66 118//66 115//66
f 117//66 119//66 116//66
f 117//66 105//66 120//66
f 121//66 105//66 118//66
f 118//66 110//66 119//66
f 120//66 105//66 123//66
# UNHIT_FACE f 117//68 122//68 120//68
# UNHIT_FACE f 120//66 122//66 117//66
f 124//66 105//66 121//66
f 121//65 118//65 125//65
# UNHIT_FACE f 122//68 119//68 126//68
# UNHIT_FACE f 126//66 119//66 122//66
f 123//66 105//66 124//66
# UNHIT_FACE f 99/122/65 94/123/65 89/124/65
f 93/125/67 105/126/67 98/127/67
# UNHIT_FACE f 99/122/65 104/128/65 94/123/65
f 104/129/67 105/126/67 93/125/67
f 105/130/70 109/131/70 98/132/70
f 110/133/65 104/128/65 99/122/65
f 103/134/69 110/135/69 99/136/69
f 115/137/69 103/134/69 109/138/69
f 105/126/67 104/129/67 116/139/67
f 109/131/70 105/130/70 115/140/70
f 104/128/65 110/133/65 116/141/65
f 110/135/69 103/134/69 115/137/69
f 116/142/68 117/143/68 105/144/68
f 118/145/68 115/146/68 105/144/68
f 110/147/68 119/148/68 116/142/68
f 115/146/68 118/145/68 110/147/68
f 116/142/68 119/148/68 117/143/68
f 120/149/68 105/144/68 117/143/68
f 118/145/68 105/144/68 121/150/68
f 119/148/68 110/147/68 118/145/68
f 123/151/68 105/144/68 120/149/68
f 121/150/68 105/144/68 124/152/68
f 125/153/70 118/154/70 121/155/70
f 124/152/68 105/144/68 123/151/68
f 91/156/65 102/157/65 96/158/65
f 102/157/65 91/156/65 97/159/65
f 96/158/65 102/157/65 108/160/65
f 112/162/67 106/161/67 100/163/67
f 101/164/69 108/165/69 113/166/69
# UNHIT_FACE f 101/164/69 114/167/69 107/168/69
f 108/160/65 102/157/65 113/169/65
# UNHIT_FACE f 107/168/69 114/167/69 111/170/69
f 113/166/69 114/167/69 101/164/69
f 129//74 127//74 128//74
f 127//74 129//74 131//74
f 128//72 127//72 129//72
f 131//72 129//72 127//72
f 131//71 127//71 130//71
f 129//73 131//73 132//73
f 130//73 132//73 131//73
f 130/174/76 127/172/76 131/175/76
f 132/176/75 131/171/75 129/173/75
f 131/171/75 132/176/75 130/177/75
