# Merged(arrow/base_geom)

v -0.175954 0.776227 -0.586373
v 0.180351 0.633706 -0.586373
v -0.175954 0.633706 -0.586373
v 0.180351 0.776227 -0.586373
v -0.175954 0.633706 -0.550743
v 0.180351 0.776227 -0.550743
v 0.180351 0.633706 -0.550743
v -0.175954 0.776227 -0.550743
v -0.175954 0.716843 -0.550743
v 0.180351 0.716843 -0.550743
v 0.180351 0.740597 0.51817
v -0.175954 0.740597 -0.550743
v -0.175954 0.740597 0.51817
v 0.180351 0.740597 -0.550743
v 0.180351 0.716843 -0.550743
v 0.180351 0.716843 0.51817
v -0.175954 0.716843 -0.550743
v -0.175954 0.716843 0.51817
v 0.207074 -0.640082 0.5538
v 0.207074 0.76732 0.589431
v 0.207074 -0.640082 0.589431
v 0.207074 0.76732 0.5538
v -0.202676 -0.640082 0.589431
v -0.202676 0.76732 0.5538
v -0.202676 0.76732 0.589431
v -0.202676 -0.640082 0.5538
v 0.204104 -0.64899 -0.586373
v 0.180351 -0.64899 -0.586373
v 0.204104 0.776227 -0.586373
v 0.180351 0.776227 -0.586373
v 0.204104 -0.64899 0.40534
v 0.180351 0.776227 0.40534
v 0.204104 0.776227 0.40534
v 0.180351 -0.64899 0.40534
v -0.140323 -0.64899 0.51817
v -0.211584 -0.64899 0.5538
v -0.211584 -0.64899 0.51817
v -0.140323 -0.64899 0.5538
v -0.211584 0.776227 0.51817
v -0.140323 0.776227 0.5538
v -0.211584 0.776227 0.5538
v -0.140323 0.776227 0.51817
v 0.14472 -0.577729 0.5538
v -0.140323 -0.64899 0.5538
v 0.14472 -0.64899 0.5538
v -0.140323 -0.577729 0.5538
v 0.14472 -0.64899 0.51817
v -0.140323 -0.577729 0.51817
v -0.140323 -0.64899 0.51817
v 0.14472 -0.577729 0.51817
v 0.14472 0.776227 0.5538
v -0.140323 0.704966 0.5538
v 0.14472 0.704966 0.5538
v -0.140323 0.776227 0.5538
v 0.14472 0.704966 0.51817
v -0.140323 0.776227 0.51817
v -0.140323 0.704966 0.51817
v 0.14472 0.776227 0.51817
v -0.009678 0.716843 -0.532928
v 0.014075 -0.589606 -0.532928
v -0.009678 -0.589606 -0.532928
v 0.014075 0.716843 -0.532928
v 0.014075 -0.589606 0.51817
v -0.009678 -0.589606 0.51817
v 0.014075 0.716843 0.51817
v -0.009678 0.716843 0.51817
v 0.125757 0.085888 0.645072
v 0.125757 0.129276 0.589431
v 0.125757 0.085888 0.589431
v 0.125757 0.129276 0.645072
v 0.145868 0.085888 0.589431
v 0.129132 0.085888 0.641697
v 0.129132 0.129276 0.641697
v 0.145868 0.129276 0.589431
v 0.142493 0.085888 0.641697
v 0.135813 0.085888 0.639907
v 0.135813 0.129276 0.639907
v 0.142493 0.129276 0.641697
v 0.145868 0.129276 0.645072
v 0.145868 0.085888 0.645072
v 0.204104 -0.862772 -0.586373
v 0.180351 -0.862772 -0.586373
v 0.204104 -0.64899 -0.586373
v 0.180351 -0.64899 -0.586373
v 0.204104 -0.862772 0.40534
v 0.204104 -0.64899 0.40534
v 0.180351 -0.64899 0.40534
v 0.180351 -0.862772 0.40534
v -0.175954 -0.583667 -0.550743
v 0.180351 -0.583667 -0.586373
v -0.175954 -0.583667 -0.586373
v 0.180351 -0.583667 -0.550743
v 0.180351 -0.862772 -0.586373
v -0.175954 -0.862772 -0.586373
v 0.215981 -0.64899 0.51817
v 0.14472 -0.64899 0.5538
v 0.14472 -0.64899 0.51817
v 0.215981 -0.64899 0.5538
v 0.14472 0.776227 0.51817
v 0.215981 0.776227 0.5538
v 0.14472 0.776227 0.5538
v 0.215981 0.776227 0.51817
v 0.204104 0.776227 0.51817
v 0.204104 0.776227 0.40534
v 0.180351 0.776227 0.51817
v 0.204104 -0.64899 0.51817
v 0.180351 0.776227 0.40534
v 0.204104 -0.64899 0.40534
v 0.180351 -0.64899 0.40534
v 0.180351 -0.64899 0.51817
v 0.147384 0.624798 0.646588
v 0.147384 0.624798 0.659949
v 0.149174 0.624798 0.653269
v 0.142493 0.624798 0.641697
v 0.149174 0.085888 0.653269
v 0.147384 0.085888 0.646588
v 0.142493 0.085888 0.641697
v 0.142493 0.624798 0.66484
v 0.147384 0.085888 0.659949
v 0.135813 0.624798 0.639907
v 0.142493 0.085888 0.66484
v 0.135813 0.085888 0.639907
v 0.135813 0.624798 0.66663
v 0.135813 0.085888 0.66663
v 0.129132 0.624798 0.641697
v 0.129132 0.085888 0.641697
v 0.129132 0.624798 0.66484
v 0.129132 0.085888 0.66484
v 0.124241 0.624798 0.646588
v 0.124241 0.085888 0.646588
v 0.124241 0.624798 0.659949
v 0.122451 0.085888 0.653269
v 0.122451 0.624798 0.653269
v 0.124241 0.085888 0.659949
v -0.175954 0.776227 0.51817
v -0.199707 0.776227 0.40534
v -0.199707 0.776227 0.51817
v -0.175954 0.776227 0.40534
v -0.199707 -0.64899 0.51817
v -0.175954 -0.64899 0.40534
v -0.199707 -0.64899 0.40534
v -0.175954 -0.64899 0.51817
v -0.175954 0.716843 -0.550743
v 0.180351 -0.613359 -0.550743
v -0.175954 -0.613359 -0.550743
v 0.180351 0.716843 -0.550743
v 0.180351 0.716843 -0.532928
v -0.175954 0.716843 -0.532928
v -0.175954 -0.613359 -0.532928
v 0.180351 -0.613359 -0.532928
v 0.145868 0.624798 0.589431
v 0.142493 0.624798 0.641697
v 0.145868 0.624798 0.645072
v 0.125757 0.624798 0.589431
v 0.145868 0.58141 0.589431
v 0.135813 0.624798 0.639907
v 0.145868 0.58141 0.645072
v 0.125757 0.58141 0.589431
v 0.129132 0.624798 0.641697
v 0.142493 0.58141 0.641697
v 0.125757 0.58141 0.645072
v 0.125757 0.624798 0.645072
v 0.135813 0.58141 0.639907
v 0.129132 0.58141 0.641697
v 0.14472 -0.583667 -0.550743
v -0.175954 -0.583667 -0.550743
v 0.14472 -0.485862 -0.550743
v -0.175954 -0.485862 -0.550743
v -0.199707 0.776227 -0.586373
v -0.175954 -0.64899 -0.586373
v -0.199707 -0.64899 -0.586373
v -0.175954 0.776227 -0.586373
v -0.199707 -0.64899 0.40534
v -0.175954 0.776227 0.40534
v -0.199707 0.776227 0.40534
v -0.175954 -0.64899 0.40534
v 0.180351 -0.613359 0.40534
v -0.175954 -0.862772 0.40534
v 0.180351 -0.862772 0.40534
v -0.175954 -0.613359 0.40534
v 0.180351 -0.589606 0.51817
v -0.175954 -0.589606 -0.532928
v -0.175954 -0.589606 0.51817
v 0.180351 -0.589606 -0.532928
v -0.199707 -0.64899 -0.586373
v -0.175954 -0.862772 -0.586373
v -0.199707 -0.862772 -0.586373
v -0.175954 -0.64899 -0.586373
v -0.199707 -0.862772 0.40534
v -0.199707 -0.64899 0.40534
v -0.175954 -0.64899 0.40534
v -0.175954 -0.862772 0.40534
vt -0.188497 -0.910089
vt -0.250997 -0.316339
vt -0.250997 -0.910089
vt -0.188497 -0.316339
vt -0.266622 -0.910089
vt -0.172872 -0.316339
vt -0.266622 -0.316339
vt -0.172872 -0.910089
vt -0.214538 -3.170505
vt -0.188497 -3.764255
vt -0.188497 -3.170505
vt -0.214538 -3.764255
vt -1.618619 -2.644344
vt -1.556119 -3.113094
vt -1.556119 -2.644344
vt -1.618619 -3.113094
vt -1.629036 -3.113094
vt -1.629036 -2.644344
vt -1.691536 -3.113094
vt -1.691536 -2.644344
vt 0.423307 -0.006303
vt 0.41289 -0.006303
vt 0.423307 0.618697
vt 0.41289 0.618697
vt 0.425911 0.618697
vt -0.008985 0.618697
vt 0.425911 0.629113
vt 0.425911 -0.006303
vt -0.008985 0.629113
vt -0.008985 -0.006303
vt -1.313672 -0.006303
vt -1.282422 -0.021928
vt -1.282422 -0.006303
vt -1.313672 -0.021928
vt -1.282422 0.618697
vt -1.313672 0.618697
vt -1.313672 0.634322
vt -1.282422 0.634322
vt -0.188497 -0.894464
vt -0.219747 -0.331964
vt -0.219747 -0.894464
vt -0.188497 -0.331964
vt -0.188497 -0.894464
vt -0.219747 -0.331964
vt -0.219747 -0.894464
vt -0.188497 -0.331964
vt -0.804011 0.592655
vt -0.814427 0.019738
vt -0.804011 0.019738
vt -0.814427 0.592655
vt -2.144926 0.017134
vt -1.683989 0.006717
vt -1.683989 0.017134
vt -1.146303 0.019738
vt -1.60724 0.592655
vt -1.60724 0.019738
vt -0.814427 1.053592
vt -2.144926 0.592655
vt -1.683989 0.019738
vt -1.683989 0.592655
vt -2.144926 0.006717
vt -2.144926 0.019738
vt -1.146303 0.592655
vt -0.804011 1.053592
vt -1.147761 0.592655
vt -1.158177 0.019738
vt -1.147761 0.019738
vt -1.158177 0.592655
vt 0.423307 -0.100053
vt 0.41289 -0.100053
vt 0.423307 -0.006303
vt 0.41289 -0.006303
vt -0.769226 -0.910089
vt -0.784851 -0.316339
vt -0.784851 -0.910089
vt -0.769226 -0.316339
vt -0.907247 -0.316339
vt -0.907247 -0.910089
vt -1.313672 -0.006303
vt -1.282422 -0.021928
vt -1.282422 -0.006303
vt -1.313672 -0.021928
vt -1.282422 0.618697
vt -1.313672 0.618697
vt -1.313672 0.634322
vt -1.282422 0.634322
vt -0.071485 0.629113
vt -0.022006 0.629113
vt -0.071485 0.618697
vt -0.022006 0.618697
vt -0.022006 -0.006303
vt -0.022006 -0.01672
vt -0.071485 -0.01672
vt -0.071485 -0.006303
vt -0.351314 9.471887
vt -0.332661 -0.625198
vt -0.329728 9.47188
vt -0.354248 -0.625191
vt -0.413223 -0.625174
vt -0.410289 9.471904
vt -0.490851 9.471928
vt -0.493785 -0.625151
vt -0.571413 9.471951
vt -0.574347 -0.625127
vt -0.630388 9.471969
vt -0.633322 -0.62511
vt -0.654909 -0.625104
vt -0.651975 9.471975
vt -0.071485 0.618697
vt -0.022006 0.629113
vt -0.071485 0.629113
vt -0.022006 0.618697
vt -0.022006 -0.006303
vt -0.071485 -0.006303
vt -0.071485 -0.01672
vt -0.022006 -0.01672
vt -0.704297 0.592655
vt -1.298047 0.009322
vt -0.704297 0.009322
vt -1.298047 0.592655
vt 1.556119 0.600467
vt 2.149869 0.592655
vt 2.149869 0.600467
vt 1.556119 0.592655
vt 1.556119 0.009322
vt 2.149869 0.009322
vt 0.0 0.0
vt 1.0 0.0
vt 0.0 1.0
vt 1.0 1.0
vt 0.423307 0.618697
vt 0.41289 -0.006303
vt 0.423307 -0.006303
vt 0.41289 0.618697
vt 0.425911 0.629113
vt -0.008985 0.618697
vt 0.425911 0.618697
vt 0.425911 -0.006303
vt -0.008985 0.629113
vt -0.008985 -0.006303
vt -1.433555 -0.957049
vt -1.894492 -0.363299
vt -1.433555 -0.363299
vt -1.894492 -0.957049
vt 0.423307 -0.006303
vt 0.41289 -0.100053
vt 0.423307 -0.100053
vt 0.41289 -0.006303
vn 0.0 0.0 -1.0
vn 0.0 -1.0 0.0
vn 0.0 1.0 0.0
vn 0.0 0.0 1.0
vn 0.0 1.0 0.0
vn 1.0 0.0 0.0
vn 0.0 -1.0 0.0
vn -1.0 0.0 0.0
vn 1.0 0.0 0.0
vn -1.0 0.0 0.0
vn 0.0 0.0 1.0
vn 0.0 0.0 -1.0
vn 0.0 -1.0 0.0
vn 0.0 1.0 0.0
vn 0.0 0.0 -1.0
vn 0.0 1.0 0.0
vn -1.0 0.0 0.0
vn 0.0 0.0 1.0
vn 0.0 -1.0 0.0
vn 1.0 0.0 0.0
vn 0.0 -1.0 0.0
vn 0.0 0.0 -1.0
vn 0.0 1.0 0.0
vn 1.0 0.0 0.0
vn 0.0 0.0 1.0
vn -1.0 0.0 0.0
vn 0.0 0.0 1.0
vn 0.0 -1.0 0.0
vn 0.0 1.0 0.0
vn 0.0 0.0 -1.0
vn 0.0 0.0 1.0
vn 0.0 -1.0 0.0
vn 0.0 1.0 0.0
vn 0.0 0.0 -1.0
vn 0.0 0.0 -1.0
vn 0.0 -1.0 0.0
vn -1.0 0.0 0.0
vn 0.0 1.0 0.0
vn 1.0 0.0 0.0
vn 0.0 0.0 1.0
vn -1.0 0.0 0.0
vn 0.0 0.0 -1.0
vn 0.0 -1.0 0.0
vn 0.0 1.0 0.0
vn 1.0 0.0 0.0
vn 0.0 0.0 1.0
vn 0.0 0.0 -1.0
vn 0.0 0.0 1.0
vn -1.0 0.0 0.0
vn 1.0 0.0 0.0
vn 0.0 1.0 0.0
vn 0.0 0.0 -1.0
vn 0.0 -1.0 0.0
vn 0.0 0.0 1.0
vn 0.0 -1.0 0.0
vn 0.0 0.0 -1.0
vn 0.0 1.0 0.0
vn 1.0 0.0 0.0
vn 0.0 0.0 1.0
vn -1.0 0.0 0.0
vn 0.0 1.0 0.0
vn -1.0 0.0 0.0
vn 0.0 -1.0 0.0
vn 1.0 0.0 0.0
vn 0.0 1.0 0.0
vn 0.0 -1.0 0.0
vn -1.0 0.0 0.0
vn -0.8660253028382761 0.0 -0.5000001748438416
vn -0.8660253028382761 0.0 0.5000001748438416
vn -0.5000001748438416 0.0 0.8660253028382761
vn 0.0 0.0 1.0
vn -0.5000001748438416 0.0 -0.8660253028382761
vn 0.0 0.0 -1.0
vn 0.5000001748438416 0.0 0.8660253028382761
vn 0.5000001748438416 0.0 -0.8660253028382761
vn 0.8660253028382761 0.0 0.5000001748438416
vn 0.8660253028382761 0.0 -0.5000001748438416
vn 1.0 0.0 0.0
vn 0.0 1.0 0.0
vn 1.0 0.0 0.0
vn 0.0 -1.0 0.0
vn -1.0 0.0 0.0
vn 0.0 0.0 -1.0
vn 0.0 1.0 0.0
vn 0.0 0.0 1.0
vn 0.0 -1.0 0.0
vn 0.0 1.0 0.0
vn 1.0 0.0 0.0
vn 0.0 0.0 -1.0
vn 0.0 -1.0 0.0
vn -1.0 0.0 0.0
vn 0.0 0.0 1.0
vn 0.0 0.0 -1.0
vn 0.0 0.0 1.0
vn 0.0 0.0 -1.0
vn 0.0 1.0 0.0
vn 1.0 0.0 0.0
vn 0.0 0.0 1.0
vn 0.0 -1.0 0.0
vn -1.0 0.0 0.0
vn 0.0 0.0 1.0
vn 0.0 0.0 -1.0
vn 0.0 1.0 0.0
vn 0.0 -1.0 0.0
vn 0.0 0.0 -1.0
vn 0.0 0.0 1.0
vn 1.0 0.0 0.0
vn -1.0 0.0 0.0
usemtl base_geom
f 1/1/1 2/2/1 3/3/1
f 2/2/1 1/1/1 4/4/1
f 2/2/2 5/5/2 3/3/2
f 1/1/3 6/6/3 4/4/3
f 5/5/2 2/2/2 7/7/2
f 6/6/3 1/1/3 8/8/3
# UNHIT_FACE f 9/9/4 6/10/4 8/11/4
# UNHIT_FACE f 6/10/4 9/9/4 10/12/4
f 3//4 2//4 1//4
f 4//4 1//4 2//4
f 3//3 5//3 2//3
f 4//2 6//2 1//2
f 7//3 2//3 5//3
f 8//2 1//2 6//2
# UNHIT_FACE f 8//1 6//1 9//1
# UNHIT_FACE f 10//1 9//1 6//1
f 11/13/5 12/14/5 13/15/5
f 12/14/5 11/13/5 14/16/5
# UNHIT_FACE f 11/13/6 15/17/6 14/16/6
# UNHIT_FACE f 15/17/6 11/13/6 16/18/6
f 16/18/7 17/19/7 15/17/7
# UNHIT_FACE f 17/19/7 16/18/7 18/20/7
f 13//7 12//7 11//7
f 14//7 11//7 12//7
# UNHIT_FACE f 14//8 15//8 11//8
# UNHIT_FACE f 16//8 11//8 15//8
f 15//5 17//5 16//5
# UNHIT_FACE f 18//5 16//5 17//5
f 19//9 20//9 21//9
f 20//9 19//9 22//9
f 21//10 20//10 19//10
f 22//10 19//10 20//10
f 20//11 23//11 21//11
f 21//12 23//12 20//12
f 23//13 19//13 21//13
f 21//14 19//14 23//14
# UNHIT_FACE f 19//12 24//12 22//12
# UNHIT_FACE f 22//11 24//11 19//11
f 24//14 20//14 22//14
f 22//13 20//13 24//13
f 23//11 20//11 25//11
f 25//12 20//12 23//12
f 19//13 23//13 26//13
f 26//14 23//14 19//14
# UNHIT_FACE f 24//12 19//12 26//12
# UNHIT_FACE f 26//11 19//11 24//11
f 20//14 24//14 25//14
f 25//13 24//13 20//13
f 24//10 23//10 25//10
f 25//9 23//9 24//9
f 23//10 24//10 26//10
f 26//9 24//9 23//9
f 27/21/15 28/22/15 29/23/15
f 30/24/15 29/23/15 28/22/15
f 30/25/16 32/26/16 29/27/16
f 30/25/17 28/28/17 32/26/17
f 33/29/16 29/27/16 32/26/16
f 34/30/17 32/26/17 28/28/17
f 29//18 28//18 27//18
f 28//18 29//18 30//18
f 31//17 29//17 27//17
f 29//19 32//19 30//19
f 32//20 28//20 30//20
f 29//17 31//17 33//17
f 32//19 29//19 33//19
f 28//20 32//20 34//20
f 27//20 29//20 31//20
f 33//20 31//20 29//20
f 35/31/21 36/32/21 37/33/21
f 36/32/21 35/31/21 38/34/21
f 39/35/22 35/31/22 37/33/22
f 35/31/22 39/35/22 42/36/22
f 40/37/23 39/35/23 41/38/23
f 39/35/23 40/37/23 42/36/23
f 37//23 36//23 35//23
f 38//23 35//23 36//23
f 37//24 39//24 36//24
f 37//25 35//25 39//25
# UNHIT_FACE f 38//26 40//26 35//26
f 38//22 36//22 40//22
f 41//24 36//24 39//24
f 42//25 39//25 35//25
# UNHIT_FACE f 42//26 35//26 40//26
f 41//22 40//22 36//22
f 41//21 39//21 40//21
f 42//21 40//21 39//21
f 36//26 39//26 37//26
# UNHIT_FACE f 35//24 40//24 38//24
f 40//25 36//25 38//25
f 39//26 36//26 41//26
# UNHIT_FACE f 40//24 35//24 42//24
f 36//25 40//25 41//25
f 43//27 44//27 45//27
f 44//27 43//27 46//27
f 44//28 47//28 45//28
# UNHIT_FACE f 43//29 48//29 46//29
f 47//28 44//28 49//28
# UNHIT_FACE f 48//29 43//29 50//29
f 45//30 44//30 43//30
# UNHIT_FACE f 46//30 43//30 44//30
f 45//29 47//29 44//29
# UNHIT_FACE f 46//28 48//28 43//28
f 49//29 44//29 47//29
# UNHIT_FACE f 50//28 43//28 48//28
# UNHIT_FACE f 49//27 47//27 48//27
# UNHIT_FACE f 50//27 48//27 47//27
# UNHIT_FACE f 48/39/30 47/40/30 49/41/30
# UNHIT_FACE f 47/40/30 48/39/30 50/42/30
f 51//31 52//31 53//31
f 52//31 51//31 54//31
# UNHIT_FACE f 52//32 55//32 53//32
f 51//33 56//33 54//33
# UNHIT_FACE f 55//32 52//32 57//32
f 56//33 51//33 58//33
# UNHIT_FACE f 53//34 52//34 51//34
f 54//34 51//34 52//34
# UNHIT_FACE f 53//33 55//33 52//33
f 54//32 56//32 51//32
# UNHIT_FACE f 57//33 52//33 55//33
f 58//32 51//32 56//32
f 57//31 55//31 56//31
f 58//31 56//31 55//31
f 56/43/34 55/44/34 57/45/34
f 55/44/34 56/43/34 58/46/34
# UNHIT_FACE f 59/47/35 60/48/35 61/49/35
# UNHIT_FACE f 60/48/35 59/47/35 62/50/35
# UNHIT_FACE f 63/51/36 61/52/36 60/53/36
# UNHIT_FACE f 64/54/37 59/55/37 61/56/37
# UNHIT_FACE f 59/47/38 65/57/38 62/50/38
# UNHIT_FACE f 65/58/39 60/59/39 62/60/39
# UNHIT_FACE f 61/52/36 63/51/36 64/61/36
# UNHIT_FACE f 60/59/39 65/58/39 63/62/39
# UNHIT_FACE f 59/55/37 64/54/37 66/63/37
# UNHIT_FACE f 65/57/38 59/47/38 66/64/38
# UNHIT_FACE f 65/65/40 64/66/40 63/67/40
# UNHIT_FACE f 64/66/40 65/65/40 66/68/40
# UNHIT_FACE f 61//40 60//40 59//40
# UNHIT_FACE f 62//40 59//40 60//40
f 60//38 61//38 63//38
# UNHIT_FACE f 61//39 59//39 64//39
# UNHIT_FACE f 62//36 65//36 59//36
# UNHIT_FACE f 62//37 60//37 65//37
f 64//38 63//38 61//38
# UNHIT_FACE f 63//37 65//37 60//37
# UNHIT_FACE f 66//39 64//39 59//39
# UNHIT_FACE f 66//36 59//36 65//36
# UNHIT_FACE f 63//35 64//35 65//35
# UNHIT_FACE f 66//35 65//35 64//35
f 67//41 68//41 69//41
f 68//41 67//41 70//41
# UNHIT_FACE f 68//42 71//42 69//42
f 69//43 72//43 67//43
f 73//44 68//44 70//44
# UNHIT_FACE f 71//42 68//42 74//42
f 71//43 75//43 69//43
f 69//43 76//43 72//43
# UNHIT_FACE f 77//44 68//44 73//44
f 78//44 74//44 68//44
f 79//45 71//45 74//45
f 75//43 71//43 80//43
f 69//43 75//43 76//43
# UNHIT_FACE f 78//44 68//44 77//44
# UNHIT_FACE f 74//44 78//44 79//44
f 71//45 79//45 80//45
f 69//45 68//45 67//45
f 70//45 67//45 68//45
# UNHIT_FACE f 69//46 71//46 68//46
f 67//44 72//44 69//44
# UNHIT_FACE f 70//43 68//43 73//43
# UNHIT_FACE f 74//46 68//46 71//46
f 69//44 75//44 71//44
f 72//44 76//44 69//44
f 73//43 68//43 77//43
f 68//43 74//43 78//43
f 74//41 71//41 79//41
f 80//44 71//44 75//44
f 76//44 75//44 69//44
f 77//43 68//43 78//43
f 79//43 78//43 74//43
f 80//41 79//41 71//41
f 81/69/47 82/70/47 83/71/47
f 84/72/47 83/71/47 82/70/47
f 83//48 82//48 81//48
# UNHIT_FACE f 82//48 83//48 84//48
f 85//49 83//49 81//49
f 83//49 85//49 86//49
f 85//47 87//47 86//47
f 87//47 85//47 88//47
f 81//50 83//50 85//50
f 86//50 85//50 83//50
f 86//48 87//48 85//48
f 88//48 85//48 87//48
f 89/73/51 90/74/51 91/75/51
f 90/74/51 89/73/51 92/76/51
f 93/77/52 91/75/52 90/74/52
f 91/75/52 93/77/52 94/78/52
f 91//53 90//53 89//53
f 92//53 89//53 90//53
f 90//54 91//54 93//54
f 94//54 93//54 91//54
# UNHIT_FACE f 95/79/55 96/80/55 97/81/55
f 96/80/55 95/79/55 98/82/55
f 99/83/56 95/79/56 97/81/56
f 95/79/56 99/83/56 102/84/56
f 100/85/57 99/83/57 101/86/57
f 99/83/57 100/85/57 102/84/57
f 97//57 96//57 95//57
f 98//57 95//57 96//57
# UNHIT_FACE f 97//58 99//58 96//58
f 97//59 95//59 99//59
f 98//60 100//60 95//60
f 98//56 96//56 100//56
# UNHIT_FACE f 101//58 96//58 99//58
f 102//59 99//59 95//59
f 102//60 95//60 100//60
f 101//56 100//56 96//56
f 101//55 99//55 100//55
f 102//55 100//55 99//55
# UNHIT_FACE f 96//60 99//60 97//60
f 95//58 100//58 98//58
f 100//59 96//59 98//59
# UNHIT_FACE f 99//60 96//60 101//60
f 100//58 95//58 102//58
f 96//59 100//59 101//59
f 103/87/61 104/88/61 105/89/61
f 107/90/61 105/89/61 104/88/61
f 107/90/62 109/91/62 105/89/62
f 108/92/63 106/93/63 109/91/63
f 110/94/62 105/89/62 109/91/62
f 110/94/63 109/91/63 106/93/63
f 105//63 104//63 103//63
f 104//62 106//62 103//62
f 104//63 105//63 107//63
f 106//62 104//62 108//62
f 105//64 109//64 107//64
f 109//61 106//61 108//61
f 109//64 105//64 110//64
f 106//61 109//61 110//61
f 103//64 106//64 104//64
f 108//64 104//64 106//64
# UNHIT_FACE f 111//65 112//65 113//65
f 112//65 111//65 114//65
f 112//65 114//65 118//65
f 118//65 114//65 120//65
# UNHIT_FACE f 119//66 116//66 115//66
f 116//66 121//66 117//66
f 118//65 120//65 123//65
# UNHIT_FACE f 116//66 119//66 121//66
f 117//66 121//66 122//66
f 123//65 120//65 125//65
f 122//66 121//66 124//66
f 123//65 125//65 127//65
f 122//66 124//66 126//66
# UNHIT_FACE f 127//65 125//65 129//65
f 126//66 124//66 128//66
f 127//65 129//65 131//65
f 126//66 128//66 130//66
# UNHIT_FACE f 131//65 129//65 133//65
f 130//66 128//66 134//66
f 130//66 134//66 132//66
# UNHIT_FACE f 113//66 112//66 111//66
# UNHIT_FACE f 114//66 111//66 112//66
f 113//67 115//67 112//68
f 111//69 116//69 113//67
f 114//70 117//70 111//69
f 118//66 114//66 112//66
f 119//68 112//68 115//67
f 115//67 113//67 116//69
f 116//69 111//69 117//70
# UNHIT_FACE f 114//70 120//71 117//70
f 120//66 114//66 118//66
f 118//72 112//68 121//72
f 119//68 121//72 112//68
# UNHIT_FACE f 115//65 116//65 119//65
f 117//65 121//65 116//65
# UNHIT_FACE f 122//71 117//70 120//71
f 123//66 120//66 118//66
f 121//72 124//73 118//72
f 121//65 119//65 116//65
f 122//65 121//65 117//65
# UNHIT_FACE f 120//71 125//74 122//71
f 125//66 120//66 123//66
f 123//73 118//72 124//73
f 124//65 121//65 122//65
# UNHIT_FACE f 126//74 122//71 125//74
f 127//66 125//66 123//66
f 124//73 128//75 123//73
# UNHIT_FACE f 126//65 124//65 122//65
f 125//74 129//76 126//74
f 129//66 125//66 127//66
f 127//75 123//73 128//75
f 128//65 124//65 126//65
f 130//76 126//74 129//76
f 131//66 129//66 127//66
f 127//75 128//75 131//77
# UNHIT_FACE f 130//65 128//65 126//65
f 130//76 129//76 132//78
f 133//66 129//66 131//66
f 134//77 131//77 128//75
# UNHIT_FACE f 134//65 128//65 130//65
f 133//78 132//78 129//76
# UNHIT_FACE f 132//65 134//65 130//65
f 131//77 134//77 133//78
f 132//78 133//78 134//77
f 112/95/76 115/96/78 113/97/78
f 113/97/78 116/98/77 111/95/77
f 111/95/77 117/99/75 114/100/75
f 115/96/78 112/95/76 119/98/76
f 116/98/77 113/97/78 115/96/78
f 117/99/75 111/95/77 116/98/77
# UNHIT_FACE f 117/99/75 120/101/73 114/100/75
f 121/99/74 112/95/76 118/100/74
f 112/95/76 121/99/74 119/98/76
# UNHIT_FACE f 120/101/73 117/99/75 122/102/73
f 118/100/74 124/102/71 121/99/74
# UNHIT_FACE f 122/102/73 125/103/72 120/101/73
f 124/102/71 118/100/74 123/101/71
# UNHIT_FACE f 125/103/72 122/102/73 126/104/72
f 123/101/71 128/104/70 124/102/71
f 126/104/72 129/105/68 125/103/72
f 128/104/70 123/101/71 127/103/70
f 129/105/68 126/104/72 130/106/68
f 131/105/69 128/104/70 127/103/70
f 132/107/67 129/105/68 130/106/68
f 128/104/70 131/105/69 134/106/69
f 129/105/68 132/107/67 133/108/67
f 133/108/67 134/106/69 131/105/69
f 134/106/69 133/108/67 132/107/67
f 135/109/79 136/110/79 137/111/79
f 136/110/79 135/109/79 138/112/79
f 135/109/80 140/113/80 138/112/80
# UNHIT_FACE f 140/113/80 135/109/80 142/114/80
f 140/113/81 139/115/81 141/116/81
f 139/115/81 140/113/81 142/114/81
f 137//81 136//81 135//81
f 138//81 135//81 136//81
f 137//80 139//80 136//80
f 138//82 140//82 135//82
f 141//80 136//80 139//80
f 142//82 135//82 140//82
f 141//79 139//79 140//79
f 142//79 140//79 139//79
f 136//82 139//82 137//82
f 139//82 136//82 141//82
f 143/117/83 144/118/83 145/119/83
f 144/118/83 143/117/83 146/120/83
f 143/121/84 147/122/84 146/123/84
f 147/122/84 143/121/84 148/124/84
# UNHIT_FACE f 149/125/85 147/122/85 148/124/85
f 147/122/85 149/125/85 150/126/85
f 145//85 144//85 143//85
f 146//85 143//85 144//85
f 146//86 147//86 143//86
f 148//86 143//86 147//86
f 148//83 147//83 149//83
f 150//83 149//83 147//83
f 151//87 152//87 153//87
f 152//87 151//87 154//87
f 153//88 155//88 151//88
# UNHIT_FACE f 155//89 154//89 151//89
f 152//87 154//87 156//87
f 155//88 153//88 157//88
# UNHIT_FACE f 154//89 155//89 158//89
f 156//87 154//87 159//87
# UNHIT_FACE f 160//90 155//90 157//90
f 155//90 160//90 158//90
f 161//91 154//91 158//91
f 159//87 154//87 162//87
# UNHIT_FACE f 158//90 160//90 163//90
f 154//91 161//91 162//91
# UNHIT_FACE f 158//90 164//90 161//90
# UNHIT_FACE f 158//90 163//90 164//90
f 153//90 152//90 151//90
f 154//90 151//90 152//90
f 151//91 155//91 153//91
# UNHIT_FACE f 151//92 154//92 155//92
f 156//90 154//90 152//90
f 157//91 153//91 155//91
# UNHIT_FACE f 158//92 155//92 154//92
f 159//90 154//90 156//90
# UNHIT_FACE f 157//87 155//87 160//87
# UNHIT_FACE f 158//87 160//87 155//87
f 158//88 154//88 161//88
f 162//90 154//90 159//90
# UNHIT_FACE f 163//87 160//87 158//87
f 162//88 161//88 154//88
# UNHIT_FACE f 161//87 164//87 158//87
f 164//87 163//87 158//87
f 165/127/93 166/128/93 167/129/93
# UNHIT_FACE f 167/129/94 166/128/94 165/127/94
# UNHIT_FACE f 165/127/94 167/129/94 166/128/94
f 166/128/93 167/129/93 165/127/93
f 168/130/93 167/129/93 166/128/93
f 166/128/94 167/129/94 168/130/94
# UNHIT_FACE f 168/130/94 166/128/94 167/129/94
# UNHIT_FACE f 167/129/93 166/128/93 168/130/93
f 169/131/95 170/132/95 171/133/95
f 170/132/95 169/131/95 172/134/95
f 169/135/96 174/136/96 172/137/96
f 174/136/97 170/138/97 172/137/97
f 174/136/96 169/135/96 175/139/96
f 170/138/97 174/136/97 176/140/97
f 171//98 170//98 169//98
f 172//98 169//98 170//98
f 171//97 169//97 173//97
f 172//99 174//99 169//99
f 172//100 170//100 174//100
f 175//97 173//97 169//97
f 175//99 169//99 174//99
f 176//100 174//100 170//100
f 173//100 169//100 171//100
f 169//100 173//100 175//100
f 177//101 178//101 179//101
f 178//101 177//101 180//101
f 179//102 178//102 177//102
f 180//102 177//102 178//102
f 181/141/103 182/142/103 183/143/103
f 182/142/103 181/141/103 184/144/103
f 183//104 182//104 181//104
f 184//104 181//104 182//104
f 185/145/105 186/146/105 187/147/105
f 186/146/105 185/145/105 188/148/105
f 187//106 186//106 185//106
f 188//106 185//106 186//106
f 187//107 185//107 189//107
f 190//107 189//107 185//107
f 190//105 191//105 189//105
f 192//105 189//105 191//105
f 189//108 185//108 187//108
f 185//108 189//108 190//108
# UNHIT_FACE f 189//106 191//106 190//106
f 191//106 189//106 192//106
