# Merged(arrow/base_geom)

v -0.388847 0.61981 0.490357
v -0.314665 0.577241 0.500995
v -0.388847 0.577241 0.490357
v -0.314665 0.61981 0.500995
v -0.388847 0.577241 0.522284
v -0.462656 0.61981 0.477377
v -0.314665 0.61981 0.532921
v -0.240183 0.577241 0.50928
v -0.462656 0.577241 0.509304
v -0.314665 0.577241 0.532921
v -0.462656 0.577241 0.477377
v -0.388847 0.61981 0.522284
v -0.240183 0.61981 0.541206
v -0.240183 0.61981 0.50928
v -0.462656 0.61981 0.509304
v -0.165476 0.577241 0.515203
v -0.240183 0.577241 0.541206
v -0.165476 0.61981 0.54713
v -0.165476 0.61981 0.515203
v -0.090619 0.577241 0.51876
v -0.165476 0.577241 0.54713
v -0.090619 0.61981 0.550686
v -0.090619 0.61981 0.51876
v -0.015687 0.577241 0.519946
v -0.090619 0.577241 0.550686
v -0.015687 0.61981 0.551872
v -0.015687 0.61981 0.519946
v 0.059245 0.577241 0.51876
v -0.015687 0.577241 0.551872
v 0.059245 0.61981 0.550686
v 0.059245 0.61981 0.51876
v 0.134102 0.577241 0.515203
v 0.059245 0.577241 0.550686
v 0.134102 0.61981 0.54713
v 0.134102 0.61981 0.515203
v 0.208808 0.577241 0.50928
v 0.134102 0.577241 0.54713
v 0.208808 0.61981 0.541206
v 0.208808 0.61981 0.50928
v 0.28329 0.577241 0.500995
v 0.208808 0.577241 0.541206
v 0.28329 0.61981 0.532921
v 0.28329 0.61981 0.500995
v 0.357473 0.577241 0.490357
v 0.28329 0.577241 0.532921
v 0.357473 0.61981 0.522284
v 0.357473 0.61981 0.490357
v 0.431281 0.577241 0.477377
v 0.357473 0.577241 0.522284
v 0.431281 0.61981 0.509304
v 0.431281 0.61981 0.477377
v 0.431281 0.577241 0.509304
v 0.484492 0.704947 0.39224
v -0.515866 -0.566785 0.39224
v -0.515866 0.704947 0.39224
v 0.484492 -0.566785 0.39224
v 0.484492 0.704947 0.456093
v -0.515866 -0.566785 0.456093
v -0.515866 0.704947 0.456093
v 0.484492 -0.566785 0.456093
v 0.484492 -0.737059 -0.501697
v -0.515866 -0.737059 -0.501697
v -0.515866 -0.737059 0.39224
v 0.484492 -0.737059 0.39224
v -0.515866 -0.566785 0.39224
v 0.484492 -0.566785 0.39224
v -0.515866 0.704947 -0.501697
v 0.484492 -0.737059 -0.501697
v -0.515866 -0.737059 -0.501697
v 0.484492 0.704947 -0.501697
v -0.515866 -0.737059 0.39224
v 0.484492 0.704947 0.39224
v -0.515866 -0.566785 0.39224
v -0.515866 0.704947 0.39224
v 0.484492 -0.566785 0.39224
vt -1.825492 1.328125
vt -1.898846 1.286458
vt -1.825492 1.286458
vt -1.898846 1.328125
vt -2.082962 1.634014
vt -2.082962 1.665264
vt -2.155573 1.654852
vt -1.763057 1.286458
vt -1.689703 1.328125
vt -1.763057 1.328125
vt 2.082962 1.665264
vt 2.155573 1.623602
vt 2.155573 1.654852
vt -1.959416 1.328125
vt -2.032769 1.286458
vt -1.959416 1.286458
vt -2.010717 1.646719
vt -2.155573 1.623602
vt -1.689703 1.286458
vt 2.010717 1.677969
vt 2.082962 1.634014
vt 2.228477 1.615493
vt -2.032769 1.328125
vt -2.228477 1.646743
vt -2.010717 1.677969
vt 1.76847 1.328125
vt 1.695116 1.286458
vt 1.76847 1.286458
vt 1.903282 1.328125
vt 1.829928 1.286458
vt 1.903282 1.286458
vt -1.646719 1.286458
vt -1.677969 1.328125
vt -1.677969 1.286458
vt 2.010717 1.646719
vt 1.829928 1.328125
vt 1.96287 1.286458
vt 2.036224 1.328125
vt 1.96287 1.328125
vt 2.228477 1.646743
vt -2.09134 1.328125
vt -2.164693 1.286458
vt -2.09134 1.286458
vt -2.228477 1.615493
vt 1.695116 1.328125
vt -1.646719 1.328125
vt 2.036224 1.286458
vt 2.301601 1.609695
vt -2.164693 1.328125
vt -2.301601 1.640945
vt 2.09381 1.286458
vt 2.167163 1.328125
vt 2.09381 1.328125
vt 2.301601 1.640945
vt -2.221132 1.328125
vt -2.294486 1.286458
vt -2.221132 1.286458
vt -2.301601 1.609695
vt 2.167163 1.286458
vt 2.374872 1.606213
vt -2.294486 1.328125
vt -2.374872 1.637463
vt 2.222615 1.286458
vt 2.295969 1.328125
vt 2.222615 1.328125
vt 2.374872 1.637463
vt -2.348663 1.328125
vt -2.422016 1.286458
vt -2.348663 1.286458
vt -2.374872 1.606213
vt 2.295969 1.286458
vt 2.448217 1.605053
vt -2.422016 1.328125
vt -2.448217 1.636303
vt 2.349157 1.286458
vt 2.422511 1.328125
vt 2.349157 1.328125
vt 2.448217 1.636303
vt -2.473804 1.328125
vt -2.547158 1.286458
vt -2.473804 1.286458
vt -2.448217 1.605053
vt 2.422511 1.286458
vt 2.521561 1.606213
vt -2.547158 1.328125
vt -2.521561 1.637463
vt 2.47331 1.286458
vt 2.546663 1.328125
vt 2.47331 1.328125
vt 2.521561 1.637463
vt -2.596431 1.328125
vt -2.669785 1.286458
vt -2.596431 1.286458
vt -2.521561 1.606213
vt 2.546663 1.286458
vt 2.594832 1.609695
vt -2.669785 1.328125
vt -2.594832 1.640945
vt 2.594948 1.286458
vt 2.668302 1.328125
vt 2.594948 1.328125
vt 2.594832 1.640945
vt -2.71642 1.328125
vt -2.789774 1.286458
vt -2.71642 1.286458
vt -2.594832 1.609695
vt 2.668302 1.286458
vt 2.667957 1.615493
vt -2.789774 1.328125
vt -2.667957 1.646743
vt 2.71395 1.286458
vt 2.787304 1.328125
vt 2.71395 1.328125
vt 2.667957 1.646743
vt -2.833652 1.328125
vt -2.907006 1.286458
vt -2.833652 1.286458
vt -2.667957 1.615493
vt 2.787304 1.286458
vt 2.740861 1.623602
vt -2.907006 1.328125
vt -2.740861 1.654852
vt 2.830197 1.286458
vt 2.903551 1.328125
vt 2.830197 1.328125
vt 2.740861 1.654852
vt -2.948008 1.328125
vt -3.021362 1.286458
vt -2.948008 1.286458
vt -2.740861 1.623602
vt 2.903551 1.286458
vt 2.813472 1.634014
vt -3.021362 1.328125
vt -2.813472 1.665264
vt 2.943572 1.286458
vt 3.016926 1.328125
vt 2.943572 1.328125
vt 2.813472 1.665264
vt -3.059375 1.328125
vt -3.132729 1.286458
vt -3.059375 1.286458
vt -2.813472 1.634014
vt 3.016926 1.286458
vt 2.885717 1.646719
vt -3.132729 1.328125
vt -2.885717 1.677969
vt 3.053962 1.286458
vt 3.127316 1.328125
vt 3.053962 1.328125
vt 2.885717 1.677969
vt 1.646719 1.328125
vt 1.677969 1.286458
vt 1.677969 1.328125
vt -2.885717 1.646719
vt 3.127316 1.286458
vt 1.646719 1.286458
vt 1.958634 1.761303
vt 2.9378 1.698803
vt 2.9378 1.761303
vt 1.698803 1.411458
vt 1.761303 0.166667
vt 1.761303 1.411458
vt -1.698803 0.166667
vt -1.761303 1.411458
vt -1.761303 0.166667
vt -2.9378 1.761303
vt -1.958634 1.698803
vt -1.958634 1.761303
vt 1.958634 1.698803
vt 1.698803 0.166667
vt -1.698803 1.411458
vt -2.9378 1.698803
vt 1.958634 0.166667
vt 2.9378 1.411458
vt 1.958634 1.411458
vt 2.9378 0.166667
vn 0.15759302335016603 0.0 -0.9875041463160315
vn 0.12626395923537168 0.0 -0.9919966797314437
vn 0.0 -1.0 0.0
vn 0.17319994433623143 0.0 -0.9848866834727364
vn 0.0 1.0 0.0
vn 0.09480904543696149 0.0 -0.9954954770883352
vn -0.15759302335016603 0.0 0.9875041463160315
vn -0.17319994433623143 0.0 0.9848866834727364
vn -0.12626395923537168 0.0 0.9919966797314437
vn -1.0 0.0 0.0
vn -0.09480904543696149 0.0 0.9954954770883352
vn 0.0632590090748218 0.0 -0.9979971431676906
vn -0.0632590090748218 0.0 0.9979971431676906
vn 0.03164500542670751 0.0 -0.9994991714011291
vn -0.03164500542670751 0.0 0.9994991714011291
vn 0.0 0.0 -1.0
vn 0.0 0.0 1.0
vn -0.03164500542670751 0.0 -0.9994991714011291
vn 0.03164500542670751 0.0 0.9994991714011291
vn -0.0632590090748218 0.0 -0.9979971431676906
vn 0.0632590090748218 0.0 0.9979971431676906
vn -0.09480904543696149 0.0 -0.9954954770883352
vn 0.09480904543696149 0.0 0.9954954770883352
vn -0.12626395923537168 0.0 -0.9919966797314437
vn 0.12626395923537168 0.0 0.9919966797314437
vn -0.15759302335016603 0.0 -0.9875041463160315
vn 0.15759302335016603 0.0 0.9875041463160315
vn -0.17319994433623143 0.0 -0.9848866834727364
vn 0.17319994433623143 0.0 0.9848866834727364
vn 1.0 0.0 0.0
vn 0.0 0.0 -1.0
vn 0.0 -1.0 0.0
vn -1.0 0.0 0.0
vn 0.0 1.0 0.0
vn 1.0 0.0 0.0
vn 0.0 0.0 1.0
vn 0.0 0.0 -1.0
vn 0.0 -1.0 0.0
vn -1.0 0.0 0.0
vn 0.0 1.0 0.0
vn 1.0 0.0 0.0
vn 0.0 0.0 1.0
vn 0.0 0.0 -1.0
vn 0.0 -1.0 0.0
vn -1.0 0.0 0.0
vn 0.0 1.0 0.0
vn 1.0 0.0 0.0
vn 0.0 0.0 1.0
usemtl base_geom
f 5/5/3 3/6/3 2/7/3
f 1/11/5 7/12/5 4/13/5
f 9/17/3 3/6/3 5/5/3
f 5/5/3 2/7/3 10/18/3
f 6/20/5 12/21/5 1/11/5
f 1/11/5 12/21/5 7/12/5
f 4/13/5 7/12/5 13/22/5
f 10/18/3 2/7/3 8/24/3
f 3/6/3 9/17/3 11/25/3
f 12/26/7 9/27/8 5/28/7
f 7/29/9 5/30/7 10/31/9
f 9/32/10 6/33/10 11/34/10
f 12/21/5 6/20/5 15/35/5
f 5/30/7 7/29/9 12/36/7
f 10/37/9 13/38/11 7/39/9
f 4/13/5 13/22/5 14/40/5
f 10/18/3 8/24/3 17/44/3
f 9/27/8 12/26/7 15/45/8
f 6/33/10 9/32/10 15/46/10
f 13/38/11 10/37/9 17/47/11
f 14/40/5 13/22/5 18/48/5
f 17/44/3 8/24/3 16/50/3
f 17/51/11 18/52/13 13/53/11
f 14/40/5 18/48/5 19/54/5
f 17/44/3 16/50/3 21/58/3
f 18/52/13 17/51/11 21/59/13
f 19/54/5 18/48/5 22/60/5
f 21/58/3 16/50/3 20/62/3
f 21/63/13 22/64/15 18/65/13
f 19/54/5 22/60/5 23/66/5
f 21/58/3 20/62/3 25/70/3
f 22/64/15 21/63/13 25/71/15
f 23/66/5 22/60/5 26/72/5
f 24/68/16 23/67/14 27/73/16
f 25/70/3 20/62/3 24/74/3
f 25/75/15 26/76/17 22/77/15
f 23/66/5 26/72/5 27/78/5
f 25/70/3 24/74/3 29/82/3
f 26/76/17 25/75/15 29/83/17
f 27/78/5 26/72/5 30/84/5
f 28/80/18 27/79/16 31/85/18
f 29/82/3 24/74/3 28/86/3
f 29/87/17 30/88/19 26/89/17
f 29/82/3 28/86/3 33/94/3
f 30/88/19 29/87/17 33/95/19
f 31/90/5 30/84/5 34/96/5
f 33/94/3 28/86/3 32/98/3
f 33/99/19 34/100/21 30/101/19
f 33/94/3 32/98/3 37/106/3
f 34/100/21 33/99/19 37/107/21
f 37/106/3 32/98/3 36/110/3
f 37/111/21 38/112/23 34/113/21
f 35/102/5 38/108/5 39/114/5
f 37/106/3 36/110/3 41/118/3
f 38/112/23 37/111/21 41/119/23
f 39/114/5 38/108/5 42/120/5
f 41/118/3 36/110/3 40/122/3
f 41/123/23 42/124/25 38/125/23
f 39/114/5 42/120/5 43/126/5
f 41/118/3 40/122/3 45/130/3
f 42/124/25 41/123/23 45/131/25
f 43/126/5 42/120/5 46/132/5
f 45/130/3 40/122/3 44/134/3
f 45/135/25 46/136/27 42/137/25
f 43/126/5 46/132/5 47/138/5
f 45/130/3 44/134/3 49/142/3
f 46/136/27 45/135/25 49/143/27
f 47/138/5 46/132/5 50/144/5
f 49/142/3 44/134/3 48/146/3
f 49/147/27 50/148/29 46/149/27
f 47/138/5 50/144/5 51/150/5
f 50/151/30 48/152/30 51/153/30
f 49/142/3 48/146/3 52/154/3
f 50/148/29 49/147/27 52/155/29
f 48/152/30 50/151/30 52/156/30
f 2//5 3//5 5//5
f 4//3 7//3 1//3
f 5//5 3//5 9//5
f 10//5 2//5 5//5
f 1//3 12//3 6//3
f 7//3 12//3 1//3
f 13//3 7//3 4//3
f 8//5 2//5 10//5
f 11//5 9//5 3//5
f 5//1 9//4 12//1
f 15//3 6//3 12//3
f 12//1 7//2 5//1
f 7//2 13//6 10//2
f 14//3 13//3 4//3
f 17//5 8//5 10//5
f 15//30 9//30 6//30
f 17//6 10//2 13//6
f 18//3 13//3 14//3
f 16//5 8//5 17//5
f 19//3 18//3 14//3
f 21//5 16//5 17//5
f 21//12 17//6 18//12
f 22//3 18//3 19//3
f 20//5 16//5 21//5
f 18//12 22//14 21//12
f 23//3 22//3 19//3
f 25//5 20//5 21//5
f 25//14 21//12 22//14
f 26//3 22//3 23//3
f 27//17 23//15 24//17
f 24//5 20//5 25//5
f 22//14 26//16 25//14
f 27//3 26//3 23//3
f 29//5 24//5 25//5
f 29//16 25//14 26//16
f 30//3 26//3 27//3
f 31//19 27//17 28//19
f 28//5 24//5 29//5
f 26//16 30//18 29//16
f 31//3 30//3 27//3
f 33//5 28//5 29//5
f 33//18 29//16 30//18
f 34//3 30//3 31//3
f 32//5 28//5 33//5
f 30//18 34//20 33//18
f 35//3 34//3 31//3
f 37//5 32//5 33//5
f 37//20 33//18 34//20
f 38//3 34//3 35//3
f 36//5 32//5 37//5
f 34//20 38//22 37//20
f 39//3 38//3 35//3
f 41//5 36//5 37//5
f 41//22 37//20 38//22
f 42//3 38//3 39//3
f 40//5 36//5 41//5
f 38//22 42//24 41//22
f 43//3 42//3 39//3
f 45//5 40//5 41//5
f 45//24 41//22 42//24
f 46//3 42//3 43//3
f 44//5 40//5 45//5
f 42//24 46//26 45//24
f 47//3 46//3 43//3
f 49//5 44//5 45//5
f 49//26 45//24 46//26
f 50//3 46//3 47//3
f 48//5 44//5 49//5
f 46//26 50//28 49//26
f 51//3 50//3 47//3
f 51//10 48//10 50//10
f 52//5 48//5 49//5
f 52//28 49//26 50//28
f 52//10 50//10 48//10
f 53//32 57//32 55//32
f 53//33 56//33 57//33
f 54//35 55//35 58//35
f 54//34 58//34 56//34
f 59//32 55//32 57//32
f 60//33 57//33 56//33
f 59//35 58//35 55//35
f 60//34 56//34 58//34
f 59//31 57//31 58//31
f 60//31 58//31 57//31
f 55/157/34 57/158/34 53/159/34
f 57/160/35 56/161/35 53/162/35
f 58/163/33 55/164/33 54/165/33
f 56/166/32 58/167/32 54/168/32
f 57/158/34 55/157/34 59/169/34
f 56/161/35 57/160/35 60/170/35
f 55/164/33 58/163/33 59/171/33
f 58/167/32 56/166/32 60/172/32
f 58/173/36 57/174/36 59/175/36
f 57/174/36 58/173/36 60/176/36
f 61//38 63//38 62//38
f 63//38 61//38 64//38
f 61//41 66//41 64//41
f 66//42 63//42 64//42
f 63//42 66//42 65//42
f 62//40 63//40 61//40
f 64//40 61//40 63//40
f 64//39 66//39 61//39
f 64//37 63//37 66//37
f 65//37 66//37 63//37
f 67//43 68//43 69//43
f 68//43 67//43 70//43
f 71//45 67//45 69//45
f 67//46 72//46 70//46
f 72//47 68//47 70//47
f 73//45 67//45 71//45
f 72//46 67//46 74//46
f 75//47 68//47 72//47
f 67//45 73//45 74//45
f 69//48 68//48 67//48
f 70//48 67//48 68//48
f 69//47 67//47 71//47
f 70//44 72//44 67//44
f 70//45 68//45 72//45
f 71//47 67//47 73//47
f 74//44 67//44 72//44
f 72//45 68//45 75//45
f 74//47 73//47 67//47
