# Merged(arrow/base_geom)

v -0.515866 0.704947 -0.501697
v 0.484492 -0.737059 -0.501697
v -0.515866 -0.737059 -0.501697
v 0.484492 0.704947 -0.501697
v -0.515866 -0.737059 0.39224
v 0.484492 0.704947 0.39224
v -0.515866 -0.566785 0.39224
v -0.515866 0.704947 0.39224
v 0.484492 -0.566785 0.39224
v 0.484492 0.704947 0.39224
v -0.515866 -0.566785 0.39224
v -0.515866 0.704947 0.39224
v 0.484492 -0.566785 0.39224
v 0.484492 0.704947 0.456093
v -0.515866 -0.566785 0.456093
v -0.515866 0.704947 0.456093
v 0.484492 -0.566785 0.456093
v 0.484492 -0.737059 -0.501697
v -0.515866 -0.737059 -0.501697
v -0.515866 -0.737059 0.39224
v 0.484492 -0.737059 0.39224
v -0.515866 -0.566785 0.39224
v 0.484492 -0.566785 0.39224
v -0.388847 0.61981 0.490357
v -0.314665 0.577241 0.500995
v -0.388847 0.577241 0.490357
v -0.314665 0.61981 0.500995
v -0.388847 0.577241 0.522284
v -0.462656 0.61981 0.477377
v -0.314665 0.61981 0.532921
v -0.240183 0.577241 0.50928
v -0.462656 0.577241 0.509304
v -0.314665 0.577241 0.532921
v -0.462656 0.577241 0.477377
v -0.388847 0.61981 0.522284
v -0.240183 0.61981 0.541206
v -0.240183 0.61981 0.50928
v -0.462656 0.61981 0.509304
v -0.165476 0.577241 0.515203
v -0.240183 0.577241 0.541206
v -0.165476 0.61981 0.54713
v -0.165476 0.61981 0.515203
v -0.090619 0.577241 0.51876
v -0.165476 0.577241 0.54713
v -0.090619 0.61981 0.550686
v -0.090619 0.61981 0.51876
v -0.015687 0.577241 0.519946
v -0.090619 0.577241 0.550686
v -0.015687 0.61981 0.551872
v -0.015687 0.61981 0.519946
v 0.059245 0.577241 0.51876
v -0.015687 0.577241 0.551872
v 0.059245 0.61981 0.550686
v 0.059245 0.61981 0.51876
v 0.134102 0.577241 0.515203
v 0.059245 0.577241 0.550686
v 0.134102 0.61981 0.54713
v 0.134102 0.61981 0.515203
v 0.208808 0.577241 0.50928
v 0.134102 0.577241 0.54713
v 0.208808 0.61981 0.541206
v 0.208808 0.61981 0.50928
v 0.28329 0.577241 0.500995
v 0.208808 0.577241 0.541206
v 0.28329 0.61981 0.532921
v 0.28329 0.61981 0.500995
v 0.357473 0.577241 0.490357
v 0.28329 0.577241 0.532921
v 0.357473 0.61981 0.522284
v 0.357473 0.61981 0.490357
v 0.431281 0.577241 0.477377
v 0.357473 0.577241 0.522284
v 0.431281 0.61981 0.509304
v 0.431281 0.61981 0.477377
v 0.431281 0.577241 0.509304
vt 1.958634 1.761303
vt 2.9378 1.698803
vt 2.9378 1.761303
vt 1.698803 1.411458
vt 1.761303 0.166667
vt 1.761303 1.411458
vt -1.698803 0.166667
vt -1.761303 1.411458
vt -1.761303 0.166667
vt -2.9378 1.761303
vt -1.958634 1.698803
vt -1.958634 1.761303
vt 1.958634 1.698803
vt 1.698803 0.166667
vt -1.698803 1.411458
vt -2.9378 1.698803
vt 1.958634 0.166667
vt 2.9378 1.411458
vt 1.958634 1.411458
vt 2.9378 0.166667
vt -1.825492 1.328125
vt -1.898846 1.286458
vt -1.825492 1.286458
vt -1.898846 1.328125
vt -2.082962 1.634014
vt -2.082962 1.665264
vt -2.155573 1.654852
vt -1.763057 1.286458
vt -1.689703 1.328125
vt -1.763057 1.328125
vt 2.082962 1.665264
vt 2.155573 1.623602
vt 2.155573 1.654852
vt -1.959416 1.328125
vt -2.032769 1.286458
vt -1.959416 1.286458
vt -2.010717 1.646719
vt -2.155573 1.623602
vt -1.689703 1.286458
vt 2.010717 1.677969
vt 2.082962 1.634014
vt 2.228477 1.615493
vt -2.032769 1.328125
vt -2.228477 1.646743
vt -2.010717 1.677969
vt 1.76847 1.328125
vt 1.695116 1.286458
vt 1.76847 1.286458
vt 1.903282 1.328125
vt 1.829928 1.286458
vt 1.903282 1.286458
vt -1.646719 1.286458
vt -1.677969 1.328125
vt -1.677969 1.286458
vt 2.010717 1.646719
vt 1.829928 1.328125
vt 1.96287 1.286458
vt 2.036224 1.328125
vt 1.96287 1.328125
vt 2.228477 1.646743
vt -2.09134 1.328125
vt -2.164693 1.286458
vt -2.09134 1.286458
vt -2.228477 1.615493
vt 1.695116 1.328125
vt -1.646719 1.328125
vt 2.036224 1.286458
vt 2.301601 1.609695
vt -2.164693 1.328125
vt -2.301601 1.640945
vt 2.09381 1.286458
vt 2.167163 1.328125
vt 2.09381 1.328125
vt 2.301601 1.640945
vt -2.221132 1.328125
vt -2.294486 1.286458
vt -2.221132 1.286458
vt -2.301601 1.609695
vt 2.167163 1.286458
vt 2.374872 1.606213
vt -2.294486 1.328125
vt -2.374872 1.637463
vt 2.222615 1.286458
vt 2.295969 1.328125
vt 2.222615 1.328125
vt 2.374872 1.637463
vt -2.348663 1.328125
vt -2.422016 1.286458
vt -2.348663 1.286458
vt -2.374872 1.606213
vt 2.295969 1.286458
vt 2.448217 1.605053
vt -2.422016 1.328125
vt -2.448217 1.636303
vt 2.349157 1.286458
vt 2.422511 1.328125
vt 2.349157 1.328125
vt 2.448217 1.636303
vt -2.473804 1.328125
vt -2.547158 1.286458
vt -2.473804 1.286458
vt -2.448217 1.605053
vt 2.422511 1.286458
vt 2.521561 1.606213
vt -2.547158 1.328125
vt -2.521561 1.637463
vt 2.47331 1.286458
vt 2.546663 1.328125
vt 2.47331 1.328125
vt 2.521561 1.637463
vt -2.596431 1.328125
vt -2.669785 1.286458
vt -2.596431 1.286458
vt -2.521561 1.606213
vt 2.546663 1.286458
vt 2.594832 1.609695
vt -2.669785 1.328125
vt -2.594832 1.640945
vt 2.594948 1.286458
vt 2.668302 1.328125
vt 2.594948 1.328125
vt 2.594832 1.640945
vt -2.71642 1.328125
vt -2.789774 1.286458
vt -2.71642 1.286458
vt -2.594832 1.609695
vt 2.668302 1.286458
vt 2.667957 1.615493
vt -2.789774 1.328125
vt -2.667957 1.646743
vt 2.71395 1.286458
vt 2.787304 1.328125
vt 2.71395 1.328125
vt 2.667957 1.646743
vt -2.833652 1.328125
vt -2.907006 1.286458
vt -2.833652 1.286458
vt -2.667957 1.615493
vt 2.787304 1.286458
vt 2.740861 1.623602
vt -2.907006 1.328125
vt -2.740861 1.654852
vt 2.830197 1.286458
vt 2.903551 1.328125
vt 2.830197 1.328125
vt 2.740861 1.654852
vt -2.948008 1.328125
vt -3.021362 1.286458
vt -2.948008 1.286458
vt -2.740861 1.623602
vt 2.903551 1.286458
vt 2.813472 1.634014
vt -3.021362 1.328125
vt -2.813472 1.665264
vt 2.943572 1.286458
vt 3.016926 1.328125
vt 2.943572 1.328125
vt 2.813472 1.665264
vt -3.059375 1.328125
vt -3.132729 1.286458
vt -3.059375 1.286458
vt -2.813472 1.634014
vt 3.016926 1.286458
vt 2.885717 1.646719
vt -3.132729 1.328125
vt -2.885717 1.677969
vt 3.053962 1.286458
vt 3.127316 1.328125
vt 3.053962 1.328125
vt 2.885717 1.677969
vt 1.646719 1.328125
vt 1.677969 1.286458
vt 1.677969 1.328125
vt -2.885717 1.646719
vt 3.127316 1.286458
vt 1.646719 1.286458
vn 0.0 0.0 -1.0
vn 0.0 -1.0 0.0
vn -1.0 0.0 0.0
vn 0.0 1.0 0.0
vn 1.0 0.0 0.0
vn 0.0 0.0 1.0
vn 0.0 0.0 -1.0
vn 0.0 -1.0 0.0
vn -1.0 0.0 0.0
vn 0.0 1.0 0.0
vn 1.0 0.0 0.0
vn 0.0 0.0 1.0
vn 0.0 0.0 -1.0
vn 0.0 -1.0 0.0
vn -1.0 0.0 0.0
vn 0.0 1.0 0.0
vn 1.0 0.0 0.0
vn 0.0 0.0 1.0
vn 0.15759302335016603 0.0 -0.9875041463160315
vn 0.12626395923537168 0.0 -0.9919966797314437
vn 0.0 -1.0 0.0
vn 0.17319994433623143 0.0 -0.9848866834727364
vn 0.0 1.0 0.0
vn 0.09480904543696149 0.0 -0.9954954770883352
vn -0.15759302335016603 0.0 0.9875041463160315
vn -0.17319994433623143 0.0 0.9848866834727364
vn -0.12626395923537168 0.0 0.9919966797314437
vn -1.0 0.0 0.0
vn -0.09480904543696149 0.0 0.9954954770883352
vn 0.0632590090748218 0.0 -0.9979971431676906
vn -0.0632590090748218 0.0 0.9979971431676906
vn 0.03164500542670751 0.0 -0.9994991714011291
vn -0.03164500542670751 0.0 0.9994991714011291
vn 0.0 0.0 -1.0
vn 0.0 0.0 1.0
vn -0.03164500542670751 0.0 -0.9994991714011291
vn 0.03164500542670751 0.0 0.9994991714011291
vn -0.0632590090748218 0.0 -0.9979971431676906
vn 0.0632590090748218 0.0 0.9979971431676906
vn -0.09480904543696149 0.0 -0.9954954770883352
vn 0.09480904543696149 0.0 0.9954954770883352
vn -0.12626395923537168 0.0 -0.9919966797314437
vn 0.12626395923537168 0.0 0.9919966797314437
vn -0.15759302335016603 0.0 -0.9875041463160315
vn 0.15759302335016603 0.0 0.9875041463160315
vn -0.17319994433623143 0.0 -0.9848866834727364
vn 0.17319994433623143 0.0 0.9848866834727364
vn 1.0 0.0 0.0
usemtl base_geom
f 1//1 2//1 3//1
f 2//1 1//1 4//1
f 5//3 1//3 3//3
f 1//4 6//4 4//4
f 6//5 2//5 4//5
f 7//3 1//3 5//3
f 6//4 1//4 8//4
f 9//5 2//5 6//5
f 1//3 7//3 8//3
f 3//6 2//6 1//6
f 4//6 1//6 2//6
f 3//5 1//5 5//5
f 4//2 6//2 1//2
f 4//3 2//3 6//3
f 5//5 1//5 7//5
f 8//2 1//2 6//2
f 6//3 2//3 9//3
f 8//5 7//5 1//5
# UNHIT_FACE f 11//12 10//12 12//12
# UNHIT_FACE f 10//12 11//12 13//12
f 10//8 14//8 12//8
# UNHIT_FACE f 12//7 10//7 11//7
f 10//9 13//9 14//9
# UNHIT_FACE f 13//7 11//7 10//7
f 11//11 12//11 15//11
f 11//10 15//10 13//10
f 16//8 12//8 14//8
f 17//9 14//9 13//9
f 16//11 15//11 12//11
f 17//10 13//10 15//10
f 16//7 14//7 15//7
f 17//7 15//7 14//7
f 12/1/10 14/2/10 10/3/10
f 14/4/11 13/5/11 10/6/11
f 15/7/9 12/8/9 11/9/9
f 13/10/8 15/11/8 11/12/8
f 14/2/10 12/1/10 16/13/10
f 13/5/11 14/4/11 17/14/11
f 12/8/9 15/7/9 16/15/9
f 15/11/8 13/10/8 17/16/8
f 15/17/12 14/18/12 16/19/12
f 14/18/12 15/17/12 17/20/12
f 18//14 20//14 19//14
f 20//14 18//14 21//14
f 18//17 23//17 21//17
f 23//18 20//18 21//18
f 20//18 23//18 22//18
f 19//16 20//16 18//16
f 21//16 18//16 20//16
f 21//15 23//15 18//15
f 21//13 20//13 23//13
f 22//13 23//13 20//13
# UNHIT_FACE f 24/21/19 25/22/20 26/23/19
# UNHIT_FACE f 25/22/20 24/21/19 27/24/20
f 28/25/21 26/26/21 25/27/21
# UNHIT_FACE f 26/28/19 29/29/22 24/30/19
f 24/31/23 30/32/23 27/33/23
# UNHIT_FACE f 27/34/20 31/35/24 25/36/20
f 32/37/21 26/26/21 28/25/21
f 28/25/21 25/27/21 33/38/21
# UNHIT_FACE f 29/29/22 26/28/19 34/39/22
f 29/40/23 35/41/23 24/31/23
f 24/31/23 35/41/23 30/32/23
f 27/33/23 30/32/23 36/42/23
# UNHIT_FACE f 31/35/24 27/34/20 37/43/24
f 33/38/21 25/27/21 31/44/21
f 26/26/21 32/37/21 34/45/21
f 35/46/25 32/47/26 28/48/25
f 30/49/27 28/50/25 33/51/27
f 32/52/28 29/53/28 34/54/28
f 35/41/23 29/40/23 38/55/23
f 28/50/25 30/49/27 35/56/25
f 33/57/27 36/58/29 30/59/27
f 27/33/23 36/42/23 37/60/23
# UNHIT_FACE f 37/61/24 39/62/30 31/63/24
f 33/38/21 31/44/21 40/64/21
# UNHIT_FACE f 32/47/26 35/46/25 38/65/26
f 29/53/28 32/52/28 38/66/28
f 36/58/29 33/57/27 40/67/29
f 37/60/23 36/42/23 41/68/23
# UNHIT_FACE f 39/62/30 37/61/24 42/69/30
f 40/64/21 31/44/21 39/70/21
f 40/71/29 41/72/31 36/73/29
f 37/60/23 41/68/23 42/74/23
# UNHIT_FACE f 42/75/30 43/76/32 39/77/30
f 40/64/21 39/70/21 44/78/21
f 41/72/31 40/71/29 44/79/31
f 42/74/23 41/68/23 45/80/23
# UNHIT_FACE f 43/76/32 42/75/30 46/81/32
f 44/78/21 39/70/21 43/82/21
f 44/83/31 45/84/33 41/85/31
f 42/74/23 45/80/23 46/86/23
# UNHIT_FACE f 46/87/32 47/88/34 43/89/32
f 44/78/21 43/82/21 48/90/21
f 45/84/33 44/83/31 48/91/33
f 46/86/23 45/80/23 49/92/23
f 47/88/34 46/87/32 50/93/34
f 48/90/21 43/82/21 47/94/21
f 48/95/33 49/96/35 45/97/33
f 46/86/23 49/92/23 50/98/23
# UNHIT_FACE f 50/99/34 51/100/36 47/101/34
f 48/90/21 47/94/21 52/102/21
f 49/96/35 48/95/33 52/103/35
f 50/98/23 49/92/23 53/104/23
f 51/100/36 50/99/34 54/105/36
f 52/102/21 47/94/21 51/106/21
f 52/107/35 53/108/37 49/109/35
f 50/98/23 53/104/23 54/110/23
# UNHIT_FACE f 54/111/36 55/112/38 51/113/36
f 52/102/21 51/106/21 56/114/21
f 53/108/37 52/107/35 56/115/37
f 54/110/23 53/104/23 57/116/23
# UNHIT_FACE f 55/112/38 54/111/36 58/117/38
f 56/114/21 51/106/21 55/118/21
f 56/119/37 57/120/39 53/121/37
# UNHIT_FACE f 54/110/23 57/116/23 58/122/23
# UNHIT_FACE f 58/123/38 59/124/40 55/125/38
f 56/114/21 55/118/21 60/126/21
f 57/120/39 56/119/37 60/127/39
f 58/122/23 57/116/23 61/128/23
# UNHIT_FACE f 59/124/40 58/123/38 62/129/40
f 60/126/21 55/118/21 59/130/21
f 60/131/39 61/132/41 57/133/39
f 58/122/23 61/128/23 62/134/23
# UNHIT_FACE f 62/135/40 63/136/42 59/137/40
f 60/126/21 59/130/21 64/138/21
f 61/132/41 60/131/39 64/139/41
f 62/134/23 61/128/23 65/140/23
# UNHIT_FACE f 63/136/42 62/135/40 66/141/42
f 64/138/21 59/130/21 63/142/21
f 64/143/41 65/144/43 61/145/41
f 62/134/23 65/140/23 66/146/23
# UNHIT_FACE f 66/147/42 67/148/44 63/149/42
f 64/138/21 63/142/21 68/150/21
f 65/144/43 64/143/41 68/151/43
f 66/146/23 65/140/23 69/152/23
# UNHIT_FACE f 67/148/44 66/147/42 70/153/44
f 68/150/21 63/142/21 67/154/21
f 68/155/43 69/156/45 65/157/43
f 66/146/23 69/152/23 70/158/23
# UNHIT_FACE f 70/159/44 71/160/46 67/161/44
f 68/150/21 67/154/21 72/162/21
f 69/156/45 68/155/43 72/163/45
f 70/158/23 69/152/23 73/164/23
# UNHIT_FACE f 71/160/46 70/159/44 74/165/46
f 72/162/21 67/154/21 71/166/21
f 72/167/45 73/168/47 69/169/45
f 70/158/23 73/164/23 74/170/23
f 73/171/48 71/172/48 74/173/48
f 72/162/21 71/166/21 75/174/21
f 73/168/47 72/167/45 75/175/47
f 71/172/48 73/171/48 75/176/48
# UNHIT_FACE f 26//25 25//27 24//25
# UNHIT_FACE f 27//27 24//25 25//27
f 25//23 26//23 28//23
# UNHIT_FACE f 24//25 29//26 26//25
f 27//21 30//21 24//21
# UNHIT_FACE f 25//27 31//29 27//27
f 28//23 26//23 32//23
f 33//23 25//23 28//23
# UNHIT_FACE f 34//26 26//25 29//26
f 24//21 35//21 29//21
f 30//21 35//21 24//21
f 36//21 30//21 27//21
# UNHIT_FACE f 37//29 27//27 31//29
f 31//23 25//23 33//23
f 34//23 32//23 26//23
f 28//19 32//22 35//19
# UNHIT_FACE f 33//20 28//19 30//20
# UNHIT_FACE f 34//48 29//48 32//48
f 38//21 29//21 35//21
f 35//19 30//20 28//19
f 30//20 36//24 33//20
f 37//21 36//21 27//21
# UNHIT_FACE f 31//29 39//31 37//29
f 40//23 31//23 33//23
f 38//22 35//19 32//22
f 38//48 32//48 29//48
f 40//24 33//20 36//24
f 41//21 36//21 37//21
# UNHIT_FACE f 42//31 37//29 39//31
f 39//23 31//23 40//23
f 36//24 41//30 40//24
f 42//21 41//21 37//21
# UNHIT_FACE f 39//31 43//33 42//31
f 44//23 39//23 40//23
f 44//30 40//24 41//30
f 45//21 41//21 42//21
# UNHIT_FACE f 46//33 42//31 43//33
f 43//23 39//23 44//23
f 41//30 45//32 44//30
f 46//21 45//21 42//21
# UNHIT_FACE f 43//33 47//35 46//33
f 48//23 43//23 44//23
f 48//32 44//30 45//32
f 49//21 45//21 46//21
f 50//35 46//33 47//35
f 47//23 43//23 48//23
f 45//32 49//34 48//32
f 50//21 49//21 46//21
# UNHIT_FACE f 47//35 51//37 50//35
f 52//23 47//23 48//23
f 52//34 48//32 49//34
f 53//21 49//21 50//21
f 54//37 50//35 51//37
f 51//23 47//23 52//23
f 49//34 53//36 52//34
f 54//21 53//21 50//21
# UNHIT_FACE f 51//37 55//39 54//37
f 56//23 51//23 52//23
f 56//36 52//34 53//36
# UNHIT_FACE f 57//21 53//21 54//21
# UNHIT_FACE f 58//39 54//37 55//39
f 55//23 51//23 56//23
f 53//36 57//38 56//36
f 58//21 57//21 54//21
# UNHIT_FACE f 55//39 59//41 58//39
f 60//23 55//23 56//23
f 60//38 56//36 57//38
f 61//21 57//21 58//21
# UNHIT_FACE f 62//41 58//39 59//41
f 59//23 55//23 60//23
f 57//38 61//40 60//38
f 62//21 61//21 58//21
# UNHIT_FACE f 59//41 63//43 62//41
f 64//23 59//23 60//23
f 64//40 60//38 61//40
f 65//21 61//21 62//21
# UNHIT_FACE f 66//43 62//41 63//43
f 63//23 59//23 64//23
f 61//40 65//42 64//40
f 66//21 65//21 62//21
# UNHIT_FACE f 63//43 67//45 66//43
f 68//23 63//23 64//23
f 68//42 64//40 65//42
f 69//21 65//21 66//21
# UNHIT_FACE f 70//45 66//43 67//45
f 67//23 63//23 68//23
f 65//42 69//44 68//42
f 70//21 69//21 66//21
# UNHIT_FACE f 67//45 71//47 70//45
f 72//23 67//23 68//23
f 72//44 68//42 69//44
f 73//21 69//21 70//21
# UNHIT_FACE f 74//47 70//45 71//47
f 71//23 67//23 72//23
f 69//44 73//46 72//44
f 74//21 73//21 70//21
f 74//28 71//28 73//28
f 75//23 71//23 72//23
f 75//46 72//44 73//46
f 75//28 73//28 71//28
