# Merged(arrow/base_geom)

v 0.500972 -0.685916 0.494055
v -0.489153 -0.685916 0.53531
v 0.500972 -0.685916 0.53531
v 0.500972 -0.399822 0.53531
v 0.500972 -0.685916 -0.516697
v 0.500972 -0.685916 0.494055
v -0.489153 -0.685916 0.53531
v -0.489153 -0.685916 -0.516697
v -0.489153 -0.685916 0.494055
v -0.407779 0.637914 0.53531
v 0.388962 0.604394 0.53531
v -0.407779 0.604394 0.53531
v 0.388962 0.637914 0.53531
v -0.407779 0.604394 0.586879
v 0.388962 0.637914 0.586879
v -0.407779 0.637914 0.586879
v 0.388962 0.604394 0.586879
v 0.500972 0.696133 0.494055
v 0.500972 -0.685916 0.494055
v 0.500972 0.696133 0.53531
v -0.489153 -0.685916 0.53531
v -0.489153 0.696133 0.494055
v 0.500972 -0.685916 0.53531
v -0.489153 -0.685916 0.494055
v 0.500972 -0.399822 0.53531
v -0.489153 0.696133 0.53531
v -0.489153 -0.399822 0.53531
v -0.407779 0.637914 0.53531
v 0.388962 0.604394 0.53531
v -0.407779 0.604394 0.53531
v 0.388962 0.637914 0.53531
v 0.500972 0.696133 0.494055
v 0.500972 -0.685916 -0.516697
v 0.500972 0.696133 -0.516697
v 0.500972 -0.685916 0.494055
v -0.489153 0.696133 -0.516697
v -0.489153 -0.685916 -0.516697
v -0.489153 0.696133 0.494055
v -0.489153 -0.685916 0.494055
vn 0.0 0.0 -1.0
vn 0.0 1.0 0.0
vn 0.0 -1.0 0.0
vn 0.0 0.0 1.0
vn 0.0 1.0 0.0
vn 0.0 -1.0 0.0
vn 1.0 0.0 0.0
vn 0.0 0.0 -1.0
vn 0.0 1.0 0.0
vn 0.0 -1.0 0.0
vn -1.0 0.0 0.0
vn 0.0 0.0 1.0
vn 1.0 0.0 0.0
vn 0.0 0.0 -1.0
vn 0.0 1.0 0.0
vn 0.0 -1.0 0.0
vn -1.0 0.0 0.0
vn 0.0 0.0 1.0
vn 1.0 0.0 0.0
vn 0.0 0.0 -1.0
vn 0.0 1.0 0.0
vn 0.0 -1.0 0.0
vn -1.0 0.0 0.0
vn 0.0 0.0 1.0
usemtl base_geom
f 2//3 1//3 3//3
f 4//4 2//4 3//4
f 3//2 1//2 2//2
f 3//1 2//1 4//1
f 6//6 7//6 5//6
f 5//6 7//6 8//6
f 5//5 7//5 6//5
f 8//5 7//5 5//5
f 14//11 10//11 12//11
f 10//9 15//9 13//9
f 15//7 11//7 13//7
f 11//10 14//10 12//10
f 15//9 10//9 16//9
f 11//7 15//7 17//7
f 14//10 11//10 17//10
f 14//12 15//12 16//12
f 15//12 14//12 17//12
f 12//7 10//7 14//7
f 13//10 15//10 10//10
f 13//11 11//11 15//11
f 12//9 14//9 11//9
f 16//7 14//7 10//7
f 16//10 10//10 15//10
f 17//11 15//11 11//11
f 17//9 11//9 14//9
f 16//8 15//8 14//8
f 17//8 14//8 15//8
f 20//13 19//13 18//13
f 19//13 20//13 23//13
f 22//15 20//15 18//15
f 20//15 22//15 26//15
f 21//17 22//17 24//17
f 20//18 27//18 25//18
f 22//17 21//17 26//17
f 26//18 28//18 20//18
f 21//18 25//18 27//18
f 27//18 20//18 29//18
f 26//18 30//18 28//18
f 31//18 20//18 28//18
f 29//18 20//18 31//18
f 30//18 27//18 29//18
f 27//18 30//18 26//18
f 18//17 19//17 20//17
f 23//17 20//17 19//17
f 18//16 20//16 22//16
f 26//16 22//16 20//16
f 24//13 22//13 21//13
f 25//14 27//14 20//14
f 26//13 21//13 22//13
f 20//14 28//14 26//14
f 27//14 25//14 21//14
f 29//14 20//14 27//14
f 28//14 30//14 26//14
f 28//14 20//14 31//14
f 31//14 20//14 29//14
f 29//14 27//14 30//14
f 26//14 30//14 27//14
f 32//19 33//19 34//19
f 33//19 32//19 35//19
f 33//20 36//20 34//20
f 36//21 32//21 34//21
f 36//20 33//20 37//20
f 32//21 36//21 38//21
f 39//23 36//23 37//23
f 36//23 39//23 38//23
f 34//23 33//23 32//23
f 35//23 32//23 33//23
f 34//24 36//24 33//24
f 34//22 32//22 36//22
f 37//24 33//24 36//24
f 38//22 36//22 32//22
f 37//19 36//19 39//19
f 38//19 39//19 36//19
