# Merged(arrow/base_geom)

v 0.691808 -0.396599 -0.680471
v -0.631151 -0.396599 0.642487
v -0.631151 -0.396599 -0.680471
v 0.278383 -0.396599 0.609413
v -0.631151 0.397176 -0.680471
v 0.29492 -0.396599 0.609413
v -0.631151 0.397176 0.642487
v 0.691808 0.397176 -0.680471
v 0.29492 -0.396599 0.642487
v 0.29492 0.397176 0.609413
v 0.278383 0.397176 0.642487
v 0.278383 0.397176 0.609413
v 0.691808 0.397176 0.642487
v 0.691808 -0.396599 0.642487
v 0.29492 0.397176 0.642487
v -0.631151 -0.396599 0.642487
v 0.278383 -0.396599 0.609413
v 0.29492 -0.396599 0.609413
v 0.278383 -0.396599 0.642487
v -0.631151 0.397176 0.642487
v 0.29492 -0.396599 0.642487
v 0.29492 0.397176 0.609413
v 0.183296 -0.198155 0.642487
v 0.278383 0.397176 0.642487
v -0.536063 -0.198155 0.642487
v 0.278383 0.397176 0.609413
v -0.536063 0.198732 0.642487
v 0.29492 0.397176 0.642487
v 0.183296 0.198732 0.642487
v -0.536063 -0.198155 0.510192
v 0.183296 0.198732 0.510192
v 0.183296 -0.198155 0.510192
v -0.536063 0.198732 0.510192
v -0.536063 0.198732 0.642487
v -0.536063 -0.198155 0.510192
v 0.183296 0.198732 0.510192
v 0.183296 -0.198155 0.510192
v -0.536063 0.198732 0.510192
vn 0.0 -1.0 0.0
vn 0.0 1.0 0.0
vn 1.0 0.0 0.0
vn 0.0 0.0 1.0
vn 0.0 0.0 -1.0
vn -1.0 0.0 0.0
vn 0.0 -1.0 0.0
vn 0.0 1.0 0.0
vn 1.0 0.0 0.0
vn 0.0 0.0 1.0
vn 0.0 0.0 -1.0
vn -1.0 0.0 0.0
vn 1.0 0.0 0.0
vn 0.0 0.0 1.0
vn 0.0 0.0 -1.0
vn -1.0 0.0 0.0
usemtl base_geom
f 1//1 2//1 3//1
f 2//1 1//1 4//1
f 3//2 2//2 1//2
f 4//2 1//2 2//2
f 3//3 5//3 2//3
f 3//4 1//4 5//4
f 4//1 1//1 6//1
f 6//2 1//2 4//2
f 7//3 2//3 5//3
f 8//4 5//4 1//4
f 6//1 1//1 9//1
f 9//2 1//2 6//2
f 7//1 5//1 11//1
f 8//1 12//1 5//1
f 8//6 1//6 13//6
f 9//1 1//1 14//1
f 14//2 1//2 9//2
f 12//1 11//1 5//1
f 10//1 12//1 8//1
f 14//6 13//6 1//6
f 13//1 10//1 8//1
f 14//5 9//5 13//5
f 15//1 10//1 13//1
f 15//5 13//5 9//5
f 2//6 5//6 3//6
f 5//5 1//5 3//5
f 5//6 2//6 7//6
f 1//5 5//5 8//5
f 11//2 5//2 7//2
f 5//2 12//2 8//2
f 13//3 1//3 8//3
f 5//2 11//2 12//2
f 8//2 12//2 10//2
f 1//3 13//3 14//3
f 8//2 10//2 13//2
f 13//4 9//4 14//4
f 13//2 10//2 15//2
f 9//4 13//4 15//4
f 19//7 16//7 17//7
f 17//8 16//8 19//8
f 18//11 17//11 22//11
f 16//11 23//11 19//11
f 19//12 24//12 17//12
f 20//11 25//11 16//11
f 18//9 22//9 21//9
f 26//11 22//11 17//11
f 24//11 19//11 23//11
f 23//11 16//11 25//11
f 26//12 17//12 24//12
f 27//11 25//11 20//11
f 24//11 27//11 20//11
f 28//9 21//9 22//9
f 29//11 24//11 23//11
f 25//7 30//7 23//7
# UNHIT_FACE f 25//12 27//12 30//12
f 27//11 24//11 29//11
f 29//9 23//9 31//9
f 32//7 23//7 30//7
f 29//8 31//8 27//8
f 32//9 31//9 23//9
f 33//8 27//8 31//8
f 19//10 23//10 16//10
f 16//10 25//10 20//10
f 23//10 19//10 24//10
f 25//10 16//10 23//10
f 20//10 25//10 27//10
f 20//10 27//10 24//10
f 23//10 24//10 29//10
f 29//10 24//10 27//10
f 22//10 17//10 18//10
f 17//9 24//9 19//9
f 21//12 22//12 18//12
f 17//10 22//10 26//10
f 24//9 17//9 26//9
f 22//12 21//12 28//12
f 23//8 30//8 25//8
# UNHIT_FACE f 30//9 27//9 25//9
f 31//12 23//12 29//12
f 30//8 23//8 32//8
f 27//7 31//7 29//7
f 23//12 31//12 32//12
f 31//7 27//7 33//7
# UNHIT_FACE f 38//16 35//16 34//16
f 37//15 35//15 36//15
f 38//15 36//15 35//15
# UNHIT_FACE f 34//13 35//13 38//13
f 36//14 35//14 37//14
f 35//14 36//14 38//14
