# Merged(arrow/base_geom)

v -0.601552 -0.562153 -0.601858
v 0.623749 -0.562153 -0.601858
v -0.601552 -0.500453 0.538661
v 0.623749 -0.500453 0.538661
v 0.623749 -0.562153 0.579034
v -0.601552 -0.562153 0.538661
v 0.623749 -0.500453 0.579034
v -0.601552 -0.500453 0.579034
v 0.623749 -0.500453 0.633536
v -0.601552 -0.562153 0.579034
v -0.601552 -0.500453 0.633536
v -0.601552 0.580385 0.601238
v 0.623749 0.580385 0.538661
v -0.601552 0.580385 0.538661
v 0.623749 0.580385 0.601238
v 0.623749 0.580385 -0.601858
v -0.601552 0.438643 0.538661
v -0.601552 0.580385 0.623443
v 0.623749 0.438643 0.601238
v -0.601552 0.580385 -0.601858
v 0.623749 0.438643 0.538661
v -0.601552 0.438643 0.601238
v -0.504912 0.537596 0.623443
v 0.623749 0.580385 0.623443
v 0.52711 0.537596 0.601238
v -0.601552 -0.562153 -0.601858
v 0.623749 -0.27849 0.538661
v -0.601552 0.438643 0.623443
v -0.504912 0.537596 0.601238
v -0.601552 -0.27849 0.538661
v 0.623749 0.438643 0.623443
v 0.427508 0.502247 0.601238
v 0.623749 -0.562153 -0.601858
v -0.601552 -0.500453 0.538661
v 0.623749 -0.500453 0.538661
v 0.623749 -0.27849 0.623443
v -0.601552 -0.27849 0.623443
v 0.011099 0.438643 0.601238
v -0.405311 0.502247 0.601238
v -0.405311 0.502247 0.623443
v -0.094514 0.541559 0.623443
v 0.52711 0.537596 0.623443
v 0.011099 0.438643 0.623443
v 0.325515 0.47454 0.601238
v 0.623749 -0.562153 0.579034
v 0.623749 -0.500453 0.579034
v 0.623749 -0.27849 0.633536
v -0.094514 0.442647 0.601238
v -0.303318 0.47454 0.601238
v -0.601552 -0.27849 0.633536
v 0.125515 0.541559 0.623443
v 0.427508 0.502247 0.623443
v 0.221718 0.454636 0.601238
v -0.601552 -0.500453 0.579034
v 0.623749 -0.500453 0.633536
v 0.116712 0.442647 0.623443
v -0.199521 0.454636 0.601238
v -0.303318 0.47454 0.623443
v 0.177532 0.543433 0.623443
v 0.325515 0.47454 0.623443
v 0.116712 0.442647 0.601238
v 0.125515 0.443652 0.601238
v 0.125515 0.470333 0.623443
v -0.094514 0.442647 0.623443
v -0.199521 0.454636 0.623443
v -0.601552 -0.500453 0.633536
v 0.167908 0.541791 0.623443
v 0.17896 0.543301 0.623443
v 0.221718 0.454636 0.623443
v 0.125515 0.442647 0.601238
v 0.125515 0.442647 0.623443
v -0.094514 0.470333 0.623443
v 0.125515 0.443652 0.623443
v 0.159038 0.537713 0.623443
v 0.167908 0.541791 0.625462
v 0.177532 0.543433 0.625462
v 0.187254 0.542529 0.623443
v 0.216331 0.507489 0.623443
v 0.151525 0.531478 0.623443
v 0.159038 0.537713 0.625462
v 0.17896 0.543301 0.625462
v 0.196409 0.53914 0.623443
v 0.214689 0.517113 0.623443
v 0.215427 0.497768 0.623443
v 0.170666 0.469594 0.623443
v 0.145881 0.523511 0.623443
v 0.151525 0.531478 0.625462
v 0.169027 0.523265 0.625462
v 0.159772 0.511203 0.625462
v 0.17896 0.525926 0.625462
v 0.187254 0.542529 0.625462
v 0.204376 0.533497 0.623443
v 0.210611 0.525984 0.623443
v 0.216331 0.507489 0.625462
v 0.212038 0.488612 0.623443
v 0.215427 0.497768 0.625462
v 0.17896 0.468823 0.623443
v 0.16151 0.472983 0.623443
v 0.153543 0.478627 0.623443
v 0.142492 0.514355 0.623443
v 0.153543 0.478627 0.625462
v 0.164913 0.520108 0.625462
v 0.173818 0.525249 0.625462
v 0.159095 0.506062 0.625462
v 0.161757 0.515994 0.625462
v 0.184101 0.525249 0.625462
v 0.196409 0.53914 0.625462
v 0.214689 0.517113 0.625462
v 0.206395 0.480645 0.623443
v 0.212038 0.488612 0.625462
v 0.180387 0.46869 0.623443
v 0.17896 0.468823 0.625462
v 0.170666 0.469594 0.625462
v 0.147308 0.48614 0.625462
v 0.142492 0.514355 0.625462
v 0.145881 0.523511 0.625462
v 0.164913 0.520108 0.623443
v 0.169027 0.523265 0.623443
v 0.159772 0.511203 0.623443
v 0.161757 0.515994 0.623443
v 0.173818 0.525249 0.623443
v 0.17896 0.525926 0.623443
v 0.188892 0.523265 0.625462
v 0.204376 0.533497 0.625462
v 0.210611 0.525984 0.625462
v 0.198882 0.47441 0.623443
v 0.206395 0.480645 0.625462
v 0.190011 0.470333 0.623443
v 0.180387 0.46869 0.625462
v 0.16151 0.472983 0.625462
v 0.159772 0.50092 0.625462
v 0.159095 0.506062 0.623443
v 0.184101 0.525249 0.623443
v 0.193006 0.520108 0.625462
v 0.198147 0.511203 0.625462
v 0.190011 0.470333 0.625462
v 0.173818 0.486874 0.625462
v 0.17896 0.486197 0.625462
v 0.169027 0.488859 0.625462
v 0.161757 0.496129 0.625462
v 0.169027 0.488859 0.623443
v 0.173818 0.486874 0.623443
v 0.159772 0.50092 0.623443
v 0.161757 0.496129 0.623443
v 0.164913 0.492015 0.623443
v 0.17896 0.486197 0.623443
v 0.184101 0.486874 0.623443
v 0.188892 0.523265 0.623443
v 0.196163 0.515994 0.625462
v 0.198824 0.506062 0.625462
v 0.198882 0.47441 0.625462
v 0.184101 0.486874 0.625462
v 0.164913 0.492015 0.625462
v 0.188892 0.488859 0.623443
v 0.193006 0.520108 0.623443
v 0.196163 0.515994 0.623443
v 0.198147 0.511203 0.623443
v 0.198824 0.506062 0.623443
v 0.193006 0.492015 0.625462
v 0.188892 0.488859 0.625462
v 0.193006 0.492015 0.623443
v 0.198147 0.50092 0.623443
v 0.198147 0.50092 0.625462
v 0.196163 0.496129 0.625462
v 0.196163 0.496129 0.623443
v -0.504912 0.537596 0.623443
v 0.623749 0.580385 0.623443
v -0.094514 0.541559 0.623443
v 0.011099 0.438643 0.623443
v 0.125515 0.541559 0.623443
v -0.086813 0.533858 0.623443
v 0.125515 0.470333 0.623443
v -0.094514 0.442647 0.623443
v -0.086813 0.478034 0.623443
v 0.117814 0.533858 0.623443
v -0.094514 0.470333 0.623443
v -0.086813 0.505946 0.643629
v -0.086813 0.532747 0.626301
v -0.086813 0.478034 0.643629
v -0.086813 0.509007 0.64347
v 0.117814 0.532747 0.626301
v -0.086813 0.531345 0.629027
v 0.117814 0.478034 0.623443
v 0.143231 0.49501 0.623443
v 0.117814 0.478034 0.643629
v 0.117814 0.505946 0.643629
v -0.086813 0.512035 0.642992
v 0.117814 0.531345 0.629027
v -0.086813 0.529666 0.631592
v 0.147308 0.48614 0.623443
v 0.141588 0.504634 0.623443
v 0.117814 0.509007 0.64347
v -0.086813 0.514997 0.642201
v 0.117814 0.529666 0.631592
v -0.086813 0.52773 0.633969
v 0.153543 0.478627 0.623443
v 0.143231 0.49501 0.625462
v 0.141588 0.504634 0.625462
v 0.142492 0.514355 0.623443
v 0.117814 0.512035 0.642992
v -0.086813 0.517861 0.641106
v 0.117814 0.52773 0.633969
v -0.086813 0.525556 0.63613
v 0.147308 0.48614 0.625462
v 0.142492 0.514355 0.625462
v 0.145881 0.523511 0.625462
v 0.117814 0.514997 0.642201
v -0.086813 0.520595 0.639719
v 0.117814 0.525556 0.63613
v -0.086813 0.523169 0.638054
v 0.117814 0.517861 0.641106
v 0.117814 0.523169 0.638054
v 0.117814 0.520595 0.639719
v 0.623749 -0.562153 0.579034
v 0.623749 -0.500453 0.579034
v -0.601552 -0.500453 0.579034
v -0.601552 -0.562153 0.579034
v -0.601552 0.438643 0.538661
v -0.601552 0.438643 0.623443
v 0.623749 0.438643 0.623443
v 0.623749 -0.27849 0.623443
v -0.601552 -0.27849 0.623443
v 0.011099 0.438643 0.623443
vn 0.0 1.0 0.0
vn -1.0 0.0 0.0
vn 1.0 0.0 0.0
vn 0.0 -1.0 0.0
vn 0.0 1.0 0.0
vn -1.0 0.0 0.0
vn 1.0 0.0 0.0
vn -0.404859 -0.914379 0.0
vn -0.369928 -0.92906 0.0
vn 0.0 0.0 1.0
vn -0.298524 -0.954402 0.0
vn -0.037884 -0.999282 0.0
vn -0.075714 -0.99713 0.0
vn -0.225405 -0.974265 0.0
vn -0.150993 -0.988535 0.0
vn 0.0 -1.0 0.0
vn 0.404859 0.914379 0.0
vn 0.369928 0.92906 0.0
vn 0.0 0.0 -1.0
vn 0.404859 -0.914379 0.0
vn 0.369928 -0.92906 0.0
vn -0.404859 0.914379 0.0
vn -0.369928 0.92906 0.0
vn 0.298524 0.954402 0.0
vn 0.298524 -0.954402 0.0
vn -0.298524 0.954402 0.0
vn 0.225405 -0.974265 0.0
vn -0.225405 0.974265 0.0
vn 0.037884 -0.999282 0.0
vn -0.037884 0.999282 0.0
vn 0.037884 0.999282 0.0
vn 0.075714 0.99713 0.0
vn 0.225405 0.974265 0.0
vn 0.150993 -0.988535 0.0
vn -0.150993 0.988535 0.0
vn 0.150993 0.988535 0.0
vn 0.113435 -0.993545 0.0
vn -0.113435 0.993545 0.0
vn -0.295496 0.955344 0.0
vn -0.038166 0.999271 0.0
vn 0.295496 -0.955344 0.0
vn 0.038166 -0.999271 0.0
vn 0.092592 0.995704 0.0
vn -0.092592 -0.995704 0.0
vn -0.532688 0.846312 0.0
vn 0.532688 -0.846312 0.0
vn 0.221765 0.9751 0.0
vn -0.221765 -0.9751 0.0
vn -0.733579 0.679604 0.0
vn 0.733579 -0.679604 0.0
vn 0.466583 0.884477 0.0
vn -0.466583 -0.884477 0.0
vn 0.955344 0.295496 0.0
vn 0.999271 0.038166 0.0
vn -0.999271 -0.038166 0.0
vn -0.955344 -0.295496 0.0
vn 0.9751 -0.221765 0.0
vn -0.9751 0.221765 0.0
vn -0.846312 -0.532688 0.0
vn 0.846312 0.532688 0.0
vn -0.884477 0.466583 0.0
vn 0.884477 -0.466583 0.0
vn 0.679604 0.733579 0.0
vn -0.679604 -0.733579 0.0
vn -0.769542 -0.638597 0.0
vn 0.769542 0.638597 0.0
vn 0.707107 -0.707107 0.0
vn 0.5 -0.866025 0.0
vn -0.707107 0.707107 0.0
vn -0.5 0.866025 0.0
vn 0.258819 -0.965926 0.0
vn -0.258819 0.965926 0.0
vn 0.965926 -0.258819 0.0
vn -0.965926 0.258819 0.0
vn 0.866025 -0.5 0.0
vn -0.866025 0.5 0.0
vn 0.130526 -0.991445 0.0
vn -0.130526 0.991445 0.0
vn -0.130526 -0.991445 0.0
vn -0.258819 -0.965926 0.0
vn 0.130526 0.991445 0.0
vn 0.258819 0.965926 0.0
vn 0.816009 -0.578039 0.0
vn -0.816009 0.578039 0.0
vn -0.578039 -0.816009 0.0
vn 0.578039 0.816009 0.0
vn -0.5 -0.866025 0.0
vn 0.5 0.866025 0.0
vn 0.638597 -0.769542 0.0
vn -0.638597 0.769542 0.0
vn 0.965926 0.258819 0.0
vn -0.965926 -0.258819 0.0
vn -0.707107 -0.707107 0.0
vn 0.707107 0.707107 0.0
vn 0.866025 0.5 0.0
vn -0.866025 -0.5 0.0
vn 0.382683 0.92388 0.0
vn -0.382683 -0.92388 0.0
vn 0.608761 0.793353 0.0
vn -0.608761 -0.793353 0.0
vn -0.608761 0.793353 0.0
vn 0.608761 -0.793353 0.0
vn -0.793353 0.608761 0.0
vn 0.793353 -0.608761 0.0
vn 0.0 1.0 0.0
vn -1.0 0.0 0.0
vn 1.0 0.0 0.0
vn 0.0 0.0 1.0
vn 0.0 -1.0 0.0
vn 0.0 0.0 -1.0
vn 0.0 0.911912 0.410386
vn 0.0 0.932074 0.362267
vn 0.0 -0.932074 -0.362267
vn 0.0 -0.911912 -0.410386
vn 0.0 0.052154 0.998639
vn 0.0 0.104167 0.99456
vn 0.0 -0.052154 -0.998639
vn 0.0 -0.104167 -0.99456
vn 0.0 0.864202 0.503145
vn 0.0 -0.864202 -0.503145
vn 0.955344 0.295496 0.0
vn 0.999271 0.038166 0.0
vn -0.999271 -0.038166 0.0
vn -0.955344 -0.295496 0.0
vn 0.9751 -0.221765 0.0
vn -0.9751 0.221765 0.0
vn 0.0 0.207201 0.978298
vn 0.0 -0.207201 -0.978298
vn 0.0 0.80709 0.590429
vn 0.0 -0.80709 -0.590429
vn -0.846312 -0.532688 0.0
vn 0.846312 0.532688 0.0
vn 0.0 0.30798 0.951393
vn 0.0 -0.30798 -0.951393
vn 0.0 0.741196 0.671289
vn 0.0 -0.741196 -0.671289
vn -0.769542 -0.638597 0.0
vn 0.769542 0.638597 0.0
vn 0.0 0.405408 0.914136
vn 0.0 -0.405408 -0.914136
vn 0.0 0.667237 0.744845
vn 0.0 -0.667237 -0.744845
vn 0.0 0.498425 0.866933
vn 0.0 -0.498425 -0.866933
vn 0.0 0.586019 0.810297
vn 0.0 -0.586019 -0.810297
vn 0.0 0.0 1.0
vn 0.0 0.0 -1.0
vn -1.0 0.0 0.0
vn 1.0 0.0 0.0
vn 0.0 0.0 1.0
vn 0.0 0.0 -1.0
usemtl base_geom
f 5//4 1//4 2//4
f 2//1 1//1 5//1
f 3//2 1//2 6//2
f 6//3 1//3 3//3
f 1//4 5//4 6//4
f 6//1 5//1 1//1
f 6//2 8//2 3//2
f 3//3 8//3 6//3
f 7//3 5//3 4//3
f 4//2 5//2 7//2
f 6//4 5//4 10//4
f 10//1 5//1 6//1
f 8//2 6//2 10//2
f 10//3 6//3 8//3
f 9//4 8//4 7//4
f 7//1 8//1 9//1
f 8//4 9//4 11//4
f 11//1 9//1 8//1
f 12//5 13//5 14//5
f 13//5 12//5 15//5
f 17//6 12//6 14//6
f 15//5 12//5 18//5
f 19//7 13//7 15//7
f 12//6 17//6 22//6
f 12//8 23//9 18//8
f 15//5 18//5 24//5
f 13//7 19//7 21//7
f 25//10 19//10 15//10
f 22//10 29//10 12//10
f 23//9 12//8 29//9
f 23//10 24//10 18//10
f 32//10 19//10 25//10
f 28//5 38//5 22//5
f 29//10 22//10 39//10
f 29//9 40//11 23//9
f 19//5 43//5 31//5
f 44//10 19//10 32//10
f 27//7 46//7 35//7
f 38//5 28//5 43//5
f 48//10 22//10 38//10
f 39//10 22//10 49//10
f 40//11 29//9 39//11
f 34//6 50//6 30//6
f 41//10 23//10 40//10
f 24//10 41//10 51//10
f 24//10 52//10 42//10
f 43//5 19//5 38//5
f 53//10 19//10 44//10
f 46//7 27//7 55//7
f 55//7 27//7 47//7
f 36//5 50//5 47//5
f 50//5 36//5 37//5
f 43//12 48//13 38//12
f 57//10 22//10 48//10
f 49//10 22//10 57//10
f 58//14 39//11 49//14
f 39//11 58//14 40//11
f 54//6 50//6 34//6
f 41//10 40//10 58//10
f 24//10 60//10 52//10
f 19//10 61//10 38//10
f 62//10 19//10 53//10
f 50//10 55//10 47//10
f 63//10 43//10 56//10
f 64//13 57//15 48//13
f 65//15 49//14 57//15
f 49//14 65//15 58//14
f 50//6 54//6 66//6
f 41//10 58//10 65//10
f 24//10 69//10 60//10
f 61//10 19//10 70//10
f 70//10 19//10 62//10
f 55//10 50//10 66//10
f 63//10 56//10 73//10
f 43//10 72//10 64//10
f 57//15 64//13 65//15
f 41//10 65//10 64//10
f 67//10 51//10 74//10
f 24//10 78//10 69//10
f 63//10 73//10 69//10
f 74//10 51//10 79//10
f 24//10 77//10 82//10
f 24//10 83//10 78//10
f 84//10 69//10 78//10
f 63//10 69//10 85//10
f 79//10 51//10 86//10
f 24//10 93//10 83//10
f 95//10 69//10 84//10
f 63//10 85//10 98//10
f 86//10 51//10 100//10
f 24//10 92//10 93//10
f 109//10 69//10 95//10
f 63//10 98//10 99//10
f 126//10 69//10 109//10
f 111//10 69//10 128//10
f 128//10 69//10 126//10
f 14//16 13//16 12//16
f 15//16 12//16 13//16
f 16//5 14//5 13//5
f 13//16 14//16 16//16
f 14//7 12//7 17//7
f 18//16 12//16 15//16
f 15//6 13//6 19//6
f 14//5 16//5 20//5
f 20//16 16//16 14//16
f 21//7 16//7 13//7
f 13//6 16//6 21//6
f 22//7 17//7 12//7
f 20//6 17//6 14//6
f 14//7 17//7 20//7
f 18//17 23//18 12//17
f 24//16 18//16 15//16
f 21//6 19//6 13//6
f 15//19 19//19 25//19
f 16//19 26//19 20//19
f 20//10 26//10 16//10
f 27//7 16//7 21//7
f 21//6 16//6 27//6
f 12//19 29//19 22//19
f 20//6 30//6 17//6
f 17//7 30//7 20//7
f 29//18 12//17 23//18
f 18//19 24//19 23//19
f 24//20 25//21 15//20
f 15//22 25//23 24//22
f 25//19 19//19 32//19
f 26//19 16//19 33//19
f 33//10 16//10 26//10
f 26//6 34//6 20//6
f 20//7 34//7 26//7
f 35//7 16//7 27//7
f 27//6 16//6 35//6
f 27//6 36//6 21//6
f 22//16 38//16 28//16
f 39//19 22//19 29//19
f 20//6 34//6 30//6
f 30//7 34//7 20//7
f 30//7 17//7 37//7
f 23//18 40//24 29//18
f 25//21 24//20 42//21
f 42//23 24//22 25//23
f 31//6 21//6 36//6
f 31//16 43//16 19//16
f 32//19 19//19 44//19
f 42//21 32//25 25//21
f 25//23 32//26 42//23
f 16//7 45//7 33//7
f 33//6 45//6 16//6
f 45//7 16//7 35//7
f 35//6 16//6 45//6
f 35//6 46//6 27//6
f 43//16 28//16 38//16
f 38//19 22//19 48//19
f 49//19 22//19 39//19
f 39//24 29//18 40//24
f 30//7 50//7 34//7
f 40//19 23//19 41//19
f 51//19 41//19 24//19
f 42//19 52//19 24//19
f 38//16 19//16 43//16
f 44//19 19//19 53//19
f 52//25 44//27 32//25
f 32//26 44//28 52//26
f 32//25 42//21 52//25
f 55//6 27//6 46//6
f 47//6 27//6 55//6
f 47//16 50//16 36//16
f 37//16 36//16 50//16
f 43//30 56//30 38//30
f 38//31 48//32 43//31
f 48//19 22//19 57//19
f 57//19 22//19 49//19
f 49//33 39//24 58//33
f 40//24 58//33 39//24
f 34//7 50//7 54//7
f 58//19 40//19 41//19
f 59//19 51//19 24//19
f 52//19 60//19 24//19
f 38//19 61//19 19//19
f 53//19 19//19 62//19
f 60//27 53//34 44//27
f 44//27 52//25 60//27
f 60//28 52//26 44//28
f 47//19 55//19 50//19
f 56//29 38//29 61//29
f 56//19 43//19 63//19
f 48//32 57//36 64//32
f 57//36 49//33 65//36
f 58//33 65//36 49//33
f 66//7 54//7 50//7
f 65//19 58//19 41//19
f 67//19 51//19 59//19
f 68//19 59//19 24//19
f 60//19 69//19 24//19
f 62//19 19//19 70//19
f 69//34 62//37 53//34
f 53//35 62//38 69//35
f 53//34 60//27 69//34
f 69//35 60//28 53//35
f 66//19 50//19 55//19
f 73//19 56//19 63//19
f 64//19 72//19 43//19
f 65//36 64//32 57//36
f 64//19 65//19 41//19
f 74//19 51//19 67//19
f 77//19 68//19 24//19
f 69//19 78//19 24//19
f 62//37 69//34 73//37
f 73//38 69//35 62//38
f 73//10 56//10 71//10
f 69//19 73//19 63//19
f 79//19 51//19 74//19
f 59//40 75//39 76//40
f 75//41 80//46 67//41
f 82//19 77//19 24//19
f 78//19 83//19 24//19
f 78//19 69//19 84//19
f 85//19 69//19 63//19
f 86//19 51//19 79//19
f 75//10 88//10 76//10
f 76//19 88//19 75//19
f 80//10 89//10 75//10
f 75//19 89//19 80//19
f 77//47 81//43 91//47
f 92//19 82//19 24//19
f 83//19 93//19 24//19
f 84//19 69//19 95//19
f 97//19 69//19 85//19
f 98//19 85//19 63//19
f 100//19 51//19 86//19
f 87//10 101//10 80//10
f 80//19 101//19 87//19
f 75//10 102//10 88//10
f 88//19 102//19 75//19
f 103//19 88//19 76//19
f 90//19 103//19 76//19
f 106//10 81//10 90//10
f 90//19 81//19 106//19
f 81//10 106//10 91//10
f 91//19 106//19 81//19
f 107//52 91//48 82//52
f 93//19 92//19 24//19
f 83//56 108//56 93//59
f 96//57 78//54 94//54
f 95//19 69//19 109//19
f 84//57 110//62 95//62
f 99//19 98//19 63//19
f 86//62 116//62 100//57
f 87//10 114//10 101//10
f 101//19 114//19 87//19
f 80//10 101//10 104//10
f 104//19 101//19 80//19
f 102//19 105//19 75//19
f 91//10 106//10 123//10
f 123//19 106//19 91//19
f 91//10 123//10 107//10
f 107//19 123//19 91//19
f 108//10 96//10 94//10
f 96//19 110//19 108//19
f 128//19 69//19 111//19
f 116//10 114//10 87//10
f 87//19 114//19 116//19
f 131//19 101//19 104//19
f 107//10 123//10 134//10
f 134//19 123//19 107//19
f 107//10 135//10 124//10
f 124//19 135//19 107//19
f 125//10 110//10 108//10
f 108//19 110//19 125//19
f 126//19 69//19 128//19
f 125//10 127//10 110//10
f 110//19 127//19 125//19
f 137//10 113//10 112//10
f 112//19 113//19 137//19
f 139//10 130//10 113//10
f 113//19 130//19 139//19
f 131//10 101//10 140//10
f 140//19 101//19 131//19
f 117//10 141//10 118//10
f 118//19 141//19 117//19
f 118//10 142//10 121//10
f 119//10 144//10 120//10
f 120//10 145//10 117//10
f 117//19 145//19 120//19
f 121//10 146//10 122//10
f 122//19 146//19 121//19
f 122//10 147//10 133//10
f 133//19 147//19 122//19
f 107//10 149//10 135//10
f 135//19 149//19 107//19
f 150//19 135//19 124//19
f 124//10 127//10 125//10
f 125//19 127//19 124//19
f 152//10 129//10 136//10
f 136//19 129//19 152//19
f 139//10 113//10 137//10
f 137//10 112//10 138//10
f 138//19 112//19 137//19
f 138//10 129//10 152//10
f 152//19 129//19 138//19
f 130//10 139//10 101//10
f 101//19 139//19 130//19
f 140//10 101//10 153//10
f 153//19 101//19 140//19
f 143//92 131//92 132//6
f 117//10 145//10 141//10
f 141//19 145//19 117//19
f 118//10 141//10 142//10
f 142//19 141//19 118//19
f 121//10 142//10 146//10
f 146//19 142//19 121//19
f 144//19 143//19 119//19
f 145//19 144//19 120//19
f 122//10 146//10 147//10
f 147//19 146//19 122//19
f 133//10 147//10 154//10
f 154//19 147//19 133//19
f 133//10 154//10 148//10
f 148//19 154//19 133//19
f 150//10 127//10 124//10
f 124//19 127//19 150//19
f 159//10 151//10 127//10
f 127//19 151//19 159//19
f 159//10 136//10 151//10
f 151//19 136//19 159//19
f 152//10 136//10 160//10
f 160//19 136//19 152//19
f 153//10 101//10 139//10
f 137//82 146//81 142//82
f 152//72 154//70 147//72
f 148//10 154//10 161//10
f 161//19 154//19 148//19
f 148//10 161//10 155//10
f 155//19 161//19 148//19
f 150//19 127//19 163//19
f 127//10 164//10 159//10
f 159//19 164//19 127//19
f 160//10 136//10 159//10
f 159//19 136//19 160//19
f 155//10 161//10 165//10
f 165//19 161//19 155//19
f 156//10 162//10 157//10
f 157//10 162//10 158//10
f 163//73 162//73 150//7
f 163//19 127//19 164//19
f 156//10 165//10 162//10
f 162//19 165//19 156//19
f 21//7 36//7 27//7
f 37//6 17//6 30//6
f 36//7 21//7 31//7
f 167//108 166//108 168//108
f 176//108 169//108 172//108
f 172//108 184//108 170//108
f 172//108 190//108 184//108
f 170//108 184//108 191//108
f 172//108 196//108 190//108
f 199//108 170//108 191//108
f 168//110 166//110 167//110
f 168//108 171//108 170//108
f 170//110 171//110 168//110
f 171//108 168//108 174//108
f 174//110 168//110 171//110
f 170//108 171//108 175//108
f 175//110 171//110 170//110
f 172//110 169//110 176//110
f 176//108 174//108 168//108
f 168//110 174//110 176//110
f 174//106 177//106 171//106
f 171//107 177//107 174//107
f 178//111 175//112 171//112
f 171//113 175//113 178//114
f 170//108 175//108 172//108
f 172//110 175//110 170//110
f 174//108 176//108 172//108
f 172//110 176//110 174//110
f 177//106 174//106 179//106
f 179//107 174//107 177//107
f 180//107 177//107 171//107
f 175//112 178//111 181//111
f 181//114 178//114 175//113
f 183//108 172//108 175//108
f 175//110 172//110 183//110
f 170//110 184//110 172//110
f 174//108 172//108 183//108
f 183//110 172//110 174//110
f 174//109 185//109 179//109
f 179//105 185//105 174//105
f 185//108 177//108 179//108
f 179//110 177//110 185//110
f 186//115 180//116 177//115
f 177//117 180//118 186//117
f 171//106 180//106 187//106
f 182//119 181//111 178//111
f 178//114 181//114 182//120
f 175//107 185//107 183//107
f 183//106 185//106 175//106
f 184//110 190//110 172//110
f 191//110 184//110 170//110
f 185//109 174//109 183//109
f 183//105 174//105 185//105
f 177//108 185//108 186//108
f 186//110 185//110 177//110
f 180//116 186//115 192//116
f 192//118 186//117 180//118
f 192//116 187//127 180//116
f 180//118 187//128 192//118
f 193//107 187//107 171//107
f 181//111 182//119 188//119
f 188//120 182//120 181//114
f 189//129 188//119 182//119
f 182//120 188//120 189//130
f 185//107 175//107 186//107
f 186//106 175//106 185//106
f 190//110 196//110 172//110
f 191//122 198//122 184//121
f 191//110 170//110 199//110
f 186//107 175//107 192//107
f 192//106 175//106 186//106
f 187//127 192//116 200//127
f 200//128 192//118 187//128
f 200//127 193//133 187//127
f 187//128 193//134 200//128
f 201//107 193//107 171//107
f 188//119 189//129 194//129
f 194//130 189//130 188//120
f 195//135 194//129 189//129
f 189//130 194//130 195//136
f 200//106 175//106 192//106
f 193//133 200//127 207//133
f 207//134 200//128 193//134
f 207//133 201//139 193//133
f 193//134 201//140 207//134
f 171//106 201//106 208//106
f 194//129 195//135 202//135
f 202//136 195//136 194//130
f 171//106 210//106 203//106
f 203//107 210//107 171//107
f 209//141 195//135 203//141
f 203//142 195//136 209//142
f 204//110 197//110 206//110
f 198//110 205//110 197//110
f 200//107 175//107 207//107
f 201//139 207//133 211//139
f 211//140 207//134 201//140
f 211//139 208//143 201//139
f 201//140 208//144 211//140
f 212//107 175//107 209//107
f 195//135 209//141 202//135
f 202//136 209//142 195//136
f 212//145 203//141 210//145
f 210//146 203//142 212//146
f 203//141 212//145 209//141
f 209//142 212//146 203//142
f 205//108 197//108 206//108
f 206//110 197//110 205//110
f 207//107 175//107 211//107
f 211//106 175//106 207//106
f 208//143 211//139 213//143
f 213//144 211//140 208//144
f 213//143 210//145 208//143
f 208//144 210//146 213//144
f 210//145 213//143 212//145
f 212//146 213//144 210//146
f 211//107 175//107 213//107
f 213//106 175//106 211//106
f 215//148 214//148 216//148
f 217//148 216//148 214//148
f 216//147 214//147 215//147
f 214//147 216//147 217//147
f 219//150 222//150 218//150
f 222//152 219//152 221//152
f 220//152 221//152 223//152
f 223//152 221//152 219//152
f 218//149 222//149 219//149
f 221//151 219//151 222//151
f 223//151 221//151 220//151
f 219//151 221//151 223//151
