# Merged(arrow/base_geom)

v 0.716662 -0.554659 -0.219066
v -0.658078 0.597697 -0.219066
v -0.658078 -0.554659 -0.219066
v 0.716662 0.597697 -0.219066
v -0.678295 -0.554659 -0.234229
v -0.678295 0.597697 0.200431
v -0.678295 0.597697 -0.234229
v -0.678295 -0.554659 0.200431
v -0.658078 -0.554659 0.200431
v -0.658078 0.597697 -0.234229
v -0.658078 0.597697 0.200431
v -0.658078 -0.554659 -0.234229
v 0.749515 -0.577403 0.261082
v -0.69093 -0.456102 0.261082
v -0.69093 -0.577403 0.261082
v 0.749515 -0.456102 0.261082
v -0.69093 -0.577403 0.230757
v 0.749515 -0.456102 0.230757
v -0.69093 -0.456102 0.230757
v 0.749515 -0.577403 0.230757
v -0.071792 0.233795 -0.234229
v -0.071792 0.597697 -0.234229
v 0.039198 0.233795 -0.234229
v 0.039198 0.597697 -0.234229
v -0.698512 0.597697 -0.254446
v 0.757095 0.597697 0.200431
v -0.698512 0.597697 0.200431
v 0.757095 0.597697 -0.254446
v -0.698512 0.617914 0.200431
v 0.757095 0.617914 -0.254446
v -0.698512 0.617914 -0.254446
v 0.757095 0.617914 0.200431
v 0.736879 -0.554659 0.200431
v 0.736879 0.597697 -0.234229
v 0.736879 0.597697 0.200431
v 0.736879 -0.554659 -0.234229
v 0.628214 -0.456102 0.250973
v -0.56963 0.013938 0.250973
v -0.56963 -0.456102 0.250973
v 0.628214 0.013938 0.250973
v 0.041928 -0.525311 0.261082
v 0.041928 -0.522439 0.305566
v 0.041928 -0.525311 0.308438
v 0.041928 -0.508194 0.261082
v 0.005 -0.525311 0.261082
v 0.041928 -0.516753 0.304042
v 0.005 -0.525311 0.308438
v 0.005 -0.508194 0.261082
v 0.041928 -0.511067 0.305566
v 0.005 -0.522439 0.305566
v 0.005 -0.508194 0.308438
v 0.041928 -0.508194 0.308438
v 0.005 -0.516753 0.304042
v 0.005 -0.511067 0.305566
v 0.089942 -0.554659 -0.234229
v 0.089942 0.597697 -0.254446
v 0.089942 0.597697 -0.234229
v 0.089942 -0.554659 -0.254446
v -0.031358 0.597697 -0.234229
v -0.031358 -0.554659 -0.254446
v -0.031358 -0.554659 -0.234229
v -0.031358 0.597697 -0.254446
v -0.56963 -0.456102 0.230757
v -0.56963 0.013938 0.261082
v -0.56963 -0.456102 0.261082
v -0.56963 0.013938 0.230757
v -0.69093 -0.456102 0.261082
v -0.69093 0.013938 0.230757
v -0.69093 0.013938 0.261082
v -0.69093 -0.456102 0.230757
v 0.044455 -0.554659 0.200431
v 0.044455 0.597697 -0.219066
v 0.044455 0.597697 0.200431
v 0.044455 -0.554659 -0.219066
v 0.014129 0.597697 0.200431
v 0.014129 -0.554659 -0.219066
v 0.014129 -0.554659 0.200431
v 0.014129 0.597697 -0.219066
v 0.757096 -0.554659 -0.234229
v 0.757096 0.597697 -0.254446
v 0.757096 0.597697 -0.234229
v 0.757096 -0.554659 -0.254446
v 0.635795 0.597697 -0.234229
v 0.635795 -0.554659 -0.254446
v 0.635795 -0.554659 -0.234229
v 0.635795 0.597697 -0.254446
v 0.696445 0.082169 0.230757
v -0.637861 0.405637 0.230757
v -0.637861 0.082169 0.230757
v 0.696445 0.405637 0.230757
v -0.637861 0.082169 0.200431
v 0.696445 0.405637 0.200431
v 0.696445 0.082169 0.200431
v -0.637861 0.405637 0.200431
v 0.041928 -0.526601 0.309728
v 0.041928 -0.526601 0.3211
v 0.041928 -0.528125 0.315414
v 0.041928 -0.522439 0.305566
v -0.56963 -0.528125 0.315414
v -0.56963 -0.526601 0.309728
v -0.56963 -0.522439 0.305566
v 0.041928 -0.522439 0.325263
v -0.56963 -0.526601 0.3211
v 0.041928 -0.516753 0.304042
v -0.56963 -0.522439 0.325263
v -0.56963 -0.516753 0.304042
v 0.041928 -0.516753 0.326786
v -0.56963 -0.516753 0.326786
v 0.041928 -0.511067 0.305566
v -0.56963 -0.511067 0.305566
v 0.041928 -0.511067 0.325263
v -0.56963 -0.511067 0.325263
v 0.041928 -0.506904 0.309728
v -0.56963 -0.506904 0.309728
v 0.041928 -0.506904 0.3211
v -0.56963 -0.505381 0.315414
v 0.041928 -0.505381 0.315414
v -0.56963 -0.506904 0.3211
v 0.749515 0.013938 0.261082
v -0.69093 0.135238 0.261082
v -0.69093 0.013938 0.261082
v 0.749515 0.135238 0.261082
v -0.69093 0.013938 0.230757
v 0.749515 0.135238 0.230757
v -0.69093 0.135238 0.230757
v 0.749515 0.013938 0.230757
v 0.716662 -0.554659 -0.234229
v 0.716662 0.597697 0.200431
v 0.716662 0.597697 -0.234229
v 0.716662 -0.554659 0.200431
v -0.577211 -0.554659 -0.234229
v -0.577211 0.597697 -0.254446
v -0.577211 0.597697 -0.234229
v -0.577211 -0.554659 -0.254446
v -0.698512 0.597697 -0.234229
v -0.698512 -0.554659 -0.254446
v -0.698512 -0.554659 -0.234229
v -0.698512 0.597697 -0.254446
v 0.757095 0.628022 0.200431
v -0.698512 0.567372 0.200431
v -0.698512 0.628022 0.200431
v 0.757095 0.567372 0.200431
v -0.698512 0.628022 0.230757
v 0.757095 0.567372 0.230757
v -0.698512 0.567372 0.230757
v 0.757095 0.628022 0.230757
v -0.698512 -0.584984 0.200431
v -0.698512 -0.524334 0.200431
v 0.757095 -0.584984 0.200431
v -0.698512 -0.584984 0.230757
v 0.757095 -0.524334 0.200431
v -0.698512 -0.524334 0.230757
v 0.757095 -0.524334 0.230757
v 0.757095 -0.584984 0.230757
v 0.628214 0.013938 0.230757
v -0.56963 -0.456102 0.230757
v -0.56963 0.013938 0.230757
v 0.628214 -0.456102 0.230757
v 0.395721 -0.554659 0.200431
v 0.395721 0.597697 -0.219066
v 0.395721 0.597697 0.200431
v 0.395721 -0.554659 -0.219066
v 0.365396 0.597697 0.200431
v 0.365396 -0.554659 -0.219066
v 0.365396 -0.554659 0.200431
v 0.365396 0.597697 -0.219066
v -0.698512 -0.554659 0.200431
v 0.757095 -0.554659 0.200431
v -0.698512 -0.554659 -0.254446
v 0.757095 -0.554659 -0.254446
v -0.698512 -0.574876 0.200431
v 0.757095 -0.574876 -0.254446
v -0.698512 -0.574876 -0.254446
v 0.757095 -0.574876 0.200431
v 0.749514 -0.456102 0.230757
v 0.749514 0.013938 0.261082
v 0.749514 -0.456102 0.261082
v 0.749514 0.013938 0.230757
v 0.628214 -0.456102 0.261082
v 0.628214 0.013938 0.230757
v 0.628214 0.013938 0.261082
v 0.628214 -0.456102 0.230757
v -0.56963 -0.508194 0.308438
v -0.532702 -0.508194 0.261082
v -0.56963 -0.508194 0.261082
v -0.532702 -0.508194 0.308438
v -0.56963 -0.525311 0.261082
v -0.56963 -0.511067 0.305566
v -0.532702 -0.511067 0.305566
v -0.532702 -0.525311 0.261082
v -0.56963 -0.522439 0.305566
v -0.56963 -0.516753 0.304042
v -0.532702 -0.516753 0.304042
v -0.532702 -0.522439 0.305566
v -0.532702 -0.525311 0.308438
v -0.56963 -0.525311 0.308438
v -0.637861 -0.524334 0.230757
v -0.637861 0.567372 0.200431
v -0.637861 0.567372 0.230757
v -0.637861 -0.524334 0.200431
v -0.698512 0.567372 0.230757
v -0.698512 -0.524334 0.200431
v -0.698512 -0.524334 0.230757
v -0.698512 0.567372 0.200431
v 0.716662 0.597697 -0.234229
v -0.658078 -0.554659 -0.234229
v -0.658078 0.597697 -0.234229
v 0.716662 -0.554659 -0.234229
v 0.757096 -0.524334 0.230757
v 0.757096 0.567372 0.200431
v 0.757096 0.567372 0.230757
v 0.757096 -0.524334 0.200431
v 0.696445 0.567372 0.230757
v 0.696445 -0.524334 0.200431
v 0.696445 -0.524334 0.230757
v 0.696445 0.567372 0.200431
v -0.306812 -0.554659 0.200431
v -0.306812 0.597697 -0.219066
v -0.306812 0.597697 0.200431
v -0.306812 -0.554659 -0.219066
v -0.337137 0.597697 0.200431
v -0.337137 -0.554659 -0.219066
v -0.337137 -0.554659 0.200431
v -0.337137 0.597697 -0.219066
vt -1.232882 -4.665964
vt -0.639132 -4.248866
vt -1.232882 -4.248866
vt -0.639132 -4.665964
vt -0.514067 -3.804456
vt -0.738026 -4.279948
vt -0.514067 -4.279948
vt -0.738025 -3.804456
vt -0.738026 -4.780467
vt -0.514067 -4.304974
vt -0.738026 -4.304974
vt -0.514067 -4.780467
vt 0.0 0.0
vt 1.0 0.0
vt 0.0 1.0
vt 1.0 1.0
vt -1.66005 -3.210727
vt -1.894425 -3.773227
vt -1.894425 -3.210727
vt -1.66005 -3.773227
vt -1.894425 -3.20031
vt -1.649633 -3.773227
vt -1.66005 -3.783644
vt -1.66005 -3.20031
vt -1.649633 -3.210727
vt -1.894425 -3.783644
vt -0.738026 -4.780467
vt -0.514067 -4.304974
vt -0.738026 -4.304974
vt -0.514067 -4.780467
vt -0.734277 -0.213443
vt -0.744693 -0.807193
vt -0.734277 -0.807193
vt -0.744693 -0.213443
vt -0.807193 -0.838443
vt -0.744693 -1.432193
vt -0.744693 -0.838443
vt -0.807193 -0.213443
vt -0.807193 -1.432193
vt -0.807193 -0.807193
vt -0.81761 -0.807193
vt -0.81761 -0.213443
vt -0.738026 -4.780467
vt -0.52188 -4.304974
vt -0.738026 -4.304974
vt -0.52188 -4.780467
vt -0.750539 -4.304974
vt -0.509367 -4.780467
vt -0.750539 -4.780467
vt -0.509367 -4.304974
vt -0.738026 -4.279948
vt -0.52188 -3.804456
vt -0.738025 -3.804456
vt -0.52188 -4.279948
vt -0.734277 -0.213443
vt -0.744693 -0.807193
vt -0.734277 -0.807193
vt -0.744693 -0.213443
vt -0.807193 -0.838443
vt -0.744693 -1.432193
vt -0.744693 -0.838443
vt -0.807193 -0.213443
vt -0.807193 -1.432193
vt -0.807193 -0.807193
vt -0.81761 -0.807193
vt -0.81761 -0.213443
vt -0.0625 0.0
vt 0.0 0.5
vt -0.0625 0.5
vt 0.0 0.0
vt -0.351314 9.471887
vt -0.332661 -0.625198
vt -0.329728 9.47188
vt -0.354248 -0.625191
vt -0.413223 -0.625174
vt -0.410289 9.471904
vt -0.490851 9.471928
vt -0.493785 -0.625151
vt -0.571413 9.471951
vt -0.574347 -0.625127
vt -0.630388 9.471969
vt -0.633322 -0.62511
vt -0.654909 -0.625104
vt -0.651975 9.471975
vt -0.514067 -3.804456
vt -0.738026 -4.279948
vt -0.514067 -4.279948
vt -0.738025 -3.804456
vt -0.734277 -0.213443
vt -0.744693 -0.807193
vt -0.734277 -0.807193
vt -0.744693 -0.213443
vt -0.807193 -0.838443
vt -0.744693 -1.432193
vt -0.744693 -0.838443
vt -0.807193 -0.213443
vt -0.807193 -1.432193
vt -0.807193 -0.807193
vt -0.81761 -0.807193
vt -0.81761 -0.213443
vt -1.41005 -3.773227
vt -1.4413 -3.32276
vt -1.41005 -3.32276
vt -1.4413 -3.773227
vt -1.41005 -3.307135
vt -1.4413 -3.788852
vt -1.4413 -3.307135
vt -1.41005 -3.788852
vt -1.41005 -3.32276
vt -1.4413 -3.32276
vt -1.41005 -3.773227
vt -1.41005 -3.307135
vt -1.4413 -3.773227
vt -1.4413 -3.307135
vt -1.4413 -3.788852
vt -1.41005 -3.788852
vt -0.738026 -4.780467
vt -0.52188 -4.304974
vt -0.738026 -4.304974
vt -0.52188 -4.780467
vt -0.750539 -4.304974
vt -0.509367 -4.780467
vt -0.750539 -4.780467
vt -0.509367 -4.304974
vt -0.738026 -4.279948
vt -0.52188 -3.804456
vt -0.738025 -3.804456
vt -0.52188 -4.279948
vt -1.894425 -3.210727
vt -1.894425 -3.773227
vt -1.66005 -3.210727
vt -1.66005 -3.773227
vt -1.894425 -3.20031
vt -1.649633 -3.773227
vt -1.66005 -3.783644
vt -1.66005 -3.20031
vt -1.649633 -3.210727
vt -1.894425 -3.783644
vt -1.06615 -3.816969
vt -1.0349 -4.267435
vt -1.0349 -3.816969
vt -1.06615 -4.267435
vt -0.607882 -4.665964
vt -0.014132 -4.248866
vt -0.607882 -4.248866
vt -0.014132 -4.665965
vt -1.06615 -3.816969
vt -1.0349 -4.267435
vt -1.0349 -3.816969
vt -1.06615 -4.267435
vt -0.738026 -4.780467
vt -0.52188 -4.304974
vt -0.738026 -4.304974
vt -0.52188 -4.780467
vt -0.750539 -4.304974
vt -0.509367 -4.780467
vt -0.750539 -4.780467
vt -0.509367 -4.304974
vt -0.738026 -4.279948
vt -0.52188 -3.804456
vt -0.738025 -3.804456
vt -0.52188 -4.279948
vn 0.0 0.0 1.0
vn 0.0 0.0 -1.0
vn -1.0 0.0 0.0
vn 1.0 0.0 0.0
vn 1.0 0.0 0.0
vn -1.0 0.0 0.0
vn 0.0 0.0 1.0
vn -1.0 0.0 0.0
vn 0.0 -1.0 0.0
vn 1.0 0.0 0.0
vn 0.0 1.0 0.0
vn 0.0 0.0 -1.0
vn 0.0 0.0 -1.0
vn 0.0 0.0 1.0
vn 0.0 -1.0 0.0
vn -1.0 0.0 0.0
vn 0.0 0.0 -1.0
vn 1.0 0.0 0.0
vn 0.0 1.0 0.0
vn 0.0 0.0 1.0
vn 1.0 0.0 0.0
vn -1.0 0.0 0.0
vn 0.0 0.0 1.0
vn 0.0 0.0 -1.0
vn 1.0 0.0 0.0
vn 0.0 -1.0 0.0
vn 0.0 0.0 -1.0
vn -1.0 0.0 0.0
vn 0.0 1.0 0.0
vn 0.0 0.0 1.0
vn 1.0 0.0 0.0
vn 0.0 0.0 1.0
vn 0.0 0.0 -1.0
vn -1.0 0.0 0.0
vn 1.0 0.0 0.0
vn 0.0 0.0 1.0
vn 0.0 0.0 -1.0
vn -1.0 0.0 0.0
vn 1.0 0.0 0.0
vn 0.0 0.0 1.0
vn 0.0 0.0 -1.0
vn -1.0 0.0 0.0
vn 1.0 0.0 0.0
vn 0.0 0.0 1.0
vn 0.0 0.0 -1.0
vn -1.0 0.0 0.0
vn 0.0 0.0 1.0
vn 0.0 -1.0 0.0
vn 0.0 1.0 0.0
vn 0.0 0.0 -1.0
vn 1.0 0.0 0.0
vn -1.0 0.0 0.0
vn 0.0 1.0 0.0
vn 0.0 0.8660253028382762 -0.5000001748438417
vn 0.0 0.8660253028382762 0.5000001748438417
vn 0.0 0.5000001748438417 0.8660253028382762
vn 0.0 0.0 1.0
vn 0.0 0.5000001748438417 -0.8660253028382762
vn 0.0 0.0 -1.0
vn 0.0 -0.5000001748438417 0.8660253028382762
vn 0.0 -0.5000001748438417 -0.8660253028382762
vn 0.0 -0.8660253028382762 0.5000001748438417
vn 0.0 -0.8660253028382762 -0.5000001748438417
vn 0.0 -1.0 0.0
vn 0.0 0.0 1.0
vn -1.0 0.0 0.0
vn 0.0 -1.0 0.0
vn 1.0 0.0 0.0
vn 0.0 1.0 0.0
vn 0.0 0.0 -1.0
vn -1.0 0.0 0.0
vn 1.0 0.0 0.0
vn 1.0 0.0 0.0
vn 0.0 0.0 1.0
vn 0.0 0.0 -1.0
vn -1.0 0.0 0.0
vn 0.0 0.0 -1.0
vn -1.0 0.0 0.0
vn 1.0 0.0 0.0
vn 0.0 0.0 1.0
vn 0.0 -1.0 0.0
vn 0.0 1.0 0.0
vn 0.0 0.0 -1.0
vn -1.0 0.0 0.0
vn 1.0 0.0 0.0
vn 0.0 0.0 1.0
vn 0.0 1.0 0.0
vn 0.0 -1.0 0.0
vn 0.0 0.0 -1.0
vn 0.0 0.0 1.0
vn 1.0 0.0 0.0
vn 0.0 0.0 1.0
vn 0.0 0.0 -1.0
vn -1.0 0.0 0.0
vn 0.0 1.0 0.0
vn -1.0 0.0 0.0
vn 0.0 0.0 -1.0
vn 1.0 0.0 0.0
vn 0.0 -1.0 0.0
vn 0.0 0.0 1.0
vn 1.0 0.0 0.0
vn 0.0 0.0 1.0
vn 0.0 0.0 -1.0
vn -1.0 0.0 0.0
vn 0.0 1.0 0.0
vn 0.0 0.0 -1.0
vn -1.0 0.0 0.0
vn 1.0 0.0 0.0
vn 0.0 -1.0 0.0
vn 0.0 0.0 1.0
vn 1.0 0.0 0.0
vn 0.0 0.0 1.0
vn -1.0 0.0 0.0
vn 0.0 0.0 -1.0
vn 0.0 0.0 -1.0
vn 0.0 0.0 1.0
vn 1.0 0.0 0.0
vn 0.0 0.0 1.0
vn -1.0 0.0 0.0
vn 0.0 0.0 -1.0
vn 1.0 0.0 0.0
vn 0.0 0.0 1.0
vn 0.0 0.0 -1.0
vn -1.0 0.0 0.0
usemtl base_geom
f 1/1/1 2/2/1 3/3/1
f 2/2/1 1/1/1 4/4/1
f 3//2 2//2 1//2
f 4//2 1//2 2//2
f 5/5/3 6/6/3 7/7/3
f 6/6/3 5/5/3 8/8/3
f 7//4 6//4 5//4
f 8//4 5//4 6//4
f 9/9/5 10/10/5 11/11/5
f 11//6 10//6 9//6
f 13//7 14//7 15//7
f 14//7 13//7 16//7
f 14//8 17//8 15//8
f 17//9 13//9 15//9
f 13//10 18//10 16//10
f 18//11 14//11 16//11
f 17//8 14//8 19//8
f 13//9 17//9 20//9
f 18//10 13//10 20//10
f 14//11 18//11 19//11
f 15//12 14//12 13//12
f 16//12 13//12 14//12
f 15//10 17//10 14//10
f 15//11 13//11 17//11
f 16//8 18//8 13//8
f 16//9 14//9 18//9
f 19//10 14//10 17//10
f 20//11 17//11 13//11
f 20//8 13//8 18//8
f 19//9 18//9 14//9
f 21/13/13 22/14/13 23/15/13
f 23/15/14 22/14/14 21/13/14
f 21/13/14 23/15/14 22/14/14
f 22/14/13 23/15/13 21/13/13
f 24/16/13 23/15/13 22/14/13
f 22/14/14 23/15/14 24/16/14
f 24/16/14 22/14/14 23/15/14
f 23/15/13 22/14/13 24/16/13
f 25/17/15 26/18/15 27/19/15
f 26/18/15 25/17/15 28/20/15
f 29/21/16 25/17/16 27/19/16
f 30/23/18 26/18/18 28/20/18
f 25/17/16 29/21/16 31/24/16
f 30/22/17 25/17/17 31/25/17
f 26/18/18 30/23/18 32/26/18
f 27//19 26//19 25//19
f 28//19 25//19 26//19
f 27//18 25//18 29//18
f 28//20 30//20 25//20
f 28//16 26//16 30//16
f 31//18 29//18 25//18
f 31//20 25//20 30//20
f 32//16 30//16 26//16
f 31//15 30//15 29//15
f 32//15 29//15 30//15
f 29//19 30//19 31//19
f 30//19 29//19 32//19
f 33/27/21 34/28/21 35/29/21
f 34/28/21 33/27/21 36/30/21
f 35//22 34//22 33//22
f 36//22 33//22 34//22
f 37//23 38//23 39//23
f 38//23 37//23 40//23
f 39//24 38//24 37//24
f 40//24 37//24 38//24
f 42//25 41//25 44//25
f 43//26 45//26 41//26
f 42//25 44//25 46//25
f 45//26 43//26 47//26
f 46//25 44//25 49//25
f 50//28 45//28 47//28
f 45//28 50//28 48//28
f 51//29 44//29 48//29
f 49//25 44//25 52//25
f 48//28 50//28 53//28
f 44//29 51//29 52//29
f 48//28 54//28 51//28
f 48//28 53//28 54//28
f 43//28 42//28 41//28
f 44//28 41//28 42//28
f 41//29 45//29 43//29
f 46//28 44//28 42//28
f 47//29 43//29 45//29
f 49//28 44//28 46//28
f 47//25 45//25 50//25
f 48//25 50//25 45//25
f 48//26 44//26 51//26
f 52//28 44//28 49//28
f 53//25 50//25 48//25
f 51//25 54//25 48//25
f 54//25 53//25 48//25
f 55/31/31 56/32/31 57/33/31
f 60/38/33 56/32/33 58/34/33
f 56/32/33 60/38/33 62/40/33
f 59/41/34 60/38/34 61/42/34
f 60/38/34 59/41/34 62/40/34
f 57//34 56//34 55//34
f 58//34 55//34 56//34
f 58//32 56//32 60//32
f 62//32 60//32 56//32
f 61//31 60//31 59//31
f 62//31 59//31 60//31
f 63//35 64//35 65//35
f 64//35 63//35 66//35
f 64//36 67//36 65//36
f 67//36 64//36 69//36
f 68//38 67//38 69//38
f 67//38 68//38 70//38
f 65//38 64//38 63//38
f 66//38 63//38 64//38
f 65//37 67//37 64//37
f 69//37 64//37 67//37
f 69//35 67//35 68//35
f 70//35 68//35 67//35
f 71/43/39 72/44/39 73/45/39
f 75/47/40 71/43/40 73/45/40
f 71/43/40 75/47/40 77/49/40
f 75/51/42 76/52/42 77/53/42
f 76/52/42 75/51/42 78/54/42
f 73//42 72//42 71//42
f 73//41 71//41 75//41
f 77//41 75//41 71//41
f 77//39 76//39 75//39
f 78//39 75//39 76//39
f 79/55/43 80/56/43 81/57/43
f 80/56/43 79/55/43 82/58/43
f 83/59/44 79/60/44 81/61/44
f 84/62/45 80/56/45 82/58/45
f 79/60/44 83/59/44 85/63/44
f 80/56/45 84/62/45 86/64/45
f 83/65/46 84/62/46 85/66/46
f 84/62/46 83/65/46 86/64/46
f 81//46 80//46 79//46
f 82//46 79//46 80//46
f 81//45 79//45 83//45
f 82//44 80//44 84//44
f 85//45 83//45 79//45
f 86//44 84//44 80//44
f 85//43 84//43 83//43
f 86//43 83//43 84//43
f 87//47 88//47 89//47
f 88//47 87//47 90//47
f 92//49 88//49 90//49
f 88//49 92//49 94//49
f 89//50 88//50 87//50
f 90//50 87//50 88//50
f 90//48 88//48 92//48
f 94//48 92//48 88//48
f 96//51 98//51 102//51
f 102//51 98//51 104//51
f 100//52 105//52 101//52
f 102//51 104//51 107//51
f 101//52 105//52 106//52
f 107//51 104//51 109//51
f 106//52 105//52 108//52
f 107//51 109//51 111//51
f 106//52 108//52 110//52
f 111//51 109//51 113//51
f 110//52 108//52 112//52
f 111//51 113//51 115//51
f 110//52 112//52 114//52
f 114//52 112//52 118//52
f 98//52 95//52 96//52
f 97//53 99//53 96//54
f 95//55 100//55 97//53
f 98//56 101//56 95//55
f 102//52 98//52 96//52
f 103//54 96//54 99//53
f 99//53 97//53 100//55
f 100//55 95//55 101//56
f 98//56 104//57 101//56
f 102//58 96//54 105//58
f 103//54 105//58 96//54
f 99//51 100//51 103//51
f 101//51 105//51 100//51
f 106//57 101//56 104//57
f 107//52 104//52 102//52
f 105//58 108//59 102//58
f 105//51 103//51 100//51
f 106//51 105//51 101//51
f 104//57 109//60 106//57
f 109//52 104//52 107//52
f 107//59 102//58 108//59
f 108//51 105//51 106//51
f 110//60 106//57 109//60
f 111//52 109//52 107//52
f 108//59 112//61 107//59
f 110//51 108//51 106//51
f 109//60 113//62 110//60
f 113//52 109//52 111//52
f 111//61 107//59 112//61
f 114//62 110//60 113//62
f 111//61 112//61 115//63
f 114//51 112//51 110//51
f 114//62 113//62 116//64
f 117//52 113//52 115//52
f 118//63 115//63 112//61
f 117//64 116//64 113//62
f 115//63 118//63 117//64
f 116//64 117//64 118//63
f 96/71/62 99/72/64 97/73/64
f 97/73/64 100/74/63 95/71/63
f 95/71/63 101/75/61 98/76/61
f 99/72/64 96/71/62 103/74/62
f 100/74/63 97/73/64 99/72/64
f 101/75/61 95/71/63 100/74/63
f 101/75/61 104/77/59 98/76/61
f 105/75/60 96/71/62 102/76/60
f 96/71/62 105/75/60 103/74/62
f 104/77/59 101/75/61 106/78/59
f 102/76/60 108/78/57 105/75/60
f 106/78/59 109/79/58 104/77/59
f 108/78/57 102/76/60 107/77/57
f 109/79/58 106/78/59 110/80/58
f 107/77/57 112/80/56 108/78/57
f 110/80/58 113/81/54 109/79/58
f 112/80/56 107/77/57 111/79/56
f 113/81/54 110/80/58 114/82/54
f 115/81/55 112/80/56 111/79/56
f 116/83/53 113/81/54 114/82/54
f 112/80/56 115/81/55 118/82/55
f 113/81/54 116/83/53 117/84/53
f 117/84/53 118/82/55 115/81/55
f 118/82/55 117/84/53 116/83/53
f 119//65 120//65 121//65
f 120//65 119//65 122//65
f 120//66 123//66 121//66
f 123//67 119//67 121//67
f 119//68 124//68 122//68
f 124//69 120//69 122//69
f 123//66 120//66 125//66
f 119//67 123//67 126//67
f 124//68 119//68 126//68
f 120//69 124//69 125//69
f 121//70 120//70 119//70
f 122//70 119//70 120//70
f 121//68 123//68 120//68
f 121//69 119//69 123//69
f 122//66 124//66 119//66
f 122//67 120//67 124//67
f 125//68 120//68 123//68
f 126//69 123//69 119//69
f 126//66 119//66 124//66
f 125//67 124//67 120//67
f 127/85/71 128/86/71 129/87/71
f 128/86/71 127/85/71 130/88/71
f 129//72 128//72 127//72
f 130//72 127//72 128//72
f 131/89/73 132/90/73 133/91/73
f 132/90/73 131/89/73 134/92/73
f 135/93/74 131/94/74 133/95/74
f 136/96/75 132/90/75 134/92/75
f 131/94/74 135/93/74 137/97/74
f 132/90/75 136/96/75 138/98/75
f 135/99/76 136/96/76 137/100/76
f 136/96/76 135/99/76 138/98/76
f 133//76 132//76 131//76
f 134//76 131//76 132//76
f 133//75 131//75 135//75
f 134//74 132//74 136//74
f 137//75 135//75 131//75
f 138//74 136//74 132//74
f 137//73 136//73 135//73
f 138//73 135//73 136//73
f 139/101/77 140/102/77 141/103/77
f 140/102/77 139/101/77 142/104/77
f 140/102/78 143/105/78 141/103/78
f 139/101/79 144/106/79 142/104/79
f 143/105/78 140/102/78 145/107/78
f 144/106/79 139/101/79 146/108/79
f 141//80 140//80 139//80
f 142//80 139//80 140//80
f 141//79 143//79 140//79
f 141//81 139//81 143//81
f 142//78 144//78 139//78
f 142//82 140//82 144//82
f 145//79 140//79 143//79
f 146//81 143//81 139//81
f 146//78 139//78 144//78
f 145//82 144//82 140//82
f 145//77 143//77 144//77
f 146//77 144//77 143//77
f 143//82 139//82 141//82
f 144//81 140//81 142//81
f 139//82 143//82 146//82
f 140//81 144//81 145//81
f 144//80 143//80 145//80
f 143//80 144//80 146//80
f 147/109/83 148/110/83 149/111/83
f 147/109/84 150/112/84 148/110/84
f 151/113/83 149/111/83 148/110/83
f 152/114/84 148/110/84 150/112/84
f 151/113/85 153/115/85 149/111/85
f 154/116/85 149/111/85 153/115/85
f 149//86 148//86 147//86
f 148//85 150//85 147//85
f 148//86 149//86 151//86
f 150//87 149//87 147//87
f 150//85 148//85 152//85
f 149//84 153//84 151//84
f 149//87 150//87 154//87
f 153//83 150//83 152//83
f 153//84 149//84 154//84
f 150//83 153//83 154//83
f 147//88 149//88 150//88
f 154//88 150//88 149//88
f 152//86 150//86 153//86
f 154//86 153//86 150//86
f 159/117/91 160/118/91 161/119/91
f 163/121/92 159/117/92 161/119/92
f 159/117/92 163/121/92 165/123/92
f 163/125/94 164/126/94 165/127/94
f 164/126/94 163/125/94 166/128/94
f 161//94 160//94 159//94
f 161//93 159//93 163//93
f 165//93 163//93 159//93
f 165//91 164//91 163//91
f 166//91 163//91 164//91
f 167/129/95 168/130/95 169/131/95
f 170/132/95 169/131/95 168/130/95
f 167/129/96 169/131/96 171/133/96
f 170/132/97 172/134/97 169/131/97
f 170/132/98 168/130/98 172/135/98
f 173/136/96 171/133/96 169/131/96
f 173/137/97 169/131/97 172/134/97
f 174/138/98 172/135/98 168/130/98
f 169//99 168//99 167//99
f 168//99 169//99 170//99
f 171//98 169//98 167//98
f 169//100 172//100 170//100
f 172//96 168//96 170//96
f 169//98 171//98 173//98
f 168//96 172//96 174//96
f 171//95 172//95 173//95
f 172//95 171//95 174//95
f 173//99 172//99 171//99
f 174//99 171//99 172//99
f 175//101 176//101 177//101
f 176//101 175//101 178//101
f 176//102 179//102 177//102
f 179//102 176//102 181//102
f 180//104 179//104 181//104
f 178//104 175//104 176//104
f 177//103 179//103 176//103
f 181//103 176//103 179//103
f 181//101 179//101 180//101
f 182//101 180//101 179//101
f 183//105 184//105 185//105
f 184//105 183//105 186//105
f 185//107 188//107 183//107
f 189//108 184//108 186//108
f 187//107 191//107 185//107
f 185//107 192//107 188//107
f 193//108 184//108 189//108
f 194//108 190//108 184//108
f 195//109 187//109 190//109
f 191//107 187//107 196//107
f 185//107 191//107 192//107
f 194//108 184//108 193//108
f 190//108 194//108 195//108
f 187//109 195//109 196//109
f 185//109 184//109 183//109
f 186//109 183//109 184//109
f 183//108 188//108 185//108
f 185//108 191//108 187//108
f 189//107 184//107 193//107
f 184//107 190//107 194//107
f 190//105 187//105 195//105
f 196//108 187//108 191//108
f 195//107 194//107 190//107
f 196//105 195//105 187//105
f 197//111 198//111 199//111
f 201//112 197//112 199//112
f 197//112 201//112 203//112
f 201//113 202//113 203//113
f 202//113 201//113 204//113
f 199//113 198//113 197//113
f 200//113 197//113 198//113
f 199//114 197//114 201//114
f 200//112 198//112 202//112
f 203//114 201//114 197//114
f 204//112 202//112 198//112
f 203//111 202//111 201//111
f 204//111 201//111 202//111
f 202/139/114 198/140/114 200/141/114
f 198/140/114 202/139/114 204/142/114
f 205/143/115 206/144/115 207/145/115
f 206/144/115 205/143/115 208/146/115
f 207//116 206//116 205//116
f 208//116 205//116 206//116
f 209//117 210//117 211//117
f 210//117 209//117 212//117
f 213//118 209//118 211//118
f 209//118 213//118 215//118
f 214//119 213//119 216//119
f 211//119 210//119 209//119
f 212//119 209//119 210//119
f 211//120 209//120 213//120
f 212//118 210//118 214//118
f 215//120 213//120 209//120
f 216//118 214//118 210//118
f 215//117 214//117 213//117
f 216//117 213//117 214//117
f 214/147/120 210/148/120 212/149/120
f 210/148/120 214/147/120 216/150/120
f 217/151/121 218/152/121 219/153/121
f 221/155/122 217/151/122 219/153/122
f 217/151/122 221/155/122 223/157/122
f 221/159/124 222/160/124 223/161/124
f 222/160/124 221/159/124 224/162/124
f 219//124 218//124 217//124
f 219//123 217//123 221//123
f 223//123 221//123 217//123
f 223//121 222//121 221//121
f 224//121 221//121 222//121
