# Merged(arrow/base_geom)

v 0.112555 0.438911 0.592187
v -0.130891 0.365877 0.592187
v -0.130891 0.438911 0.592187
v 0.112555 0.365877 0.592187
v -0.130891 0.438911 0.567842
v 0.112555 0.365877 0.543498
v -0.130842 0.419482 0.567842
v 0.112555 0.438911 0.567842
v -0.130891 0.420219 0.567842
v 0.112555 0.419223 0.567842
v -0.130891 0.365877 0.543498
v -0.130891 0.414566 0.543498
v 0.112555 0.420219 0.567842
v 0.112579 0.419423 0.567842
v 0.112555 0.414566 0.543498
v -0.130842 0.419482 0.543498
v -0.130699 0.418756 0.543498
v -0.130699 0.418756 0.567842
v -0.13046 0.418057 0.567842
v -0.130134 0.417393 0.567842
v 0.111929 0.417142 0.567842
v 0.112263 0.417865 0.567842
v 0.112482 0.418632 0.567842
v 0.112482 0.418632 0.543498
v 0.112555 0.419223 0.543498
v 0.108248 0.414566 0.543498
v -0.125976 0.414615 0.543498
v -0.13046 0.418057 0.543498
v -0.130134 0.417393 0.543498
v -0.129723 0.416779 0.543498
v -0.129723 0.416779 0.567842
v -0.129236 0.416222 0.567842
v -0.128678 0.415735 0.567842
v -0.128065 0.415323 0.567842
v 0.111488 0.416477 0.567842
v 0.110327 0.415389 0.567842
v 0.109638 0.414992 0.567842
v 0.11095 0.415888 0.567842
v 0.112263 0.417865 0.543498
v 0.111929 0.417142 0.543498
v 0.111488 0.416477 0.543498
v 0.108893 0.414705 0.543498
v 0.109638 0.414992 0.543498
v 0.110327 0.415389 0.543498
v -0.128678 0.415735 0.543498
v -0.128065 0.415323 0.543498
v -0.1274 0.414997 0.543498
v -0.126701 0.414759 0.543498
v -0.129236 0.416222 0.543498
v -0.1274 0.414997 0.567842
v -0.126701 0.414759 0.567842
v -0.125976 0.414615 0.567842
v -0.125238 0.414566 0.567842
v 0.107318 0.414491 0.567842
v 0.108114 0.414537 0.567842
v 0.108248 0.414566 0.567842
v 0.108893 0.414705 0.567842
v 0.11095 0.415888 0.543498
v 0.599446 -0.612035 -0.600698
v -0.617783 -0.612035 0.543498
v -0.617783 -0.612035 -0.600698
v 0.599446 -0.612035 0.543498
v -0.617783 -0.563346 0.592187
v 0.599446 -0.563346 0.543498
v 0.599446 -0.563346 0.592187
v -0.617783 -0.563346 0.592187
v -0.617783 -0.559217 0.543498
v 0.599446 -0.563346 0.543498
v 0.599446 -0.563346 0.592187
v -0.617783 -0.490312 0.592187
v 0.599446 0.516592 0.543498
v -0.617783 0.511945 0.543498
v 0.599446 0.516592 0.591768
v -0.617783 0.483471 0.592187
v -0.617783 0.516592 0.591768
v 0.599446 0.532708 0.587746
v 0.599446 0.511945 0.592187
v -0.617783 0.511945 0.592187
v -0.617783 0.532708 0.587746
v 0.599446 0.548016 0.581293
v 0.112555 0.438911 0.592187
v -0.130891 0.365877 0.592187
v -0.617783 0.500047 0.59326
v -0.617783 0.548016 0.581293
v 0.599446 0.562146 0.57256
v -0.130891 0.438911 0.592187
v 0.112555 0.365877 0.592187
v -0.617783 0.562146 0.57256
v 0.599446 0.585568 0.549138
v 0.599446 0.574763 0.561756
v -0.617783 0.574763 0.561756
v 0.599446 -0.612035 -0.600698
v -0.617783 -0.612035 -0.600698
v 0.599446 -0.612035 0.543498
v -0.617783 -0.563346 0.592187
v 0.599446 0.605194 -0.600698
v -0.617783 -0.559217 0.543498
v -0.617783 0.605194 -0.600698
v 0.599446 -0.563346 0.543498
v -0.617783 0.605194 0.470464
v 0.599446 0.516592 0.543498
v -0.617783 0.511945 0.543498
v 0.599446 0.605194 0.498937
v -0.617783 0.605194 0.498937
v 0.599446 0.516592 0.591768
v -0.617783 0.516592 0.591768
v 0.599446 0.604775 0.503585
v -0.617783 0.604775 0.503585
v -0.617783 0.606268 0.48704
v 0.599446 0.532708 0.587746
v -0.617783 0.532708 0.587746
v 0.599446 0.600754 0.519701
v -0.617783 0.600754 0.519701
v 0.599446 0.548016 0.581293
v -0.617783 0.548016 0.581293
v 0.599446 0.5943 0.535009
v -0.617783 0.5943 0.535009
v 0.599446 0.562146 0.57256
v -0.617783 0.562146 0.57256
v 0.599446 0.585568 0.549138
v -0.617783 0.585568 0.549138
v 0.599446 0.574763 0.561756
v -0.617783 0.574763 0.561756
vt 0.342666 0.218723
vt 0.357247 0.145815
vt 0.357247 0.218723
vt -0.357199 0.292891
vt -0.349908 0.308945
vt -0.357199 0.314764
vt -0.349908 0.309166
vt -0.349908 0.314764
vt 0.342666 0.145815
vt -0.342618 0.307473
vt -0.342618 0.292891
vt -0.342618 0.308945
vt 0.148174 0.401696
vt 0.222261 0.401696
vt 0.36303 0.431706
vt 0.348213 0.401706
vt 0.36303 0.401706
vt 0.355622 0.423619
vt 0.355622 0.424028
vt 0.355622 0.431706
vt 0.355622 0.423701
vt 0.348213 0.421706
vt 0.148174 0.421696
vt 0.348213 0.423619
vt 0.22095 0.421696
vt 0.222261 0.421696
vt 0.14967 0.421716
vt 0.0 0.364538
vt -0.342666 0.0
vt 0.0 0.0
vt -0.342666 0.364538
vt 0.363026 0.02
vt 0.348209 0.0
vt -0.348209 0.0
vt 0.370435 0.33234
vt 0.0 0.360624
vt 0.0 0.33234
vt -0.348209 0.02
vt 0.370435 0.360624
vt -0.363026 0.02
vt 0.363026 0.02
vt 0.348209 0.021696
vt -0.348209 0.02
vt 0.363026 0.05
vt -0.348209 0.463605
vt -0.363026 0.02
vt 0.370435 0.02
vt 0.0 0.05
vt 0.0 0.02
vt 0.348209 0.461696
vt -0.362899 0.463605
vt 0.0 0.45
vt 0.363026 0.45
vt 0.362899 0.463605
vt -0.363026 0.461696
vt 0.0 0.461696
vt 0.363026 0.461696
vt 0.0 0.338081
vt 0.370435 0.331258
vt 0.370435 0.338081
vt 0.0 0.417742
vt 0.370435 0.415826
vt 0.370435 0.417742
vt 0.370435 0.461696
vt 0.222261 0.431696
vt 0.148174 0.401696
vt 0.0 0.415826
vt 0.0 0.331258
vt 0.0 0.250442
vt 0.370435 0.243618
vt 0.370435 0.250442
vt 0.0 0.243618
vt 0.148174 0.431696
vt 0.222261 0.401696
vt 0.0 0.156914
vt 0.370435 0.15009
vt 0.370435 0.156914
vt 0.0 0.15009
vt 0.0 0.059726
vt 0.370435 0.052903
vt 0.370435 0.059726
vt 0.0 0.052903
vt 0.370435 -0.038803
vt 0.0 -0.045627
vt 0.370435 -0.045627
vt 0.0 0.0
vt 0.363026 0.02
vt -0.370435 0.5
vt -0.370435 0.0
vt 0.0 0.5
vt -0.348209 0.0
vt 0.348209 0.021696
vt -0.348209 0.02
vt 0.325983 0.0
vt -0.348209 0.463605
vt 0.348209 0.461696
vt 0.334648 0.5
vt 0.325983 0.5
vt -0.362899 0.463605
vt 0.362899 0.463605
vt 0.334648 0.0
vt -0.336062 0.499828
vt -0.334648 0.5
vt 0.336062 0.499828
vt -0.361675 0.470225
vt 0.361675 0.470225
vt 0.0 -0.406885
vt 0.370435 -0.404968
vt 0.0 -0.404968
vt -0.340967 0.498176
vt 0.370435 -0.406885
vt 0.340967 0.498176
vt -0.359711 0.476513
vt 0.359711 0.476513
vt -0.345625 0.495525
vt 0.370435 -0.319134
vt 0.0 -0.325958
vt 0.370435 -0.325958
vt 0.0 -0.319134
vt 0.345625 0.495525
vt -0.357053 0.482317
vt 0.357053 0.482317
vt -0.349925 0.491938
vt 0.370435 -0.230519
vt 0.0 -0.237342
vt 0.370435 -0.237342
vt 0.0 -0.230519
vt 0.349925 0.491938
vt -0.353765 0.4875
vt 0.353765 0.4875
vt 0.370435 -0.136326
vt 0.0 -0.14315
vt 0.370435 -0.14315
vt 0.0 -0.136326
vt 0.370435 -0.038803
vt 0.0 -0.045627
vt 0.0 -0.038803
vn 0.0 -1.0 0.0
vn 0.0 1.0 0.0
vn 1.0 -0.00017 0.000328
vn 0.0 0.0 1.0
vn 0.0 0.0 -1.0
vn 1.0 -3.2e-05 -1.9e-05
vn -1.0 0.00017 -0.000328
vn -0.980785 -0.19509 0.0
vn 0.980785 0.19509 0.0
vn 0.961712 -0.274063 0.0
vn -0.961712 0.274063 0.0
vn 0.992403 -0.12303 0.0
vn -0.992403 0.12303 0.0
vn -0.83147 -0.55557 0.0
vn 0.83147 0.55557 0.0
vn -0.94693 -0.321439 0.0
vn 0.94693 0.321439 0.0
vn -0.896873 -0.442289 0.0
vn 0.896873 0.442289 0.0
vn 0.908177 -0.418587 0.0
vn -0.908177 0.418587 0.0
vn -0.83307 0.553168 0.0
vn 0.83307 -0.553168 0.0
vn 0.498455 -0.866916 0.0
vn -0.498455 0.866916 0.0
vn -0.55557 -0.83147 0.0
vn 0.55557 0.83147 0.0
vn -0.659346 -0.75184 0.0
vn 0.659346 0.75184 0.0
vn -0.75184 -0.659346 0.0
vn 0.75184 0.659346 0.0
vn 0.19509 0.980785 0.0
vn 0.738175 -0.674609 0.0
vn -0.738175 0.674609 0.0
vn 0.625747 -0.780026 0.0
vn -0.625747 0.780026 0.0
vn -0.000239 -0.999999 -0.001227
vn 0.000239 0.999999 0.001227
vn 0.359323 -0.933213 0.0
vn -0.359323 0.933213 0.0
vn 0.211656 -0.977344 0.0
vn -0.211656 0.977344 0.0
vn -0.442289 -0.896873 0.0
vn 0.442289 0.896873 0.0
vn -0.321439 -0.94693 0.0
vn 0.321439 0.94693 0.0
vn -0.19509 -0.980785 0.0
vn -1.0 3.2e-05 1.9e-05
vn 0.0 -1.0 0.0
vn 0.0 1.0 0.0
vn 1.0 0.0 0.0
vn -1.0 0.0 0.0
vn 0.0 0.707107 -0.707107
vn 0.0 -0.707107 0.707107
vn 1.0 0.0 0.0
vn 0.0 0.0 1.0
vn -1.0 0.0 0.0
vn 0.0 0.0 -1.0
vn 0.0 -0.316228 -0.948683
vn 0.0 -0.166423 -0.986054
vn 0.0 -0.089806 -0.995959
vn 0.0 -0.458494 -0.888698
vn 0.0 -0.589831 -0.807527
vn 0.0 -0.807527 -0.589831
vn 0.0 -0.707107 -0.707107
vn 0.0 0.316228 0.948683
vn 0.0 0.166423 0.986054
vn 0.0 0.089806 0.995959
vn 0.0 0.458494 0.888698
vn 0.0 0.589831 0.807527
vn 0.0 0.807527 0.589831
vn 0.0 0.707107 0.707107
vn 0.0 -1.0 0.0
vn 0.0 1.0 0.0
vn 1.0 0.0 0.0
vn 0.0 0.0 1.0
vn -1.0 0.0 0.0
vn 0.0 0.0 -1.0
vn 0.0 -0.995959 -0.089806
vn 0.0 -0.986054 -0.166423
vn 0.0 -0.948683 -0.316228
vn 0.0 -0.888698 -0.458494
vn 0.0 -0.807527 -0.589831
vn 0.0 -0.707107 -0.707107
vn 0.0 0.986054 0.166423
vn 0.0 0.995959 0.089806
vn 0.0 0.948683 0.316228
vn 0.0 0.888698 0.458494
vn 0.0 0.807527 0.589831
vn 0.0 0.707107 0.707107
usemtl base_geom
f 6/1/2 2/2/2 4/3/2
f 2/4/3 7/5/3 3/6/3
f 2/2/2 6/1/2 11/9/2
f 2/4/3 12/10/3 7/5/3
f 12/10/3 2/4/3 11/11/3
f 4//6 6//6 1//6
f 4//1 2//1 6//1
f 3//7 7//7 2//7
f 10//6 1//6 6//6
f 11//1 6//1 2//1
f 7//7 12//7 2//7
f 5//4 13//4 8//4
f 8//5 13//5 5//5
f 13//4 5//4 9//4
f 9//5 5//5 13//5
f 15//6 10//6 6//6
f 11//5 12//5 6//5
f 11//7 2//7 12//7
f 20//5 19//5 13//5
f 27//5 6//5 12//5
f 31//5 20//5 13//5
f 32//5 31//5 13//5
f 33//5 32//5 13//5
f 34//5 33//5 13//5
f 26//5 6//5 27//5
f 50//5 34//5 13//5
f 51//5 50//5 13//5
f 52//5 51//5 13//5
f 13//4 53//4 54//4
f 13//4 54//4 55//4
f 54//5 53//5 13//5
f 1/15/48 6/16/48 4/17/48
f 6/16/48 1/15/48 10/18/48
f 6/16/48 10/18/48 15/22/48
f 6/14/4 12/23/4 11/13/4
f 26/25/4 6/14/4 15/26/4
f 12/23/4 6/14/4 27/27/4
f 27/27/4 6/14/4 26/25/4
f 59/28/49 60/29/49 61/30/49
f 60/29/49 59/28/49 62/31/49
f 61//50 60//50 59//50
f 62//50 59//50 60//50
f 60//51 61//51 63//51
f 60//53 63//53 62//53
f 65//53 62//53 63//53
f 64//52 62//52 65//52
f 63/32/52 61/30/52 60/33/52
f 62/35/54 63/36/54 60/37/54
f 63/36/54 62/35/54 65/39/54
f 65/40/51 62/34/51 64/38/51
f 66//55 67//55 70//55
f 66//58 70//58 69//58
f 72//55 70//55 67//55
f 68//57 69//57 71//57
f 74//58 69//58 70//58
f 74//55 70//55 72//55
f 73//57 71//57 77//57
f 77//57 71//57 69//57
f 78//58 69//58 74//58
f 78//55 74//55 72//55
f 78//55 72//55 75//55
f 76//59 73//60 79//59
f 73//60 77//61 75//60
f 69//58 81//58 77//58
f 82//58 69//58 78//58
f 78//57 74//57 83//57
f 78//61 75//60 77//61
f 75//60 79//59 73//60
f 80//62 76//59 84//62
f 79//59 84//62 76//59
f 81//58 86//58 77//58
f 81//58 69//58 87//58
f 87//58 69//58 82//58
f 82//58 78//58 86//58
f 77//58 86//58 78//58
f 85//63 80//62 88//63
f 84//62 88//63 80//62
f 90//65 85//63 91//65
f 88//63 91//65 85//63
f 90//65 91//65 89//64
f 70/44/57 67/42/57 66/41/57
f 69/47/56 70/48/56 66/49/56
f 67/42/57 70/44/57 72/50/57
f 70/48/56 69/47/56 74/52/56
f 72/50/57 70/44/57 74/53/57
f 77/55/55 71/45/55 73/51/55
f 69/46/55 71/45/55 77/55/55
f 74/52/56 69/47/56 78/56/56
f 72/50/57 74/53/57 78/57/57
f 75/54/57 72/50/57 78/57/57
f 79/58/66 73/59/67 76/60/66
f 75/61/67 77/62/68 73/63/67
f 77/64/56 81/65/56 69/47/56
f 78/56/56 69/47/56 82/66/56
f 77/62/68 75/61/67 78/67/68
f 73/59/67 79/58/66 75/68/67
f 84/69/69 76/70/66 80/71/69
f 76/70/66 84/69/69 79/72/66
f 77/64/56 86/73/56 81/65/56
f 87/74/56 69/47/56 81/65/56
f 82/66/56 69/47/56 87/74/56
f 86/73/56 78/56/56 82/66/56
f 78/56/56 86/73/56 77/64/56
f 88/75/70 80/76/69 85/77/70
f 80/76/69 88/75/70 84/78/69
f 91/79/72 85/80/70 90/81/72
f 85/80/70 91/79/72 88/82/70
f 89/83/71 91/84/72 90/85/72
f 92//76 96//76 93//76
f 92//77 94//77 96//77
f 97//75 95//75 93//75
f 98//76 93//76 96//76
f 99//77 96//77 94//77
f 98//75 97//75 93//75
f 98//73 96//73 100//73
f 101//77 96//77 99//77
f 102//75 97//75 98//75
f 103//73 100//73 96//73
f 105//77 96//77 101//77
f 106//75 102//75 98//75
f 104//73 100//73 103//73
f 109//77 100//77 104//77
f 110//77 96//77 105//77
f 111//75 106//75 98//75
f 104//79 103//79 108//80
f 107//77 96//77 112//77
f 107//80 108//80 103//79
f 108//75 113//75 98//75
f 114//77 96//77 110//77
f 115//75 111//75 98//75
f 112//77 96//77 116//77
f 112//81 113//81 107//80
f 108//80 107//80 113//81
f 113//75 117//75 98//75
f 118//77 96//77 114//77
f 119//75 115//75 98//75
f 116//77 96//77 120//77
f 116//82 117//82 112//81
f 113//81 112//81 117//82
f 117//75 121//75 98//75
f 122//77 96//77 118//77
f 123//75 119//75 98//75
f 120//77 96//77 122//77
f 120//83 121//83 116//82
f 117//82 116//82 121//83
f 121//75 123//75 98//75
f 121//83 120//83 123//84
f 93/86/78 96/88/78 92/89/78
f 96/90/75 94/91/75 92/86/75
f 93/86/77 95/87/77 97/92/77
f 96/88/78 93/86/78 98/90/78
f 94/91/75 96/90/75 99/93/75
f 93/86/77 97/92/77 98/90/77
f 100/94/74 96/90/74 98/86/74
f 99/93/75 96/90/75 101/95/75
f 98/90/77 97/92/77 102/96/77
f 96/90/74 100/94/74 103/97/74
f 101/95/75 96/90/75 105/99/75
f 98/90/77 102/96/77 106/100/77
f 103/97/74 100/94/74 104/101/74
f 105/99/75 96/90/75 110/105/75
f 98/90/77 106/100/77 111/106/77
f 108/107/85 103/108/86 104/109/86
f 112/110/75 96/90/75 107/102/75
f 103/108/86 108/107/85 107/111/85
f 98/90/77 113/112/77 108/104/77
f 110/105/75 96/90/75 114/113/75
f 98/90/77 111/106/77 115/114/77
f 116/115/75 96/90/75 112/110/75
f 107/116/85 113/117/87 112/118/87
f 113/117/87 107/116/85 108/119/85
f 98/90/77 117/120/77 113/112/77
f 114/113/75 96/90/75 118/121/75
f 98/90/77 115/114/77 119/122/77
f 120/123/75 96/90/75 116/115/75
f 112/124/87 117/125/88 116/126/88
f 117/125/88 112/124/87 113/127/87
f 98/90/77 121/128/77 117/120/77
f 118/121/75 96/90/75 122/129/75
f 98/90/77 119/122/77 123/130/77
f 122/129/75 96/90/75 120/123/75
f 116/131/88 121/132/89 120/133/89
f 121/132/89 116/131/88 117/134/88
f 98/90/77 123/130/77 121/128/77
f 123/136/90 120/135/89 121/137/89
