# Merged(arrow/base_geom)

v 0.924719 -0.352661 -0.326358
v 0.924719 0.368499 0.278615
v 0.924719 -0.352661 0.278615
v 0.924719 0.368499 -0.326358
v 0.888661 -0.352661 0.278615
v 0.898677 -0.352661 -0.282287
v 0.888661 0.368499 -0.326358
v 0.898677 0.368499 -0.2903
v 0.888661 0.368499 0.278615
v 0.898677 -0.352661 -0.2903
v 0.888661 -0.352661 -0.326358
v 0.898677 0.368499 -0.282287
v 0.888661 0.368499 -0.282287
v 0.888661 -0.352661 -0.282287
v 0.888661 -0.352661 -0.2903
v 0.888661 0.368499 -0.2903
v 0.885656 0.007919 -0.280284
v 0.885656 0.043977 0.268599
v 0.885656 0.007919 0.268599
v 0.885656 0.043977 -0.280284
v -0.839117 0.007919 0.268599
v -0.839117 0.043977 -0.280284
v -0.839117 0.043977 0.268599
v -0.839117 0.007919 -0.280284
v 0.896674 0.364492 -0.280284
v -0.850135 0.364492 -0.288297
v -0.850135 0.364492 -0.280284
v 0.896674 0.364492 -0.288297
v -0.850135 -0.348654 -0.288297
v -0.850135 -0.348654 -0.280284
v 0.896674 -0.348654 -0.288297
v 0.896674 -0.348654 -0.280284
v 0.888661 -0.352661 -0.280284
v -0.842122 -0.352661 0.278615
v -0.842122 -0.352661 -0.280284
v 0.888661 -0.352661 0.278615
v -0.842122 -0.316603 -0.280284
v 0.888661 -0.316603 -0.280284
v 0.888661 -0.316603 0.278615
v -0.842122 -0.316603 0.278615
v -0.19408 -0.222451 0.358626
v -0.214112 -0.222451 0.318562
v -0.214112 -0.222451 0.358626
v -0.19408 -0.222451 0.318562
v -0.214112 -0.242484 0.358626
v -0.19408 -0.242484 0.318562
v -0.214112 -0.242484 0.318562
v -0.19408 -0.242484 0.358626
v 0.254642 -0.242484 0.358626
v -0.214112 -0.242484 0.378658
v -0.214112 -0.242484 0.358626
v 0.254642 -0.242484 0.378658
v -0.214112 -0.222451 0.358626
v 0.254642 -0.222451 0.378658
v -0.214112 -0.222451 0.378658
v 0.254642 -0.222451 0.358626
v 0.254642 -0.242484 0.318562
v 0.254642 -0.222451 0.358626
v 0.254642 -0.242484 0.358626
v 0.254642 -0.222451 0.318562
v 0.234609 -0.242484 0.358626
v 0.234609 -0.222451 0.318562
v 0.234609 -0.222451 0.358626
v 0.234609 -0.242484 0.318562
v 0.888661 0.332441 -0.280284
v -0.842122 0.332441 0.278615
v -0.842122 0.332441 -0.280284
v 0.888661 0.332441 0.278615
v -0.842122 0.368499 -0.280284
v 0.888661 0.368499 -0.280284
v 0.888661 0.368499 0.278615
v -0.842122 0.368499 0.278615
v -0.842122 -0.352661 -0.282287
v -0.842122 0.368499 0.278615
v -0.842122 -0.352661 0.278615
v -0.842122 0.368499 -0.282287
v -0.87818 -0.352661 0.278615
v -0.852138 -0.352661 -0.282287
v -0.852138 0.368499 -0.282287
v -0.87818 0.368499 0.278615
v -0.87818 0.368499 -0.326358
v -0.852138 -0.352661 -0.2903
v -0.852138 0.368499 -0.2903
v -0.87818 -0.352661 -0.326358
v -0.842122 0.368499 -0.326358
v -0.842122 -0.352661 -0.326358
v -0.842122 0.368499 -0.2903
v -0.842122 -0.352661 -0.2903
v 0.073339 -0.352661 0.002461
v 0.013242 -0.352661 0.022493
v 0.013242 -0.352661 0.002461
v 0.073339 -0.352661 0.022493
v 0.013242 -0.342645 0.002461
v 0.073339 -0.342645 0.022493
v 0.013242 -0.342645 0.022493
v 0.073339 -0.342645 0.002461
v -0.875175 0.354476 0.282621
v 0.921714 -0.352661 0.282621
v -0.875175 -0.352661 0.282621
v 0.921714 0.354476 0.282621
v -0.875175 -0.352661 0.318679
v 0.921714 0.354476 0.318679
v 0.921714 -0.352661 0.318679
v -0.875175 0.354476 0.318679
vt 0.0 -1.188976
vt 3.740157 0.0
vt 0.0 0.0
vt 3.740157 -1.188976
vt -3.740157 -1.102362
vt 0.0 -1.102362
vt -3.740157 0.0
vt 0.0 0.070866
vt -3.740157 0.070866
vt 1.0 0.0
vt 0.0 1.0
vt 0.072848 0.722222
vt 0.940397 0.722222
vt 1.0 1.0
vt 0.059603 0.722222
vt 0.927152 0.722222
vt 0.927152 1.0
vt 0.072848 1.0
vt 0.059603 1.0
vt 0.940397 1.0
vt -0.070866 0.0
vt 0.0 3.740157
vt -0.070866 3.740157
vt -3.740157 -0.015748
vt 0.0 -0.015748
vt -0.019685 0.0
vt 0.019685 3.740157
vt 0.019685 0.0
vt -0.019685 3.740157
vt 0.0 1.0
vt 1.0 0.0
vt 1.0 1.0
vt 0.0 0.0
vt 2.055118 0.0
vt 0.0 1.082677
vt 0.0 -1.082677
vt 2.055118 1.082677
vt 2.055118 -1.082677
vt 1.062992 0.0
vt 0.0 0.015748
vt 0.0 0.0
vt 1.062992 0.015748
vt -0.015748 0.0
vt 0.0 3.528388
vt -0.015748 3.528388
vt 0.015748 0.0
vt 0.015748 3.528388
vt -1.062992 0.015748
vt -1.062992 0.0
vt 0.0 1.062992
vt 3.528388 0.0
vt 3.528388 1.062992
vt -3.528388 1.062992
vt -3.528388 0.0
vt -2.066929 0.0
vt 0.0 -1.102362
vt 0.0 0.0
vt -2.066929 -1.102362
vt 2.066929 -1.102362
vt 2.066929 0.0
vt -1.102362 0.070866
vt -1.102362 0.0
vt 0.0 0.070866
vt 1.102362 0.070866
vt 1.102362 0.0
vt -2.066929 0.070866
vt 1.0 1.0
vt 0.0 1.0
vt 1.0 0.0
vt 0.007577 -0.018227
vt 0.0 0.0
vt 0.0 -0.018227
vt 0.007577 0.0
vt 0.0 0.003645
vt 0.018227 -0.003645
vt 0.018227 0.003645
vt 0.0 -0.003645
vt 0.007577 0.003645
vt -0.018227 0.003645
vt -0.007577 -0.003645
vt -0.007577 0.003645
vt 0.007577 -0.003645
vt -0.018227 -0.003645
vt -0.007577 0.0
vt -0.007577 -0.018227
vt -0.038641 0.007291
vt 0.038641 0.0
vt 0.038641 0.007291
vt -0.038641 0.0
vt 0.0 -0.003645
vt -0.007291 0.003645
vt -0.007291 -0.003645
vt 0.038641 0.003645
vt -0.038641 -0.003645
vt 0.038641 -0.003645
vt 0.007291 -0.003645
vt 0.0 0.003645
vt -0.038641 0.003645
vt 0.007291 0.003645
vt -2.066929 0.0
vt 0.0 -1.102362
vt 0.0 0.0
vt -2.066929 -1.102362
vt 2.066929 -1.102362
vt 2.066929 0.0
vt -1.102362 0.070866
vt -1.102362 0.0
vt 0.0 0.070866
vt 1.102362 0.070866
vt 1.102362 0.0
vt -2.066929 0.070866
vt 1.0 1.0
vt 0.0 1.0
vt 1.0 0.0
vt 3.740157 0.0
vt 0.0 -1.102362
vt 3.740157 -1.102362
vt 0.0 0.0
vt 3.740157 1.188976
vt 0.0 1.188976
vt 3.740157 0.070866
vt 0.0 0.070866
vt 1.0 0.0
vt 0.0 1.0
vt 0.072848 0.277778
vt 0.072848 0.0
vt 0.927152 0.277778
vt 0.927152 0.0
vt 1.0 1.0
vt 0.059603 0.277778
vt 0.940397 0.277778
vt 0.940397 0.0
vt 0.059603 0.0
vt -0.070866 0.0
vt -0.051181 3.740157
vt -0.070866 3.740157
vt -0.051181 0.0
vt 3.740157 0.015748
vt 0.0 0.015748
vt 0.0 3.740157
vt 0.051181 0.0
vt 0.070866 3.740157
vt 0.051181 3.740157
vt 0.070866 0.0
vt -2.362205 1.181102
vt 0.0 0.0
vt 0.0 1.181102
vt -2.362205 0.0
vt 2.362205 0.0
vt 2.362205 1.181102
vt 1.0 0.0
vt 0.0 1.0
vt 1.0 1.0
vn 1.0 0.0 0.0
vn -1.0 0.0 0.0
vn 0.0 0.0 1.0
vn 0.0 0.0 -1.0
vn 0.0 -1.0 0.0
vn 0.0 1.0 0.0
vn 1.0 0.0 0.0
vn -1.0 0.0 0.0
vn 0.0 0.0 1.0
vn 0.0 0.0 -1.0
vn 0.0 -1.0 0.0
vn 0.0 1.0 0.0
vn 0.0 1.0 0.0
vn 0.0 -1.0 0.0
vn -1.0 0.0 0.0
vn 1.0 0.0 0.0
vn 0.0 0.0 1.0
vn 0.0 0.0 -1.0
vn 0.0 -1.0 0.0
vn 0.0 1.0 0.0
vn -1.0 0.0 0.0
vn 1.0 0.0 0.0
vn 0.0 0.0 -1.0
vn 0.0 0.0 1.0
vn 0.0 1.0 0.0
vn -1.0 0.0 0.0
vn 0.0 0.0 1.0
vn 1.0 0.0 0.0
vn 0.0 0.0 -1.0
vn 0.0 -1.0 0.0
vn 0.0 -1.0 0.0
vn -1.0 0.0 0.0
vn 0.0 0.0 -1.0
vn 1.0 0.0 0.0
vn 0.0 0.0 1.0
vn 0.0 1.0 0.0
vn 1.0 0.0 0.0
vn -1.0 0.0 0.0
vn 0.0 0.0 1.0
vn 0.0 0.0 -1.0
vn 0.0 -1.0 0.0
vn 0.0 1.0 0.0
vn 0.0 -1.0 0.0
vn 0.0 1.0 0.0
vn -1.0 0.0 0.0
vn 1.0 0.0 0.0
vn 0.0 0.0 -1.0
vn 0.0 0.0 1.0
vn 1.0 0.0 0.0
vn -1.0 0.0 0.0
vn 0.0 0.0 1.0
vn 0.0 0.0 -1.0
vn 0.0 -1.0 0.0
vn 0.0 1.0 0.0
vn 0.0 -1.0 0.0
vn -1.0 0.0 0.0
vn 0.0 0.0 -1.0
vn 1.0 0.0 0.0
vn 0.0 0.0 1.0
vn 0.0 1.0 0.0
vn 0.0 0.0 -1.0
vn 0.0 0.0 1.0
vn 0.0 -1.0 0.0
vn 0.0 1.0 0.0
vn -1.0 0.0 0.0
vn 1.0 0.0 0.0
usemtl base_geom
f 1/1/1 2/2/1 3/3/1
f 2/2/1 1/1/1 4/4/1
f 3/3/2 2/2/2 1/1/2
f 4/4/2 1/1/2 2/2/2
f 15/7/2 7/8/2 11/9/2
f 11/9/1 7/8/1 15/7/1
f 7/8/2 15/7/2 16/3/2
f 16/3/1 15/7/1 7/8/1
f 2/10/3 5/11/3 3/3/3
f 3/3/4 5/11/4 2/10/4
f 3/10/5 6/12/5 1/3/5
f 1/3/6 6/12/6 3/10/6
f 4/10/6 8/13/6 2/3/6
f 2/3/5 8/13/5 4/10/5
f 5/11/3 2/10/3 9/14/3
f 9/14/4 2/10/4 5/11/4
f 5/14/5 6/12/5 3/10/5
f 3/10/6 6/12/6 5/14/6
f 10/15/5 1/3/5 6/12/5
f 6/12/6 1/3/6 10/15/6
f 7/14/6 8/13/6 4/10/6
f 4/10/5 8/13/5 7/14/5
f 12/16/6 2/3/6 8/13/6
f 8/13/5 2/3/5 12/16/5
f 2/3/6 13/17/6 9/11/6
f 9/11/5 13/17/5 2/3/5
f 6/12/5 5/14/5 14/18/5
f 14/18/6 5/14/6 6/12/6
f 15/19/5 1/3/5 10/15/5
f 10/15/6 1/3/6 15/19/6
f 1/3/5 15/19/5 11/11/5
f 11/11/6 15/19/6 1/3/6
f 8/13/6 7/14/6 16/20/6
f 16/20/5 7/14/5 8/13/5
f 13/17/6 2/3/6 12/16/6
f 12/16/5 2/3/5 13/17/5
f 1/21/4 7/22/4 4/23/4
f 4/23/3 7/22/3 1/21/3
f 7/22/4 1/21/4 11/3/4
f 11/3/3 1/21/3 7/22/3
f 6/24/2 8/3/2 10/7/2
f 10/7/1 8/3/1 6/24/1
f 12/25/1 6/24/1 8/3/1
f 26/40/13 25/39/13 28/42/13
f 27/41/14 26/40/14 25/39/14
f 28/42/14 25/39/14 26/40/14
f 29/40/13 30/41/13 31/48/13
f 32/49/13 31/48/13 30/41/13
f 31/53/18 26/41/18 28/50/18
f 28/50/17 26/41/17 31/53/17
f 26/41/18 31/53/18 29/54/18
f 29/54/17 31/53/17 26/41/17
f 33/55/19 34/56/19 35/57/19
f 34/56/19 33/55/19 36/58/19
f 35/57/20 34/56/20 33/55/20
f 36/58/20 33/55/20 34/56/20
f 37/63/23 33/55/23 35/57/23
f 35/57/24 33/55/24 37/63/24
f 38/66/24 37/63/24 33/55/24
f 39/57/24 34/67/24 36/68/24
f 36/68/23 34/67/23 39/57/23
f 34/67/24 39/57/24 40/69/24
f 41/70/25 42/71/25 43/72/25
f 42/71/25 41/70/25 44/73/25
f 42/74/26 45/75/26 43/76/26
f 41/79/28 46/77/28 44/74/28
f 45/75/26 42/74/26 47/77/26
f 46/77/28 41/79/28 48/83/28
f 46/84/30 45/72/30 47/71/30
f 45/72/30 46/84/30 48/85/30
f 43//30 42//30 41//30
f 44//30 41//30 42//30
f 43//28 45//28 42//28
f 44//26 46//26 41//26
f 47//28 42//28 45//28
f 48//26 41//26 46//26
f 47//25 45//25 46//25
f 48//25 46//25 45//25
f 49/86/31 50/87/31 51/88/31
f 50/87/31 49/86/31 52/89/31
f 50/90/32 53/91/32 51/92/32
f 54/93/35 50/94/35 52/95/35
f 53/91/32 50/90/32 55/97/32
f 54/97/34 49/96/34 56/99/34
f 50/94/35 54/93/35 55/98/35
f 54/87/36 53/86/36 55/89/36
f 53/86/36 54/87/36 56/88/36
f 51//36 50//36 49//36
f 52//36 49//36 50//36
f 51//34 53//34 50//34
f 52//32 54//32 49//32
f 52//33 50//33 54//33
f 55//34 50//34 53//34
f 56//32 49//32 54//32
f 55//33 54//33 50//33
f 55//31 53//31 54//31
f 56//31 54//31 53//31
f 57//37 58//37 59//37
f 58//37 57//37 60//37
f 59//38 58//38 57//38
f 61//41 57//41 59//41
f 59//42 57//42 61//42
f 62//42 58//42 60//42
f 60//41 58//41 62//41
f 57//41 61//41 64//41
f 64//42 61//42 57//42
f 58//42 62//42 63//42
f 63//41 62//41 58//41
f 62//38 61//38 63//38
f 63//37 61//37 62//37
f 61//38 62//38 64//38
f 64//37 62//37 61//37
f 71/102/44 69/104/44 72/105/44
f 72/105/43 69/104/43 71/102/43
f 69/104/44 71/102/44 70/101/44
f 70/101/43 71/102/43 69/104/43
f 67/102/48 65/100/48 69/108/48
f 65/100/47 69/108/47 70/111/47
f 70/111/48 69/108/48 65/100/48
f 71/102/48 66/112/48 68/113/48
f 68/113/47 66/112/47 71/102/47
f 66/112/48 71/102/48 72/114/48
f 72/114/47 71/102/47 66/112/47
f 81/118/50 77/119/50 80/120/50
f 80/120/49 77/119/49 81/118/49
f 77/119/50 81/118/50 84/115/50
f 84/115/49 81/118/49 77/119/49
f 87/118/49 86/121/49 85/122/49
f 85/122/50 86/121/50 87/118/50
f 86/121/49 87/118/49 88/115/49
f 88/115/50 87/118/50 86/121/50
f 74/123/51 77/124/51 75/118/51
f 75/118/52 77/124/52 74/123/52
f 75/123/53 78/125/53 73/126/53
f 73/126/54 78/125/54 75/123/54
f 79/127/54 74/118/54 76/128/54
f 76/128/53 74/118/53 79/127/53
f 77/124/51 74/123/51 80/129/51
f 80/129/52 74/123/52 77/124/52
f 77/129/53 78/125/53 75/123/53
f 75/123/54 78/125/54 77/129/54
f 81/129/54 74/118/54 79/127/54
f 79/127/53 74/118/53 81/129/53
f 74/118/54 81/129/54 80/124/54
f 80/124/53 81/129/53 74/118/53
f 78/125/53 77/129/53 82/130/53
f 82/130/54 77/129/54 78/125/54
f 83/131/54 81/129/54 79/127/54
f 79/127/53 81/129/53 83/131/53
f 84/124/53 82/130/53 77/129/53
f 77/129/54 82/130/54 84/124/54
f 81/129/54 83/131/54 85/123/54
f 82/130/53 84/124/53 86/118/53
f 86/118/54 84/124/54 82/130/54
f 87/132/53 83/131/53 85/123/53
f 82/130/53 86/118/53 88/133/53
f 88/133/54 86/118/54 82/130/54
f 82/138/49 79/118/49 78/115/49
f 79/118/49 82/138/49 83/139/49
f 81/140/52 86/134/52 84/118/52
f 84/118/51 86/134/51 81/140/51
f 86/134/52 81/140/52 85/136/52
f 85/136/51 81/140/51 86/134/51
f 91//60 90//60 89//60
f 92//60 89//60 90//60
f 97/145/61 98/146/61 99/147/61
f 98/146/61 97/145/61 100/148/61
f 99/147/62 98/146/62 97/145/62
f 100/148/62 97/145/62 98/146/62
f 102/147/62 101/149/62 103/150/62
f 103/150/61 101/149/61 102/147/61
f 101/149/62 102/147/62 104/146/62
f 104/146/61 102/147/61 101/149/61
f 98/151/63 101/152/63 99/146/63
f 99/146/64 101/152/64 98/151/64
f 101/153/65 97/146/65 99/151/65
f 99/151/66 97/146/66 101/153/66
f 97/151/64 102/152/64 100/146/64
f 100/146/63 102/152/63 97/151/63
f 102/153/66 98/146/66 100/151/66
f 100/151/65 98/146/65 102/153/65
f 101/152/63 98/151/63 103/153/63
f 103/153/64 98/151/64 101/152/64
f 97/146/65 101/153/65 104/152/65
f 104/152/66 101/153/66 97/146/66
f 102/152/64 97/151/64 104/153/64
f 104/153/63 97/151/63 102/152/63
f 98/146/66 102/153/66 103/152/66
f 103/152/65 102/153/65 98/146/65
