# Merged(arrow/base_geom)

v 0.888661 -0.352661 -0.280284
v -0.842122 -0.352661 0.278615
v -0.842122 -0.352661 -0.280284
v 0.888661 -0.352661 0.278615
v -0.842122 -0.316603 -0.280284
v 0.888661 -0.316603 -0.280284
v 0.888661 -0.316603 0.278615
v -0.842122 -0.316603 0.278615
v 0.254642 -0.242484 0.358626
v -0.214112 -0.242484 0.378658
v -0.214112 -0.242484 0.358626
v 0.254642 -0.242484 0.378658
v -0.214112 -0.222451 0.358626
v 0.254642 -0.222451 0.378658
v -0.214112 -0.222451 0.378658
v 0.254642 -0.222451 0.358626
v -0.875175 0.354476 0.282621
v 0.921714 -0.352661 0.282621
v -0.875175 -0.352661 0.282621
v 0.921714 0.354476 0.282621
v -0.875175 -0.352661 0.318679
v 0.921714 0.354476 0.318679
v 0.921714 -0.352661 0.318679
v -0.875175 0.354476 0.318679
v 0.896674 0.364492 -0.280284
v -0.850135 0.364492 -0.288297
v -0.850135 0.364492 -0.280284
v 0.896674 0.364492 -0.288297
v -0.850135 -0.348654 -0.288297
v -0.850135 -0.348654 -0.280284
v 0.896674 -0.348654 -0.288297
v 0.896674 -0.348654 -0.280284
v 0.888661 0.332441 -0.280284
v -0.842122 0.332441 0.278615
v -0.842122 0.332441 -0.280284
v 0.888661 0.332441 0.278615
v -0.842122 0.368499 -0.280284
v 0.888661 0.368499 -0.280284
v 0.888661 0.368499 0.278615
v -0.842122 0.368499 0.278615
v -0.19408 -0.222451 0.358626
v -0.214112 -0.222451 0.318562
v -0.214112 -0.222451 0.358626
v -0.19408 -0.222451 0.318562
v -0.214112 -0.242484 0.358626
v -0.19408 -0.242484 0.318562
v -0.214112 -0.242484 0.318562
v -0.19408 -0.242484 0.358626
v 0.885656 0.007919 -0.280284
v 0.885656 0.043977 0.268599
v 0.885656 0.007919 0.268599
v 0.885656 0.043977 -0.280284
v -0.839117 0.007919 0.268599
v -0.839117 0.043977 -0.280284
v -0.839117 0.043977 0.268599
v -0.839117 0.007919 -0.280284
v 0.254642 -0.242484 0.318562
v 0.254642 -0.222451 0.358626
v 0.254642 -0.242484 0.358626
v 0.254642 -0.222451 0.318562
v 0.234609 -0.242484 0.358626
v 0.234609 -0.222451 0.318562
v 0.234609 -0.222451 0.358626
v 0.234609 -0.242484 0.318562
v -0.842122 -0.352661 -0.282287
v -0.842122 0.368499 0.278615
v -0.842122 -0.352661 0.278615
v -0.842122 0.368499 -0.282287
v -0.87818 -0.352661 0.278615
v -0.852138 -0.352661 -0.282287
v -0.852138 0.368499 -0.282287
v -0.87818 0.368499 0.278615
v -0.87818 0.368499 -0.326358
v -0.852138 -0.352661 -0.2903
v -0.852138 0.368499 -0.2903
v -0.87818 -0.352661 -0.326358
v -0.842122 0.368499 -0.326358
v -0.842122 -0.352661 -0.326358
v -0.842122 0.368499 -0.2903
v -0.842122 -0.352661 -0.2903
v 0.073339 -0.352661 0.002461
v 0.013242 -0.352661 0.022493
v 0.013242 -0.352661 0.002461
v 0.073339 -0.352661 0.022493
v 0.013242 -0.342645 0.002461
v 0.073339 -0.342645 0.022493
v 0.013242 -0.342645 0.022493
v 0.073339 -0.342645 0.002461
v 0.924719 -0.352661 -0.326358
v 0.924719 0.368499 0.278615
v 0.924719 -0.352661 0.278615
v 0.924719 0.368499 -0.326358
v 0.888661 -0.352661 0.278615
v 0.898677 -0.352661 -0.282287
v 0.888661 0.368499 -0.326358
v 0.898677 0.368499 -0.2903
v 0.888661 0.368499 0.278615
v 0.898677 -0.352661 -0.2903
v 0.888661 -0.352661 -0.326358
v 0.898677 0.368499 -0.282287
v 0.888661 0.368499 -0.282287
v 0.888661 -0.352661 -0.282287
v 0.888661 -0.352661 -0.2903
v 0.888661 0.368499 -0.2903
vt -2.066929 0.0
vt 0.0 -1.102362
vt 0.0 0.0
vt -2.066929 -1.102362
vt 2.066929 -1.102362
vt 2.066929 0.0
vt -1.102362 0.070866
vt -1.102362 0.0
vt 0.0 0.070866
vt 1.102362 0.070866
vt 1.102362 0.0
vt -2.066929 0.070866
vt 1.0 1.0
vt 0.0 1.0
vt 1.0 0.0
vt -0.038641 0.007291
vt 0.038641 0.0
vt 0.038641 0.007291
vt -0.038641 0.0
vt 0.0 -0.003645
vt -0.007291 0.003645
vt -0.007291 -0.003645
vt 0.038641 0.003645
vt -0.038641 -0.003645
vt 0.038641 -0.003645
vt 0.007291 -0.003645
vt 0.0 0.003645
vt -0.038641 0.003645
vt 0.007291 0.003645
vt -2.362205 1.181102
vt 0.0 0.0
vt 0.0 1.181102
vt -2.362205 0.0
vt 2.362205 0.0
vt 2.362205 1.181102
vt 1.0 0.0
vt 0.0 1.0
vt 1.0 1.0
vt 1.062992 0.0
vt 0.0 0.015748
vt 0.0 0.0
vt 1.062992 0.015748
vt -0.015748 0.0
vt 0.0 3.528388
vt -0.015748 3.528388
vt 0.015748 0.0
vt 0.015748 3.528388
vt -1.062992 0.015748
vt -1.062992 0.0
vt 0.0 1.062992
vt 3.528388 0.0
vt 3.528388 1.062992
vt -3.528388 1.062992
vt -3.528388 0.0
vt -2.066929 0.0
vt 0.0 -1.102362
vt 0.0 0.0
vt -2.066929 -1.102362
vt 2.066929 -1.102362
vt 2.066929 0.0
vt -1.102362 0.070866
vt -1.102362 0.0
vt 0.0 0.070866
vt 1.102362 0.070866
vt 1.102362 0.0
vt -2.066929 0.070866
vt 1.0 1.0
vt 0.0 1.0
vt 1.0 0.0
vt 0.007577 -0.018227
vt 0.0 0.0
vt 0.0 -0.018227
vt 0.007577 0.0
vt 0.0 0.003645
vt 0.018227 -0.003645
vt 0.018227 0.003645
vt 0.0 -0.003645
vt 0.007577 0.003645
vt -0.018227 0.003645
vt -0.007577 -0.003645
vt -0.007577 0.003645
vt 0.007577 -0.003645
vt -0.018227 -0.003645
vt -0.007577 0.0
vt -0.007577 -0.018227
vt 0.0 1.0
vt 1.0 0.0
vt 1.0 1.0
vt 0.0 0.0
vt 2.055118 0.0
vt 0.0 1.082677
vt 0.0 -1.082677
vt 2.055118 1.082677
vt 2.055118 -1.082677
vt 3.740157 0.0
vt 0.0 -1.102362
vt 3.740157 -1.102362
vt 0.0 0.0
vt 3.740157 1.188976
vt 0.0 1.188976
vt 3.740157 0.070866
vt 0.0 0.070866
vt 1.0 0.0
vt 0.0 1.0
vt 0.072848 0.277778
vt 0.072848 0.0
vt 0.927152 0.277778
vt 0.927152 0.0
vt 1.0 1.0
vt 0.059603 0.277778
vt 0.940397 0.277778
vt 0.940397 0.0
vt 0.059603 0.0
vt -0.070866 0.0
vt -0.051181 3.740157
vt -0.070866 3.740157
vt -0.051181 0.0
vt 3.740157 0.015748
vt 0.0 0.015748
vt 0.0 3.740157
vt 0.051181 0.0
vt 0.070866 3.740157
vt 0.051181 3.740157
vt 0.070866 0.0
vt 0.0 -1.188976
vt 3.740157 0.0
vt 0.0 0.0
vt 3.740157 -1.188976
vt -3.740157 -1.102362
vt 0.0 -1.102362
vt -3.740157 0.0
vt 0.0 0.070866
vt -3.740157 0.070866
vt 1.0 0.0
vt 0.0 1.0
vt 0.072848 0.722222
vt 0.940397 0.722222
vt 1.0 1.0
vt 0.059603 0.722222
vt 0.927152 0.722222
vt 0.927152 1.0
vt 0.072848 1.0
vt 0.059603 1.0
vt 0.940397 1.0
vt -0.070866 0.0
vt 0.0 3.740157
vt -0.070866 3.740157
vt -3.740157 -0.015748
vt 0.0 -0.015748
vt -0.019685 0.0
vt 0.019685 3.740157
vt 0.019685 0.0
vt -0.019685 3.740157
vn 0.0 -1.0 0.0
vn 0.0 1.0 0.0
vn -1.0 0.0 0.0
vn 1.0 0.0 0.0
vn 0.0 0.0 -1.0
vn 0.0 0.0 1.0
vn 0.0 -1.0 0.0
vn -1.0 0.0 0.0
vn 0.0 0.0 -1.0
vn 1.0 0.0 0.0
vn 0.0 0.0 1.0
vn 0.0 1.0 0.0
vn 0.0 0.0 -1.0
vn 0.0 0.0 1.0
vn 0.0 -1.0 0.0
vn 0.0 1.0 0.0
vn -1.0 0.0 0.0
vn 1.0 0.0 0.0
vn 0.0 1.0 0.0
vn 0.0 -1.0 0.0
vn -1.0 0.0 0.0
vn 1.0 0.0 0.0
vn 0.0 0.0 1.0
vn 0.0 0.0 -1.0
vn 0.0 -1.0 0.0
vn 0.0 1.0 0.0
vn -1.0 0.0 0.0
vn 1.0 0.0 0.0
vn 0.0 0.0 -1.0
vn 0.0 0.0 1.0
vn 0.0 1.0 0.0
vn -1.0 0.0 0.0
vn 0.0 0.0 1.0
vn 1.0 0.0 0.0
vn 0.0 0.0 -1.0
vn 0.0 -1.0 0.0
vn 1.0 0.0 0.0
vn -1.0 0.0 0.0
vn 0.0 0.0 1.0
vn 0.0 0.0 -1.0
vn 0.0 -1.0 0.0
vn 0.0 1.0 0.0
vn 1.0 0.0 0.0
vn -1.0 0.0 0.0
vn 0.0 0.0 1.0
vn 0.0 0.0 -1.0
vn 0.0 -1.0 0.0
vn 0.0 1.0 0.0
vn 1.0 0.0 0.0
vn -1.0 0.0 0.0
vn 0.0 0.0 1.0
vn 0.0 0.0 -1.0
vn 0.0 -1.0 0.0
vn 0.0 1.0 0.0
vn 0.0 -1.0 0.0
vn -1.0 0.0 0.0
vn 0.0 0.0 -1.0
vn 1.0 0.0 0.0
vn 0.0 0.0 1.0
vn 0.0 1.0 0.0
vn 1.0 0.0 0.0
vn -1.0 0.0 0.0
vn 0.0 0.0 1.0
vn 0.0 0.0 -1.0
vn 0.0 -1.0 0.0
vn 0.0 1.0 0.0
usemtl base_geom
f 1/1/1 2/2/1 3/3/1
f 2/2/1 1/1/1 4/4/1
f 3/3/2 2/2/2 1/1/2
f 4/4/2 1/1/2 2/2/2
# UNHIT_FACE f 7/3/2 5/5/2 8/6/2
# UNHIT_FACE f 8/6/1 5/5/1 7/3/1
# UNHIT_FACE f 5/5/2 7/3/2 6/2/2
# UNHIT_FACE f 6/2/1 7/3/1 5/5/1
# UNHIT_FACE f 2/3/3 5/7/3 3/8/3
# UNHIT_FACE f 3/8/4 5/7/4 2/3/4
f 5/9/5 1/1/5 3/3/5
f 3/3/6 1/1/6 5/9/6
# UNHIT_FACE f 6/10/4 4/3/4 1/11/4
# UNHIT_FACE f 1/11/3 4/3/3 6/10/3
# UNHIT_FACE f 5/7/3 2/3/3 8/9/3
# UNHIT_FACE f 8/9/4 2/3/4 5/7/4
f 1/1/5 5/9/5 6/12/5
f 6/12/6 5/9/6 1/1/6
# UNHIT_FACE f 4/3/4 6/10/4 7/9/4
# UNHIT_FACE f 7/9/3 6/10/3 4/3/3
f 7/3/6 2/13/6 4/14/6
f 4/14/5 2/13/5 7/3/5
f 2/13/6 7/3/6 8/15/6
# UNHIT_FACE f 8/15/5 7/3/5 2/13/5
f 9/16/7 10/17/7 11/18/7
f 10/17/7 9/16/7 12/19/7
f 10/20/8 13/21/8 11/22/8
# UNHIT_FACE f 13/23/9 9/24/9 11/25/9
# UNHIT_FACE f 9/26/10 14/27/10 12/20/10
f 14/23/11 10/24/11 12/25/11
f 13/21/8 10/20/8 15/27/8
# UNHIT_FACE f 9/24/9 13/23/9 16/28/9
f 14/27/10 9/26/10 16/29/10
f 10/24/11 14/23/11 15/28/11
f 14/17/12 13/16/12 15/19/12
f 13/16/12 14/17/12 16/18/12
f 11//12 10//12 9//12
f 12//12 9//12 10//12
f 11//10 13//10 10//10
# UNHIT_FACE f 11//11 9//11 13//11
f 12//8 14//8 9//8
f 12//9 10//9 14//9
f 15//10 10//10 13//10
# UNHIT_FACE f 16//11 13//11 9//11
f 16//8 9//8 14//8
f 15//9 14//9 10//9
f 15//7 13//7 14//7
f 16//7 14//7 13//7
f 17/30/13 18/31/13 19/32/13
f 18/31/13 17/30/13 20/33/13
f 19/32/14 18/31/14 17/30/14
f 20/33/14 17/30/14 18/31/14
f 22/32/14 21/34/14 23/35/14
f 23/35/13 21/34/13 22/32/13
f 21/34/14 22/32/14 24/31/14
f 24/31/13 22/32/13 21/34/13
f 18/36/15 21/37/15 19/31/15
f 19/31/16 21/37/16 18/36/16
f 21/38/17 17/31/17 19/36/17
f 19/36/18 17/31/18 21/38/18
f 17/36/16 22/37/16 20/31/16
f 20/31/15 22/37/15 17/36/15
f 22/38/18 18/31/18 20/36/18
f 20/36/17 18/31/17 22/38/17
f 21/37/15 18/36/15 23/38/15
f 23/38/16 18/36/16 21/37/16
f 17/31/17 21/38/17 24/37/17
f 24/37/18 21/38/18 17/31/18
f 22/37/16 17/36/16 24/38/16
f 24/38/15 17/36/15 22/37/15
f 18/31/18 22/38/18 23/37/18
f 23/37/17 22/38/17 18/31/17
# UNHIT_FACE f 25/39/19 26/40/19 27/41/19
f 26/40/19 25/39/19 28/42/19
f 27/41/20 26/40/20 25/39/20
f 28/42/20 25/39/20 26/40/20
# UNHIT_FACE f 29/43/21 27/44/21 26/45/21
# UNHIT_FACE f 26/45/22 27/44/22 29/43/22
# UNHIT_FACE f 25/44/22 31/46/22 28/47/22
# UNHIT_FACE f 28/47/21 31/46/21 25/44/21
# UNHIT_FACE f 27/44/21 29/43/21 30/41/21
# UNHIT_FACE f 30/41/22 29/43/22 27/44/22
# UNHIT_FACE f 31/46/22 25/44/22 32/41/22
# UNHIT_FACE f 32/41/21 25/44/21 31/46/21
# UNHIT_FACE f 31/48/20 30/41/20 29/40/20
f 29/40/19 30/41/19 31/48/19
# UNHIT_FACE f 30/41/20 31/48/20 32/49/20
f 32/49/19 31/48/19 30/41/19
# UNHIT_FACE f 30/50/23 25/51/23 27/52/23
# UNHIT_FACE f 27/52/24 25/51/24 30/50/24
f 31/53/24 26/41/24 28/50/24
f 28/50/23 26/41/23 31/53/23
f 26/41/24 31/53/24 29/54/24
f 29/54/23 31/53/23 26/41/23
# UNHIT_FACE f 25/51/23 30/50/23 32/41/23
# UNHIT_FACE f 32/41/24 30/50/24 25/51/24
# UNHIT_FACE f 33/55/25 34/56/25 35/57/25
# UNHIT_FACE f 34/56/25 33/55/25 36/58/25
# UNHIT_FACE f 35/57/26 34/56/26 33/55/26
# UNHIT_FACE f 36/58/26 33/55/26 34/56/26
f 39/57/26 37/59/26 40/60/26
f 40/60/25 37/59/25 39/57/25
f 37/59/26 39/57/26 38/56/26
f 38/56/25 39/57/25 37/59/25
# UNHIT_FACE f 34/57/27 37/61/27 35/62/27
# UNHIT_FACE f 35/62/28 37/61/28 34/57/28
f 37/63/29 33/55/29 35/57/29
f 35/57/30 33/55/30 37/63/30
# UNHIT_FACE f 38/64/28 36/57/28 33/65/28
# UNHIT_FACE f 33/65/27 36/57/27 38/64/27
# UNHIT_FACE f 37/61/27 34/57/27 40/63/27
# UNHIT_FACE f 40/63/28 34/57/28 37/61/28
f 33/55/29 37/63/29 38/66/29
f 38/66/30 37/63/30 33/55/30
# UNHIT_FACE f 36/57/28 38/64/28 39/63/28
# UNHIT_FACE f 39/63/27 38/64/27 36/57/27
f 39/57/30 34/67/30 36/68/30
f 36/68/29 34/67/29 39/57/29
f 34/67/30 39/57/30 40/69/30
f 40/69/29 39/57/29 34/67/29
f 41/70/31 42/71/31 43/72/31
f 42/71/31 41/70/31 44/73/31
f 42/74/32 45/75/32 43/76/32
# UNHIT_FACE f 45/77/33 41/78/33 43/74/33
f 41/79/34 46/77/34 44/74/34
# UNHIT_FACE f 46/80/35 42/74/35 44/81/35
f 45/75/32 42/74/32 47/77/32
# UNHIT_FACE f 41/78/33 45/77/33 48/82/33
f 46/77/34 41/79/34 48/83/34
# UNHIT_FACE f 42/74/35 46/80/35 47/77/35
f 46/84/36 45/72/36 47/71/36
f 45/72/36 46/84/36 48/85/36
f 43//36 42//36 41//36
f 44//36 41//36 42//36
f 43//34 45//34 42//34
# UNHIT_FACE f 43//35 41//35 45//35
f 44//32 46//32 41//32
# UNHIT_FACE f 44//33 42//33 46//33
f 47//34 42//34 45//34
# UNHIT_FACE f 48//35 45//35 41//35
f 48//32 41//32 46//32
# UNHIT_FACE f 47//33 46//33 42//33
f 47//31 45//31 46//31
f 48//31 46//31 45//31
# UNHIT_FACE f 49/86/37 50/87/37 51/88/37
# UNHIT_FACE f 50/87/37 49/86/37 52/89/37
# UNHIT_FACE f 51/88/38 50/87/38 49/86/38
# UNHIT_FACE f 52/89/38 49/86/38 50/87/38
# UNHIT_FACE f 50/89/39 53/88/39 51/86/39
# UNHIT_FACE f 51/86/40 53/88/40 50/89/40
# UNHIT_FACE f 49/88/40 54/89/40 52/87/40
# UNHIT_FACE f 52/87/39 54/89/39 49/88/39
# UNHIT_FACE f 53/88/39 50/89/39 55/87/39
# UNHIT_FACE f 55/87/40 50/89/40 53/88/40
# UNHIT_FACE f 54/89/40 49/88/40 56/86/40
# UNHIT_FACE f 56/86/39 49/88/39 54/89/39
# UNHIT_FACE f 54/87/38 53/86/38 55/89/38
# UNHIT_FACE f 55/89/37 53/86/37 54/87/37
# UNHIT_FACE f 53/86/38 54/87/38 56/88/38
# UNHIT_FACE f 56/88/37 54/87/37 53/86/37
# UNHIT_FACE f 53/90/41 49/91/41 51/89/41
# UNHIT_FACE f 51/89/42 49/91/42 53/90/42
# UNHIT_FACE f 52/92/42 55/90/42 50/89/42
# UNHIT_FACE f 50/89/41 55/90/41 52/92/41
# UNHIT_FACE f 49/91/41 53/90/41 56/93/41
# UNHIT_FACE f 56/93/42 53/90/42 49/91/42
# UNHIT_FACE f 55/90/42 52/92/42 54/94/42
# UNHIT_FACE f 54/94/41 52/92/41 55/90/41
f 57//43 58//43 59//43
f 58//43 57//43 60//43
f 59//44 58//44 57//44
f 60//44 57//44 58//44
# UNHIT_FACE f 58//45 61//45 59//45
# UNHIT_FACE f 59//46 61//46 58//46
f 61//47 57//47 59//47
f 59//48 57//48 61//48
# UNHIT_FACE f 57//46 62//46 60//46
# UNHIT_FACE f 60//45 62//45 57//45
f 62//48 58//48 60//48
f 60//47 58//47 62//47
# UNHIT_FACE f 61//45 58//45 63//45
# UNHIT_FACE f 63//46 58//46 61//46
f 57//47 61//47 64//47
f 64//48 61//48 57//48
# UNHIT_FACE f 62//46 57//46 64//46
# UNHIT_FACE f 64//45 57//45 62//45
# UNHIT_FACE f 58//48 62//48 63//48
f 63//47 62//47 58//47
# UNHIT_FACE f 62//44 61//44 63//44
f 63//43 61//43 62//43
f 61//44 62//44 64//44
f 64//43 62//43 61//43
# UNHIT_FACE f 65/95/49 66/96/49 67/97/49
# UNHIT_FACE f 66/96/49 65/95/49 68/98/49
# UNHIT_FACE f 67/97/50 66/96/50 65/95/50
# UNHIT_FACE f 68/98/50 65/95/50 66/96/50
f 73/98/50 69/99/50 72/100/50
f 72/100/49 69/99/49 73/98/49
f 69/99/50 73/98/50 76/95/50
f 76/95/49 73/98/49 69/99/49
f 79/98/49 78/101/49 77/102/49
f 77/102/50 78/101/50 79/98/50
f 78/101/49 79/98/49 80/95/49
f 80/95/50 79/98/50 78/101/50
f 66/103/51 69/104/51 67/98/51
f 67/98/52 69/104/52 66/103/52
f 67/103/53 70/105/53 65/106/53
f 65/106/54 70/105/54 67/103/54
f 71/107/54 66/98/54 68/108/54
f 68/108/53 66/98/53 71/107/53
f 69/104/51 66/103/51 72/109/51
f 72/109/52 66/103/52 69/104/52
f 69/109/53 70/105/53 67/103/53
f 67/103/54 70/105/54 69/109/54
f 73/109/54 66/98/54 71/107/54
f 71/107/53 66/98/53 73/109/53
f 66/98/54 73/109/54 72/104/54
f 72/104/53 73/109/53 66/98/53
f 70/105/53 69/109/53 74/110/53
f 74/110/54 69/109/54 70/105/54
f 75/111/54 73/109/54 71/107/54
f 71/107/53 73/109/53 75/111/53
f 76/104/53 74/110/53 69/109/53
f 69/109/54 74/110/54 76/104/54
f 73/109/54 75/111/54 77/103/54
f 77/103/53 75/111/53 73/109/53
f 74/110/53 76/104/53 78/98/53
f 78/98/54 76/104/54 74/110/54
f 77/103/54 75/111/54 79/112/54
# UNHIT_FACE f 79/112/53 75/111/53 77/103/53
f 74/110/53 78/98/53 80/113/53
f 80/113/54 78/98/54 74/110/54
# UNHIT_FACE f 65/114/52 71/115/52 68/116/52
# UNHIT_FACE f 68/116/51 71/115/51 65/114/51
# UNHIT_FACE f 71/115/52 65/114/52 70/117/52
# UNHIT_FACE f 70/117/51 65/114/51 71/115/51
# UNHIT_FACE f 74/118/49 71/98/49 70/95/49
f 70/95/50 71/98/50 74/118/50
# UNHIT_FACE f 71/98/49 74/118/49 75/119/49
f 75/119/50 74/118/50 71/98/50
# UNHIT_FACE f 73/120/52 78/114/52 76/98/52
f 76/98/51 78/114/51 73/120/51
# UNHIT_FACE f 74/121/51 79/122/51 75/123/51
# UNHIT_FACE f 75/123/52 79/122/52 74/121/52
# UNHIT_FACE f 78/114/52 73/120/52 77/116/52
f 77/116/51 73/120/51 78/114/51
# UNHIT_FACE f 79/122/51 74/121/51 80/124/51
# UNHIT_FACE f 80/124/52 74/121/52 79/122/52
# UNHIT_FACE f 81//55 82//55 83//55
# UNHIT_FACE f 82//55 81//55 84//55
# UNHIT_FACE f 82//56 85//56 83//56
# UNHIT_FACE f 85//57 81//57 83//57
# UNHIT_FACE f 81//58 86//58 84//58
# UNHIT_FACE f 86//59 82//59 84//59
# UNHIT_FACE f 85//56 82//56 87//56
# UNHIT_FACE f 81//57 85//57 88//57
# UNHIT_FACE f 86//58 81//58 88//58
# UNHIT_FACE f 82//59 86//59 87//59
# UNHIT_FACE f 86//60 85//60 87//60
# UNHIT_FACE f 85//60 86//60 88//60
f 83//60 82//60 81//60
f 84//60 81//60 82//60
# UNHIT_FACE f 83//58 85//58 82//58
# UNHIT_FACE f 83//59 81//59 85//59
# UNHIT_FACE f 84//56 86//56 81//56
# UNHIT_FACE f 84//57 82//57 86//57
# UNHIT_FACE f 87//58 82//58 85//58
# UNHIT_FACE f 88//59 85//59 81//59
# UNHIT_FACE f 88//56 81//56 86//56
# UNHIT_FACE f 87//57 86//57 82//57
# UNHIT_FACE f 87//55 85//55 86//55
# UNHIT_FACE f 88//55 86//55 85//55
f 89/125/61 90/126/61 91/127/61
f 90/126/61 89/125/61 92/128/61
f 91/127/62 90/126/62 89/125/62
f 92/128/62 89/125/62 90/126/62
# UNHIT_FACE f 101/127/62 93/129/62 97/130/62
# UNHIT_FACE f 97/130/61 93/129/61 101/127/61
f 103/131/62 95/132/62 99/133/62
f 99/133/61 95/132/61 103/131/61
# UNHIT_FACE f 93/129/62 101/127/62 102/131/62
# UNHIT_FACE f 102/131/61 101/127/61 93/129/61
f 95/132/62 103/131/62 104/127/62
f 104/127/61 103/131/61 95/132/61
# UNHIT_FACE f 90/134/63 93/135/63 91/127/63
f 91/127/64 93/135/64 90/134/64
f 91/134/65 94/136/65 89/127/65
f 89/127/66 94/136/66 91/134/66
f 92/134/66 96/137/66 90/127/66
f 90/127/65 96/137/65 92/134/65
f 93/135/63 90/134/63 97/138/63
f 97/138/64 90/134/64 93/135/64
f 93/138/65 94/136/65 91/134/65
f 91/134/66 94/136/66 93/138/66
f 98/139/65 89/127/65 94/136/65
f 94/136/66 89/127/66 98/139/66
f 95/138/66 96/137/66 92/134/66
f 92/134/65 96/137/65 95/138/65
f 100/140/66 90/127/66 96/137/66
f 96/137/65 90/127/65 100/140/65
f 90/127/66 101/141/66 97/135/66
f 97/135/65 101/141/65 90/127/65
f 94/136/65 93/138/65 102/142/65
f 102/142/66 93/138/66 94/136/66
f 103/143/65 89/127/65 98/139/65
f 98/139/66 89/127/66 103/143/66
f 89/127/65 103/143/65 99/135/65
f 99/135/66 103/143/66 89/127/66
f 96/137/66 95/138/66 104/144/66
# UNHIT_FACE f 104/144/65 95/138/65 96/137/65
f 101/141/66 90/127/66 100/140/66
f 100/140/65 90/127/65 101/141/65
f 89/145/64 95/146/64 92/147/64
f 92/147/63 95/146/63 89/145/63
f 95/146/64 89/145/64 99/127/64
f 99/127/63 89/145/63 95/146/63
f 94/148/62 96/127/62 98/131/62
f 98/131/61 96/127/61 94/148/61
# UNHIT_FACE f 96/127/62 94/148/62 100/149/62
f 100/149/61 94/148/61 96/127/61
# UNHIT_FACE f 101/146/64 94/150/64 102/127/64
# UNHIT_FACE f 102/127/63 94/150/63 101/146/63
# UNHIT_FACE f 96/151/63 103/127/63 98/152/63
# UNHIT_FACE f 98/152/64 103/127/64 96/151/64
# UNHIT_FACE f 103/127/63 96/151/63 104/146/63
# UNHIT_FACE f 104/146/64 96/151/64 103/127/64
# UNHIT_FACE f 94/150/64 101/146/64 100/153/64
# UNHIT_FACE f 100/153/63 101/146/63 94/150/63
