# Merged(arrow/base_geom)

v 0.481859 0.564234 0.504777
v -0.466128 0.5034 0.504777
v 0.481859 0.5034 0.504777
v -0.466128 0.564234 0.504777
v -0.476267 0.5034 0.504777
v 0.481859 0.5034 0.575749
v 0.491998 0.584511 0.504777
v -0.466128 0.564234 0.575749
v 0.491998 0.5034 0.504777
v -0.476267 0.5034 0.585888
v 0.481859 0.564234 0.575749
v -0.476267 0.584511 0.504777
v -0.466128 0.5034 0.575749
v 0.491998 0.5034 0.585888
v 0.491998 0.584511 0.585888
v -0.476267 0.584511 0.585888
v 0.491998 -0.449656 0.403388
v -0.476267 -0.469934 0.403388
v 0.491998 -0.713267 0.403388
v -0.476267 -0.713267 0.403388
v 0.491998 -0.469934 0.403388
v 0.491998 -0.713267 -0.569946
v -0.395156 -0.632156 0.403388
v -0.395156 -0.551045 0.403388
v -0.476267 -0.713267 -0.569946
v 0.410887 -0.632156 0.403388
v 0.410887 -0.551045 0.403388
v -0.395156 -0.632156 0.423666
v 0.410887 -0.551045 0.423666
v 0.410887 -0.632156 0.423666
v -0.395156 -0.551045 0.423666
v 0.491998 -0.713267 0.423666
v -0.476267 -0.480073 0.423666
v 0.491998 -0.480073 0.423666
v -0.476267 -0.713267 0.423666
v 0.491998 -0.480073 0.484499
v -0.476267 -0.713267 0.484499
v 0.491998 -0.713267 0.484499
v -0.476267 -0.480073 0.484499
v 0.47172 -0.69299 0.484499
v -0.455989 -0.69299 0.484499
v -0.455989 -0.50035 0.484499
v 0.47172 -0.50035 0.484499
v -0.224062 -0.50035 0.484499
v 0.239793 -0.50035 0.484499
v 0.239793 -0.69299 0.484499
v 0.007866 -0.50035 0.484499
v 0.007866 -0.69299 0.484499
v -0.224062 -0.69299 0.484499
v 0.481859 0.5034 0.504777
v -0.476267 0.5034 0.504777
v 0.491998 0.584511 0.504777
v 0.491998 0.5034 0.504777
v -0.476267 0.584511 0.504777
v -0.476267 -0.449656 0.504777
v 0.491998 -0.449656 0.504777
v 0.491998 0.706178 0.504777
v -0.476267 0.706178 0.504777
v 0.491998 -0.449656 0.423666
v -0.476267 0.706178 0.423666
v -0.476267 -0.449656 0.423666
v 0.491998 0.706178 0.423666
v -0.455989 -0.429378 0.423666
v 0.47172 -0.429378 0.423666
v 0.47172 0.6859 0.423666
v -0.455989 0.6859 0.423666
v 0.47172 -0.429378 0.403388
v -0.455989 -0.429378 0.403388
v -0.476267 -0.449656 0.403388
v 0.491998 -0.449656 0.403388
v -0.476267 -0.469934 0.403388
v 0.491998 -0.469934 0.403388
v -0.395156 -0.551045 0.403388
v 0.410887 -0.551045 0.423666
v -0.395156 -0.551045 0.423666
v -0.476267 -0.480073 0.423666
v 0.491998 -0.480073 0.423666
v 0.491998 -0.480073 0.484499
v -0.476267 -0.480073 0.484499
v -0.455989 -0.69299 0.484499
v -0.455989 -0.50035 0.484499
v 0.47172 -0.50035 0.484499
v -0.224062 -0.50035 0.484499
v 0.239793 -0.50035 0.484499
v 0.007866 -0.50035 0.484499
v 0.491998 0.706178 0.504777
v -0.476267 0.706178 0.423666
v 0.491998 0.706178 0.423666
v -0.455989 -0.429378 0.423666
v 0.47172 -0.429378 0.423666
v 0.47172 0.6859 0.423666
v -0.455989 0.6859 0.423666
v 0.47172 -0.429378 0.403388
v -0.455989 0.6859 0.403388
v -0.455989 -0.429378 0.403388
v 0.47172 0.6859 0.403388
v -0.476267 -0.449656 0.403388
v -0.476267 0.706178 0.403388
v 0.491998 0.706178 0.403388
v 0.491998 -0.449656 0.403388
v -0.476267 -0.469934 0.403388
v -0.476267 0.706178 -0.569946
v 0.491998 -0.713267 0.403388
v -0.476267 -0.713267 0.403388
v 0.491998 0.706178 -0.569946
v 0.491998 -0.713267 -0.569946
v -0.476267 -0.713267 -0.569946
vt -42.302444 1.05
vt -43.081612 1.0
vt -42.302444 1.0
vt -43.081612 1.05
vt -43.089947 1.0
vt -42.294109 1.0
vt 7.820901 0.408639
vt 7.810893 0.417217
vt 7.810893 0.408639
vt -4.451259 0.407209
vt -4.459838 0.3972
vt -4.451259 0.3972
vt -4.461268 0.408639
vt -4.461268 0.3972
vt 7.820901 0.417217
vt -4.326155 0.3972
vt -4.324725 0.3972
vt -4.326155 0.407209
vt -4.459838 0.407209
vt -4.472706 0.420077
vt -4.472706 0.408639
vt -4.324725 0.408639
vt -4.324725 0.420077
vt -4.313287 0.408639
vt -4.313287 0.420077
vt -4.461268 0.431515
vt -4.324725 0.431515
vt -4.461268 0.420077
vt -42.294109 0.216667
vt -43.089947 0.2
vt -42.294109 0.0
vt -42.294109 0.2
vt -43.089947 0.0
vt -43.023277 0.066667
vt -43.023277 0.133333
vt -42.294109 -0.8
vt -42.360779 0.066667
vt -42.360779 0.133333
vt -43.089947 -0.8
vt -42.360779 -0.116667
vt -42.294109 -0.05
vt -43.023277 -0.116667
vt -43.089947 -0.241667
vt -43.023277 -0.183333
vt -42.360779 -0.183333
vt -42.294109 -0.241667
vt -43.089947 -0.05
vt -42.294109 0.191667
vt -42.24411 0.0
vt -42.24411 0.191667
vt -43.139946 0.191667
vt -43.139946 0.0
vt -43.089947 0.191667
vt -42.31078 0.016667
vt -43.073277 0.016667
vt -42.31078 0.175
vt -42.501404 0.016667
vt -42.692028 0.016667
vt -42.882652 0.016667
vt -4.327585 0.267092
vt -4.360291 0.239927
vt -4.327585 0.239927
vt -4.360291 0.267092
vt -4.425702 0.239927
vt -4.392996 0.267092
vt -4.425702 0.267092
vt -4.392996 0.239927
vt 6.918873 0.292711
vt 6.948798 0.325852
vt 6.918873 0.325852
vt 6.948798 0.292711
vt 6.978724 0.292711
vt 7.00865 0.325852
vt 6.978724 0.325852
vt 7.00865 0.292711
vt -43.089947 1.0
vt -42.294109 1.0
vt -43.089947 0.216667
vt -42.294109 0.216667
vt -42.294109 1.066667
vt -42.294109 1.166667
vt -43.089947 1.066667
vt -43.089947 1.166667
vt -42.294109 0.15
vt -43.156612 1.166667
vt -42.227444 0.216667
vt -43.089947 1.233333
vt -43.089947 0.15
vt -43.156612 0.216667
vt -42.227444 1.166667
vt -41.43161 0.216667
vt -41.448277 0.233333
vt -41.43161 1.166667
vt -42.210777 0.233333
vt -42.210777 1.15
vt -41.448277 1.15
vt -43.073277 0.233333
vt -42.31078 0.233333
vt -43.089947 0.2
vt -42.294109 0.2
vt -43.023277 0.133333
vt -43.089947 -0.241667
vt -43.023277 -0.183333
vt -42.360779 -0.183333
vt -42.294109 -0.241667
vt -42.294109 0.191667
vt -43.089947 0.191667
vt -43.073277 0.016667
vt -43.073277 0.175
vt -42.31078 0.175
vt -42.882652 0.175
vt -42.501404 0.175
vt -42.692028 0.175
vt -43.089947 0.216667
vt -42.294109 0.216667
vt -42.294109 1.166667
vt -43.089947 1.166667
vt -43.089947 1.233333
vt -42.227444 1.166667
vt -42.294109 1.233333
vt -41.43161 1.166667
vt -42.210777 1.15
vt -41.448277 1.15
vt -43.073277 0.233333
vt -42.31078 0.233333
vt -43.073277 1.15
vt -42.31078 1.15
vt 43.089947 28.354725
vt 44.05661 28.354725
vt 44.039944 28.354725
vt 42.294109 28.354725
vt 43.089947 27.554724
vt -42.294109 0.0
vt 44.256611 28.354725
vt 42.294109 27.554724
vt -41.49411 0.0
vt -41.49411 1.166667
vt -40.698277 1.166667
vt 44.256611 27.554724
vt -40.698277 0.0
vn 0.0 0.0 1.0
vn 1.0 0.0 0.0
vn -1.0 0.0 0.0
vn 0.0 -1.0 0.0
vn 0.0 1.0 0.0
vn 0.0 0.0 -1.0
vn 0.0 0.0 1.0
vn 1.0 0.0 0.0
vn -1.0 0.0 0.0
vn 0.0 -1.0 0.0
vn 0.0 1.0 0.0
vn 0.0 0.0 -1.0
vn 0.0 0.0 1.0
vn 1.0 0.0 0.0
vn -1.0 0.0 0.0
vn 0.0 -1.0 0.0
vn 0.0 1.0 0.0
vn 0.0 0.0 -1.0
vn 0.0 0.0 1.0
vn 1.0 0.0 0.0
vn -1.0 0.0 0.0
vn 0.0 -1.0 0.0
vn 0.0 1.0 0.0
vn 0.0 0.0 -1.0
usemtl base_geom
f 1/1/1 2/2/1 3/3/1
f 2/2/1 1/1/1 4/4/1
f 3//6 2//6 1//6
f 4//6 1//6 2//6
f 4//5 8//5 1//5
f 4//3 2//3 8//3
f 5//5 10//5 2//5
f 11//2 6//2 1//2
f 11//5 1//5 8//5
f 13//3 8//3 2//3
f 5//2 12//2 10//2
f 6//6 8//6 11//6
f 11//1 8//1 6//1
f 9//5 6//5 14//5
f 7//3 9//3 15//3
f 7//4 15//4 12//4
f 8//6 6//6 13//6
f 13//1 6//1 8//1
f 13//5 10//5 6//5
f 16//2 10//2 12//2
f 10//5 14//5 6//5
f 14//3 15//3 9//3
f 16//4 12//4 15//4
f 16//6 15//6 10//6
f 14//6 10//6 15//6
f 6/7/3 1/8/3 3/9/3
f 8/10/2 2/11/2 4/12/2
f 2/11/4 10/13/4 5/14/4
f 3/16/4 9/17/4 6/18/4
f 2/11/2 8/10/2 13/19/2
f 13/19/4 10/13/4 2/11/4
f 10/13/3 12/20/3 5/21/3
f 15/23/2 9/24/2 7/25/2
f 12/26/5 15/23/5 7/27/5
f 6/18/4 10/13/4 13/19/4
f 12/20/3 10/13/3 16/28/3
f 6/18/4 14/22/4 10/13/4
f 9/24/2 15/23/2 14/22/2
f 15/23/5 12/26/5 16/28/5
f 10/13/1 15/23/1 16/28/1
f 15/23/1 10/13/1 14/22/1
f 1//4 8//4 4//4
f 8//4 1//4 11//4
f 20/33/7 23/34/7 18/30/7
f 20/33/10 22/36/10 19/31/10
f 26/37/7 19/31/7 21/32/7
f 23/34/7 20/33/7 26/37/7
f 18/30/7 23/34/7 24/35/7
f 27/38/7 21/32/7 24/35/7
f 22/36/10 20/33/10 25/39/10
f 19/31/7 26/37/7 20/33/7
f 26/37/7 21/32/7 27/38/7
f 30/40/12 32/41/12 28/42/12
f 28/42/12 33/43/12 31/44/12
f 32/41/12 30/40/12 34/46/12
f 35/47/12 28/42/12 32/41/12
f 28/42/12 35/47/12 33/43/12
f 36/48/8 32/49/8 34/50/8
f 32/41/10 37/33/10 35/47/10
f 37/33/9 33/51/9 35/52/9
f 32/49/8 36/48/8 38/31/8
f 37/33/10 32/41/10 38/31/10
f 33/51/9 37/33/9 39/53/9
f 40/54/7 38/31/7 36/48/7
f 38/31/7 40/54/7 37/33/7
f 37/33/7 41/55/7 39/53/7
f 40/54/7 36/48/7 43/56/7
f 41/55/7 37/33/7 40/54/7
f 18//12 23//12 20//12
f 19//11 22//11 20//11
f 21//12 19//12 26//12
f 26//12 20//12 23//12
f 24//12 21//12 27//12
f 25//11 20//11 22//11
f 20//12 26//12 19//12
f 23//11 28//11 26//11
f 23//8 24//8 28//8
f 29//8 26//8 27//8
f 27//9 26//9 29//9
f 30//11 26//11 28//11
f 31//8 28//8 24//8
f 26//8 29//8 30//8
f 30//9 29//9 26//9
f 28//7 32//7 30//7
f 31//7 33//7 28//7
f 29//7 30//7 34//7
f 34//7 30//7 32//7
f 32//7 28//7 35//7
f 33//7 35//7 28//7
f 34//9 32//9 36//9
f 35//11 37//11 32//11
f 35//8 33//8 37//8
f 38//9 36//9 32//9
f 38//11 32//11 37//11
f 39//8 37//8 33//8
f 36//12 38//12 40//12
f 37//12 40//12 38//12
f 39//12 41//12 37//12
f 43//12 36//12 40//12
f 40//12 37//12 41//12
f 40//12 46//12 43//12
f 42//12 44//12 41//12
f 45//12 43//12 46//12
f 49//12 41//12 44//12
f 44//12 47//12 49//12
f 47//12 45//12 48//12
f 46//12 48//12 45//12
f 48//12 49//12 47//12
f 43/60/7 46/61/7 40/62/7
f 46/61/7 43/60/7 45/63/7
f 49/64/7 47/65/7 44/66/7
f 47/65/7 49/64/7 48/67/7
f 28//10 26//10 30//10
f 24//9 28//9 31//9
f 41/68/7 44/69/7 42/70/7
f 44/69/7 41/68/7 49/71/7
f 48/72/7 45/73/7 47/74/7
f 45/73/7 48/72/7 46/75/7
f 55/78/13 53/77/13 51/76/13
f 57/81/13 54/82/13 52/80/13
f 53/77/13 55/78/13 56/79/13
f 54/82/13 57/81/13 58/83/13
f 55/78/16 59/84/16 56/79/16
f 60/85/15 55/78/15 58/83/15
f 59/86/14 57/81/14 56/79/14
f 57/81/17 60/87/17 58/83/17
f 59/84/16 55/78/16 61/88/16
f 55/78/15 60/85/15 61/89/15
f 57/81/14 59/86/14 62/90/14
f 61/91/18 63/92/18 59/86/18
f 63/92/18 61/91/18 60/93/18
f 59/86/18 64/94/18 62/90/18
f 64/94/18 59/86/18 63/92/18
f 63/92/18 60/93/18 66/96/18
f 62/90/18 64/94/18 65/95/18
f 68/97/13 69/78/13 67/98/13
f 70/79/13 67/98/13 69/78/13
f 71/99/13 70/79/13 69/78/13
f 70/79/13 71/99/13 72/100/13
f 71/99/13 73/101/13 72/100/13
f 75/103/18 76/102/18 74/104/18
f 77/105/18 74/104/18 76/102/18
f 79/107/13 81/109/13 78/106/13
f 79/107/13 80/108/13 81/109/13
f 83/111/13 78/106/13 81/109/13
f 82/110/13 78/106/13 84/112/13
f 85/113/13 78/106/13 83/111/13
f 84/112/13 78/106/13 85/113/13
f 51//18 53//18 55//18
f 52//18 54//18 57//18
f 56//18 55//18 53//18
f 58//18 57//18 54//18
f 56//17 59//17 55//17
f 58//14 55//14 60//14
f 56//15 57//15 59//15
f 58//16 60//16 57//16
f 61//17 55//17 59//17
f 61//14 60//14 55//14
f 62//15 59//15 57//15
f 60//13 61//13 63//13
f 62//13 64//13 59//13
f 66//13 60//13 63//13
f 65//13 64//13 62//13
f 64//17 67//17 63//17
f 68//17 63//17 67//17
f 69//18 67//18 70//18
f 69//18 70//18 71//18
f 72//18 71//18 70//18
f 72//18 73//18 71//18
f 74//13 76//13 75//13
f 76//17 78//17 77//17
f 77//16 78//16 76//16
f 78//17 76//17 79//17
f 79//16 76//16 78//16
f 78//18 81//18 79//18
f 81//18 80//18 79//18
f 81//18 78//18 83//18
f 84//18 78//18 82//18
f 83//18 78//18 85//18
f 85//18 78//18 84//18
f 87/118/23 86/116/23 88/120/23
f 88/119/24 91/122/24 87/121/24
f 92/123/24 87/121/24 91/122/24
f 98/117/19 95/124/19 94/126/19
f 93/125/19 99/116/19 96/127/19
f 96/127/19 99/116/19 94/126/19
f 97/114/19 95/124/19 98/117/19
f 98/117/19 94/126/19 99/116/19
f 93/125/19 100/115/19 99/116/19
f 99/131/23 102/132/23 98/128/23
f 102/132/23 99/131/23 105/135/23
f 102/132/21 104/134/21 98/128/21
f 106/136/20 99/116/20 103/133/20
f 99/116/20 106/136/20 105/137/20
f 106/136/24 102/138/24 105/137/24
f 104/134/21 102/132/21 107/139/21
f 102/138/24 106/136/24 107/140/24
f 88//22 86//22 87//22
f 87//19 91//19 88//19
f 91//19 87//19 92//19
f 94//21 89//21 92//21
f 92//20 89//20 94//20
f 93//20 91//20 90//20
f 90//21 91//21 93//21
f 91//23 94//23 92//23
f 92//22 94//22 91//22
f 89//21 94//21 95//21
f 95//20 94//20 89//20
f 91//20 93//20 96//20
f 96//21 93//21 91//21
f 94//23 91//23 96//23
f 96//22 91//22 94//22
f 94//24 95//24 98//24
f 96//24 99//24 93//24
f 94//24 99//24 96//24
f 98//24 95//24 97//24
f 99//24 94//24 98//24
f 99//24 100//24 93//24
f 98//22 102//22 99//22
f 105//22 99//22 102//22
f 98//20 104//20 102//20
f 103//21 99//21 106//21
f 105//21 106//21 99//21
f 105//19 102//19 106//19
f 107//20 102//20 104//20
f 107//19 106//19 102//19
