# Merged(arrow/base_geom)

v -0.284655 0.91184 -0.30052
v -0.284655 -0.929856 0.259854
v -0.284655 0.91184 0.259854
v -0.284655 -0.929856 -0.30052
v -0.266382 0.91184 0.259854
v -0.266382 -0.929856 -0.30052
v -0.266382 0.91184 -0.30052
v -0.266382 -0.929856 0.259854
v -0.233821 -0.043211 0.322643
v -0.239676 -0.301514 0.318521
v -0.233821 -0.301514 0.322643
v -0.239676 -0.043211 0.318521
v -0.228091 -0.043211 0.318348
v -0.237565 -0.043211 0.311679
v -0.228091 -0.301514 0.318348
v -0.237565 -0.301514 0.311679
v -0.230406 -0.301514 0.311571
v -0.230406 -0.043211 0.311571
v 0.28181 -0.929855 0.259854
v 0.300083 0.91184 0.259854
v 0.28181 0.91184 0.259854
v 0.300083 -0.929855 0.259854
v -0.23177 0.005517 0.31351
v -0.233856 0.005517 0.320272
v -0.230357 0.005517 0.317649
v -0.236143 0.005517 0.313576
v -0.233821 0.003994 0.322643
v -0.230406 0.003994 0.311571
v -0.237565 0.003994 0.311679
v -0.237432 0.005517 0.317754
v -0.228091 0.003994 0.318348
v -0.233821 -0.043211 0.322643
v -0.239676 0.003994 0.318521
v -0.230406 -0.016118 0.311571
v -0.233985 -0.013517 0.311625
v -0.228091 -0.043211 0.318348
v -0.239676 -0.043211 0.318521
v -0.228849 -0.0172 0.31613
v -0.237565 -0.016118 0.311679
v -0.238985 -0.0172 0.316282
v -0.234344 -0.013517 0.287623
v -0.239413 -0.0172 0.287699
v -0.230406 -0.043211 0.311571
v -0.237565 -0.021781 0.311679
v -0.229276 -0.0172 0.287547
v -0.230406 -0.021781 0.311571
v -0.237565 -0.043211 0.311679
v -0.231212 -0.023159 0.287576
v -0.230853 -0.023159 0.311578
v -0.237118 -0.023159 0.311672
v -0.237477 -0.023159 0.28767
v -0.234344 -0.023159 0.287623
v -0.266382 0.887476 0.259854
v 0.28181 0.91184 0.259854
v -0.266382 0.91184 0.259854
v 0.28181 0.887476 0.259854
v -0.266382 0.887476 -0.282247
v -0.266382 -0.905492 -0.276156
v -0.266382 0.887476 -0.276156
v -0.266382 -0.905492 -0.282247
v 0.28181 0.887476 -0.276156
v 0.28181 -0.905492 -0.282247
v 0.28181 -0.905492 -0.276156
v 0.28181 0.887476 -0.282247
v -0.266382 0.765655 -0.282247
v 0.28181 0.887476 -0.282247
v -0.266382 0.887476 -0.282247
v 0.28181 0.765655 -0.282247
v -0.266382 0.887476 -0.30052
v 0.28181 0.765655 -0.30052
v 0.28181 0.887476 -0.30052
v -0.266382 0.765655 -0.30052
v 0.28181 -0.019667 -0.276156
v -0.266382 0.004697 -0.276156
v 0.28181 0.004697 -0.276156
v -0.266382 -0.019667 -0.276156
v 0.28181 0.004697 0.253763
v -0.266382 -0.019667 0.253763
v -0.266382 0.004697 0.253763
v 0.28181 -0.019667 0.253763
v 0.298561 0.91184 0.27965
v -0.283067 -0.926811 0.288352
v 0.298561 -0.926811 0.27965
v -0.283067 0.91184 0.288352
v -0.283341 -0.926811 0.270081
v 0.298287 0.91184 0.261379
v 0.298287 -0.926811 0.261379
v -0.283341 0.91184 0.270081
v 0.28181 0.91184 -0.30052
v 0.300083 0.91184 0.259854
v 0.300083 0.91184 -0.30052
v 0.28181 0.91184 0.259854
v 0.300083 -0.929856 -0.30052
v 0.28181 -0.929856 0.259854
v 0.300083 -0.929856 0.259854
v 0.28181 -0.929856 -0.30052
v 0.28181 -0.473239 -0.276156
v -0.266382 -0.448875 -0.276156
v 0.28181 -0.448875 -0.276156
v -0.266382 -0.473239 -0.276156
v 0.28181 -0.448875 0.253763
v -0.266382 -0.473239 0.253763
v -0.266382 -0.448875 0.253763
v 0.28181 -0.473239 0.253763
v -0.266382 -0.905492 -0.282247
v 0.28181 -0.783671 -0.282247
v -0.266382 -0.783671 -0.282247
v 0.28181 -0.905492 -0.282247
v -0.266382 -0.783671 -0.30052
v 0.28181 -0.905492 -0.30052
v 0.28181 -0.783671 -0.30052
v -0.266382 -0.905492 -0.30052
v -0.266382 -0.929856 0.259854
v 0.28181 -0.905492 0.259854
v -0.266382 -0.905492 0.259854
v 0.28181 -0.929856 0.259854
v 0.28181 0.433904 -0.276156
v -0.266382 0.458268 -0.276156
v 0.28181 0.458268 -0.276156
v -0.266382 0.433904 -0.276156
v 0.28181 0.458268 0.253763
v -0.266382 0.433904 0.253763
v -0.266382 0.458268 0.253763
v 0.28181 0.433904 0.253763
v -0.266382 0.91184 -0.30052
v -0.266382 0.887476 0.259854
v -0.266382 0.91184 0.259854
v -0.266382 0.887476 -0.30052
v 0.28181 0.91184 0.259854
v 0.28181 0.887476 -0.30052
v 0.28181 0.91184 -0.30052
v 0.28181 0.887476 0.259854
v -0.233821 -0.34872 0.322643
v -0.230406 -0.34872 0.311571
v -0.228091 -0.34872 0.318348
v -0.237565 -0.34872 0.311679
v -0.228849 -0.327525 0.31613
v -0.230356 -0.350243 0.317649
v -0.228091 -0.301514 0.318348
v -0.239676 -0.34872 0.318521
v -0.230406 -0.328607 0.311571
v -0.23177 -0.350243 0.31351
v -0.233821 -0.301514 0.322643
v -0.233856 -0.350243 0.320273
v -0.237433 -0.350243 0.317755
v -0.237565 -0.328607 0.311679
v -0.233985 -0.331208 0.311625
v -0.236143 -0.350243 0.313575
v -0.229276 -0.327525 0.287547
v -0.230406 -0.322944 0.311571
v -0.239676 -0.301514 0.318521
v -0.238985 -0.327525 0.316282
v -0.234344 -0.331208 0.287623
v -0.230406 -0.301514 0.311571
v -0.239413 -0.327525 0.287699
v -0.230853 -0.321567 0.311578
v -0.237565 -0.301514 0.311679
v -0.237477 -0.321567 0.28767
v -0.231212 -0.321567 0.287576
v -0.237118 -0.321567 0.311672
v -0.237565 -0.322944 0.311679
v -0.234344 -0.321567 0.287623
v -0.284655 -0.929855 0.259854
v -0.266382 0.91184 0.259854
v -0.284655 0.91184 0.259854
v -0.266382 -0.929855 0.259854
v -0.266382 -0.929856 0.259854
v 0.28181 -0.929856 -0.30052
v 0.28181 -0.929856 0.259854
v -0.266382 -0.929856 -0.30052
v 0.28181 -0.905492 0.259854
v -0.266382 -0.905492 -0.30052
v 0.28181 -0.905492 -0.30052
v -0.266382 -0.905492 0.259854
v -0.266382 -0.069918 -0.282247
v 0.28181 0.051902 -0.282247
v -0.266382 0.051902 -0.282247
v 0.28181 -0.069918 -0.282247
v -0.266382 0.051902 -0.30052
v 0.28181 -0.069918 -0.30052
v 0.28181 0.051902 -0.30052
v -0.266382 -0.069918 -0.30052
vt 0.555556 0.0
vt 0.0 2.799657
vt 0.0 0.0
vt 0.555556 2.799657
vt 0.020833 2.099743
vt 0.0 0.0
vt 0.020833 0.0
vt 0.0 2.099743
vt 0.027778 -0.458333
vt 0.0 0.0
vt 0.0 -0.458333
vt 0.027778 0.0
vt 0.0 0.0
vt 0.662847 2.096265
vt 0.0 2.096265
vt 0.662847 0.0
vt 0.0 0.662847
vt 0.020833 0.0
vt 0.020833 0.662847
vt 0.020833 2.096265
vt -0.020833 0.662847
vt -0.020833 0.0
vt -0.020833 2.096265
vt -0.662847 2.096265
vt -0.662847 0.0
vt 0.0 0.0
vt -0.555556 2.799657
vt -0.555556 0.0
vt 0.0 2.799657
vt 0.027778 -0.458333
vt 0.0 0.0
vt 0.0 -0.458333
vt 0.027778 0.0
vt 0.020833 2.099743
vt 0.0 0.0
vt 0.020833 0.0
vt 0.0 2.099743
vn -1.0 0.0 0.0
vn 1.0 0.0 0.0
vn 0.0 1.0 0.0
vn 0.0 -1.0 0.0
vn 0.0 0.0 -1.0
vn 0.0 0.0 1.0
vn 0.014960001390202702 0.0 0.9998880929176049
vn -0.9463272382518607 0.0 0.32321008360291886
vn 0.9555730234816373 0.0 0.2947544686585127
vn -0.5998222043605215 0.0 -0.8001333158643533
vn 0.5756164099917125 0.0 -0.8177198472265749
vn -0.014960001390202702 0.0 -0.9998880929176049
vn 0.9463272382518607 0.0 -0.32321008360291886
vn -0.9555730234816373 0.0 -0.2947544686585127
vn 0.5998222043605215 0.0 0.8001333158643533
vn -0.5756164099917125 0.0 0.8177198472265749
vn 0.0 0.0 1.0
vn 0.0 0.0 -1.0
vn 0.2100603569863828 0.9310343218565852 -0.2984120271500496
vn 0.005459371589868293 0.931034480102806 0.36489038370658883
vn 0.34871840797653 0.9310344693777415 0.10756527678029675
vn -0.21889382280184538 0.9310343218565852 -0.2919941538186048
vn 0.010694888508141348 0.6992278352715873 0.714818895763961
vn 0.4115074431763206 0.6992276350814027 -0.5845873232879377
vn -0.42881214808138546 0.6992276350814025 -0.5720147340727307
vn -0.34534432724840675 0.9310344693777413 0.11794961834551684
vn 0.6831378742637184 0.6992279935991532 0.21071985600258633
vn 0.014960001390202702 0.0 0.9998880929176049
vn -0.6765280663757537 0.699227993599153 0.23106273687721027
vn 0.5756164099917124 0.0 -0.8177198472265749
vn -0.014960001390202702 0.0 -0.9998880929176049
vn 0.9555730234816373 0.0 0.2947544686585127
vn -0.9463272382518607 0.0 0.32321008360291886
vn 0.9463272382518607 0.0 -0.32321008360291886
vn -0.5998222043605215 0.0 -0.8001333158643532
vn -0.9555730234816373 0.0 -0.2947544686585127
vn 0.9509501393053155 0.30901683133146984 -0.014227807598458195
vn 0.0 1.0 0.0
vn 0.5877193429224918 0.8090170903163976 -0.008793266215936445
vn -0.9509501393053157 0.3090168313314694 0.014227807598458198
vn -0.5877193429224923 0.8090170903163973 0.008793266215936452
vn -0.9509501393053155 -0.30901683133146984 0.014227807598458195
vn 0.5877193429224923 -0.8090170903163973 -0.008793266215936452
vn 0.9509501393053157 -0.3090168313314694 -0.014227807598458198
vn -0.5877193429224918 -0.8090170903163976 0.008793266215936445
vn 0.0 -1.0 0.0
vn -0.34871840797653 -0.9310344693777415 -0.10756527678029675
vn -0.005459371589868293 -0.931034480102806 -0.36489038370658883
vn -0.2100603569863828 -0.9310343218565852 0.2984120271500496
vn 0.21889382280184538 -0.9310343218565852 0.2919941538186048
vn -0.010694888508141348 -0.6992278352715873 -0.714818895763961
vn -0.4115074431763206 -0.6992276350814027 0.5845873232879377
vn 0.42881214808138546 -0.6992276350814025 0.5720147340727307
vn 0.34534432724840675 -0.9310344693777413 -0.11794961834551684
vn -0.6831378742637184 -0.6992279935991532 -0.21071985600258633
vn 0.6765280663757537 -0.699227993599153 -0.23106273687721027
vn -0.5756164099917124 0.0 0.8177198472265749
vn 0.5998222043605215 0.0 0.8001333158643532
vn 0.0 0.0 1.0
vn 0.0 0.0 -1.0
vn -1.0 0.0 0.0
vn 1.0 0.0 0.0
vn 0.0 0.0 1.0
vn 0.0 0.0 -1.0
vn 0.0 1.0 0.0
vn 0.0 -1.0 0.0
vn 0.0 0.0 1.0
vn 0.0 0.0 -1.0
vn 0.0 1.0 0.0
vn 0.0 -1.0 0.0
vn -1.0 0.0 0.0
vn 1.0 0.0 0.0
vn 0.0 0.0 -1.0
vn 0.0 0.0 1.0
vn 0.0 1.0 0.0
vn 0.0 -1.0 0.0
vn 1.0 0.0 0.0
vn -1.0 0.0 0.0
vn 0.0149600013902027 0.0 0.9998880929176049
vn -0.0149600013902027 0.0 -0.9998880929176049
vn 0.0 -1.0 0.0
vn 0.0 1.0 0.0
vn 0.999888092917605 0.0 -0.014960001390202706
vn -0.999888092917605 0.0 0.014960001390202706
vn 0.0 1.0 0.0
vn 0.0 -1.0 0.0
vn -1.0 0.0 0.0
vn 0.0 0.0 -1.0
vn 0.0 0.0 1.0
vn 1.0 0.0 0.0
vn 0.0 0.0 -1.0
vn 0.0 0.0 1.0
vn 0.0 1.0 0.0
vn 0.0 -1.0 0.0
vn 1.0 0.0 0.0
vn -1.0 0.0 0.0
vn 0.0 0.0 1.0
vn 0.0 0.0 -1.0
vn 0.0 1.0 0.0
vn 0.0 -1.0 0.0
vn -1.0 0.0 0.0
vn 1.0 0.0 0.0
vn 0.0 0.0 1.0
vn 0.0 0.0 -1.0
vn 0.0 0.0 -1.0
vn 0.0 0.0 1.0
vn 0.0 1.0 0.0
vn 0.0 -1.0 0.0
vn 1.0 0.0 0.0
vn -1.0 0.0 0.0
vn -1.0 0.0 0.0
vn 1.0 0.0 0.0
vn 0.0 1.0 0.0
vn 0.0 -1.0 0.0
vn 0.0 0.0 -1.0
vn 0.0 0.0 1.0
vn 0.010695998042030589 -0.6991519983080258 0.7148930541610956
vn 0.4115507708428348 -0.6991520007910644 -0.5846472806817115
vn 0.6832090608075775 -0.6991518405122412 0.2107417451260517
vn -0.4288572500789287 -0.6991520007910649 -0.5720733684105478
vn 0.9463272382518607 0.0 -0.32321008360291886
vn 0.34883383171413873 -0.9309871571456628 0.10760051617659108
vn 0.9555730234816373 0.0 0.2947544686585127
vn -0.6765985662069369 -0.6991518405122414 0.23108674586627126
vn 0.5756164099917124 0.0 -0.8177198472265749
vn 0.2101298733235535 -0.9309872127260957 -0.29851004351197763
vn 0.014960001390202702 0.0 0.9998880929176049
vn 0.005461179531242574 -0.9309871016448393 0.3650112218673131
vn -0.3454586450771263 -0.930987157145663 0.11798829506062317
vn -0.5998222043605215 0.0 -0.8001333158643532
vn -0.014960001390202702 0.0 -0.9998880929176049
vn -0.21896624034491166 -0.9309872127260957 -0.2920900466118448
vn 0.5877193429224923 -0.8090170903163973 -0.008793266215936452
vn 0.9509501393053157 -0.3090168313314694 -0.014227807598458198
vn -0.9463272382518607 0.0 0.32321008360291886
vn -0.9555730234816373 0.0 -0.2947544686585127
vn 0.0 -1.0 0.0
vn 0.9509501393053155 0.30901683133146984 -0.014227807598458195
vn -0.9509501393053155 -0.30901683133146984 0.014227807598458195
vn -0.5877193429224918 -0.8090170903163976 0.008793266215936445
vn 0.5877193429224918 0.8090170903163976 -0.008793266215936445
vn -0.5877193429224923 0.8090170903163973 0.008793266215936452
vn -0.9509501393053157 0.3090168313314694 0.014227807598458198
vn 0.0 1.0 0.0
vn -0.6832090608075775 0.6991518405122412 -0.2107417451260517
vn -0.4115507708428348 0.6991520007910644 0.5846472806817115
vn -0.010695998042030589 0.6991519983080258 -0.7148930541610956
vn 0.4288572500789287 0.6991520007910649 0.5720733684105478
vn -0.34883383171413873 0.9309871571456628 -0.10760051617659108
vn 0.6765985662069369 0.6991518405122414 -0.23108674586627126
vn -0.5756164099917124 0.0 0.8177198472265749
vn -0.2101298733235535 0.9309872127260957 0.29851004351197763
vn -0.005461179531242574 0.9309871016448393 -0.3650112218673131
vn 0.3454586450771263 0.930987157145663 -0.11798829506062317
vn 0.5998222043605215 0.0 0.8001333158643532
vn 0.21896624034491166 0.9309872127260957 0.2920900466118448
vn 0.0 0.0 1.0
vn 0.0 0.0 -1.0
vn 0.0 -1.0 0.0
vn 0.0 1.0 0.0
vn 1.0 0.0 0.0
vn -1.0 0.0 0.0
vn 0.0 0.0 -1.0
vn 0.0 0.0 1.0
vn 0.0 0.0 1.0
vn 0.0 0.0 -1.0
vn 0.0 1.0 0.0
vn 0.0 -1.0 0.0
vn -1.0 0.0 0.0
vn 1.0 0.0 0.0
usemtl base_geom
f 1/1/1 2/2/1 3/3/1
f 2/2/1 1/1/1 4/4/1
f 3//2 2//2 1//2
f 4//2 1//2 2//2
f 5//3 1//3 3//3
f 3//4 1//4 5//4
f 1//5 6//5 4//5
f 4//6 6//6 1//6
f 6//4 2//4 4//4
f 4//3 2//3 6//3
f 1//3 5//3 7//3
f 7//4 5//4 1//4
f 7//6 1//6 6//6
f 2//4 6//4 8//4
f 8//3 6//3 2//3
f 5//2 6//2 7//2
f 7//1 6//1 5//1
f 6//2 5//2 8//2
f 8//1 5//1 6//1
f 9//7 10//8 11//7
f 10//8 9//7 12//8
f 11//7 13//9 9//7
f 14//10 10//8 12//8
f 13//9 11//7 15//9
f 10//8 14//10 16//10
f 17//11 13//9 15//9
f 13//9 17//11 18//11
f 11//12 10//13 9//12
f 12//13 9//12 10//13
f 9//12 13//14 11//12
f 12//13 10//13 14//15
f 15//14 11//12 13//14
f 16//15 14//15 10//13
f 15//14 13//14 17//16
f 18//16 17//16 13//14
f 19/5/17 20/6/17 21/7/17
f 21//18 20//18 19//18
f 22//18 19//18 20//18
f 27//23 25//21 24//20
f 29//25 30//26 26//22
f 32//28 31//27 27//23
f 31//27 34//30 28//24
f 30//26 29//25 33//29
f 31//27 32//28 36//32
f 27//23 37//33 32//28
f 37//33 27//23 33//29
f 34//30 31//27 38//34
f 34//39 41//38 35//38
f 35//38 42//40 39//41
f 40//36 29//25 39//35
f 43//30 38//34 36//32
f 44//35 37//33 40//36
f 41//38 38//37 45//37
f 42//40 35//38 41//38
f 38//34 43//30 46//30
f 37//33 44//35 47//35
f 42//40 44//42 40//40
f 48//43 38//37 46//44
f 50//45 42//40 51//45
f 50//45 48//43 49//43
f 52//46 50//45 51//45
f 48//43 50//45 52//46
f 26//50 23//49 24//48
f 23//49 28//52 25//47
f 27//51 31//55 32//31
f 28//52 34//57 31//55
f 32//31 37//34 27//51
f 33//56 27//51 37//34
f 38//33 31//55 34//57
f 33//56 40//32 29//53
f 34//45 41//46 38//42
f 39//43 42//44 35//46
f 39//58 29//53 40//32
f 36//36 38//33 43//57
f 45//42 38//42 41//46
f 45//42 48//41 38//42
f 49//41 48//41 50//39
f 53/9/59 54/10/59 55/11/59
f 54/10/59 53/9/59 56/12/59
f 55//60 54//60 53//60
f 56//60 53//60 54//60
f 57//64 62//64 60//64
f 60//63 62//63 57//63
f 62//64 57//64 64//64
f 64//63 57//63 62//63
f 65//70 70//70 68//70
f 68//69 70//69 65//69
f 70//70 65//70 72//70
f 72//69 65//69 70//69
f 70//68 69//68 71//68
f 71//67 69//67 70//67
f 69//68 70//68 72//68
f 72//67 70//67 69//67
f 81/13/79 82/14/79 83/15/79
f 82/14/79 81/13/79 84/16/79
f 83/15/80 82/14/80 81/13/80
f 84/16/80 81/13/80 82/14/80
f 85/17/81 83/18/81 82/19/81
f 82/19/82 83/18/82 85/17/82
f 83/20/83 86/13/83 81/18/83
f 81/18/84 86/13/84 83/20/84
f 86/13/82 84/21/82 81/22/82
f 81/22/81 84/21/81 86/13/81
f 84/22/84 85/15/84 82/23/84
f 82/23/83 85/15/83 84/22/83
f 83/18/81 85/17/81 87/13/81
f 87/13/82 85/17/82 83/18/82
f 86/13/83 83/20/83 87/15/83
f 87/15/84 83/20/84 86/13/84
f 84/21/82 86/13/82 88/17/82
f 88/17/81 86/13/81 84/21/81
f 85/15/84 84/22/84 88/13/84
f 88/13/83 84/22/83 85/15/83
f 87/15/79 86/13/79 85/24/79
f 88/25/79 85/24/79 86/13/79
f 85//80 86//80 87//80
f 86//80 85//80 88//80
f 89//85 90//85 91//85
f 90//85 89//85 92//85
f 91//86 90//86 89//86
f 92//86 89//86 90//86
f 91//87 93//87 90//87
f 91//89 89//89 93//89
f 95//87 90//87 93//87
f 96//89 93//89 89//89
f 94//87 89//87 96//87
f 96//90 89//90 94//90
f 94//86 93//86 95//86
f 95//85 93//85 94//85
f 93//86 94//86 96//86
f 96//85 94//85 93//85
f 90/26/90 93/27/90 91/28/90
f 93/27/90 90/26/90 95/29/90
f 102//94 97//94 104//94
f 104//93 97//93 102//93
f 106//99 109//99 107//99
f 107//100 109//100 106//100
f 109//99 106//99 111//99
f 111//100 106//100 109//100
f 110//98 109//98 111//98
f 111//97 109//97 110//97
f 109//98 110//98 112//98
f 112//97 110//97 109//97
f 113/30/103 114/31/103 115/32/103
f 114/31/103 113/30/103 116/33/103
f 115//104 114//104 113//104
f 116//104 113//104 114//104
f 121//107 118//107 123//107
f 129//113 125//113 127//113
f 127//114 125//114 129//114
f 125//115 130//115 128//115
f 128//116 130//116 125//116
f 125//113 129//113 131//113
f 131//114 129//114 125//114
f 130//115 125//115 131//115
f 131//116 125//116 130//116
f 134//118 137//121 135//119
f 139//123 133//117 135//119
f 137//121 134//118 141//125
f 133//117 139//123 143//127
f 143//127 140//124 133//117
f 140//124 146//130 136//120
f 140//124 143//127 151//135
f 144//128 140//124 145//129
f 146//130 140//124 152//136
f 142//126 144//128 148//132
f 149//134 141//133 153//137
f 149//134 150//138 137//134
f 139//123 150//125 154//125
f 151//135 152//136 140//124
f 155//139 146//140 152//139
f 157//130 152//136 151//135
f 153//137 146//140 155//139
f 152//139 158//142 155//139
f 158//142 152//139 161//143
f 162//144 156//141 159//141
f 135//145 137//135 134//146
f 135//145 133//147 139//136
f 139//136 137//135 135//145
f 142//152 138//149 134//146
f 143//131 139//136 133//147
f 133//147 140//150 143//131
f 140//150 145//154 136//148
f 136//148 146//155 140//150
f 137//143 149//143 141//142
f 137//135 139//136 150//151
f 151//121 143//131 140//150
f 147//144 141//142 153//144
f 153//144 141//142 149//143
f 137//143 150//139 149//143
f 147//144 153//144 146//141
f 155//138 146//141 153//144
f 155//138 158//133 152//138
f 161//155 157//155 152//123
f 160//133 162//137 156//140
f 158//133 162//137 160//133
f 165//158 164//158 163//158
f 166//158 163//158 164//158
f 167//159 168//159 169//159
f 168//159 167//159 170//159
f 169//160 168//160 167//160
f 170//160 167//160 168//160
f 172//163 168//163 170//163
f 170//164 168//164 172//164
f 168//163 172//163 173//163
f 173//164 172//164 168//164
f 176//167 179//167 177//167
f 177//168 179//168 176//168
f 175//168 180//168 178//168
f 178//167 180//167 175//167
f 179//167 176//167 181//167
f 181//168 176//168 179//168
f 182//167 175//167 180//167
f 180//166 179//166 181//166
f 181//165 179//165 180//165
f 179//166 180//166 182//166
f 182//165 180//165 179//165
