# Merged(arrow/base_geom)

v -0.746209 0.582268 -0.220777
v 0.738224 -0.561146 -0.220777
v 0.738224 0.582268 -0.220777
v -0.746209 -0.561146 -0.220777
v 0.758284 0.582268 -0.235822
v 0.758284 -0.561146 0.195466
v 0.758284 -0.561146 -0.235822
v 0.758284 0.582268 0.195466
v 0.738224 0.582268 0.195466
v 0.738224 -0.561146 -0.235822
v 0.738224 -0.561146 0.195466
v 0.738224 0.582268 -0.235822
v 0.778344 -0.561146 -0.255882
v -0.786328 -0.561146 0.195466
v 0.778344 -0.561146 0.195466
v -0.786328 -0.561146 -0.255882
v 0.778344 -0.581206 0.195466
v -0.786328 -0.581206 -0.255882
v 0.778344 -0.581206 -0.255882
v -0.786328 -0.581206 0.195466
v -0.766269 0.582268 0.195466
v -0.766269 -0.561146 -0.235822
v -0.766269 -0.561146 0.195466
v -0.766269 0.582268 -0.235822
v -0.064172 0.582268 -0.235822
v -0.064172 -0.561146 -0.255882
v -0.064172 -0.561146 -0.235822
v -0.064172 0.582268 -0.255882
v 0.056188 -0.561146 -0.235822
v 0.056188 0.582268 -0.255882
v 0.056188 0.582268 -0.235822
v 0.056188 -0.561146 -0.255882
v 0.04365 -0.513762 0.303915
v 0.04365 -0.513762 0.315199
v 0.04365 -0.51225 0.309557
v 0.04365 -0.517892 0.299785
v 0.650462 -0.51225 0.309557
v 0.650462 -0.513762 0.303915
v 0.650462 -0.517892 0.299785
v 0.04365 -0.517892 0.319329
v 0.650462 -0.513762 0.315199
v 0.04365 -0.523534 0.298273
v 0.650462 -0.517892 0.319329
v 0.650462 -0.523534 0.298273
v 0.04365 -0.523534 0.320841
v 0.650462 -0.523534 0.320841
v 0.04365 -0.529176 0.299785
v 0.650462 -0.529176 0.299785
v 0.04365 -0.529176 0.319329
v 0.650462 -0.529176 0.319329
v 0.04365 -0.533306 0.303915
v 0.650462 -0.533306 0.303915
v 0.04365 -0.533306 0.315199
v 0.650462 -0.534818 0.309557
v 0.04365 -0.534818 0.309557
v 0.650462 -0.533306 0.315199
v -0.019037 0.582268 0.195466
v -0.019037 -0.561146 -0.220777
v -0.019037 -0.561146 0.195466
v -0.019037 0.582268 -0.220777
v 0.011053 -0.561146 0.195466
v 0.011053 0.582268 -0.220777
v 0.011053 0.582268 0.195466
v 0.011053 -0.561146 -0.220777
v -0.786328 0.582268 -0.235822
v -0.786328 -0.561146 -0.255882
v -0.786328 -0.561146 -0.235822
v -0.786328 0.582268 -0.255882
v -0.665969 -0.561146 -0.235822
v -0.665969 0.582268 -0.255882
v -0.665969 0.582268 -0.235822
v -0.665969 -0.561146 -0.255882
v -0.726149 0.391699 0.225556
v 0.718164 0.070741 0.225556
v 0.718164 0.391699 0.225556
v -0.726149 0.070741 0.225556
v 0.718164 0.391699 0.195466
v -0.726149 0.070741 0.195466
v -0.726149 0.391699 0.195466
v 0.718164 0.070741 0.195466
v 0.650462 -0.532026 0.302635
v 0.613821 -0.532026 0.255646
v 0.650462 -0.532026 0.255646
v 0.613821 -0.532026 0.302635
v 0.650462 -0.515042 0.255646
v 0.650462 -0.529176 0.299785
v 0.613821 -0.529176 0.299785
v 0.613821 -0.515042 0.255646
v 0.650462 -0.517892 0.299785
v 0.650462 -0.523534 0.298273
v 0.613821 -0.523534 0.298273
v 0.613821 -0.517892 0.299785
v 0.613821 -0.515042 0.302635
v 0.650462 -0.515042 0.302635
v -0.746209 0.582268 -0.235822
v -0.746209 -0.561146 0.195466
v -0.746209 -0.561146 -0.235822
v -0.746209 0.582268 0.195466
v 0.657985 0.582268 -0.235822
v 0.657985 -0.561146 -0.255882
v 0.657985 -0.561146 -0.235822
v 0.657985 0.582268 -0.255882
v 0.778344 -0.561146 -0.235822
v 0.778344 0.582268 -0.255882
v 0.778344 0.582268 -0.235822
v 0.778344 -0.561146 -0.255882
v -0.786328 -0.591236 0.195466
v 0.778344 -0.531056 0.195466
v 0.778344 -0.591236 0.195466
v -0.786328 -0.531056 0.195466
v 0.778344 -0.591236 0.225556
v -0.786328 -0.531056 0.225556
v 0.778344 -0.531056 0.225556
v -0.786328 -0.591236 0.225556
v 0.778344 0.612358 0.195466
v 0.778344 0.552178 0.195466
v -0.786328 0.612358 0.195466
v 0.778344 0.612358 0.225556
v -0.786328 0.552178 0.195466
v 0.778344 0.552178 0.225556
v -0.786328 0.552178 0.225556
v -0.786328 0.612358 0.225556
v 0.036128 -0.200068 -0.235822
v 0.036128 -0.561146 -0.235822
v -0.074001 -0.200068 -0.235822
v -0.074001 -0.561146 -0.235822
v -0.397668 0.582268 0.195466
v -0.397668 -0.561146 -0.220777
v -0.397668 -0.561146 0.195466
v -0.397668 0.582268 -0.220777
v -0.367578 -0.561146 0.195466
v -0.367578 0.582268 -0.220777
v -0.367578 0.582268 0.195466
v -0.367578 -0.561146 -0.220777
v 0.778344 0.582268 0.195466
v -0.786328 0.582268 0.195466
v 0.778344 0.582268 -0.255882
v -0.786328 0.582268 -0.255882
v 0.778344 0.602328 0.195466
v -0.786328 0.602328 -0.255882
v 0.778344 0.602328 -0.255882
v -0.786328 0.602328 0.195466
v 0.04365 -0.515042 0.255646
v 0.04365 -0.517892 0.299785
v 0.04365 -0.515042 0.302635
v 0.04365 -0.532026 0.255646
v 0.080291 -0.515042 0.255646
v 0.04365 -0.523534 0.298273
v 0.080291 -0.515042 0.302635
v 0.080291 -0.532026 0.255646
v 0.04365 -0.529176 0.299785
v 0.080291 -0.517892 0.299785
v 0.080291 -0.532026 0.302635
v 0.04365 -0.532026 0.302635
v 0.080291 -0.523534 0.298273
v 0.080291 -0.529176 0.299785
v -0.778807 -0.583714 0.225556
v 0.770822 -0.583714 0.255646
v -0.778807 -0.583714 0.255646
v 0.770822 -0.583714 0.225556
v -0.778807 0.123398 0.255646
v 0.770822 0.123398 0.225556
v 0.770822 0.123398 0.255646
v -0.778807 0.123398 0.225556
v 0.718164 0.552178 0.225556
v 0.718164 -0.531056 0.195466
v 0.718164 -0.531056 0.225556
v 0.718164 0.552178 0.195466
v 0.778344 -0.531056 0.225556
v 0.778344 0.552178 0.195466
v 0.778344 0.552178 0.225556
v 0.778344 -0.531056 0.195466
v -0.746209 -0.561146 -0.235822
v 0.738224 0.582268 -0.235822
v 0.738224 -0.561146 -0.235822
v -0.746209 0.582268 -0.235822
v -0.786328 0.552178 0.225556
v -0.786328 -0.531056 0.195466
v -0.786328 -0.531056 0.225556
v -0.786328 0.552178 0.195466
v -0.726149 -0.531056 0.225556
v -0.726149 0.552178 0.195466
v -0.726149 0.552178 0.225556
v -0.726149 -0.531056 0.195466
v 0.359594 0.582268 0.195466
v 0.359594 -0.561146 -0.220777
v 0.359594 -0.561146 0.195466
v 0.359594 0.582268 -0.220777
v 0.389683 -0.561146 0.195466
v 0.389683 0.582268 -0.220777
v 0.389683 0.582268 0.195466
v 0.389683 -0.561146 -0.220777
vt -1.232882 -4.665964
vt -0.639132 -4.248866
vt -1.232882 -4.248866
vt -0.639132 -4.665964
vt -0.514067 -3.804456
vt -0.738026 -4.279948
vt -0.514067 -4.279948
vt -0.738025 -3.804456
vt -0.738026 -4.780467
vt -0.514067 -4.304974
vt -0.738026 -4.304974
vt -0.514067 -4.780467
vt -1.66005 -3.210727
vt -1.894425 -3.773227
vt -1.894425 -3.210727
vt -1.66005 -3.773227
vt -1.894425 -3.20031
vt -1.649633 -3.773227
vt -1.66005 -3.783644
vt -1.66005 -3.20031
vt -1.649633 -3.210727
vt -1.894425 -3.783644
vt 0.0 0.0
vt -0.234375 0.5625
vt -0.234375 0.0
vt 0.0 0.5625
vt -0.738026 -4.780467
vt -0.514067 -4.304974
vt -0.738026 -4.304974
vt -0.514067 -4.780467
vt -0.734277 -0.213443
vt -0.744693 -0.807193
vt -0.734277 -0.807193
vt -0.744693 -0.213443
vt -0.807193 -0.838443
vt -0.744693 -1.432193
vt -0.744693 -0.838443
vt -0.807193 -0.213443
vt -0.807193 -1.432193
vt -0.807193 -0.807193
vt -0.81761 -0.807193
vt -0.81761 -0.213443
vt -0.351314 9.471887
vt -0.332661 -0.625198
vt -0.329728 9.47188
vt -0.354248 -0.625191
vt -0.413223 -0.625174
vt -0.410289 9.471904
vt -0.490851 9.471928
vt -0.493785 -0.625151
vt -0.571413 9.471951
vt -0.574347 -0.625127
vt -0.630388 9.471969
vt -0.633322 -0.62511
vt -0.654909 -0.625104
vt -0.651975 9.471975
vt -0.738026 -4.780467
vt -0.52188 -4.304974
vt -0.738026 -4.304974
vt -0.52188 -4.780467
vt -0.750539 -4.304974
vt -0.509367 -4.780467
vt -0.750539 -4.780467
vt -0.509367 -4.304974
vt -0.738026 -4.279948
vt -0.52188 -3.804456
vt -0.738025 -3.804456
vt -0.52188 -4.279948
vt -0.734277 -0.213443
vt -0.744693 -0.807193
vt -0.734277 -0.807193
vt -0.744693 -0.213443
vt -0.807193 -0.838443
vt -0.744693 -1.432193
vt -0.744693 -0.838443
vt -0.807193 -0.213443
vt -0.807193 -1.432193
vt -0.807193 -0.807193
vt -0.81761 -0.807193
vt -0.81761 -0.213443
vt 0.0625 0.5
vt 0.0 0.0
vt 0.0625 0.0
vt 0.0 0.5
vt 0.015625 0.0
vt -0.015625 0.5
vt 0.015625 0.5
vt -0.015625 0.0
vt -0.0625 0.0
vt -0.0625 0.5
vt -0.514067 -3.804456
vt -0.738026 -4.279948
vt -0.514067 -4.279948
vt -0.738025 -3.804456
vt -0.734277 -0.213443
vt -0.744693 -0.807193
vt -0.734277 -0.807193
vt -0.744693 -0.213443
vt -0.807193 -0.838443
vt -0.744693 -1.432193
vt -0.744693 -0.838443
vt -0.807193 -0.213443
vt -0.807193 -1.432193
vt -0.807193 -0.807193
vt -0.81761 -0.807193
vt -0.81761 -0.213443
vt -1.41005 -3.773227
vt -1.4413 -3.32276
vt -1.41005 -3.32276
vt -1.4413 -3.773227
vt -1.41005 -3.307135
vt -1.4413 -3.788852
vt -1.4413 -3.307135
vt -1.41005 -3.788852
vt 0.0 0.0
vt -0.015625 0.5625
vt -0.015625 0.0
vt 0.0 0.5625
vt 0.015625 0.0
vt 0.015625 0.5625
vt 0.03125 0.5625
vt 0.03125 0.0
vt -1.41005 -3.32276
vt -1.4413 -3.32276
vt -1.41005 -3.773227
vt -1.41005 -3.307135
vt -1.4413 -3.773227
vt -1.4413 -3.307135
vt -1.4413 -3.788852
vt -1.41005 -3.788852
vt -0.015625 0.0
vt -0.015625 0.5625
vt 0.0 0.0
vt 0.015625 0.5625
vt 0.015625 0.0
vt 0.0 0.5625
vt 0.03125 0.0
vt 0.03125 0.5625
vt 0.0 0.0
vt 1.0 0.0
vt 0.0 1.0
vt 1.0 1.0
vt -0.738026 -4.780467
vt -0.52188 -4.304974
vt -0.738026 -4.304974
vt -0.52188 -4.780467
vt -0.750539 -4.304974
vt -0.509367 -4.780467
vt -0.750539 -4.780467
vt -0.509367 -4.304974
vt -0.738026 -4.279948
vt -0.52188 -3.804456
vt -0.738025 -3.804456
vt -0.52188 -4.279948
vt -1.894425 -3.210727
vt -1.894425 -3.773227
vt -1.66005 -3.210727
vt -1.66005 -3.773227
vt -1.894425 -3.20031
vt -1.649633 -3.773227
vt -1.66005 -3.783644
vt -1.66005 -3.20031
vt -1.649633 -3.210727
vt -1.894425 -3.783644
vt -0.234375 0.0
vt -0.234375 0.5625
vt 0.0 0.0
vt 0.0 0.5625
vt -0.495791 0.742188
vt -0.480166 0.0
vt -0.480166 0.742188
vt -0.495791 0.0
vt 0.392383 -0.105579
vt 0.392383 -0.847766
vt 0.376758 -0.105579
vt 0.376758 -0.847766
vt 0.887494 0.0
vt 1.227337 0.742188
vt 0.887494 0.742188
vt 1.760043 -0.105579
vt 2.099886 -0.105579
vt 1.760043 -0.847766
vt 1.227337 0.480166
vt 0.887494 0.495791
vt 0.887494 0.480166
vt 1.760043 -0.3676
vt 1.760043 -0.351975
vt 2.099886 -0.3676
vt -0.887494 0.742188
vt -1.227337 0.0
vt -0.887494 0.0
vt -0.014945 -0.847766
vt -0.354789 -0.847766
vt -0.014945 -0.105579
vt -1.227337 0.495791
vt -0.887494 0.480166
vt -0.887494 0.495791
vt -0.014945 -0.351975
vt -0.014945 -0.3676
vt -0.354789 -0.351975
vt 1.227337 0.0
vt 2.099886 -0.847766
vt 1.227337 0.495791
vt 2.099886 -0.351975
vt -1.227337 0.742188
vt -0.354789 -0.105579
vt -1.227337 0.480166
vt -0.354789 -0.3676
vt 0.495791 0.0
vt 0.480166 0.742188
vt 0.480166 0.0
vt 1.352715 -0.847766
vt 1.352715 -0.105579
vt 1.36834 -0.847766
vt 0.495791 0.742188
vt 1.36834 -0.105579
vt 0.5625 0.0
vt 0.0 0.015625
vt 0.0 0.0
vt 0.5625 0.015625
vt 0.5625 0.03125
vt 0.0 0.03125
vt -0.5625 0.015625
vt -0.5625 0.0
vt -1.06615 -3.816969
vt -1.0349 -4.267435
vt -1.0349 -3.816969
vt -1.06615 -4.267435
vt -0.607882 -4.665964
vt -0.014132 -4.248866
vt -0.607882 -4.248866
vt -0.014132 -4.665965
vt 0.5625 0.0
vt 0.0 0.015625
vt 0.0 0.0
vt 0.5625 0.015625
vt 0.5625 0.03125
vt 0.0 0.03125
vt -0.5625 0.015625
vt -0.5625 0.0
vt -1.06615 -3.816969
vt -1.0349 -4.267435
vt -1.0349 -3.816969
vt -1.06615 -4.267435
vt -0.738026 -4.780467
vt -0.52188 -4.304974
vt -0.738026 -4.304974
vt -0.52188 -4.780467
vt -0.750539 -4.304974
vt -0.509367 -4.780467
vt -0.750539 -4.780467
vt -0.509367 -4.304974
vt -0.738026 -4.279948
vt -0.52188 -3.804456
vt -0.738025 -3.804456
vt -0.52188 -4.279948
vn 0.0 0.0 1.0
vn 0.0 0.0 -1.0
vn 1.0 0.0 0.0
vn -1.0 0.0 0.0
vn -1.0 0.0 0.0
vn 1.0 0.0 0.0
vn 0.0 1.0 0.0
vn 1.0 0.0 0.0
vn 0.0 0.0 -1.0
vn -1.0 0.0 0.0
vn 0.0 -1.0 0.0
vn 0.0 0.0 1.0
vn -1.0 0.0 0.0
vn 1.0 0.0 0.0
vn -1.0 0.0 0.0
vn 0.0 0.0 1.0
vn 0.0 0.0 -1.0
vn 1.0 0.0 0.0
vn -1.0 0.0 0.0
vn 1.0 0.0 0.0
vn 0.0 -1.0 0.0
vn 0.0 -0.8660253028382762 -0.5000001748438417
vn 0.0 -0.8660253028382762 0.5000001748438417
vn 0.0 -0.5000001748438417 0.8660253028382762
vn 0.0 0.0 1.0
vn 0.0 -0.5000001748438417 -0.8660253028382762
vn 0.0 0.0 -1.0
vn 0.0 0.5000001748438417 0.8660253028382762
vn 0.0 0.5000001748438417 -0.8660253028382762
vn 0.0 0.8660253028382762 0.5000001748438417
vn 0.0 0.8660253028382762 -0.5000001748438417
vn 0.0 1.0 0.0
vn -1.0 0.0 0.0
vn 0.0 0.0 1.0
vn 0.0 0.0 -1.0
vn 1.0 0.0 0.0
vn -1.0 0.0 0.0
vn 0.0 0.0 1.0
vn 0.0 0.0 -1.0
vn 1.0 0.0 0.0
vn 0.0 0.0 1.0
vn 0.0 1.0 0.0
vn 0.0 -1.0 0.0
vn 0.0 0.0 -1.0
vn 0.0 -1.0 0.0
vn 0.0 0.0 -1.0
vn 1.0 0.0 0.0
vn -1.0 0.0 0.0
vn 0.0 1.0 0.0
vn 0.0 0.0 1.0
vn 1.0 0.0 0.0
vn -1.0 0.0 0.0
vn -1.0 0.0 0.0
vn 0.0 0.0 1.0
vn 0.0 0.0 -1.0
vn 1.0 0.0 0.0
vn 0.0 0.0 -1.0
vn 1.0 0.0 0.0
vn -1.0 0.0 0.0
vn 0.0 0.0 1.0
vn 0.0 1.0 0.0
vn 0.0 -1.0 0.0
vn 0.0 0.0 -1.0
vn 1.0 0.0 0.0
vn -1.0 0.0 0.0
vn 0.0 0.0 1.0
vn 0.0 -1.0 0.0
vn 0.0 1.0 0.0
vn 0.0 0.0 -1.0
vn 0.0 0.0 1.0
vn -1.0 0.0 0.0
vn 0.0 0.0 1.0
vn 0.0 0.0 -1.0
vn 1.0 0.0 0.0
vn 0.0 -1.0 0.0
vn 1.0 0.0 0.0
vn 0.0 0.0 -1.0
vn -1.0 0.0 0.0
vn 0.0 1.0 0.0
vn 0.0 0.0 1.0
vn -1.0 0.0 0.0
vn 0.0 1.0 0.0
vn 0.0 0.0 -1.0
vn 1.0 0.0 0.0
vn 0.0 -1.0 0.0
vn 0.0 0.0 1.0
vn 0.0 -1.0 0.0
vn 0.0 1.0 0.0
vn 0.0 0.0 1.0
vn 0.0 0.0 -1.0
vn -1.0 0.0 0.0
vn 1.0 0.0 0.0
vn -1.0 0.0 0.0
vn 0.0 0.0 1.0
vn 1.0 0.0 0.0
vn 0.0 0.0 -1.0
vn 0.0 0.0 -1.0
vn 0.0 0.0 1.0
vn -1.0 0.0 0.0
vn 0.0 0.0 1.0
vn 1.0 0.0 0.0
vn 0.0 0.0 -1.0
vn -1.0 0.0 0.0
vn 0.0 0.0 1.0
vn 0.0 0.0 -1.0
vn 1.0 0.0 0.0
usemtl base_geom
f 1/1/1 2/2/1 3/3/1
f 2/2/1 1/1/1 4/4/1
f 3//2 2//2 1//2
f 4//2 1//2 2//2
f 5/5/3 6/6/3 7/7/3
f 6/6/3 5/5/3 8/8/3
f 7//4 6//4 5//4
f 8//4 5//4 6//4
f 9/9/5 10/10/5 11/11/5
f 10/10/5 9/9/5 12/12/5
f 11//6 10//6 9//6
f 12//6 9//6 10//6
f 13/13/7 14/14/7 15/15/7
f 14/14/7 13/13/7 16/16/7
f 17/17/8 13/13/8 15/15/8
f 13/13/9 18/18/9 16/16/9
f 18/19/10 14/14/10 16/16/10
f 18/18/9 13/13/9 19/21/9
f 14/14/10 18/19/10 20/22/10
f 15//11 14//11 13//11
f 16//11 13//11 14//11
f 16//12 18//12 13//12
f 16//8 14//8 18//8
f 19//10 17//10 13//10
f 19//12 13//12 18//12
f 20//8 18//8 14//8
f 19//7 18//7 17//7
f 20//7 17//7 18//7
f 17/23/11 18/24/11 19/25/11
f 18/24/11 17/23/11 20/26/11
f 21/27/13 22/28/13 23/29/13
f 22/28/13 21/27/13 24/30/13
f 23//14 22//14 21//14
f 24//14 21//14 22//14
f 26/32/15 25/31/15 28/34/15
f 30/38/17 26/32/17 28/34/17
f 26/32/17 30/38/17 32/40/17
f 29/41/18 30/38/18 31/42/18
f 27//18 26//18 25//18
f 28//18 25//18 26//18
f 28//16 26//16 30//16
f 32//16 30//16 26//16
f 31//15 30//15 29//15
f 32//15 29//15 30//15
f 33//19 34//19 35//19
f 34//19 33//19 36//19
f 34//19 36//19 40//19
f 40//19 36//19 42//19
f 38//20 43//20 39//20
f 40//19 42//19 45//19
f 38//20 41//20 43//20
f 39//20 43//20 44//20
f 45//19 42//19 47//19
f 44//20 43//20 46//20
f 45//19 47//19 49//19
f 44//20 46//20 48//20
f 49//19 47//19 51//19
f 48//20 46//20 50//20
f 48//20 50//20 52//20
f 36//20 33//20 34//20
f 35//21 37//21 34//22
f 33//23 38//23 35//21
f 36//24 39//24 33//23
f 40//20 36//20 34//20
f 41//22 34//22 37//21
f 37//21 35//21 38//23
f 38//23 33//23 39//24
f 36//24 42//25 39//24
f 42//20 36//20 40//20
f 40//26 34//22 43//26
f 41//22 43//26 34//22
f 39//19 43//19 38//19
f 44//25 39//24 42//25
f 45//20 42//20 40//20
f 43//26 46//27 40//26
f 43//19 41//19 38//19
f 42//25 47//28 44//25
f 47//20 42//20 45//20
f 45//27 40//26 46//27
f 46//19 43//19 44//19
f 48//28 44//25 47//28
f 49//20 47//20 45//20
f 46//27 50//29 45//27
f 48//19 46//19 44//19
f 47//28 51//30 48//28
f 51//20 47//20 49//20
f 49//29 45//27 50//29
f 52//30 48//28 51//30
f 53//20 51//20 49//20
f 49//29 50//29 53//31
f 52//19 50//19 48//19
f 52//30 51//30 54//32
f 56//31 53//31 50//29
f 56//19 50//19 52//19
f 55//32 54//32 51//30
f 53//31 56//31 55//32
f 54//32 55//32 56//31
f 34/43/30 37/44/32 35/45/32
f 35/45/32 38/46/31 33/43/31
f 33/43/31 39/47/29 36/48/29
f 37/44/32 34/43/30 41/46/30
f 38/46/31 35/45/32 37/44/32
f 39/47/29 33/43/31 38/46/31
f 39/47/29 42/49/27 36/48/29
f 43/47/28 34/43/30 40/48/28
f 34/43/30 43/47/28 41/46/30
f 42/49/27 39/47/29 44/50/27
f 40/48/28 46/50/25 43/47/28
f 44/50/27 47/51/26 42/49/27
f 46/50/25 40/48/28 45/49/25
f 47/51/26 44/50/27 48/52/26
f 45/49/25 50/52/24 46/50/25
f 48/52/26 51/53/22 47/51/26
f 50/52/24 45/49/25 49/51/24
f 51/53/22 48/52/26 52/54/22
f 53/53/23 50/52/24 49/51/24
f 54/55/21 51/53/22 52/54/22
f 50/52/24 53/53/23 56/54/23
f 51/53/22 54/55/21 55/56/21
f 55/56/21 56/54/23 53/53/23
f 56/54/23 55/56/21 54/55/21
f 57/57/33 58/58/33 59/59/33
f 61/61/34 57/57/34 59/59/34
f 57/57/34 61/61/34 63/63/34
f 61/65/36 62/66/36 63/67/36
f 59//36 58//36 57//36
f 60//36 57//36 58//36
f 59//35 57//35 61//35
f 63//35 61//35 57//35
f 63//33 62//33 61//33
f 65/69/37 66/70/37 67/71/37
f 66/70/37 65/69/37 68/72/37
f 69/73/38 65/74/38 67/75/38
f 70/76/39 66/70/39 68/72/39
f 65/74/38 69/73/38 71/77/38
f 66/70/39 70/76/39 72/78/39
f 69/79/40 70/76/40 71/80/40
f 70/76/40 69/79/40 72/78/40
f 67//40 66//40 65//40
f 68//40 65//40 66//40
f 67//39 65//39 69//39
f 68//38 66//38 70//38
f 71//39 69//39 65//39
f 72//38 70//38 66//38
f 71//37 70//37 69//37
f 72//37 69//37 70//37
f 73/81/41 74/82/41 75/83/41
f 74/82/41 73/81/41 76/84/41
f 77/85/42 73/84/42 75/82/42
f 73/84/42 77/85/42 79/87/42
f 75//44 74//44 73//44
f 76//44 73//44 74//44
f 75//43 73//43 77//43
f 79//43 77//43 73//43
f 81//45 82//45 83//45
f 82//45 81//45 84//45
f 83//47 86//47 81//47
f 87//48 82//48 84//48
f 85//47 89//47 83//47
f 83//47 90//47 86//47
f 91//48 82//48 87//48
f 92//48 88//48 82//48
f 89//47 85//47 94//47
f 83//47 89//47 90//47
f 92//48 82//48 91//48
f 88//48 92//48 93//48
f 85//49 93//49 94//49
f 83//49 82//49 81//49
f 84//49 81//49 82//49
f 81//48 86//48 83//48
f 83//48 89//48 85//48
f 86//48 90//48 83//48
f 87//47 82//47 91//47
f 88//45 85//45 93//45
f 94//48 85//48 89//48
f 90//48 89//48 83//48
f 91//47 82//47 92//47
f 93//47 92//47 88//47
f 94//45 93//45 85//45
f 96/92/51 95/91/51 98/94/51
f 98//52 95//52 96//52
f 99/95/53 100/96/53 101/97/53
f 100/96/53 99/95/53 102/98/53
f 103/99/54 99/100/54 101/101/54
f 104/102/55 100/96/55 102/98/55
f 99/100/54 103/99/54 105/103/54
f 100/96/55 104/102/55 106/104/55
f 103/105/56 104/102/56 105/106/56
f 101//56 100//56 99//56
f 102//56 99//56 100//56
f 101//55 99//55 103//55
f 102//54 100//54 104//54
f 105//55 103//55 99//55
f 106//54 104//54 100//54
f 105//53 104//53 103//53
f 106//53 103//53 104//53
f 108/108/57 107/107/57 110/110/57
f 108/108/58 111/111/58 109/109/58
f 107/107/59 112/112/59 110/110/59
f 111/111/58 108/108/58 113/113/58
f 112/112/59 107/107/59 114/114/59
f 109//60 108//60 107//60
f 110//60 107//60 108//60
f 109//59 111//59 108//59
f 109//61 107//61 111//61
f 110//58 112//58 107//58
f 114//61 111//61 107//61
f 114//58 107//58 112//58
f 113//57 111//57 112//57
f 114//57 112//57 111//57
f 111/115/62 107/116/62 109/117/62
f 107/116/62 111/115/62 114/118/62
f 112/121/60 111/115/60 113/122/60
f 111/115/60 112/121/60 114/118/60
f 115/123/63 116/124/63 117/125/63
f 115/123/64 118/126/64 116/124/64
f 119/127/63 117/125/63 116/124/63
f 119/127/65 121/129/65 117/125/65
f 122/130/65 117/125/65 121/129/65
f 117//66 116//66 115//66
f 116//66 117//66 119//66
f 118//67 117//67 115//67
f 118//65 116//65 120//65
f 117//64 121//64 119//64
f 121//68 116//68 119//68
f 117//67 118//67 122//67
f 116//68 121//68 120//68
f 121//63 118//63 120//63
f 121//64 117//64 122//64
f 118//63 121//63 122//63
f 115/131/68 117/132/68 118/133/68
f 119/134/67 116/135/67 121/136/67
f 122/136/68 118/133/68 117/132/68
f 120/133/67 121/136/67 116/135/67
f 120/137/66 118/133/66 121/138/66
f 122/136/66 121/138/66 118/133/66
f 123/139/69 124/140/69 125/141/69
f 125/141/70 124/140/70 123/139/70
f 123/139/70 125/141/70 124/140/70
f 126/142/69 125/141/69 124/140/69
f 124/140/70 125/141/70 126/142/70
f 126/142/70 124/140/70 125/141/70
f 125/141/69 124/140/69 126/142/69
f 127/143/71 128/144/71 129/145/71
f 128/144/71 127/143/71 130/146/71
f 131/147/72 127/143/72 129/145/72
f 127/143/72 131/147/72 133/149/72
f 131/151/74 132/152/74 133/153/74
f 129//74 128//74 127//74
f 130//74 127//74 128//74
f 129//73 127//73 131//73
f 133//73 131//73 127//73
f 133//71 132//71 131//71
f 135/155/75 136/156/75 137/157/75
f 138/158/75 137/157/75 136/156/75
f 135/155/76 137/157/76 139/159/76
f 138/158/77 140/160/77 137/157/77
f 138/158/78 136/156/78 140/161/78
f 141/162/76 139/159/76 137/157/76
f 141/163/77 137/157/77 140/160/77
f 137//79 136//79 135//79
f 136//79 137//79 138//79
f 139//78 137//78 135//78
f 137//80 140//80 138//80
f 140//76 136//76 138//76
f 137//78 139//78 141//78
f 140//80 137//80 141//80
f 136//76 140//76 142//76
f 139//75 140//75 141//75
f 140//75 139//75 142//75
f 141/165/79 140/166/79 139/167/79
f 142/168/79 139/167/79 140/166/79
f 143//81 144//81 145//81
f 144//81 143//81 146//81
f 145//82 147//82 143//82
f 144//81 146//81 148//81
f 147//82 145//82 149//82
f 148//81 146//81 151//81
f 152//84 147//84 149//84
f 153//85 146//85 150//85
f 151//81 146//81 154//81
f 150//84 152//84 155//84
f 146//85 153//85 154//85
f 150//84 155//84 156//84
f 145//84 144//84 143//84
f 146//84 143//84 144//84
f 143//85 147//85 145//85
f 148//84 146//84 144//84
f 149//85 145//85 147//85
f 151//84 146//84 148//84
f 150//81 152//81 147//81
f 150//82 146//82 153//82
f 154//84 146//84 151//84
f 155//81 152//81 150//81
f 154//82 153//82 146//82
f 153//81 156//81 150//81
f 156//81 155//81 150//81
f 157/169/87 158/170/87 159/171/87
f 158/170/87 157/169/87 160/172/87
f 159/173/88 158/174/88 157/175/88
f 160/176/88 157/175/88 158/174/88
f 158/177/89 161/178/89 159/179/89
f 159/180/90 161/181/90 158/182/90
f 161/183/91 157/184/91 159/185/91
f 159/186/92 157/187/92 161/188/92
f 162/195/92 158/196/92 160/197/92
f 160/198/91 158/199/91 162/200/91
f 161/178/89 158/177/89 163/201/89
f 163/202/90 158/182/90 161/181/90
f 157/184/91 161/183/91 164/203/91
f 164/204/92 161/188/92 157/187/92
f 158/196/92 162/195/92 163/207/92
f 163/208/91 162/200/91 158/199/91
f 162/209/88 161/210/88 163/211/88
f 163/212/87 161/213/87 162/214/87
f 161/210/88 162/209/88 164/215/88
f 164/216/87 162/214/87 161/213/87
f 166/218/93 165/217/93 168/220/93
f 169/219/94 165/221/94 167/222/94
f 165/221/94 169/219/94 171/217/94
f 170/223/95 169/219/95 172/218/95
f 167//95 166//95 165//95
f 168//95 165//95 166//95
f 167//96 165//96 169//96
f 168//94 166//94 170//94
f 171//96 169//96 165//96
f 172//94 170//94 166//94
f 171//93 170//93 169//93
f 172//93 169//93 170//93
f 170/225/96 166/226/96 168/227/96
f 166/226/96 170/225/96 172/228/96
f 173/229/97 174/230/97 175/231/97
f 174/230/97 173/229/97 176/232/97
f 175//98 174//98 173//98
f 176//98 173//98 174//98
f 177/233/99 178/234/99 179/235/99
f 178/234/99 177/233/99 180/236/99
f 181/235/100 177/237/100 179/238/100
f 177/237/100 181/235/100 183/233/100
f 181/235/101 182/239/101 183/240/101
f 179//101 178//101 177//101
f 180//101 177//101 178//101
f 179//102 177//102 181//102
f 180//100 178//100 182//100
f 183//102 181//102 177//102
f 184//100 182//100 178//100
f 183//99 182//99 181//99
f 184//99 181//99 182//99
f 182/241/102 178/242/102 180/243/102
f 178/242/102 182/241/102 184/244/102
f 185/245/103 186/246/103 187/247/103
f 186/246/103 185/245/103 188/248/103
f 185/245/104 189/249/104 191/251/104
f 189/253/106 190/254/106 191/255/106
f 187//106 186//106 185//106
f 188//106 185//106 186//106
f 187//105 185//105 189//105
f 191//105 189//105 185//105
f 191//103 190//103 189//103
