# Merged(arrow/base_geom)

v -0.69006 0.659678 -0.260838
v -0.69006 -0.645379 -0.283734
v -0.69006 -0.645379 -0.260838
v -0.69006 0.659678 -0.283734
v -0.552686 -0.645379 -0.260838
v -0.552686 0.659678 -0.283734
v -0.552686 0.659678 -0.260838
v -0.552686 -0.645379 -0.283734
v -0.239778 0.659678 0.23142
v -0.239778 -0.645379 -0.243666
v -0.239778 -0.645379 0.23142
v -0.239778 0.659678 -0.243666
v -0.205434 -0.645379 0.23142
v -0.205434 0.659678 -0.243666
v -0.205434 0.659678 0.23142
v -0.205434 -0.645379 -0.243666
v 0.683684 0.694021 0.23142
v 0.683684 0.625334 0.23142
v -0.69006 0.694021 0.23142
v 0.683684 0.694021 0.265764
v -0.69006 0.625334 0.23142
v 0.683684 0.625334 0.265764
v -0.69006 0.625334 0.265764
v -0.69006 0.694021 0.265764
v -0.644269 0.659678 -0.243666
v 0.637892 -0.645379 -0.243666
v 0.637892 0.659678 -0.243666
v -0.644269 -0.645379 -0.243666
v 0.199057 0.659678 0.23142
v 0.199057 -0.645379 -0.243666
v 0.199057 -0.645379 0.23142
v 0.199057 0.659678 -0.243666
v 0.233401 -0.645379 0.23142
v 0.233401 0.659678 -0.243666
v 0.233401 0.659678 0.23142
v 0.233401 -0.645379 -0.243666
v -0.644269 -0.645379 -0.260838
v 0.637892 0.659678 -0.260838
v 0.637892 -0.645379 -0.260838
v -0.644269 0.659678 -0.260838
v 0.683684 -0.645379 -0.283734
v -0.69006 -0.645379 0.23142
v 0.683684 -0.645379 0.23142
v -0.69006 -0.645379 -0.283734
v 0.683684 -0.668275 0.23142
v -0.69006 -0.668275 -0.283734
v 0.683684 -0.668275 -0.283734
v -0.69006 -0.668275 0.23142
v 0.546309 0.659678 -0.260838
v 0.546309 -0.645379 -0.283734
v 0.546309 -0.645379 -0.260838
v 0.546309 0.659678 -0.283734
v 0.683684 -0.645379 -0.260838
v 0.683684 0.659678 -0.283734
v 0.683684 0.659678 -0.260838
v 0.683684 -0.645379 -0.283734
v 0.018276 -0.591296 0.3552
v 0.018276 -0.591296 0.368079
v 0.018276 -0.589571 0.36164
v 0.018276 -0.59601 0.350486
v 0.537723 -0.589571 0.36164
v 0.537723 -0.591296 0.3552
v 0.537723 -0.59601 0.350486
v 0.018276 -0.59601 0.372793
v 0.537723 -0.591296 0.368079
v 0.018276 -0.602449 0.348761
v 0.537723 -0.59601 0.372793
v 0.537723 -0.602449 0.348761
v 0.018276 -0.602449 0.374519
v 0.537723 -0.602449 0.374519
v 0.018276 -0.608889 0.350486
v 0.537723 -0.608889 0.350486
v 0.018276 -0.608889 0.372793
v 0.537723 -0.608889 0.372793
v 0.018276 -0.613603 0.3552
v 0.537723 -0.613603 0.3552
v 0.018276 -0.613603 0.368079
v 0.537723 -0.615328 0.36164
v 0.018276 -0.615328 0.36164
v 0.537723 -0.613603 0.368079
v -0.69006 -0.679723 0.23142
v 0.683684 -0.611035 0.23142
v 0.683684 -0.679723 0.23142
v -0.69006 -0.611035 0.23142
v 0.683684 -0.679723 0.265764
v -0.69006 -0.611035 0.265764
v 0.683684 -0.611035 0.265764
v -0.69006 -0.679723 0.265764
v -0.071876 0.659678 -0.260838
v -0.071876 -0.645379 -0.283734
v -0.071876 -0.645379 -0.260838
v -0.071876 0.659678 -0.283734
v 0.065499 -0.645379 -0.260838
v 0.065499 0.659678 -0.283734
v 0.065499 0.659678 -0.260838
v 0.065499 -0.645379 -0.283734
v 0.637892 0.659678 0.23142
v 0.637892 -0.645379 -0.260838
v 0.637892 -0.645379 0.23142
v 0.637892 0.659678 -0.260838
v 0.683684 0.659678 0.23142
v -0.69006 0.659678 0.23142
v 0.683684 0.659678 -0.283734
v -0.69006 0.659678 -0.283734
v 0.683684 0.682574 0.23142
v -0.69006 0.682574 -0.283734
v 0.683684 0.682574 -0.283734
v -0.69006 0.682574 0.23142
v 0.248665 -0.233256 -0.260838
v 0.248665 -0.645379 -0.260838
v 0.122967 -0.233256 -0.260838
v 0.122967 -0.645379 -0.260838
v -0.644269 0.659678 -0.260838
v -0.644269 -0.645379 0.23142
v -0.644269 -0.645379 -0.260838
v -0.644269 0.659678 0.23142
v 0.614997 0.625334 0.265764
v 0.614997 -0.611035 0.23142
v 0.614997 -0.611035 0.265764
v 0.614997 0.625334 0.23142
v 0.683684 -0.611035 0.265764
v 0.683684 0.625334 0.23142
v 0.683684 0.625334 0.265764
v 0.683684 -0.611035 0.23142
v 0.537723 -0.612142 0.35374
v 0.495903 -0.612142 0.300108
v 0.537723 -0.612142 0.300108
v 0.495903 -0.612142 0.35374
v 0.537723 -0.592757 0.300108
v 0.537723 -0.608889 0.350486
v 0.495903 -0.608889 0.350486
v 0.495903 -0.592757 0.300108
v 0.537723 -0.59601 0.350486
v 0.537723 -0.602449 0.348761
v 0.495903 -0.602449 0.348761
v 0.495903 -0.59601 0.350486
v 0.495903 -0.592757 0.35374
v 0.537723 -0.592757 0.35374
v 0.018276 -0.592757 0.300108
v 0.018276 -0.59601 0.350486
v 0.018276 -0.592757 0.35374
v 0.018276 -0.612142 0.300108
v 0.060097 -0.592757 0.300108
v 0.018276 -0.602449 0.348761
v 0.060097 -0.592757 0.35374
v 0.060097 -0.612142 0.300108
v 0.018276 -0.608889 0.350486
v 0.060097 -0.59601 0.350486
v 0.060097 -0.612142 0.35374
v 0.018276 -0.612142 0.35374
v 0.060097 -0.602449 0.348761
v 0.060097 -0.608889 0.350486
v -0.667165 0.659678 0.23142
v -0.667165 -0.645379 -0.260838
v -0.667165 -0.645379 0.23142
v -0.667165 0.659678 -0.260838
v -0.621373 0.442168 0.265764
v 0.614997 0.075837 0.265764
v 0.614997 0.442168 0.265764
v -0.621373 0.075837 0.265764
v 0.614997 0.442168 0.23142
v -0.621373 0.075837 0.23142
v -0.621373 0.442168 0.23142
v 0.614997 0.075837 0.23142
v -0.681475 -0.671137 0.265764
v 0.675098 -0.671137 0.300108
v -0.681475 -0.671137 0.300108
v 0.675098 -0.671137 0.265764
v -0.681475 0.135938 0.300108
v 0.675098 0.135938 0.265764
v 0.675098 0.135938 0.300108
v -0.681475 0.135938 0.265764
v 0.660788 0.659678 -0.260838
v 0.660788 -0.645379 0.23142
v 0.660788 -0.645379 -0.260838
v 0.660788 0.659678 0.23142
v -0.69006 0.625334 0.265764
v -0.69006 -0.611035 0.23142
v -0.69006 -0.611035 0.265764
v -0.69006 0.625334 0.23142
v -0.621373 -0.611035 0.265764
v -0.621373 0.625334 0.23142
v -0.621373 0.625334 0.265764
v -0.621373 -0.611035 0.23142
vt -0.734277 -0.213443
vt -0.744693 -0.807193
vt -0.734277 -0.807193
vt -0.744693 -0.213443
vt -0.807193 -0.838443
vt -0.744693 -1.432193
vt -0.744693 -0.838443
vt -0.807193 -0.213443
vt -0.807193 -1.432193
vt -0.807193 -0.807193
vt -0.81761 -0.807193
vt -0.81761 -0.213443
vt -0.738026 -4.780467
vt -0.52188 -4.304974
vt -0.738026 -4.304974
vt -0.52188 -4.780467
vt -0.750539 -4.304974
vt -0.509367 -4.780467
vt -0.750539 -4.780467
vt -0.509367 -4.304974
vt -0.738026 -4.279948
vt -0.52188 -3.804456
vt -0.738025 -3.804456
vt -0.52188 -4.279948
vt -1.41005 -3.32276
vt -1.4413 -3.32276
vt -1.41005 -3.773227
vt -1.41005 -3.307135
vt -1.4413 -3.773227
vt -1.4413 -3.307135
vt -1.4413 -3.788852
vt -1.41005 -3.788852
vt -0.015625 0.0
vt -0.015625 0.5625
vt 0.0 0.0
vt 0.015625 0.5625
vt 0.015625 0.0
vt 0.0 0.5625
vt 0.03125 0.0
vt 0.03125 0.5625
vt -1.232882 -4.665964
vt -0.639132 -4.248866
vt -1.232882 -4.248866
vt -0.639132 -4.665964
vt -0.738026 -4.780467
vt -0.52188 -4.304974
vt -0.738026 -4.304974
vt -0.52188 -4.780467
vt -0.750539 -4.304974
vt -0.509367 -4.780467
vt -0.750539 -4.780467
vt -0.509367 -4.304974
vt -0.738026 -4.279948
vt -0.52188 -3.804456
vt -0.738025 -3.804456
vt -0.52188 -4.279948
vt -0.607882 -4.665964
vt -0.014132 -4.248866
vt -0.607882 -4.248866
vt -0.014132 -4.665965
vt -1.66005 -3.210727
vt -1.894425 -3.773227
vt -1.894425 -3.210727
vt -1.66005 -3.773227
vt -1.894425 -3.20031
vt -1.649633 -3.773227
vt -1.66005 -3.783644
vt -1.66005 -3.20031
vt -1.649633 -3.210727
vt -1.894425 -3.783644
vt 0.0 0.0
vt -0.234375 0.5625
vt -0.234375 0.0
vt 0.0 0.5625
vt -0.734277 -0.213443
vt -0.744693 -0.807193
vt -0.734277 -0.807193
vt -0.744693 -0.213443
vt -0.807193 -0.838443
vt -0.744693 -1.432193
vt -0.744693 -0.838443
vt -0.807193 -0.213443
vt -0.807193 -1.432193
vt -0.807193 -0.807193
vt -0.81761 -0.807193
vt -0.81761 -0.213443
vt -0.351314 9.471887
vt -0.332661 -0.625198
vt -0.329728 9.47188
vt -0.354248 -0.625191
vt -0.413223 -0.625174
vt -0.410289 9.471904
vt -0.490851 9.471928
vt -0.493785 -0.625151
vt -0.571413 9.471951
vt -0.574347 -0.625127
vt -0.630388 9.471969
vt -0.633322 -0.62511
vt -0.654909 -0.625104
vt -0.651975 9.471975
vt -1.41005 -3.773227
vt -1.4413 -3.32276
vt -1.41005 -3.32276
vt -1.4413 -3.773227
vt -1.41005 -3.307135
vt -1.4413 -3.788852
vt -1.4413 -3.307135
vt -1.41005 -3.788852
vt 0.0 0.0
vt -0.015625 0.5625
vt -0.015625 0.0
vt 0.0 0.5625
vt 0.015625 0.0
vt 0.015625 0.5625
vt 0.03125 0.5625
vt 0.03125 0.0
vt -0.734277 -0.213443
vt -0.744693 -0.807193
vt -0.734277 -0.807193
vt -0.744693 -0.213443
vt -0.807193 -0.838443
vt -0.744693 -1.432193
vt -0.744693 -0.838443
vt -0.807193 -0.213443
vt -0.807193 -1.432193
vt -0.807193 -0.807193
vt -0.81761 -0.807193
vt -0.81761 -0.213443
vt -0.738026 -4.780467
vt -0.514067 -4.304974
vt -0.738026 -4.304974
vt -0.514067 -4.780467
vt -1.894425 -3.210727
vt -1.894425 -3.773227
vt -1.66005 -3.210727
vt -1.66005 -3.773227
vt -1.894425 -3.20031
vt -1.649633 -3.773227
vt -1.66005 -3.783644
vt -1.66005 -3.20031
vt -1.649633 -3.210727
vt -1.894425 -3.783644
vt -0.234375 0.0
vt -0.234375 0.5625
vt 0.0 0.0
vt 0.0 0.5625
vt 0.0 0.0
vt 1.0 0.0
vt 0.0 1.0
vt 1.0 1.0
vt -0.514067 -3.804456
vt -0.738026 -4.279948
vt -0.514067 -4.279948
vt -0.738025 -3.804456
vt 0.5625 0.0
vt 0.0 0.015625
vt 0.0 0.0
vt 0.5625 0.015625
vt 0.5625 0.03125
vt 0.0 0.03125
vt -0.5625 0.015625
vt -0.5625 0.0
vt -1.06615 -3.816969
vt -1.0349 -4.267435
vt -1.0349 -3.816969
vt -1.06615 -4.267435
vt -0.738026 -4.780467
vt -0.514067 -4.304974
vt -0.738026 -4.304974
vt -0.514067 -4.780467
vt 0.0625 0.5
vt 0.0 0.0
vt 0.0625 0.0
vt 0.0 0.5
vt 0.015625 0.0
vt -0.015625 0.5
vt 0.015625 0.5
vt -0.015625 0.0
vt -0.0625 0.0
vt -0.0625 0.5
vt -0.495791 0.742188
vt -0.480166 0.0
vt -0.480166 0.742188
vt -0.495791 0.0
vt 0.392383 -0.105579
vt 0.392383 -0.847766
vt 0.376758 -0.105579
vt 0.376758 -0.847766
vt 0.887494 0.0
vt 1.227337 0.742188
vt 0.887494 0.742188
vt 1.760043 -0.105579
vt 2.099886 -0.105579
vt 1.760043 -0.847766
vt 1.227337 0.480166
vt 0.887494 0.495791
vt 0.887494 0.480166
vt 1.760043 -0.3676
vt 1.760043 -0.351975
vt 2.099886 -0.3676
vt -0.887494 0.742188
vt -1.227337 0.0
vt -0.887494 0.0
vt -0.014945 -0.847766
vt -0.354789 -0.847766
vt -0.014945 -0.105579
vt -1.227337 0.495791
vt -0.887494 0.480166
vt -0.887494 0.495791
vt -0.014945 -0.351975
vt -0.014945 -0.3676
vt -0.354789 -0.351975
vt 1.227337 0.0
vt 2.099886 -0.847766
vt 1.227337 0.495791
vt 2.099886 -0.351975
vt -1.227337 0.742188
vt -0.354789 -0.105579
vt -1.227337 0.480166
vt -0.354789 -0.3676
vt 0.495791 0.0
vt 0.480166 0.742188
vt 0.480166 0.0
vt 1.352715 -0.847766
vt 1.352715 -0.105579
vt 1.36834 -0.847766
vt 0.495791 0.742188
vt 1.36834 -0.105579
vt -0.514067 -3.804456
vt -0.738026 -4.279948
vt -0.514067 -4.279948
vt -0.738025 -3.804456
vt 0.5625 0.0
vt 0.0 0.015625
vt 0.0 0.0
vt 0.5625 0.015625
vt 0.5625 0.03125
vt 0.0 0.03125
vt -0.5625 0.015625
vt -0.5625 0.0
vt -1.06615 -3.816969
vt -1.0349 -4.267435
vt -1.0349 -3.816969
vt -1.06615 -4.267435
vn -1.0 0.0 0.0
vn 0.0 0.0 1.0
vn 0.0 0.0 -1.0
vn 1.0 0.0 0.0
vn -1.0 0.0 0.0
vn 0.0 0.0 1.0
vn 0.0 0.0 -1.0
vn 1.0 0.0 0.0
vn 0.0 0.0 -1.0
vn 1.0 0.0 0.0
vn -1.0 0.0 0.0
vn 0.0 0.0 1.0
vn 0.0 -1.0 0.0
vn 0.0 1.0 0.0
vn 0.0 0.0 1.0
vn 0.0 0.0 -1.0
vn -1.0 0.0 0.0
vn 0.0 0.0 1.0
vn 0.0 0.0 -1.0
vn 1.0 0.0 0.0
vn 0.0 0.0 -1.0
vn 0.0 0.0 1.0
vn 0.0 1.0 0.0
vn 1.0 0.0 0.0
vn 0.0 0.0 -1.0
vn -1.0 0.0 0.0
vn 0.0 -1.0 0.0
vn 0.0 0.0 1.0
vn -1.0 0.0 0.0
vn 0.0 0.0 1.0
vn 0.0 0.0 -1.0
vn 1.0 0.0 0.0
vn -1.0 0.0 0.0
vn 1.0 0.0 0.0
vn 0.0 -1.0 0.0
vn 0.0 -0.8660253028382761 -0.5000001748438416
vn 0.0 -0.8660253028382761 0.5000001748438416
vn 0.0 -0.5000001748438416 0.8660253028382761
vn 0.0 0.0 1.0
vn 0.0 -0.5000001748438416 -0.8660253028382761
vn 0.0 0.0 -1.0
vn 0.0 0.5000001748438416 0.8660253028382761
vn 0.0 0.5000001748438416 -0.8660253028382761
vn 0.0 0.8660253028382761 0.5000001748438416
vn 0.0 0.8660253028382761 -0.5000001748438416
vn 0.0 1.0 0.0
vn 0.0 0.0 -1.0
vn 1.0 0.0 0.0
vn -1.0 0.0 0.0
vn 0.0 0.0 1.0
vn 0.0 1.0 0.0
vn 0.0 -1.0 0.0
vn -1.0 0.0 0.0
vn 0.0 0.0 1.0
vn 0.0 0.0 -1.0
vn 1.0 0.0 0.0
vn -1.0 0.0 0.0
vn 1.0 0.0 0.0
vn 0.0 -1.0 0.0
vn 1.0 0.0 0.0
vn 0.0 0.0 -1.0
vn -1.0 0.0 0.0
vn 0.0 1.0 0.0
vn 0.0 0.0 1.0
vn 0.0 0.0 -1.0
vn 0.0 0.0 1.0
vn 1.0 0.0 0.0
vn -1.0 0.0 0.0
vn -1.0 0.0 0.0
vn 0.0 0.0 1.0
vn 1.0 0.0 0.0
vn 0.0 0.0 -1.0
vn 0.0 -1.0 0.0
vn 0.0 0.0 -1.0
vn 1.0 0.0 0.0
vn -1.0 0.0 0.0
vn 0.0 1.0 0.0
vn 0.0 0.0 1.0
vn -1.0 0.0 0.0
vn 0.0 1.0 0.0
vn 0.0 0.0 -1.0
vn 1.0 0.0 0.0
vn 0.0 -1.0 0.0
vn 0.0 0.0 1.0
vn -1.0 0.0 0.0
vn 1.0 0.0 0.0
vn 0.0 0.0 1.0
vn 0.0 1.0 0.0
vn 0.0 -1.0 0.0
vn 0.0 0.0 -1.0
vn 0.0 -1.0 0.0
vn 0.0 1.0 0.0
vn 0.0 0.0 1.0
vn 0.0 0.0 -1.0
vn -1.0 0.0 0.0
vn 1.0 0.0 0.0
vn 1.0 0.0 0.0
vn -1.0 0.0 0.0
vn -1.0 0.0 0.0
vn 0.0 0.0 1.0
vn 1.0 0.0 0.0
vn 0.0 0.0 -1.0
usemtl base_geom
f 1/1/1 2/2/1 3/3/1
f 2/2/1 1/1/1 4/4/1
f 5/5/2 1/6/2 3/7/2
f 6/8/3 2/2/3 4/4/3
# UNHIT_FACE f 1/6/2 5/5/2 7/9/2
f 2/2/3 6/8/3 8/10/3
f 5/11/4 6/8/4 7/12/4
# UNHIT_FACE f 6/8/4 5/11/4 8/10/4
f 3//4 2//4 1//4
f 4//4 1//4 2//4
f 3//3 1//3 5//3
f 4//2 2//2 6//2
f 7//3 5//3 1//3
f 8//2 6//2 2//2
f 7//1 6//1 5//1
f 8//1 5//1 6//1
f 9/13/5 10/14/5 11/15/5
f 10/14/5 9/13/5 12/16/5
f 13/17/6 9/13/6 11/15/6
# UNHIT_FACE f 14/18/7 10/14/7 12/16/7
f 9/13/6 13/17/6 15/19/6
# UNHIT_FACE f 10/14/7 14/18/7 16/20/7
f 13/21/8 14/22/8 15/23/8
# UNHIT_FACE f 14/22/8 13/21/8 16/24/8
f 11//8 10//8 9//8
f 12//8 9//8 10//8
# UNHIT_FACE f 11//7 9//7 13//7
# UNHIT_FACE f 12//6 10//6 14//6
f 15//7 13//7 9//7
# UNHIT_FACE f 16//6 14//6 10//6
f 15//5 14//5 13//5
# UNHIT_FACE f 16//5 13//5 14//5
f 17/25/9 18/26/9 19/27/9
f 17/25/10 20/28/10 18/26/10
f 21/29/9 19/27/9 18/26/9
f 22/30/10 18/26/10 20/28/10
f 21/29/11 23/31/11 19/27/11
f 24/32/11 19/27/11 23/31/11
f 19//12 18//12 17//12
f 18//11 20//11 17//11
f 18//12 19//12 21//12
f 20//13 19//13 17//13
f 20//11 18//11 22//11
f 19//10 23//10 21//10
f 23//14 18//14 21//14
f 19//13 20//13 24//13
f 18//14 23//14 22//14
f 23//9 20//9 22//9
f 23//10 19//10 24//10
f 20//9 23//9 24//9
f 17/33/14 19/34/14 20/35/14
f 21/36/13 18/37/13 23/38/13
f 24/38/14 20/35/14 19/34/14
f 22/35/13 23/38/13 18/37/13
f 22/39/12 20/35/12 23/40/12
f 24/38/12 23/40/12 20/35/12
f 25/41/15 26/42/15 27/43/15
f 26/42/15 25/41/15 28/44/15
f 27//16 26//16 25//16
f 28//16 25//16 26//16
f 29/45/17 30/46/17 31/47/17
f 30/46/17 29/45/17 32/48/17
f 33/49/18 29/45/18 31/47/18
# UNHIT_FACE f 34/50/19 30/46/19 32/48/19
f 29/45/18 33/49/18 35/51/18
# UNHIT_FACE f 30/46/19 34/50/19 36/52/19
f 33/53/20 34/54/20 35/55/20
# UNHIT_FACE f 34/54/20 33/53/20 36/56/20
f 31//20 30//20 29//20
f 32//20 29//20 30//20
f 31//19 29//19 33//19
# UNHIT_FACE f 32//18 30//18 34//18
f 35//19 33//19 29//19
# UNHIT_FACE f 36//18 34//18 30//18
f 35//17 34//17 33//17
# UNHIT_FACE f 36//17 33//17 34//17
f 37/57/21 38/58/21 39/59/21
f 38/58/21 37/57/21 40/60/21
f 39//22 38//22 37//22
f 40//22 37//22 38//22
# UNHIT_FACE f 41/61/23 42/62/23 43/63/23
f 42/62/23 41/61/23 44/64/23
f 45/65/24 41/61/24 43/63/24
f 41/61/25 46/66/25 44/64/25
f 46/67/26 42/62/26 44/64/26
f 41/61/24 45/65/24 47/68/24
f 46/66/25 41/61/25 47/69/25
f 42/62/26 46/67/26 48/70/26
f 43//27 42//27 41//27
f 44//27 41//27 42//27
f 43//26 41//26 45//26
f 44//28 46//28 41//28
f 44//24 42//24 46//24
f 47//26 45//26 41//26
f 47//28 41//28 46//28
f 48//24 46//24 42//24
f 47//23 46//23 45//23
f 48//23 45//23 46//23
f 45/71/27 46/72/27 47/73/27
f 46/72/27 45/71/27 48/74/27
f 49/75/29 50/76/29 51/77/29
f 50/76/29 49/75/29 52/78/29
f 53/79/30 49/80/30 51/81/30
f 54/82/31 50/76/31 52/78/31
f 49/80/30 53/79/30 55/83/30
f 50/76/31 54/82/31 56/84/31
f 53/85/32 54/82/32 55/86/32
f 54/82/32 53/85/32 56/84/32
f 51//32 50//32 49//32
f 52//32 49//32 50//32
f 51//31 49//31 53//31
f 52//30 50//30 54//30
f 55//31 53//31 49//31
f 56//30 54//30 50//30
f 55//29 54//29 53//29
f 56//29 53//29 54//29
f 57//33 58//33 59//33
# UNHIT_FACE f 58//33 57//33 60//33
# UNHIT_FACE f 58//33 60//33 64//33
f 64//33 60//33 66//33
f 65//34 62//34 61//34
# UNHIT_FACE f 62//34 67//34 63//34
f 64//33 66//33 69//33
# UNHIT_FACE f 62//34 65//34 67//34
f 63//34 67//34 68//34
# UNHIT_FACE f 69//33 66//33 71//33
f 68//34 67//34 70//34
f 69//33 71//33 73//33
f 68//34 70//34 72//34
f 73//33 71//33 75//33
f 72//34 70//34 74//34
# UNHIT_FACE f 73//33 75//33 77//33
f 72//34 74//34 76//34
# UNHIT_FACE f 77//33 75//33 79//33
# UNHIT_FACE f 76//34 74//34 80//34
# UNHIT_FACE f 76//34 80//34 78//34
f 59//34 58//34 57//34
# UNHIT_FACE f 60//34 57//34 58//34
f 59//35 61//35 58//36
f 57//37 62//37 59//35
f 60//38 63//38 57//37
# UNHIT_FACE f 64//34 60//34 58//34
f 65//36 58//36 61//35
f 61//35 59//35 62//37
f 62//37 57//37 63//38
f 60//38 66//39 63//38
f 66//34 60//34 64//34
f 64//40 58//36 67//40
f 65//36 67//40 58//36
# UNHIT_FACE f 61//33 62//33 65//33
f 63//33 67//33 62//33
f 68//39 63//38 66//39
f 69//34 66//34 64//34
f 67//40 70//41 64//40
f 67//33 65//33 62//33
f 68//33 67//33 63//33
f 66//39 71//42 68//39
f 71//34 66//34 69//34
f 69//41 64//40 70//41
f 70//33 67//33 68//33
f 72//42 68//39 71//42
f 73//34 71//34 69//34
f 70//41 74//43 69//41
f 72//33 70//33 68//33
f 71//42 75//44 72//42
f 75//34 71//34 73//34
f 73//43 69//41 74//43
f 74//33 70//33 72//33
f 76//44 72//42 75//44
f 77//34 75//34 73//34
f 73//43 74//43 77//45
f 76//33 74//33 72//33
f 76//44 75//44 78//46
# UNHIT_FACE f 79//34 75//34 77//34
f 80//45 77//45 74//43
f 80//33 74//33 76//33
f 79//46 78//46 75//44
f 78//33 80//33 76//33
f 77//45 80//45 79//46
f 78//46 79//46 80//45
f 58/87/44 61/88/46 59/89/46
f 59/89/46 62/90/45 57/87/45
f 57/87/45 63/91/43 60/92/43
f 61/88/46 58/87/44 65/90/44
f 62/90/45 59/89/46 61/88/46
f 63/91/43 57/87/45 62/90/45
f 63/91/43 66/93/41 60/92/43
f 67/91/42 58/87/44 64/92/42
f 58/87/44 67/91/42 65/90/44
f 66/93/41 63/91/43 68/94/41
f 64/92/42 70/94/39 67/91/42
f 68/94/41 71/95/40 66/93/41
f 70/94/39 64/92/42 69/93/39
f 71/95/40 68/94/41 72/96/40
f 69/93/39 74/96/38 70/94/39
f 72/96/40 75/97/36 71/95/40
f 74/96/38 69/93/39 73/95/38
f 75/97/36 72/96/40 76/98/36
f 77/97/37 74/96/38 73/95/38
f 78/99/35 75/97/36 76/98/36
f 74/96/38 77/97/37 80/98/37
f 75/97/36 78/99/35 79/100/35
f 79/100/35 80/98/37 77/97/37
f 80/98/37 79/100/35 78/99/35
f 81/101/47 82/102/47 83/103/47
f 82/102/47 81/101/47 84/104/47
f 82/102/48 85/105/48 83/103/48
f 81/101/49 86/106/49 84/104/49
# UNHIT_FACE f 85/105/48 82/102/48 87/107/48
f 86/106/49 81/101/49 88/108/49
f 83//50 82//50 81//50
f 84//50 81//50 82//50
f 83//49 85//49 82//49
f 83//51 81//51 85//51
f 84//48 86//48 81//48
# UNHIT_FACE f 84//52 82//52 86//52
f 87//49 82//49 85//49
f 88//51 85//51 81//51
f 88//48 81//48 86//48
# UNHIT_FACE f 87//52 86//52 82//52
f 87//47 85//47 86//47
f 88//47 86//47 85//47
f 85/109/52 81/110/52 83/111/52
# UNHIT_FACE f 86/112/51 82/113/51 84/114/51
f 81/110/52 85/109/52 88/112/52
# UNHIT_FACE f 82/113/51 86/112/51 87/109/51
# UNHIT_FACE f 86/115/50 85/109/50 87/116/50
f 85/109/50 86/115/50 88/112/50
# UNHIT_FACE f 89/117/53 90/118/53 91/119/53
f 90/118/53 89/117/53 92/120/53
# UNHIT_FACE f 93/121/54 89/122/54 91/123/54
f 94/124/55 90/118/55 92/120/55
# UNHIT_FACE f 89/122/54 93/121/54 95/125/54
f 90/118/55 94/124/55 96/126/55
# UNHIT_FACE f 93/127/56 94/124/56 95/128/56
# UNHIT_FACE f 94/124/56 93/127/56 96/126/56
f 91//56 90//56 89//56
f 92//56 89//56 90//56
# UNHIT_FACE f 91//55 89//55 93//55
f 92//54 90//54 94//54
# UNHIT_FACE f 95//55 93//55 89//55
f 96//54 94//54 90//54
f 95//53 94//53 93//53
f 96//53 93//53 94//53
f 97/129/57 98/130/57 99/131/57
f 98/130/57 97/129/57 100/132/57
f 99//58 98//58 97//58
f 100//58 97//58 98//58
f 101/133/59 102/134/59 103/135/59
f 104/136/59 103/135/59 102/134/59
f 101/133/60 103/135/60 105/137/60
f 104/136/61 106/138/61 103/135/61
f 104/136/62 102/134/62 106/139/62
f 107/140/60 105/137/60 103/135/60
f 107/141/61 103/135/61 106/138/61
# UNHIT_FACE f 108/142/62 106/139/62 102/134/62
f 103//63 102//63 101//63
f 102//63 103//63 104//63
f 105//62 103//62 101//62
# UNHIT_FACE f 103//64 106//64 104//64
f 106//60 102//60 104//60
f 103//62 105//62 107//62
f 106//64 103//64 107//64
f 102//60 106//60 108//60
f 105//59 106//59 107//59
f 106//59 105//59 108//59
f 107/143/63 106/144/63 105/145/63
f 108/146/63 105/145/63 106/144/63
f 109/147/65 110/148/65 111/149/65
f 111/149/66 110/148/66 109/147/66
f 109/147/66 111/149/66 110/148/66
f 110/148/65 111/149/65 109/147/65
f 112/150/65 111/149/65 110/148/65
f 110/148/66 111/149/66 112/150/66
f 112/150/66 110/148/66 111/149/66
f 111/149/65 110/148/65 112/150/65
# UNHIT_FACE f 113/151/67 114/152/67 115/153/67
f 114/152/67 113/151/67 116/154/67
# UNHIT_FACE f 115//68 114//68 113//68
f 116//68 113//68 114//68
# UNHIT_FACE f 117/155/69 118/156/69 119/157/69
f 118/156/69 117/155/69 120/158/69
f 121/157/70 117/159/70 119/160/70
f 117/159/70 121/157/70 123/155/70
f 121/157/71 122/161/71 123/162/71
f 122/161/71 121/157/71 124/156/71
f 119//71 118//71 117//71
f 120//71 117//71 118//71
f 119//72 117//72 121//72
f 120//70 118//70 122//70
f 123//72 121//72 117//72
f 124//70 122//70 118//70
f 123//69 122//69 121//69
f 124//69 121//69 122//69
f 122/163/72 118/164/72 120/165/72
f 118/164/72 122/163/72 124/166/72
f 125//73 126//73 127//73
f 126//73 125//73 128//73
# UNHIT_FACE f 126//74 129//74 127//74
f 127//75 130//75 125//75
f 131//76 126//76 128//76
# UNHIT_FACE f 129//74 126//74 132//74
f 129//75 133//75 127//75
f 127//75 134//75 130//75
f 135//76 126//76 131//76
f 136//76 132//76 126//76
f 137//77 129//77 132//77
f 133//75 129//75 138//75
# UNHIT_FACE f 127//75 133//75 134//75
# UNHIT_FACE f 136//76 126//76 135//76
f 132//76 136//76 137//76
f 129//77 137//77 138//77
f 127//77 126//77 125//77
f 128//77 125//77 126//77
# UNHIT_FACE f 127//78 129//78 126//78
# UNHIT_FACE f 125//76 130//76 127//76
# UNHIT_FACE f 128//75 126//75 131//75
# UNHIT_FACE f 132//78 126//78 129//78
f 127//76 133//76 129//76
f 130//76 134//76 127//76
f 131//75 126//75 135//75
f 126//75 132//75 136//75
f 132//73 129//73 137//73
f 138//76 129//76 133//76
f 134//76 133//76 127//76
f 135//75 126//75 136//75
f 137//75 136//75 132//75
f 138//73 137//73 129//73
# UNHIT_FACE f 139//79 140//79 141//79
f 140//79 139//79 142//79
f 141//80 143//80 139//80
# UNHIT_FACE f 143//81 142//81 139//81
f 140//79 142//79 144//79
f 143//80 141//80 145//80
# UNHIT_FACE f 142//81 143//81 146//81
f 144//79 142//79 147//79
f 148//82 143//82 145//82
f 143//82 148//82 146//82
f 149//83 142//83 146//83
# UNHIT_FACE f 147//79 142//79 150//79
# UNHIT_FACE f 146//82 148//82 151//82
f 142//83 149//83 150//83
f 146//82 152//82 149//82
f 146//82 151//82 152//82
# UNHIT_FACE f 141//82 140//82 139//82
f 142//82 139//82 140//82
f 139//83 143//83 141//83
# UNHIT_FACE f 139//84 142//84 143//84
f 144//82 142//82 140//82
f 145//83 141//83 143//83
# UNHIT_FACE f 146//84 143//84 142//84
f 147//82 142//82 144//82
f 145//79 143//79 148//79
f 146//79 148//79 143//79
f 146//80 142//80 149//80
# UNHIT_FACE f 150//82 142//82 147//82
f 151//79 148//79 146//79
f 150//80 149//80 142//80
f 149//79 152//79 146//79
f 152//79 151//79 146//79
f 153/167/85 154/168/85 155/169/85
f 154/168/85 153/167/85 156/170/85
f 155//86 154//86 153//86
f 156//86 153//86 154//86
f 157/171/87 158/172/87 159/173/87
f 158/172/87 157/171/87 160/174/87
f 161/175/88 157/174/88 159/172/88
# UNHIT_FACE f 162/176/89 158/172/89 160/174/89
f 157/174/88 161/175/88 163/177/88
# UNHIT_FACE f 158/172/89 162/176/89 164/178/89
f 159//90 158//90 157//90
f 160//90 157//90 158//90
f 159//89 157//89 161//89
# UNHIT_FACE f 160//88 158//88 162//88
f 163//89 161//89 157//89
# UNHIT_FACE f 164//88 162//88 158//88
# UNHIT_FACE f 163//87 162//87 161//87
# UNHIT_FACE f 164//87 161//87 162//87
# UNHIT_FACE f 161/179/90 162/174/90 163/180/90
# UNHIT_FACE f 162/174/90 161/179/90 164/172/90
f 165/181/91 166/182/91 167/183/91
f 166/182/91 165/181/91 168/184/91
f 167/185/92 166/186/92 165/187/92
f 168/188/92 165/187/92 166/186/92
f 166/189/93 169/190/93 167/191/93
f 167/192/94 169/193/94 166/194/94
f 169/195/95 165/196/95 167/197/95
f 167/198/96 165/199/96 169/200/96
# UNHIT_FACE f 165/201/94 170/202/94 168/203/94
# UNHIT_FACE f 168/204/93 170/205/93 165/206/93
f 170/207/96 166/208/96 168/209/96
f 168/210/95 166/211/95 170/212/95
f 169/190/93 166/189/93 171/213/93
f 171/214/94 166/194/94 169/193/94
f 165/196/95 169/195/95 172/215/95
f 172/216/96 169/200/96 165/199/96
# UNHIT_FACE f 170/202/94 165/201/94 172/217/94
# UNHIT_FACE f 172/218/93 165/206/93 170/205/93
f 166/208/96 170/207/96 171/219/96
f 171/220/95 170/212/95 166/211/95
f 170/221/92 169/222/92 171/223/92
f 171/224/91 169/225/91 170/226/91
f 169/222/92 170/221/92 172/227/92
f 172/228/91 170/226/91 169/225/91
f 173/229/97 174/230/97 175/231/97
f 174/230/97 173/229/97 176/232/97
f 175//98 174//98 173//98
f 176//98 173//98 174//98
f 177/233/99 178/234/99 179/235/99
f 178/234/99 177/233/99 180/236/99
f 181/235/100 177/237/100 179/238/100
f 177/237/100 181/235/100 183/233/100
# UNHIT_FACE f 181/235/101 182/239/101 183/240/101
# UNHIT_FACE f 182/239/101 181/235/101 184/234/101
f 179//101 178//101 177//101
f 180//101 177//101 178//101
f 179//102 177//102 181//102
f 180//100 178//100 182//100
f 183//102 181//102 177//102
f 184//100 182//100 178//100
f 183//99 182//99 181//99
f 184//99 181//99 182//99
f 182/241/102 178/242/102 180/243/102
f 178/242/102 182/241/102 184/244/102
