# Merged(arrow/base_geom)

v -0.525431 0.267663 0.483769
v -0.525431 0.295317 0.532162
v -0.525431 0.267663 0.532162
v -0.525431 0.295317 0.483769
v -0.525431 0.295317 0.483769
v -0.525431 0.267663 0.483769
v -0.525431 0.295317 0.532162
v -0.525431 0.267663 0.532162
v 0.763902 0.267663 0.483769
v 0.556503 0.267663 0.532162
v 0.556503 0.267663 0.483769
v -0.525431 0.267663 0.483769
v -0.73283 0.267663 0.55463
v -0.73283 0.267663 0.483769
v -0.525431 0.267663 0.532162
v 0.763902 0.267663 0.55463
v 0.763902 0.267663 0.483769
v 0.556503 0.267663 0.532162
v 0.763902 0.267663 0.55463
v -0.525431 0.267663 0.532162
v -0.73283 0.267663 0.55463
v -0.525431 0.267663 0.483769
v -0.73283 0.267663 0.483769
v 0.556503 0.267663 0.483769
v -0.73283 0.295317 0.483769
v -0.525431 0.267663 0.483769
v -0.73283 0.267663 0.483769
v -0.525431 0.295317 0.483769
v -0.525431 0.295317 0.483769
v -0.73283 0.295317 0.483769
v -0.525431 0.267663 0.483769
v -0.73283 0.267663 0.483769
v -0.73283 0.295317 0.55463
v -0.525431 0.295317 0.532162
v -0.73283 0.295317 0.483769
v 0.763902 0.295317 0.55463
v 0.556503 0.295317 0.532162
v 0.556503 0.295317 0.483769
v 0.763902 0.295317 0.483769
v -0.525431 0.295317 0.483769
v -0.525431 0.295317 0.532162
v -0.73283 0.295317 0.483769
v -0.525431 0.295317 0.483769
v 0.763902 0.295317 0.483769
v 0.763902 0.295317 0.55463
v 0.556503 0.295317 0.483769
v 0.556503 0.295317 0.532162
v -0.73283 0.295317 0.55463
v -0.525431 0.295317 0.532162
v 0.556503 0.267663 0.532162
v -0.525431 0.267663 0.532162
v 0.556503 0.295317 0.532162
v 0.556503 0.295317 0.532162
v -0.525431 0.295317 0.532162
v 0.556503 0.267663 0.532162
v -0.525431 0.267663 0.532162
v 0.556503 0.295317 0.483769
v 0.556503 0.267663 0.532162
v 0.556503 0.295317 0.532162
v 0.556503 0.267663 0.483769
v 0.556503 0.267663 0.483769
v 0.556503 0.295317 0.483769
v 0.556503 0.267663 0.532162
v 0.556503 0.295317 0.532162
v 0.556503 0.295317 0.483769
v 0.763902 0.267663 0.483769
v 0.556503 0.267663 0.483769
v 0.763902 0.295317 0.483769
v 0.763902 0.295317 0.483769
v 0.556503 0.295317 0.483769
v 0.763902 0.267663 0.483769
v 0.556503 0.267663 0.483769
v 0.763902 0.267663 0.483769
v 0.763902 0.295317 0.55463
v 0.763902 0.267663 0.55463
v 0.763902 0.295317 0.483769
v 0.763902 0.295317 0.483769
v 0.763902 0.267663 0.483769
v 0.763902 0.295317 0.55463
v 0.763902 0.267663 0.55463
v 0.763902 0.295317 0.55463
v -0.73283 0.267663 0.55463
v 0.763902 0.267663 0.55463
v -0.73283 0.295317 0.55463
v -0.73283 0.295317 0.55463
v 0.763902 0.295317 0.55463
v -0.73283 0.267663 0.55463
v 0.763902 0.267663 0.55463
v -0.73283 0.295317 0.483769
v -0.73283 0.267663 0.55463
v -0.73283 0.295317 0.55463
v -0.73283 0.267663 0.483769
v -0.73283 0.267663 0.483769
v -0.73283 0.295317 0.483769
v -0.73283 0.267663 0.55463
v -0.73283 0.295317 0.55463
v -0.757891 0.401391 -0.503107
v -0.757891 -0.424751 0.483769
v -0.757891 0.401391 0.483769
v -0.757891 -0.424751 -0.503107
v -0.757891 -0.424751 -0.503107
v -0.757891 0.401391 -0.503107
v -0.757891 -0.424751 0.483769
v -0.757891 0.401391 0.483769
v 0.788963 -0.424751 -0.503107
v -0.757891 -0.424751 0.483769
v -0.757891 -0.424751 -0.503107
v 0.788963 -0.424751 -0.503107
v -0.757891 -0.424751 0.483769
v -0.757891 -0.424751 -0.503107
v 0.788963 0.401391 0.483769
v -0.757891 0.401391 -0.503107
v -0.757891 0.401391 0.483769
v 0.788963 0.401391 -0.503107
v 0.788963 0.401391 -0.503107
v 0.788963 0.401391 0.483769
v -0.757891 0.401391 -0.503107
v -0.757891 0.401391 0.483769
v -0.757891 0.401391 -0.503107
v 0.788963 -0.424751 -0.503107
v -0.757891 -0.424751 -0.503107
v 0.788963 0.401391 -0.503107
v 0.788963 0.401391 -0.503107
v -0.757891 0.401391 -0.503107
v 0.788963 -0.424751 -0.503107
v -0.757891 -0.424751 -0.503107
v 0.788963 -0.424751 -0.503107
v 0.788963 0.401391 0.483769
v 0.788963 -0.424751 0.483769
v 0.788963 0.401391 -0.503107
v 0.788963 0.401391 -0.503107
v 0.788963 -0.424751 -0.503107
v 0.788963 0.401391 0.483769
v 0.788963 -0.424751 0.483769
v 0.788963 0.401391 0.483769
v -0.757891 -0.424751 0.483769
v 0.788963 -0.424751 0.483769
v -0.757891 0.401391 0.483769
v -0.757891 0.401391 0.483769
v 0.788963 0.401391 0.483769
v -0.757891 -0.424751 0.483769
v 0.788963 -0.424751 0.483769
v 0.788963 -0.424751 -0.503107
v -0.757891 -0.424751 0.483769
v 0.788963 -0.424751 0.483769
v 0.788963 -0.424751 0.483769
v 0.788963 -0.424751 -0.503107
v -0.757891 -0.424751 0.483769
vt -0.01186801 1.148
vt -0.06786801 1.18
vt -0.06786801 1.148
vt -0.01186801 1.18
vt -1.765 -0.01186801
vt -1.525 -0.06786801
vt -1.525 -0.01186801
vt -0.273 -0.01186801
vt -0.033 -0.09386801
vt -0.033 -0.01186801
vt -0.273 -0.06786801
vt -1.765 -0.09386801
vt -0.033 1.18
vt -0.273 1.148
vt -0.033 1.148
vt -0.273 1.18
vt 0.033 -0.09386801
vt 0.273 -0.06786801
vt 0.033 -0.01186801
vt 1.765 -0.09386801
vt 1.525 -0.06786801
vt 1.525 -0.01186801
vt 1.765 -0.01186801
vt 0.273 -0.01186801
vt -1.525 1.148
vt -1.525 1.18
vt 0.01186801 1.18
vt 0.06786801 1.148
vt 0.06786801 1.18
vt 0.01186801 1.148
vt -1.765 1.148
vt -1.765 1.18
vt -0.09386801 1.18
vt -0.09386801 1.148
vt 1.765 1.18
vt 0.033 1.148
vt 1.765 1.148
vt 0.033 1.18
vt 0.09386801 1.148
vt 0.09386801 1.18
vt -0.374672 0.313648
vt 0.0 0.0
vt 0.0 0.313648
vt -0.374672 0.0
vt -0.58727 0.374672
vt 0.0 0.374672
vt -0.58727 0.0
vt 0.58727 0.0
vt 0.58727 0.374672
vt -0.58727 0.313648
vt 0.374672 0.0
vt 0.374672 0.313648
vt 1.0 1.013269
vt 0.0 0.0
vt 1.0 0.0
vt 0.0 1.013269
vt 0.0 0.0
vt -0.58727 0.374672
vt -0.58727 0.0
vn 1.0 0.0 0.0
vn 0.0 -1.0 0.0
vn 0.0 0.0 -1.0
vn 0.0 1.0 0.0
vn -1.0 0.0 0.0
vn 0.0 0.0 1.0
vn -1.0 0.0 0.0
vn 1.0 0.0 0.0
vn 0.0 -1.0 0.0
vn 0.0 1.0 0.0
vn 0.0 0.0 -1.0
vn 0.0 0.0 1.0
vn 0.0 0.0 1.0
vn 0.0 0.0 -1.0
vn 0.0 -1.0 0.0
vn 0.0 1.0 0.0
usemtl base_geom
f 1/1/1 2/2/1 3/3/1
f 2/2/1 1/1/1 4/4/1
f 9/5/2 10/6/2 11/7/2
f 12/8/2 13/9/2 14/10/2
f 13/9/2 12/8/2 15/11/2
f 13/9/2 15/11/2 16/12/2
f 16/12/2 15/11/2 10/6/2
f 16/12/2 10/6/2 9/5/2
f 33/17/4 34/18/4 35/19/4
f 34/18/4 33/17/4 36/20/4
f 34/18/4 36/20/4 37/21/4
f 37/21/4 36/20/4 38/22/4
f 38/22/4 36/20/4 39/23/4
f 40/24/4 35/19/4 34/18/4
f 57/27/5 58/28/5 59/29/5
f 58/28/5 57/27/5 60/30/5
f 73/1/1 74/33/1 75/34/1
f 74/33/1 73/1/1 76/4/1
f 81/35/6 82/36/6 83/37/6
f 82/36/6 81/35/6 84/38/6
f 89/27/5 90/39/5 91/40/5
f 5//5 6//5 7//5
f 8//5 7//5 6//5
f 17//4 18//4 19//4
f 18//4 20//4 19//4
f 19//4 20//4 21//4
f 20//4 22//4 21//4
f 23//4 21//4 22//4
f 24//4 18//4 17//4
f 41//2 42//2 43//2
f 44//2 45//2 46//2
f 46//2 45//2 47//2
f 47//2 45//2 41//2
f 45//2 48//2 41//2
f 42//2 41//2 48//2
f 61//1 62//1 63//1
f 64//1 63//1 62//1
f 77//5 78//5 79//5
f 80//5 79//5 78//5
f 85//3 86//3 87//3
f 88//3 87//3 86//3
f 93//1 94//1 95//1
f 96//1 95//1 94//1
f 97/41/7 98/42/7 99/43/7
f 98/42/7 97/41/7 100/44/7
f 101/44/8 102/41/8 103/42/8
f 104/43/8 103/42/8 102/41/8
f 105/45/9 106/42/9 107/46/9
f 110/46/10 109/42/10 108/45/10
f 111/48/10 112/46/10 113/42/10
f 112/46/10 111/48/10 114/49/10
f 115/49/9 116/48/9 117/46/9
f 118/42/9 117/46/9 116/48/9
f 119/43/11 120/47/11 121/42/11
f 120/47/11 119/43/11 122/50/11
f 123/50/12 124/43/12 125/47/12
f 126/42/12 125/47/12 124/43/12
f 127/51/8 128/43/8 129/42/8
f 128/43/8 127/51/8 130/52/8
f 131/52/7 132/51/7 133/43/7
f 134/42/7 133/43/7 132/51/7
f 135/53/13 136/54/13 137/55/13
f 136/54/13 135/53/13 138/56/13
f 139/56/14 140/53/14 141/54/14
f 142/55/14 141/54/14 140/53/14
f 144/57/15 143/58/15 145/59/15
f 146/59/16 147/58/16 148/57/16
