# Merged(arrow/base_geom)

v 0.740853 0.52409 -0.253488
v -0.778617 -0.513008 -0.253488
v 0.740853 -0.513008 -0.253488
v -0.778617 0.52409 -0.253488
v 0.767986 0.563283 0.319328
v 0.623275 -0.552201 0.319328
v 0.767986 -0.552201 0.319328
v 0.623275 0.563283 0.319328
v 0.767986 -0.552201 0.28315
v 0.623275 0.563283 0.28315
v 0.623275 -0.552201 0.28315
v 0.767986 0.563283 0.28315
v 0.740853 -0.537127 -0.271577
v -0.778617 -0.537127 0.246972
v -0.778617 -0.537127 -0.271577
v 0.740853 -0.537127 0.246972
v 0.740853 -0.513008 0.246972
v -0.778617 -0.513008 -0.271577
v -0.778617 -0.513008 0.246972
v 0.740853 -0.513008 -0.271577
v -0.082193 0.563283 0.319328
v -0.226905 -0.552201 0.319328
v -0.082193 -0.552201 0.319328
v -0.226905 0.563283 0.319328
v -0.082193 -0.552201 0.28315
v -0.226905 0.563283 0.28315
v -0.226905 -0.552201 0.28315
v -0.082193 0.563283 0.28315
v -0.778617 -0.561245 -0.295696
v -0.778617 0.572327 0.246972
v -0.778617 -0.561245 0.246972
v -0.778617 0.572327 -0.295696
v -0.802735 -0.561245 0.246972
v -0.802735 0.572327 -0.295696
v -0.802735 -0.561245 -0.295696
v -0.802735 0.572327 0.246972
v 0.740853 0.548209 0.246972
v -0.778617 0.548209 -0.271577
v -0.778617 0.548209 0.246972
v 0.740853 0.548209 -0.271577
v 0.70738 0.1397 0.377363
v 0.70738 0.1397 0.39093
v 0.709197 0.1397 0.384146
v 0.702414 0.1397 0.372397
v 0.709197 -0.40749 0.384146
v 0.70738 -0.40749 0.377363
v 0.702414 -0.40749 0.372397
v 0.702414 0.1397 0.395895
v 0.70738 -0.40749 0.39093
v 0.69563 0.1397 0.37058
v 0.702414 -0.40749 0.395895
v 0.69563 -0.40749 0.37058
v 0.69563 0.1397 0.397713
v 0.69563 -0.40749 0.397713
v 0.688847 0.1397 0.372397
v 0.688847 -0.40749 0.372397
v 0.688847 0.1397 0.395895
v 0.688847 -0.40749 0.395895
v 0.683881 0.1397 0.377363
v 0.683881 -0.40749 0.377363
v 0.683881 0.1397 0.39093
v 0.682064 -0.40749 0.384146
v 0.682064 0.1397 0.384146
v 0.683881 -0.40749 0.39093
v 0.740853 0.077897 -0.271577
v -0.778617 0.077897 -0.295696
v -0.778617 0.077897 -0.271577
v 0.740853 0.077897 -0.295696
v -0.778617 -0.066815 -0.271577
v 0.740853 -0.066815 -0.295696
v 0.740853 -0.066815 -0.271577
v -0.778617 -0.066815 -0.295696
v 0.740853 0.572327 -0.271577
v -0.778617 0.572327 -0.295696
v -0.778617 0.572327 -0.271577
v 0.740853 0.572327 -0.295696
v -0.778617 0.427616 -0.271577
v 0.740853 0.427616 -0.295696
v 0.740853 0.427616 -0.271577
v -0.778617 0.427616 -0.295696
v -0.163593 0.499972 0.28315
v -0.54949 -0.48889 0.28315
v -0.163593 -0.48889 0.28315
v -0.54949 0.499972 0.28315
v -0.163593 -0.48889 0.246972
v -0.54949 0.499972 0.246972
v -0.163593 0.499972 0.246972
v -0.54949 -0.48889 0.246972
v 0.68542 -0.40749 0.375824
v 0.68542 -0.363435 0.319328
v 0.68542 -0.40749 0.319328
v 0.68542 -0.363435 0.375824
v 0.705841 -0.40749 0.319328
v 0.688847 -0.40749 0.372397
v 0.688847 -0.363435 0.372397
v 0.705841 -0.363435 0.319328
v 0.702414 -0.40749 0.372397
v 0.69563 -0.40749 0.37058
v 0.69563 -0.363435 0.37058
v 0.702414 -0.363435 0.372397
v 0.705841 -0.363435 0.375824
v 0.705841 -0.40749 0.375824
v 0.705841 0.1397 0.319328
v 0.702414 0.1397 0.372397
v 0.705841 0.1397 0.375824
v 0.68542 0.1397 0.319328
v 0.705841 0.095646 0.319328
v 0.69563 0.1397 0.37058
v 0.705841 0.095646 0.375824
v 0.68542 0.095646 0.319328
v 0.688847 0.1397 0.372397
v 0.702414 0.095646 0.372397
v 0.68542 0.095646 0.375824
v 0.68542 0.1397 0.375824
v 0.69563 0.095646 0.37058
v 0.688847 0.095646 0.372397
v -0.082193 0.418571 0.28315
v 0.623275 -0.40749 0.28315
v -0.082193 -0.40749 0.28315
v 0.623275 0.418571 0.28315
v 0.740853 0.52409 -0.271577
v -0.778617 0.52409 0.246972
v -0.778617 0.52409 -0.271577
v 0.740853 0.52409 0.246972
v 0.740853 -0.416534 -0.271577
v -0.778617 -0.416534 -0.295696
v -0.778617 -0.416534 -0.271577
v 0.740853 -0.416534 -0.295696
v -0.778617 -0.561245 -0.271577
v 0.740853 -0.561245 -0.295696
v 0.740853 -0.561245 -0.271577
v -0.778617 -0.561245 -0.295696
v -0.814795 0.572327 0.246972
v -0.742439 -0.561245 0.246972
v -0.814795 -0.561245 0.246972
v -0.742439 0.572327 0.246972
v -0.814795 -0.561245 0.28315
v -0.742439 0.572327 0.28315
v -0.742439 -0.561245 0.28315
v -0.814795 0.572327 0.28315
v 0.777031 -0.561245 0.246972
v 0.704675 -0.561245 0.246972
v 0.777031 0.572327 0.246972
v 0.777031 -0.561245 0.28315
v 0.704675 0.572327 0.246972
v 0.704675 -0.561245 0.28315
v 0.704675 0.572327 0.28315
v 0.777031 0.572327 0.28315
v 0.740853 0.02363 0.246972
v -0.778617 0.02363 -0.253488
v -0.778617 0.02363 0.246972
v 0.740853 0.02363 -0.253488
v -0.778617 -0.012548 0.246972
v 0.740853 -0.012548 -0.253488
v 0.740853 -0.012548 0.246972
v -0.778617 -0.012548 -0.253488
v 0.740853 -0.561245 0.246972
v 0.740853 0.572327 0.246972
v 0.740853 -0.561245 -0.295696
v 0.740853 0.572327 -0.295696
v 0.764971 -0.561245 0.246972
v 0.764971 0.572327 -0.295696
v 0.764971 -0.561245 -0.295696
v 0.764971 0.572327 0.246972
v 0.623275 0.418571 0.307268
v -0.082193 -0.40749 0.307268
v 0.623275 -0.40749 0.307268
v -0.082193 0.418571 0.307268
v 0.623275 -0.40749 0.28315
v -0.082193 -0.40749 0.319328
v 0.623275 -0.40749 0.319328
v -0.082193 -0.40749 0.28315
v 0.623275 -0.552201 0.319328
v -0.082193 -0.552201 0.28315
v -0.082193 -0.552201 0.319328
v 0.623275 -0.552201 0.28315
v -0.344483 -0.416534 -0.271577
v -0.778617 -0.416534 -0.271577
v -0.344483 -0.284123 -0.271577
v -0.778617 -0.284123 -0.271577
v 0.704675 -0.48889 0.28315
v -0.742439 -0.48889 0.246972
v -0.742439 -0.48889 0.28315
v 0.704675 -0.48889 0.246972
v -0.742439 -0.561245 0.28315
v 0.704675 -0.561245 0.246972
v 0.704675 -0.561245 0.28315
v -0.742439 -0.561245 0.246972
v -0.778617 0.52409 -0.271577
v 0.740853 -0.513008 -0.271577
v -0.778617 -0.513008 -0.271577
v 0.740853 0.52409 -0.271577
v 0.704675 0.572327 0.28315
v -0.742439 0.572327 0.246972
v -0.742439 0.572327 0.28315
v 0.704675 0.572327 0.246972
v -0.742439 0.499971 0.28315
v 0.704675 0.499971 0.246972
v 0.704675 0.499971 0.28315
v -0.742439 0.499971 0.246972
v 0.623275 0.563283 0.28315
v -0.082193 0.563283 0.319328
v 0.623275 0.563283 0.319328
v -0.082193 0.563283 0.28315
v 0.623275 0.418571 0.319328
v -0.082193 0.418571 0.28315
v -0.082193 0.418571 0.319328
v 0.623275 0.418571 0.28315
vt -1.232882 -4.665964
vt -0.639132 -4.248866
vt -1.232882 -4.248866
vt -0.639132 -4.665964
vt -0.974817 -1.208044
vt -0.912317 -0.715857
vt -0.974817 -0.715857
vt -0.912317 -1.208044
vt -0.974817 -0.700232
vt 1.110186 -0.700232
vt 0.617999 -0.715857
vt 1.110186 -0.715857
vt 0.555499 -0.700232
vt 0.555499 -0.715857
vt 0.063311 -0.715857
vt -0.912317 -0.700232
vt 0.617999 -0.700232
vt 0.063311 -0.700232
vt 0.617999 -0.208044
vt 0.555499 -0.208044
vt -0.514067 -3.804456
vt -0.738026 -4.279948
vt -0.514067 -4.279948
vt -0.738025 -3.804456
vt -0.738026 -4.780467
vt -0.514067 -4.304974
vt -0.738026 -4.304974
vt -0.514067 -4.780467
vt -0.713098 -0.223669
vt -0.775598 -0.715857
vt -0.713098 -0.715857
vt -0.775598 -0.223669
vt -0.634973 -0.731482
vt -0.697473 -0.715857
vt -0.697473 -0.731482
vt 0.340655 -0.715857
vt 0.278155 -0.700232
vt 0.278155 -0.715857
vt -0.634973 -0.223669
vt -0.619348 -0.715857
vt -0.619348 -0.223669
vt -0.634973 -0.715857
vt -0.697473 -0.223669
vt 0.340655 -0.700232
vt -1.66005 -3.210727
vt -1.894425 -3.773227
vt -1.894425 -3.210727
vt -1.66005 -3.773227
vt -1.894425 -3.20031
vt -1.649633 -3.773227
vt -1.66005 -3.783644
vt -1.66005 -3.20031
vt -1.649633 -3.210727
vt -1.894425 -3.783644
vt 0.0 0.0
vt -0.234375 0.5625
vt -0.234375 0.0
vt 0.0 0.5625
vt -0.738026 -4.780467
vt -0.514067 -4.304974
vt -0.738026 -4.304974
vt -0.514067 -4.780467
vt -0.351314 9.471887
vt -0.332661 -0.625198
vt -0.329728 9.47188
vt -0.354248 -0.625191
vt -0.413223 -0.625174
vt -0.410289 9.471904
vt -0.490851 9.471928
vt -0.493785 -0.625151
vt -0.571413 9.471951
vt -0.574347 -0.625127
vt -0.630388 9.471969
vt -0.633322 -0.62511
vt -0.654909 -0.625104
vt -0.651975 9.471975
vt -0.734277 -0.213443
vt -0.744693 -0.807193
vt -0.734277 -0.807193
vt -0.744693 -0.213443
vt -0.807193 -0.838443
vt -0.744693 -1.432193
vt -0.744693 -0.838443
vt -0.807193 -0.213443
vt -0.807193 -1.432193
vt -0.807193 -0.807193
vt -0.81761 -0.807193
vt -0.81761 -0.213443
vt -0.734277 -0.213443
vt -0.744693 -0.807193
vt -0.734277 -0.807193
vt -0.744693 -0.213443
vt -0.807193 -0.838443
vt -0.744693 -1.432193
vt -0.744693 -0.838443
vt -0.807193 -0.213443
vt -0.807193 -1.432193
vt -0.807193 -0.807193
vt -0.81761 -0.807193
vt -0.81761 -0.213443
vt 0.0625 0.5
vt 0.0 0.0
vt 0.0625 0.0
vt 0.0 0.5
vt 0.015625 0.0
vt -0.015625 0.5
vt 0.015625 0.5
vt -0.015625 0.0
vt -0.0625 0.0
vt -0.0625 0.5
vt -0.697473 -0.286169
vt -0.912317 -0.653357
vt -0.697473 -0.653357
vt -0.912317 -0.286169
vt -0.514067 -3.804456
vt -0.738026 -4.279948
vt -0.514067 -4.279948
vt -0.738025 -3.804456
vt -0.734277 -0.213443
vt -0.744693 -0.807193
vt -0.734277 -0.807193
vt -0.744693 -0.213443
vt -0.807193 -0.838443
vt -0.744693 -1.432193
vt -0.744693 -0.838443
vt -0.807193 -0.213443
vt -0.807193 -1.432193
vt -0.807193 -0.807193
vt -0.81761 -0.807193
vt -0.81761 -0.213443
vt -1.41005 -3.773227
vt -1.4413 -3.32276
vt -1.41005 -3.32276
vt -1.4413 -3.773227
vt -1.41005 -3.307135
vt -1.4413 -3.788852
vt -1.4413 -3.307135
vt -1.41005 -3.788852
vt 0.0 0.0
vt -0.015625 0.5625
vt -0.015625 0.0
vt 0.0 0.5625
vt 0.015625 0.0
vt 0.015625 0.5625
vt 0.03125 0.5625
vt 0.03125 0.0
vt -1.41005 -3.32276
vt -1.4413 -3.32276
vt -1.41005 -3.773227
vt -1.41005 -3.307135
vt -1.4413 -3.773227
vt -1.4413 -3.307135
vt -1.4413 -3.788852
vt -1.41005 -3.788852
vt -0.015625 0.0
vt -0.015625 0.5625
vt 0.0 0.0
vt 0.015625 0.5625
vt 0.015625 0.0
vt 0.0 0.5625
vt 0.03125 0.0
vt 0.03125 0.5625
vt -0.738026 -4.780467
vt -0.52188 -4.304974
vt -0.738026 -4.304974
vt -0.52188 -4.780467
vt -0.750539 -4.304974
vt -0.509367 -4.780467
vt -0.750539 -4.780467
vt -0.509367 -4.304974
vt -0.738026 -4.279948
vt -0.52188 -3.804456
vt -0.738025 -3.804456
vt -0.52188 -4.279948
vt -1.894425 -3.210727
vt -1.894425 -3.773227
vt -1.66005 -3.210727
vt -1.66005 -3.773227
vt -1.894425 -3.20031
vt -1.649633 -3.773227
vt -1.66005 -3.783644
vt -1.66005 -3.20031
vt -1.649633 -3.210727
vt -1.894425 -3.783644
vt -0.234375 0.0
vt -0.234375 0.5625
vt 0.0 0.0
vt 0.0 0.5625
vt 0.555499 -0.286169
vt 0.340655 -0.653357
vt 0.555499 -0.653357
vt 0.340655 -0.286169
vt 0.74589 0.463831
vt 0.531047 0.448206
vt 0.74589 0.448206
vt 0.531047 0.463831
vt -0.507081 0.463831
vt -0.721925 0.526331
vt -0.721925 0.463831
vt 0.531047 0.526331
vt -0.507081 0.526331
vt 0.74589 0.526331
vt 0.74589 0.541956
vt 0.531047 0.541956
vt 0.0 0.0
vt 1.0 0.0
vt 0.0 1.0
vt 1.0 1.0
vt 0.5625 0.0
vt 0.0 0.015625
vt 0.0 0.0
vt 0.5625 0.015625
vt 0.5625 0.03125
vt 0.0 0.03125
vt -0.5625 0.015625
vt -0.5625 0.0
vt -1.06615 -3.816969
vt -1.0349 -4.267435
vt -1.0349 -3.816969
vt -1.06615 -4.267435
vt -0.607882 -4.665964
vt -0.014132 -4.248866
vt -0.607882 -4.248866
vt -0.014132 -4.665965
vt 0.5625 0.0
vt 0.0 0.015625
vt 0.0 0.0
vt 0.5625 0.015625
vt 0.5625 0.03125
vt 0.0 0.03125
vt -0.5625 0.015625
vt -0.5625 0.0
vt -1.06615 -3.816969
vt -1.0349 -4.267435
vt -1.0349 -3.816969
vt -1.06615 -4.267435
vt -0.721925 0.510706
vt -0.507081 0.526331
vt -0.721925 0.526331
vt -0.507081 0.510706
vt -0.507081 0.034143
vt -0.721925 0.096643
vt -0.721925 0.034143
vt -0.507081 0.448206
vt -0.507081 0.096643
vt -0.721925 0.448206
vt -0.721925 0.432581
vt -0.507081 0.432581
vn 0.0 0.0 1.0
vn 0.0 0.0 -1.0
vn 0.0 0.0 1.0
vn 0.0 -1.0 0.0
vn 1.0 0.0 0.0
vn 0.0 1.0 0.0
vn -1.0 0.0 0.0
vn 0.0 0.0 -1.0
vn 0.0 -1.0 0.0
vn 0.0 1.0 0.0
vn 0.0 1.0 0.0
vn 0.0 -1.0 0.0
vn 0.0 0.0 1.0
vn 0.0 -1.0 0.0
vn 1.0 0.0 0.0
vn 0.0 1.0 0.0
vn -1.0 0.0 0.0
vn 0.0 0.0 -1.0
vn 1.0 0.0 0.0
vn 0.0 -1.0 0.0
vn 0.0 0.0 -1.0
vn 0.0 1.0 0.0
vn -1.0 0.0 0.0
vn 0.0 0.0 1.0
vn 0.0 1.0 0.0
vn 0.0 -1.0 0.0
vn 0.0 1.0 0.0
vn 0.0 -1.0 0.0
vn -1.0 0.0 0.0
vn -0.8660253028382761 0.0 -0.5000001748438416
vn -0.8660253028382761 0.0 0.5000001748438416
vn -0.5000001748438416 0.0 0.8660253028382761
vn 0.0 0.0 1.0
vn -0.5000001748438416 0.0 -0.8660253028382761
vn 0.0 0.0 -1.0
vn 0.5000001748438416 0.0 0.8660253028382761
vn 0.5000001748438416 0.0 -0.8660253028382761
vn 0.8660253028382761 0.0 0.5000001748438416
vn 0.8660253028382761 0.0 -0.5000001748438416
vn 1.0 0.0 0.0
vn 0.0 1.0 0.0
vn 0.0 0.0 1.0
vn 0.0 0.0 -1.0
vn 0.0 -1.0 0.0
vn 0.0 1.0 0.0
vn 0.0 0.0 1.0
vn 0.0 0.0 -1.0
vn 0.0 -1.0 0.0
vn 0.0 0.0 1.0
vn 1.0 0.0 0.0
vn -1.0 0.0 0.0
vn 0.0 0.0 -1.0
vn -1.0 0.0 0.0
vn 0.0 0.0 -1.0
vn 0.0 -1.0 0.0
vn 0.0 1.0 0.0
vn 1.0 0.0 0.0
vn 0.0 0.0 1.0
vn 0.0 1.0 0.0
vn 1.0 0.0 0.0
vn 0.0 0.0 -1.0
vn 0.0 -1.0 0.0
vn -1.0 0.0 0.0
vn 0.0 0.0 1.0
vn 0.0 0.0 -1.0
vn 0.0 0.0 1.0
vn 0.0 -1.0 0.0
vn 0.0 1.0 0.0
vn 0.0 1.0 0.0
vn 0.0 0.0 1.0
vn 0.0 0.0 -1.0
vn 0.0 -1.0 0.0
vn 0.0 0.0 -1.0
vn 0.0 -1.0 0.0
vn 0.0 1.0 0.0
vn 0.0 0.0 1.0
vn 1.0 0.0 0.0
vn -1.0 0.0 0.0
vn 0.0 0.0 -1.0
vn 0.0 -1.0 0.0
vn 0.0 1.0 0.0
vn 0.0 0.0 1.0
vn -1.0 0.0 0.0
vn 1.0 0.0 0.0
vn 0.0 1.0 0.0
vn 0.0 0.0 1.0
vn 0.0 0.0 -1.0
vn 0.0 -1.0 0.0
vn -1.0 0.0 0.0
vn 0.0 -1.0 0.0
vn 0.0 0.0 -1.0
vn 0.0 1.0 0.0
vn 1.0 0.0 0.0
vn 0.0 0.0 1.0
vn 0.0 0.0 1.0
vn 0.0 0.0 -1.0
vn 0.0 1.0 0.0
vn 0.0 0.0 1.0
vn 0.0 0.0 -1.0
vn 0.0 -1.0 0.0
vn 0.0 0.0 -1.0
vn 0.0 0.0 1.0
vn 0.0 1.0 0.0
vn 0.0 0.0 1.0
vn 0.0 -1.0 0.0
vn 0.0 0.0 -1.0
vn 0.0 0.0 -1.0
vn 0.0 0.0 1.0
vn 0.0 1.0 0.0
vn 0.0 0.0 1.0
vn 0.0 -1.0 0.0
vn 0.0 0.0 -1.0
vn 0.0 1.0 0.0
vn 0.0 0.0 1.0
vn 0.0 0.0 -1.0
vn 0.0 -1.0 0.0
usemtl base_geom
f 1/1/1 2/2/1 3/3/1
f 2/2/1 1/1/1 4/4/1
f 3//2 2//2 1//2
f 4//2 1//2 2//2
f 5/5/3 6/6/3 7/7/3
f 6/6/3 5/5/3 8/8/3
f 6/6/4 9/9/4 7/7/4
f 9/10/5 5/11/5 7/12/5
f 5/11/6 10/13/6 8/14/6
f 10/13/7 6/15/7 8/14/7
f 9/9/4 6/6/4 11/16/4
f 5/11/5 9/10/5 12/17/5
f 10/13/6 5/11/6 12/17/6
f 6/15/7 10/13/7 11/18/7
f 7//8 6//8 5//8
f 8//8 5//8 6//8
f 7//6 9//6 6//6
f 7//7 5//7 9//7
f 8//4 10//4 5//4
f 8//5 6//5 10//5
f 11//6 6//6 9//6
f 12//7 9//7 5//7
f 12//4 5//4 10//4
f 11//5 10//5 6//5
f 13/21/9 14/22/9 15/23/9
f 14/22/9 13/21/9 16/24/9
f 15//10 14//10 13//10
f 16//10 13//10 14//10
f 17/25/11 18/26/11 19/27/11
f 18/26/11 17/25/11 20/28/11
f 19//12 18//12 17//12
f 20//12 17//12 18//12
f 21/29/13 22/30/13 23/31/13
f 22/30/13 21/29/13 24/32/13
f 22/33/14 25/34/14 23/35/14
f 25/34/15 21/29/15 23/31/15
f 21/36/16 26/37/16 24/38/16
f 26/39/17 22/40/17 24/41/17
f 25/34/14 22/33/14 27/42/14
f 21/29/15 25/34/15 28/43/15
f 26/37/16 21/36/16 28/44/16
f 22/40/17 26/39/17 27/42/17
f 23//18 22//18 21//18
f 24//18 21//18 22//18
f 23//16 25//16 22//16
f 23//17 21//17 25//17
f 24//14 26//14 21//14
f 24//15 22//15 26//15
f 27//16 22//16 25//16
f 28//17 25//17 21//17
f 28//14 21//14 26//14
f 27//15 26//15 22//15
f 29/45/19 30/46/19 31/47/19
f 30/46/19 29/45/19 32/48/19
f 33/49/20 29/45/20 31/47/20
f 29/45/21 34/50/21 32/48/21
f 34/51/22 30/46/22 32/48/22
f 29/45/20 33/49/20 35/52/20
f 30/46/22 34/51/22 36/54/22
f 31//23 30//23 29//23
f 32//23 29//23 30//23
f 31//22 29//22 33//22
f 32//24 34//24 29//24
f 32//20 30//20 34//20
f 35//22 33//22 29//22
f 35//24 29//24 34//24
f 36//20 34//20 30//20
f 35//19 34//19 33//19
f 36//19 33//19 34//19
f 33/55/23 34/56/23 35/57/23
f 34/56/23 33/55/23 36/58/23
f 37/59/25 38/60/25 39/61/25
f 38/60/25 37/59/25 40/62/25
f 39//26 38//26 37//26
f 40//26 37//26 38//26
f 41//27 42//27 43//27
f 42//27 41//27 44//27
f 42//27 44//27 48//27
f 48//27 44//27 50//27
f 46//28 51//28 47//28
f 48//27 50//27 53//27
f 47//28 51//28 52//28
f 53//27 50//27 55//27
f 52//28 51//28 54//28
f 53//27 55//27 57//27
f 52//28 54//28 56//28
f 57//27 55//27 59//27
f 56//28 54//28 58//28
f 57//27 59//27 61//27
f 56//28 58//28 60//28
f 60//28 58//28 64//28
f 43//29 45//29 42//30
f 41//31 46//31 43//29
f 44//32 47//32 41//31
f 48//28 44//28 42//28
f 49//30 42//30 45//29
f 45//29 43//29 46//31
f 46//31 41//31 47//32
f 44//32 50//33 47//32
f 50//28 44//28 48//28
f 48//34 42//30 51//34
f 49//30 51//34 42//30
f 47//27 51//27 46//27
f 52//33 47//32 50//33
f 53//28 50//28 48//28
f 51//34 54//35 48//34
f 51//27 49//27 46//27
f 52//27 51//27 47//27
f 50//33 55//36 52//33
f 55//28 50//28 53//28
f 53//35 48//34 54//35
f 54//27 51//27 52//27
f 56//36 52//33 55//36
f 54//35 58//37 53//35
f 56//27 54//27 52//27
f 55//36 59//38 56//36
f 59//28 55//28 57//28
f 57//37 53//35 58//37
f 58//27 54//27 56//27
f 60//38 56//36 59//38
f 61//28 59//28 57//28
f 57//37 58//37 61//39
f 60//27 58//27 56//27
f 60//38 59//38 62//40
f 64//39 61//39 58//37
f 64//27 58//27 60//27
f 63//40 62//40 59//38
f 62//27 64//27 60//27
f 61//39 64//39 63//40
f 62//40 63//40 64//39
f 42/63/38 45/64/40 43/65/40
f 43/65/40 46/66/39 41/63/39
f 41/63/39 47/67/37 44/68/37
f 45/64/40 42/63/38 49/66/38
f 46/66/39 43/65/40 45/64/40
f 47/67/37 41/63/39 46/66/39
f 47/67/37 50/69/35 44/68/37
f 51/67/36 42/63/38 48/68/36
f 42/63/38 51/67/36 49/66/38
f 50/69/35 47/67/37 52/70/35
f 48/68/36 54/70/33 51/67/36
f 52/70/35 55/71/34 50/69/35
f 54/70/33 48/68/36 53/69/33
f 55/71/34 52/70/35 56/72/34
f 53/69/33 58/72/32 54/70/33
f 56/72/34 59/73/30 55/71/34
f 58/72/32 53/69/33 57/71/32
f 59/73/30 56/72/34 60/74/30
f 61/73/31 58/72/32 57/71/32
f 62/75/29 59/73/30 60/74/30
f 58/72/32 61/73/31 64/74/31
f 59/73/30 62/75/29 63/76/29
f 63/76/29 64/74/31 61/73/31
f 64/74/31 63/76/29 62/75/29
f 70/84/43 66/78/43 68/80/43
f 66/78/43 70/84/43 72/86/43
f 69/87/44 70/84/44 71/88/44
f 67//44 66//44 65//44
f 68//44 65//44 66//44
f 68//42 66//42 70//42
f 72//42 70//42 66//42
f 71//41 70//41 69//41
f 72//41 69//41 70//41
f 73/89/45 74/90/45 75/91/45
f 77/93/46 73/94/46 75/95/46
f 78/96/47 74/90/47 76/92/47
f 73/94/46 77/93/46 79/97/46
f 74/90/47 78/96/47 80/98/47
f 78/96/48 77/99/48 80/98/48
f 75//48 74//48 73//48
f 76//48 73//48 74//48
f 75//47 73//47 77//47
f 76//46 74//46 78//46
f 79//47 77//47 73//47
f 80//46 78//46 74//46
f 79//45 78//45 77//45
f 80//45 77//45 78//45
f 81/101/49 82/102/49 83/103/49
f 82/102/49 81/101/49 84/104/49
f 86/106/51 82/102/51 84/104/51
f 82/102/51 86/106/51 88/108/51
f 83//52 82//52 81//52
f 84//52 81//52 82//52
f 84//50 82//50 86//50
f 88//50 86//50 82//50
f 89//53 90//53 91//53
f 90//53 89//53 92//53
f 91//55 94//55 89//55
f 93//55 97//55 91//55
f 91//55 98//55 94//55
f 99//56 90//56 95//56
f 100//56 96//56 90//56
f 91//55 97//55 98//55
f 100//56 90//56 99//56
f 93//57 101//57 102//57
f 91//57 90//57 89//57
f 92//57 89//57 90//57
f 89//56 94//56 91//56
f 92//55 90//55 95//55
f 91//56 97//56 93//56
f 94//56 98//56 91//56
f 95//55 90//55 99//55
f 90//55 96//55 100//55
f 96//53 93//53 101//53
f 102//56 93//56 97//56
f 98//56 97//56 91//56
f 101//55 100//55 96//55
f 102//53 101//53 93//53
f 103//59 104//59 105//59
f 104//59 103//59 106//59
f 105//60 107//60 103//60
f 104//59 106//59 108//59
f 107//60 105//60 109//60
f 108//59 106//59 111//59
f 112//62 107//62 109//62
f 107//62 112//62 110//62
f 113//63 106//63 110//63
f 111//59 106//59 114//59
f 110//62 112//62 115//62
f 106//63 113//63 114//63
f 110//62 116//62 113//62
f 105//62 104//62 103//62
f 106//62 103//62 104//62
f 103//63 107//63 105//63
f 108//62 106//62 104//62
f 109//63 105//63 107//63
f 111//62 106//62 108//62
f 109//59 107//59 112//59
f 110//59 112//59 107//59
f 110//60 106//60 113//60
f 114//62 106//62 111//62
f 115//59 112//59 110//59
f 114//60 113//60 106//60
f 113//59 116//59 110//59
f 116//59 115//59 110//59
f 121/115/67 122/116/67 123/117/67
f 122/116/67 121/115/67 124/118/67
f 123//68 122//68 121//68
f 124//68 121//68 122//68
f 126/120/69 125/119/69 128/122/69
f 129/123/70 125/124/70 127/125/70
f 130/126/71 126/120/71 128/122/71
f 125/124/70 129/123/70 131/127/70
f 126/120/71 130/126/71 132/128/71
f 130/126/72 129/129/72 132/128/72
f 127//72 126//72 125//72
f 128//72 125//72 126//72
f 127//71 125//71 129//71
f 128//70 126//70 130//70
f 131//71 129//71 125//71
f 132//70 130//70 126//70
f 131//69 130//69 129//69
f 132//69 129//69 130//69
f 133/131/73 134/132/73 135/133/73
f 134/132/73 133/131/73 136/134/73
f 134/132/74 137/135/74 135/133/74
f 133/131/75 138/136/75 136/134/75
f 137/135/74 134/132/74 139/137/74
f 138/136/75 133/131/75 140/138/75
f 135//76 134//76 133//76
f 136//76 133//76 134//76
f 135//75 137//75 134//75
f 135//77 133//77 137//77
f 136//74 138//74 133//74
f 136//78 134//78 138//78
f 139//75 134//75 137//75
f 140//77 137//77 133//77
f 140//74 133//74 138//74
f 139//78 138//78 134//78
f 139//73 137//73 138//73
f 140//73 138//73 137//73
f 137/139/78 133/140/78 135/141/78
f 138/142/77 134/143/77 136/144/77
f 133/140/78 137/139/78 140/142/78
f 134/143/77 138/142/77 139/139/77
f 138/145/76 137/139/76 139/146/76
f 137/139/76 138/145/76 140/142/76
f 141/147/79 142/148/79 143/149/79
f 141/147/80 144/150/80 142/148/80
f 145/151/79 143/149/79 142/148/79
f 145/151/81 147/153/81 143/149/81
f 148/154/81 143/149/81 147/153/81
f 143//82 142//82 141//82
f 142//81 144//81 141//81
f 142//82 143//82 145//82
f 144//83 143//83 141//83
f 144//81 142//81 146//81
f 143//80 147//80 145//80
f 143//83 144//83 148//83
f 147//79 144//79 146//79
f 147//80 143//80 148//80
f 144//79 147//79 148//79
f 141/155/84 143/156/84 144/157/84
f 148/160/84 144/157/84 143/156/84
f 146/161/82 144/157/82 147/162/82
f 148/160/82 147/162/82 144/157/82
f 149/163/85 150/164/85 151/165/85
f 150/164/85 149/163/85 152/166/85
f 153/167/86 149/163/86 151/165/86
f 149/163/86 153/167/86 155/169/86
f 153/171/88 154/172/88 155/173/88
f 154/172/88 153/171/88 156/174/88
f 151//88 150//88 149//88
f 152//88 149//88 150//88
f 151//87 149//87 153//87
f 155//87 153//87 149//87
f 155//85 154//85 153//85
f 156//85 153//85 154//85
f 157/175/89 158/176/89 159/177/89
f 160/178/89 159/177/89 158/176/89
f 157/175/90 159/177/90 161/179/90
f 160/178/91 162/180/91 159/177/91
f 160/178/92 158/176/92 162/181/92
f 163/182/90 161/179/90 159/177/90
f 163/183/91 159/177/91 162/180/91
f 164/184/92 162/181/92 158/176/92
f 159//93 158//93 157//93
f 158//93 159//93 160//93
f 159//94 162//94 160//94
f 162//90 158//90 160//90
f 159//92 161//92 163//92
f 162//94 159//94 163//94
f 158//90 162//90 164//90
f 161//89 162//89 163//89
f 162//89 161//89 164//89
f 163/185/93 162/186/93 161/187/93
f 164/188/93 161/187/93 162/186/93
f 165/189/95 166/190/95 167/191/95
f 166/190/95 165/189/95 168/192/95
f 167//96 166//96 165//96
f 168//96 165//96 166//96
f 169/193/97 170/194/97 171/195/97
f 170/194/97 169/193/97 172/196/97
f 170/197/98 173/198/98 171/199/98
f 173/198/98 170/197/98 175/201/98
f 174/200/100 173/203/100 175/204/100
f 173/203/100 174/200/100 176/202/100
f 171//100 170//100 169//100
f 172//100 169//100 170//100
f 171//99 173//99 170//99
f 175//99 170//99 173//99
f 175//97 173//97 174//97
f 176//97 174//97 173//97
f 177/205/101 178/206/101 179/207/101
f 179/207/102 178/206/102 177/205/102
f 177/205/102 179/207/102 178/206/102
f 178/206/101 179/207/101 177/205/101
f 180/208/101 179/207/101 178/206/101
f 178/206/102 179/207/102 180/208/102
f 180/208/102 178/206/102 179/207/102
f 179/207/101 178/206/101 180/208/101
f 181/209/103 182/210/103 183/211/103
f 185/211/104 181/213/104 183/214/104
f 181/213/104 185/211/104 187/209/104
f 185/211/105 186/215/105 187/216/105
f 186/215/105 185/211/105 188/210/105
f 183//105 182//105 181//105
f 184//105 181//105 182//105
f 183//106 181//106 185//106
f 184//104 182//104 186//104
f 187//106 185//106 181//106
f 188//104 186//104 182//104
f 187//103 186//103 185//103
f 188//103 185//103 186//103
f 186/217/106 182/218/106 184/219/106
f 182/218/106 186/217/106 188/220/106
f 189/221/107 190/222/107 191/223/107
f 190/222/107 189/221/107 192/224/107
f 191//108 190//108 189//108
f 192//108 189//108 190//108
f 193/225/109 194/226/109 195/227/109
f 194/226/109 193/225/109 196/228/109
f 197/227/110 193/229/110 195/230/110
f 193/229/110 197/227/110 199/225/110
f 198/231/111 197/227/111 200/226/111
f 195//111 194//111 193//111
f 196//111 193//111 194//111
f 195//112 193//112 197//112
f 196//110 194//110 198//110
f 199//112 197//112 193//112
f 200//110 198//110 194//110
f 199//109 198//109 197//109
f 200//109 197//109 198//109
f 198/233/112 194/234/112 196/235/112
f 194/234/112 198/233/112 200/236/112
f 201/237/113 202/238/113 203/239/113
f 202/238/113 201/237/113 204/240/113
f 202/241/114 205/242/114 203/243/114
f 205/242/114 202/241/114 207/245/114
f 206/244/116 205/247/116 207/248/116
f 205/247/116 206/244/116 208/246/116
f 203//116 202//116 201//116
f 204//116 201//116 202//116
f 203//115 205//115 202//115
f 207//115 202//115 205//115
f 207//113 205//113 206//113
f 208//113 206//113 205//113
