# Merged(arrow/base_geom)

v -0.807695 0.552363 -0.223355
v -0.807695 -0.557898 -0.242833
v -0.807695 -0.557898 -0.223355
v -0.807695 0.552363 -0.242833
v -0.690825 -0.557898 -0.223355
v -0.690825 0.552363 -0.242833
v -0.690825 0.552363 -0.223355
v -0.690825 -0.557898 -0.242833
v -0.401086 0.552363 0.195428
v -0.401086 -0.557898 -0.208746
v -0.401086 -0.557898 0.195428
v -0.401086 0.552363 -0.208746
v -0.371869 -0.557898 0.195428
v -0.371869 0.552363 -0.208746
v -0.371869 0.552363 0.195428
v -0.371869 -0.557898 -0.208746
v 0.392653 0.552363 0.195428
v 0.392653 -0.557898 -0.208746
v 0.392653 -0.557898 0.195428
v 0.392653 0.552363 -0.208746
v 0.42187 -0.557898 0.195428
v 0.42187 0.552363 -0.208746
v 0.42187 0.552363 0.195428
v 0.42187 -0.557898 -0.208746
v 0.828479 0.58158 0.195428
v 0.828479 0.523146 0.195428
v -0.807695 0.58158 0.195428
v 0.828479 0.58158 0.224645
v -0.807695 0.523146 0.195428
v 0.828479 0.523146 0.224645
v -0.807695 0.523146 0.224645
v -0.807695 0.58158 0.224645
v -0.768738 0.552363 -0.208746
v 0.789523 -0.557898 -0.208746
v 0.789523 0.552363 -0.208746
v -0.768738 -0.557898 -0.208746
v -0.004217 0.552363 0.195428
v -0.004217 -0.557898 -0.208746
v -0.004217 -0.557898 0.195428
v -0.004217 0.552363 -0.208746
v 0.025001 -0.557898 0.195428
v 0.025001 0.552363 -0.208746
v 0.025001 0.552363 0.195428
v 0.025001 -0.557898 -0.208746
v -0.768738 -0.557898 -0.223355
v 0.789523 0.552363 -0.223355
v 0.789523 -0.557898 -0.223355
v -0.768738 0.552363 -0.223355
v 0.828479 -0.557898 -0.242833
v -0.807695 -0.557898 0.195428
v 0.828479 -0.557898 0.195428
v -0.807695 -0.557898 -0.242833
v 0.828479 -0.577376 0.195428
v -0.807695 -0.577376 -0.242833
v 0.828479 -0.577376 -0.242833
v -0.807695 -0.577376 0.195428
v 0.205175 0.552363 -0.223355
v 0.205175 -0.557898 -0.242833
v 0.205175 -0.557898 -0.223355
v 0.205175 0.552363 -0.242833
v 0.322044 -0.557898 -0.223355
v 0.322044 0.552363 -0.242833
v 0.322044 0.552363 -0.223355
v 0.322044 -0.557898 -0.242833
v -0.807695 -0.587115 0.195428
v 0.828479 -0.528681 0.195428
v 0.828479 -0.587115 0.195428
v -0.807695 -0.528681 0.195428
v 0.828479 -0.587115 0.224645
v -0.807695 -0.528681 0.224645
v 0.828479 -0.528681 0.224645
v -0.807695 -0.587115 0.224645
v -0.30126 0.552363 -0.223355
v -0.30126 -0.557898 -0.242833
v -0.30126 -0.557898 -0.223355
v -0.30126 0.552363 -0.242833
v -0.184391 -0.557898 -0.223355
v -0.184391 0.552363 -0.242833
v -0.184391 0.552363 -0.223355
v -0.184391 -0.557898 -0.242833
v 0.828479 0.552363 0.195428
v -0.807695 0.552363 0.195428
v 0.828479 0.552363 -0.242833
v -0.807695 0.552363 -0.242833
v 0.828479 0.571841 0.195428
v -0.807695 0.571841 -0.242833
v 0.828479 0.571841 -0.242833
v -0.807695 0.571841 0.195428
v -0.800391 -0.579811 0.224645
v 0.821175 -0.579811 0.253863
v -0.800391 -0.579811 0.253863
v 0.821175 -0.579811 0.224645
v -0.800391 0.106798 0.253863
v 0.821175 0.106798 0.224645
v 0.821175 0.106798 0.253863
v -0.800391 0.106798 0.224645
v 0.115088 -0.51313 0.253863
v 0.115088 -0.515898 0.296722
v 0.115088 -0.51313 0.29949
v 0.115088 -0.529622 0.253863
v 0.150666 -0.51313 0.253863
v 0.115088 -0.521376 0.295254
v 0.150666 -0.51313 0.29949
v 0.150666 -0.529622 0.253863
v 0.115088 -0.526855 0.296722
v 0.150666 -0.515898 0.296722
v 0.150666 -0.529622 0.29949
v 0.115088 -0.529622 0.29949
v 0.150666 -0.521376 0.295254
v 0.150666 -0.526855 0.296722
v 0.770044 0.523146 0.224645
v 0.770044 -0.528681 0.195428
v 0.770044 -0.528681 0.224645
v 0.770044 0.523146 0.195428
v 0.828479 -0.528681 0.224645
v 0.828479 0.523146 0.195428
v 0.828479 0.523146 0.224645
v 0.828479 -0.528681 0.195428
v 0.115088 -0.511888 0.300732
v 0.115088 -0.511888 0.311689
v 0.115088 -0.51042 0.306211
v 0.115088 -0.515898 0.296722
v 0.704305 -0.51042 0.306211
v 0.704305 -0.511888 0.300732
v 0.704305 -0.515898 0.296722
v 0.115088 -0.515898 0.315699
v 0.704305 -0.511888 0.311689
v 0.115088 -0.521376 0.295254
v 0.704305 -0.515898 0.315699
v 0.704305 -0.521376 0.295254
v 0.115088 -0.521376 0.317167
v 0.704305 -0.521376 0.317167
v 0.115088 -0.526855 0.296722
v 0.704305 -0.526855 0.296722
v 0.115088 -0.526855 0.315699
v 0.704305 -0.526855 0.315699
v 0.115088 -0.530865 0.300732
v 0.704305 -0.530865 0.300732
v 0.115088 -0.530865 0.311689
v 0.704305 -0.532333 0.306211
v 0.115088 -0.532333 0.306211
v 0.704305 -0.530865 0.311689
v 0.704305 -0.529622 0.29949
v 0.668727 -0.529622 0.253863
v 0.704305 -0.529622 0.253863
v 0.668727 -0.529622 0.29949
v 0.704305 -0.51313 0.253863
v 0.704305 -0.526855 0.296722
v 0.668727 -0.526855 0.296722
v 0.668727 -0.51313 0.253863
v 0.704305 -0.515898 0.296722
v 0.704305 -0.521376 0.295254
v 0.668727 -0.521376 0.295254
v 0.668727 -0.515898 0.296722
v 0.668727 -0.51313 0.29949
v 0.704305 -0.51313 0.29949
v -0.788217 0.552363 0.195428
v -0.788217 -0.557898 -0.223355
v -0.788217 -0.557898 0.195428
v -0.788217 0.552363 -0.223355
v -0.74926 0.36732 0.224645
v 0.770044 0.055667 0.224645
v 0.770044 0.36732 0.224645
v -0.74926 0.055667 0.224645
v 0.770044 0.36732 0.195428
v -0.74926 0.055667 0.195428
v -0.74926 0.36732 0.195428
v 0.770044 0.055667 0.195428
v 0.809001 0.552363 -0.223355
v 0.809001 -0.557898 0.195428
v 0.809001 -0.557898 -0.223355
v 0.809001 0.552363 0.195428
v -0.807695 0.523146 0.224645
v -0.807695 -0.528681 0.195428
v -0.807695 -0.528681 0.224645
v -0.807695 0.523146 0.195428
v -0.74926 -0.528681 0.224645
v -0.74926 0.523146 0.195428
v -0.74926 0.523146 0.224645
v -0.74926 -0.528681 0.195428
vt -0.734277 -0.213443
vt -0.744693 -0.807193
vt -0.734277 -0.807193
vt -0.744693 -0.213443
vt -0.807193 -0.838443
vt -0.744693 -1.432193
vt -0.744693 -0.838443
vt -0.807193 -0.213443
vt -0.807193 -1.432193
vt -0.807193 -0.807193
vt -0.81761 -0.807193
vt -0.81761 -0.213443
vt -0.738026 -4.780467
vt -0.52188 -4.304974
vt -0.738026 -4.304974
vt -0.52188 -4.780467
vt -0.750539 -4.304974
vt -0.509367 -4.780467
vt -0.750539 -4.780467
vt -0.509367 -4.304974
vt -0.738026 -4.279948
vt -0.52188 -3.804456
vt -0.738025 -3.804456
vt -0.52188 -4.279948
vt -0.738026 -4.780467
vt -0.52188 -4.304974
vt -0.738026 -4.304974
vt -0.52188 -4.780467
vt -0.750539 -4.304974
vt -0.509367 -4.780467
vt -0.750539 -4.780467
vt -0.509367 -4.304974
vt -0.738026 -4.279948
vt -0.52188 -3.804456
vt -0.738025 -3.804456
vt -0.52188 -4.279948
vt -1.41005 -3.32276
vt -1.4413 -3.32276
vt -1.41005 -3.773227
vt -1.41005 -3.307135
vt -1.4413 -3.773227
vt -1.4413 -3.307135
vt -1.4413 -3.788852
vt -1.41005 -3.788852
vt -0.015625 0.0
vt -0.015625 0.5625
vt 0.0 0.0
vt 0.015625 0.5625
vt 0.015625 0.0
vt 0.0 0.5625
vt 0.03125 0.0
vt 0.03125 0.5625
vt -1.232882 -4.665964
vt -0.639132 -4.248866
vt -1.232882 -4.248866
vt -0.639132 -4.665964
vt -0.738026 -4.780467
vt -0.52188 -4.304974
vt -0.738026 -4.304974
vt -0.52188 -4.780467
vt -0.750539 -4.304974
vt -0.509367 -4.780467
vt -0.750539 -4.780467
vt -0.509367 -4.304974
vt -0.738026 -4.279948
vt -0.52188 -3.804456
vt -0.738025 -3.804456
vt -0.52188 -4.279948
vt -0.607882 -4.665964
vt -0.014132 -4.248866
vt -0.607882 -4.248866
vt -0.014132 -4.665965
vt -1.66005 -3.210727
vt -1.894425 -3.773227
vt -1.894425 -3.210727
vt -1.66005 -3.773227
vt -1.894425 -3.20031
vt -1.649633 -3.773227
vt -1.66005 -3.783644
vt -1.66005 -3.20031
vt -1.649633 -3.210727
vt -1.894425 -3.783644
vt 0.0 0.0
vt -0.234375 0.5625
vt -0.234375 0.0
vt 0.0 0.5625
vt -0.734277 -0.213443
vt -0.744693 -0.807193
vt -0.734277 -0.807193
vt -0.744693 -0.213443
vt -0.807193 -0.838443
vt -0.744693 -1.432193
vt -0.744693 -0.838443
vt -0.807193 -0.213443
vt -0.807193 -1.432193
vt -0.807193 -0.807193
vt -0.81761 -0.807193
vt -0.81761 -0.213443
vt -1.41005 -3.773227
vt -1.4413 -3.32276
vt -1.41005 -3.32276
vt -1.4413 -3.773227
vt -1.41005 -3.307135
vt -1.4413 -3.788852
vt -1.4413 -3.307135
vt -1.41005 -3.788852
vt 0.0 0.0
vt -0.015625 0.5625
vt -0.015625 0.0
vt 0.0 0.5625
vt 0.015625 0.0
vt 0.015625 0.5625
vt 0.03125 0.5625
vt 0.03125 0.0
vt -0.734277 -0.213443
vt -0.744693 -0.807193
vt -0.734277 -0.807193
vt -0.744693 -0.213443
vt -0.807193 -0.838443
vt -0.744693 -1.432193
vt -0.744693 -0.838443
vt -0.807193 -0.213443
vt -0.807193 -1.432193
vt -0.807193 -0.807193
vt -0.81761 -0.807193
vt -0.81761 -0.213443
vt -1.894425 -3.210727
vt -1.894425 -3.773227
vt -1.66005 -3.210727
vt -1.66005 -3.773227
vt -1.894425 -3.20031
vt -1.649633 -3.773227
vt -1.66005 -3.783644
vt -1.66005 -3.20031
vt -1.649633 -3.210727
vt -1.894425 -3.783644
vt -0.234375 0.0
vt -0.234375 0.5625
vt 0.0 0.0
vt 0.0 0.5625
vt -0.495791 0.742188
vt -0.480166 0.0
vt -0.480166 0.742188
vt -0.495791 0.0
vt 0.392383 -0.105579
vt 0.392383 -0.847766
vt 0.376758 -0.105579
vt 0.376758 -0.847766
vt 0.887494 0.0
vt 1.227337 0.742188
vt 0.887494 0.742188
vt 1.760043 -0.105579
vt 2.099886 -0.105579
vt 1.760043 -0.847766
vt 1.227337 0.480166
vt 0.887494 0.495791
vt 0.887494 0.480166
vt 1.760043 -0.3676
vt 1.760043 -0.351975
vt 2.099886 -0.3676
vt -0.887494 0.742188
vt -1.227337 0.0
vt -0.887494 0.0
vt -0.014945 -0.847766
vt -0.354789 -0.847766
vt -0.014945 -0.105579
vt -1.227337 0.495791
vt -0.887494 0.480166
vt -0.887494 0.495791
vt -0.014945 -0.351975
vt -0.014945 -0.3676
vt -0.354789 -0.351975
vt 1.227337 0.0
vt 2.099886 -0.847766
vt 1.227337 0.495791
vt 2.099886 -0.351975
vt -1.227337 0.742188
vt -0.354789 -0.105579
vt -1.227337 0.480166
vt -0.354789 -0.3676
vt 0.495791 0.0
vt 0.480166 0.742188
vt 0.480166 0.0
vt 1.352715 -0.847766
vt 1.352715 -0.105579
vt 1.36834 -0.847766
vt 0.495791 0.742188
vt 1.36834 -0.105579
vt 0.5625 0.0
vt 0.0 0.015625
vt 0.0 0.0
vt 0.5625 0.015625
vt 0.5625 0.03125
vt 0.0 0.03125
vt -0.5625 0.015625
vt -0.5625 0.0
vt -1.06615 -3.816969
vt -1.0349 -4.267435
vt -1.0349 -3.816969
vt -1.06615 -4.267435
vt -0.351314 9.471887
vt -0.332661 -0.625198
vt -0.329728 9.47188
vt -0.354248 -0.625191
vt -0.413223 -0.625174
vt -0.410289 9.471904
vt -0.490851 9.471928
vt -0.493785 -0.625151
vt -0.571413 9.471951
vt -0.574347 -0.625127
vt -0.630388 9.471969
vt -0.633322 -0.62511
vt -0.654909 -0.625104
vt -0.651975 9.471975
vt -0.738026 -4.780467
vt -0.514067 -4.304974
vt -0.738026 -4.304974
vt -0.514067 -4.780467
vt 0.0625 0.5
vt 0.0 0.0
vt 0.0625 0.0
vt 0.0 0.5
vt 0.015625 0.0
vt -0.015625 0.5
vt 0.015625 0.5
vt -0.015625 0.0
vt -0.0625 0.0
vt -0.0625 0.5
vt -0.514067 -3.804456
vt -0.738026 -4.279948
vt -0.514067 -4.279948
vt -0.738025 -3.804456
vt 0.5625 0.0
vt 0.0 0.015625
vt 0.0 0.0
vt 0.5625 0.015625
vt 0.5625 0.03125
vt 0.0 0.03125
vt -0.5625 0.015625
vt -0.5625 0.0
vt -1.06615 -3.816969
vt -1.0349 -4.267435
vt -1.0349 -3.816969
vt -1.06615 -4.267435
vn -1.0 0.0 0.0
vn 0.0 0.0 1.0
vn 0.0 0.0 -1.0
vn 1.0 0.0 0.0
vn -1.0 0.0 0.0
vn 0.0 0.0 1.0
vn 0.0 0.0 -1.0
vn 1.0 0.0 0.0
vn -1.0 0.0 0.0
vn 0.0 0.0 1.0
vn 0.0 0.0 -1.0
vn 1.0 0.0 0.0
vn 0.0 0.0 -1.0
vn 1.0 0.0 0.0
vn -1.0 0.0 0.0
vn 0.0 0.0 1.0
vn 0.0 -1.0 0.0
vn 0.0 1.0 0.0
vn 0.0 0.0 1.0
vn 0.0 0.0 -1.0
vn -1.0 0.0 0.0
vn 0.0 0.0 1.0
vn 0.0 0.0 -1.0
vn 1.0 0.0 0.0
vn 0.0 0.0 -1.0
vn 0.0 0.0 1.0
vn 0.0 1.0 0.0
vn 1.0 0.0 0.0
vn 0.0 0.0 -1.0
vn -1.0 0.0 0.0
vn 0.0 -1.0 0.0
vn 0.0 0.0 1.0
vn -1.0 0.0 0.0
vn 0.0 0.0 1.0
vn 0.0 0.0 -1.0
vn 1.0 0.0 0.0
vn 0.0 0.0 -1.0
vn 1.0 0.0 0.0
vn -1.0 0.0 0.0
vn 0.0 0.0 1.0
vn 0.0 1.0 0.0
vn 0.0 -1.0 0.0
vn -1.0 0.0 0.0
vn 0.0 0.0 1.0
vn 0.0 0.0 -1.0
vn 1.0 0.0 0.0
vn 0.0 -1.0 0.0
vn 1.0 0.0 0.0
vn 0.0 0.0 -1.0
vn -1.0 0.0 0.0
vn 0.0 1.0 0.0
vn 0.0 0.0 1.0
vn 0.0 -1.0 0.0
vn 0.0 1.0 0.0
vn 0.0 0.0 1.0
vn 0.0 0.0 -1.0
vn -1.0 0.0 0.0
vn 1.0 0.0 0.0
vn -1.0 0.0 0.0
vn 0.0 1.0 0.0
vn 0.0 0.0 -1.0
vn 1.0 0.0 0.0
vn 0.0 -1.0 0.0
vn 0.0 0.0 1.0
vn -1.0 0.0 0.0
vn 0.0 0.0 1.0
vn 1.0 0.0 0.0
vn 0.0 0.0 -1.0
vn -1.0 0.0 0.0
vn 1.0 0.0 0.0
vn 0.0 -1.0 0.0
vn 0.0 -0.8660253028382762 -0.5000001748438417
vn 0.0 -0.8660253028382762 0.5000001748438417
vn 0.0 -0.5000001748438417 0.8660253028382762
vn 0.0 0.0 1.0
vn 0.0 -0.5000001748438417 -0.8660253028382762
vn 0.0 0.0 -1.0
vn 0.0 0.5000001748438417 0.8660253028382762
vn 0.0 0.5000001748438417 -0.8660253028382762
vn 0.0 0.8660253028382762 0.5000001748438417
vn 0.0 0.8660253028382762 -0.5000001748438417
vn 0.0 1.0 0.0
vn 0.0 -1.0 0.0
vn 0.0 0.0 -1.0
vn 1.0 0.0 0.0
vn -1.0 0.0 0.0
vn 0.0 1.0 0.0
vn 0.0 0.0 1.0
vn -1.0 0.0 0.0
vn 1.0 0.0 0.0
vn 0.0 0.0 1.0
vn 0.0 1.0 0.0
vn 0.0 -1.0 0.0
vn 0.0 0.0 -1.0
vn 1.0 0.0 0.0
vn -1.0 0.0 0.0
vn -1.0 0.0 0.0
vn 0.0 0.0 1.0
vn 1.0 0.0 0.0
vn 0.0 0.0 -1.0
usemtl base_geom
f 1/1/1 2/2/1 3/3/1
f 2/2/1 1/1/1 4/4/1
f 5/5/2 1/6/2 3/7/2
f 6/8/3 2/2/3 4/4/3
f 1/6/2 5/5/2 7/9/2
f 2/2/3 6/8/3 8/10/3
f 5/11/4 6/8/4 7/12/4
f 6/8/4 5/11/4 8/10/4
f 3//4 2//4 1//4
f 4//4 1//4 2//4
f 3//3 1//3 5//3
f 4//2 2//2 6//2
f 7//3 5//3 1//3
f 8//2 6//2 2//2
f 7//1 6//1 5//1
f 8//1 5//1 6//1
f 9/13/5 10/14/5 11/15/5
f 10/14/5 9/13/5 12/16/5
f 13/17/6 9/13/6 11/15/6
# UNHIT_FACE f 14/18/7 10/14/7 12/16/7
f 9/13/6 13/17/6 15/19/6
# UNHIT_FACE f 10/14/7 14/18/7 16/20/7
f 13/21/8 14/22/8 15/23/8
# UNHIT_FACE f 14/22/8 13/21/8 16/24/8
f 11//8 10//8 9//8
f 12//8 9//8 10//8
f 11//7 9//7 13//7
# UNHIT_FACE f 12//6 10//6 14//6
f 15//7 13//7 9//7
# UNHIT_FACE f 16//6 14//6 10//6
f 15//5 14//5 13//5
# UNHIT_FACE f 16//5 13//5 14//5
f 17/25/9 18/26/9 19/27/9
# UNHIT_FACE f 18/26/9 17/25/9 20/28/9
f 21/29/10 17/25/10 19/27/10
# UNHIT_FACE f 22/30/11 18/26/11 20/28/11
f 17/25/10 21/29/10 23/31/10
# UNHIT_FACE f 18/26/11 22/30/11 24/32/11
f 21/33/12 22/34/12 23/35/12
# UNHIT_FACE f 22/34/12 21/33/12 24/36/12
f 19//12 18//12 17//12
f 20//12 17//12 18//12
f 19//11 17//11 21//11
# UNHIT_FACE f 20//10 18//10 22//10
f 23//11 21//11 17//11
# UNHIT_FACE f 24//10 22//10 18//10
f 23//9 22//9 21//9
# UNHIT_FACE f 24//9 21//9 22//9
f 25/37/13 26/38/13 27/39/13
f 25/37/14 28/40/14 26/38/14
f 29/41/13 27/39/13 26/38/13
f 30/42/14 26/38/14 28/40/14
f 29/41/15 31/43/15 27/39/15
f 32/44/15 27/39/15 31/43/15
f 27//16 26//16 25//16
f 26//15 28//15 25//15
f 26//16 27//16 29//16
f 28//17 27//17 25//17
f 28//15 26//15 30//15
f 27//14 31//14 29//14
f 31//18 26//18 29//18
f 27//17 28//17 32//17
f 26//18 31//18 30//18
f 31//13 28//13 30//13
f 31//14 27//14 32//14
f 28//13 31//13 32//13
f 25/45/18 27/46/18 28/47/18
f 29/48/17 26/49/17 31/50/17
f 32/50/18 28/47/18 27/46/18
f 30/47/17 31/50/17 26/49/17
f 30/51/16 28/47/16 31/52/16
f 32/50/16 31/52/16 28/47/16
f 33/53/19 34/54/19 35/55/19
f 34/54/19 33/53/19 36/56/19
f 35//20 34//20 33//20
f 36//20 33//20 34//20
f 37/57/21 38/58/21 39/59/21
f 38/58/21 37/57/21 40/60/21
f 41/61/22 37/57/22 39/59/22
# UNHIT_FACE f 42/62/23 38/58/23 40/60/23
f 37/57/22 41/61/22 43/63/22
# UNHIT_FACE f 38/58/23 42/62/23 44/64/23
f 41/65/24 42/66/24 43/67/24
# UNHIT_FACE f 42/66/24 41/65/24 44/68/24
f 39//24 38//24 37//24
f 40//24 37//24 38//24
f 39//23 37//23 41//23
# UNHIT_FACE f 40//22 38//22 42//22
f 43//23 41//23 37//23
# UNHIT_FACE f 44//22 42//22 38//22
f 43//21 42//21 41//21
# UNHIT_FACE f 44//21 41//21 42//21
f 45/69/25 46/70/25 47/71/25
f 46/70/25 45/69/25 48/72/25
f 47//26 46//26 45//26
f 48//26 45//26 46//26
f 49/73/27 50/74/27 51/75/27
f 50/74/27 49/73/27 52/76/27
f 53/77/28 49/73/28 51/75/28
f 49/73/29 54/78/29 52/76/29
f 54/79/30 50/74/30 52/76/30
f 49/73/28 53/77/28 55/80/28
# UNHIT_FACE f 54/78/29 49/73/29 55/81/29
f 50/74/30 54/79/30 56/82/30
f 51//31 50//31 49//31
f 52//31 49//31 50//31
f 51//30 49//30 53//30
f 52//32 54//32 49//32
f 52//28 50//28 54//28
f 55//30 53//30 49//30
f 55//32 49//32 54//32
f 56//28 54//28 50//28
f 55//27 54//27 53//27
f 56//27 53//27 54//27
f 53/83/31 54/84/31 55/85/31
f 54/84/31 53/83/31 56/86/31
# UNHIT_FACE f 57/87/33 58/88/33 59/89/33
f 58/88/33 57/87/33 60/90/33
# UNHIT_FACE f 61/91/34 57/92/34 59/93/34
f 62/94/35 58/88/35 60/90/35
# UNHIT_FACE f 57/92/34 61/91/34 63/95/34
f 58/88/35 62/94/35 64/96/35
f 61/97/36 62/94/36 63/98/36
f 62/94/36 61/97/36 64/96/36
f 59//36 58//36 57//36
f 60//36 57//36 58//36
# UNHIT_FACE f 59//35 57//35 61//35
f 60//34 58//34 62//34
# UNHIT_FACE f 63//35 61//35 57//35
f 64//34 62//34 58//34
f 63//33 62//33 61//33
f 64//33 61//33 62//33
f 65/99/37 66/100/37 67/101/37
# UNHIT_FACE f 66/100/37 65/99/37 68/102/37
# UNHIT_FACE f 66/100/38 69/103/38 67/101/38
f 65/99/39 70/104/39 68/102/39
f 69/103/38 66/100/38 71/105/38
f 70/104/39 65/99/39 72/106/39
f 67//40 66//40 65//40
f 68//40 65//40 66//40
f 67//39 69//39 66//39
f 67//41 65//41 69//41
f 68//38 70//38 65//38
# UNHIT_FACE f 68//42 66//42 70//42
f 71//39 66//39 69//39
f 72//41 69//41 65//41
f 72//38 65//38 70//38
# UNHIT_FACE f 71//42 70//42 66//42
f 71//37 69//37 70//37
f 72//37 70//37 69//37
f 69/107/42 65/108/42 67/109/42
# UNHIT_FACE f 70/110/41 66/111/41 68/112/41
f 65/108/42 69/107/42 72/110/42
# UNHIT_FACE f 66/111/41 70/110/41 71/107/41
f 70/113/40 69/107/40 71/114/40
f 69/107/40 70/113/40 72/110/40
# UNHIT_FACE f 73/115/43 74/116/43 75/117/43
f 74/116/43 73/115/43 76/118/43
# UNHIT_FACE f 77/119/44 73/120/44 75/121/44
f 78/122/45 74/116/45 76/118/45
# UNHIT_FACE f 73/120/44 77/119/44 79/123/44
f 74/116/45 78/122/45 80/124/45
f 77/125/46 78/122/46 79/126/46
f 78/122/46 77/125/46 80/124/46
f 75//46 74//46 73//46
f 76//46 73//46 74//46
# UNHIT_FACE f 75//45 73//45 77//45
f 76//44 74//44 78//44
# UNHIT_FACE f 79//45 77//45 73//45
f 80//44 78//44 74//44
f 79//43 78//43 77//43
f 80//43 77//43 78//43
f 81/127/47 82/128/47 83/129/47
f 84/130/47 83/129/47 82/128/47
f 81/127/48 83/129/48 85/131/48
f 84/130/49 86/132/49 83/129/49
f 84/130/50 82/128/50 86/133/50
f 87/134/48 85/131/48 83/129/48
f 87/135/49 83/129/49 86/132/49
f 88/136/50 86/133/50 82/128/50
f 83//51 82//51 81//51
f 82//51 83//51 84//51
f 85//50 83//50 81//50
# UNHIT_FACE f 83//52 86//52 84//52
f 86//48 82//48 84//48
f 83//50 85//50 87//50
# UNHIT_FACE f 86//52 83//52 87//52
f 82//48 86//48 88//48
f 85//47 86//47 87//47
f 86//47 85//47 88//47
f 87/137/51 86/138/51 85/139/51
f 88/140/51 85/139/51 86/138/51
f 89/141/53 90/142/53 91/143/53
f 90/142/53 89/141/53 92/144/53
f 91/145/54 90/146/54 89/147/54
f 92/148/54 89/147/54 90/146/54
f 90/149/55 93/150/55 91/151/55
f 91/152/56 93/153/56 90/154/56
f 93/155/57 89/156/57 91/157/57
f 91/158/58 89/159/58 93/160/58
# UNHIT_FACE f 89/161/56 94/162/56 92/163/56
# UNHIT_FACE f 92/164/55 94/165/55 89/166/55
f 94/167/58 90/168/58 92/169/58
f 92/170/57 90/171/57 94/172/57
f 93/150/55 90/149/55 95/173/55
f 95/174/56 90/154/56 93/153/56
f 89/156/57 93/155/57 96/175/57
f 96/176/58 93/160/58 89/159/58
# UNHIT_FACE f 94/162/56 89/161/56 96/177/56
# UNHIT_FACE f 96/178/55 89/166/55 94/165/55
f 90/168/58 94/167/58 95/179/58
f 95/180/57 94/172/57 90/171/57
f 94/181/54 93/182/54 95/183/54
f 95/184/53 93/185/53 94/186/53
f 93/182/54 94/181/54 96/187/54
f 96/188/53 94/186/53 93/185/53
# UNHIT_FACE f 97//59 98//59 99//59
f 98//59 97//59 100//59
f 99//60 101//60 97//60
# UNHIT_FACE f 101//61 100//61 97//61
f 98//59 100//59 102//59
f 101//60 99//60 103//60
# UNHIT_FACE f 100//61 101//61 104//61
f 102//59 100//59 105//59
f 106//62 101//62 103//62
f 101//62 106//62 104//62
f 107//63 100//63 104//63
f 105//59 100//59 108//59
# UNHIT_FACE f 104//62 106//62 109//62
f 100//63 107//63 108//63
f 104//62 110//62 107//62
f 104//62 109//62 110//62
f 99//62 98//62 97//62
# UNHIT_FACE f 100//62 97//62 98//62
f 97//63 101//63 99//63
# UNHIT_FACE f 97//64 100//64 101//64
f 102//62 100//62 98//62
f 103//63 99//63 101//63
# UNHIT_FACE f 104//64 101//64 100//64
f 105//62 100//62 102//62
f 103//59 101//59 106//59
f 104//59 106//59 101//59
f 104//60 100//60 107//60
f 108//62 100//62 105//62
f 109//59 106//59 104//59
f 108//60 107//60 100//60
f 107//59 110//59 104//59
f 110//59 109//59 104//59
# UNHIT_FACE f 111/189/65 112/190/65 113/191/65
f 112/190/65 111/189/65 114/192/65
f 115/191/66 111/193/66 113/194/66
f 111/193/66 115/191/66 117/189/66
f 115/191/67 116/195/67 117/196/67
f 116/195/67 115/191/67 118/190/67
f 113//67 112//67 111//67
f 114//67 111//67 112//67
f 113//68 111//68 115//68
f 114//66 112//66 116//66
f 117//68 115//68 111//68
f 118//66 116//66 112//66
f 117//65 116//65 115//65
f 118//65 115//65 116//65
f 116/197/68 112/198/68 114/199/68
f 112/198/68 116/197/68 118/200/68
# UNHIT_FACE f 119//69 120//69 121//69
# UNHIT_FACE f 120//69 119//69 122//69
# UNHIT_FACE f 120//69 122//69 126//69
f 126//69 122//69 128//69
f 127//70 124//70 123//70
# UNHIT_FACE f 124//70 129//70 125//70
f 126//69 128//69 131//69
# UNHIT_FACE f 124//70 127//70 129//70
f 125//70 129//70 130//70
f 131//69 128//69 133//69
f 130//70 129//70 132//70
f 131//69 133//69 135//69
f 130//70 132//70 134//70
f 135//69 133//69 137//69
f 134//70 132//70 136//70
f 135//69 137//69 139//69
f 134//70 136//70 138//70
f 139//69 137//69 141//69
# UNHIT_FACE f 138//70 136//70 142//70
# UNHIT_FACE f 138//70 142//70 140//70
# UNHIT_FACE f 121//70 120//70 119//70
f 122//70 119//70 120//70
f 121//71 123//71 120//72
f 119//73 124//73 121//71
f 122//74 125//74 119//73
f 126//70 122//70 120//70
f 127//72 120//72 123//71
f 123//71 121//71 124//73
f 124//73 119//73 125//74
f 122//74 128//75 125//74
f 128//70 122//70 126//70
f 126//76 120//72 129//76
f 127//72 129//76 120//72
# UNHIT_FACE f 123//69 124//69 127//69
f 125//69 129//69 124//69
f 130//75 125//74 128//75
f 131//70 128//70 126//70
f 129//76 132//77 126//76
f 129//69 127//69 124//69
f 130//69 129//69 125//69
f 128//75 133//78 130//75
f 133//70 128//70 131//70
f 131//77 126//76 132//77
f 132//69 129//69 130//69
f 134//78 130//75 133//78
f 135//70 133//70 131//70
f 132//77 136//79 131//77
f 134//69 132//69 130//69
f 133//78 137//80 134//78
f 137//70 133//70 135//70
f 135//79 131//77 136//79
f 136//69 132//69 134//69
f 138//80 134//78 137//80
f 139//70 137//70 135//70
f 135//79 136//79 139//81
f 138//69 136//69 134//69
f 138//80 137//80 140//82
# UNHIT_FACE f 141//70 137//70 139//70
f 142//81 139//81 136//79
f 142//69 136//69 138//69
f 141//82 140//82 137//80
# UNHIT_FACE f 140//69 142//69 138//69
f 139//81 142//81 141//82
f 140//82 141//82 142//81
f 120/201/80 123/202/82 121/203/82
f 121/203/82 124/204/81 119/201/81
f 119/201/81 125/205/79 122/206/79
f 123/202/82 120/201/80 127/204/80
f 124/204/81 121/203/82 123/202/82
f 125/205/79 119/201/81 124/204/81
f 125/205/79 128/207/77 122/206/79
f 129/205/78 120/201/80 126/206/78
f 120/201/80 129/205/78 127/204/80
f 128/207/77 125/205/79 130/208/77
f 126/206/78 132/208/75 129/205/78
f 130/208/77 133/209/76 128/207/77
f 132/208/75 126/206/78 131/207/75
f 133/209/76 130/208/77 134/210/76
f 131/207/75 136/210/74 132/208/75
f 134/210/76 137/211/72 133/209/76
f 136/210/74 131/207/75 135/209/74
f 137/211/72 134/210/76 138/212/72
f 139/211/73 136/210/74 135/209/74
f 140/213/71 137/211/72 138/212/72
f 136/210/74 139/211/73 142/212/73
f 137/211/72 140/213/71 141/214/71
f 141/214/71 142/212/73 139/211/73
f 142/212/73 141/214/71 140/213/71
f 143//83 144//83 145//83
f 144//83 143//83 146//83
# UNHIT_FACE f 144//84 147//84 145//84
f 145//85 148//85 143//85
f 149//86 144//86 146//86
# UNHIT_FACE f 147//84 144//84 150//84
f 147//85 151//85 145//85
f 145//85 152//85 148//85
f 153//86 144//86 149//86
f 154//86 150//86 144//86
f 155//87 147//87 150//87
f 151//85 147//85 156//85
f 145//85 151//85 152//85
f 154//86 144//86 153//86
f 150//86 154//86 155//86
f 147//87 155//87 156//87
f 145//87 144//87 143//87
f 146//87 143//87 144//87
# UNHIT_FACE f 145//88 147//88 144//88
f 143//86 148//86 145//86
f 146//85 144//85 149//85
# UNHIT_FACE f 150//88 144//88 147//88
f 145//86 151//86 147//86
f 148//86 152//86 145//86
# UNHIT_FACE f 149//85 144//85 153//85
f 144//85 150//85 154//85
f 150//83 147//83 155//83
f 156//86 147//86 151//86
# UNHIT_FACE f 152//86 151//86 145//86
# UNHIT_FACE f 153//85 144//85 154//85
# UNHIT_FACE f 155//85 154//85 150//85
f 156//83 155//83 147//83
f 157/215/89 158/216/89 159/217/89
f 158/216/89 157/215/89 160/218/89
f 159//90 158//90 157//90
f 160//90 157//90 158//90
f 161/219/91 162/220/91 163/221/91
f 162/220/91 161/219/91 164/222/91
f 165/223/92 161/222/92 163/220/92
# UNHIT_FACE f 166/224/93 162/220/93 164/222/93
f 161/222/92 165/223/92 167/225/92
# UNHIT_FACE f 162/220/93 166/224/93 168/226/93
f 163//94 162//94 161//94
f 164//94 161//94 162//94
f 163//93 161//93 165//93
# UNHIT_FACE f 164//92 162//92 166//92
f 167//93 165//93 161//93
# UNHIT_FACE f 168//92 166//92 162//92
# UNHIT_FACE f 167//91 166//91 165//91
# UNHIT_FACE f 168//91 165//91 166//91
# UNHIT_FACE f 165/227/94 166/222/94 167/228/94
# UNHIT_FACE f 166/222/94 165/227/94 168/220/94
f 169/229/95 170/230/95 171/231/95
f 170/230/95 169/229/95 172/232/95
f 171//96 170//96 169//96
f 172//96 169//96 170//96
f 173/233/97 174/234/97 175/235/97
f 174/234/97 173/233/97 176/236/97
f 177/235/98 173/237/98 175/238/98
f 173/237/98 177/235/98 179/233/98
f 177/235/99 178/239/99 179/240/99
# UNHIT_FACE f 178/239/99 177/235/99 180/234/99
f 175//99 174//99 173//99
f 176//99 173//99 174//99
f 175//100 173//100 177//100
f 176//98 174//98 178//98
f 179//100 177//100 173//100
f 180//98 178//98 174//98
f 179//97 178//97 177//97
f 180//97 177//97 178//97
f 178/241/100 174/242/100 176/243/100
f 174/242/100 178/241/100 180/244/100
