# Merged(arrow/base_geom)

v -0.768738 0.552363 -0.208746
v 0.789523 -0.557898 -0.208746
v 0.789523 0.552363 -0.208746
v -0.768738 -0.557898 -0.208746
v 0.809001 0.552363 -0.223355
v 0.809001 -0.557898 0.195428
v 0.809001 -0.557898 -0.223355
v 0.809001 0.552363 0.195428
v 0.828479 -0.557898 -0.242833
v -0.807695 -0.557898 0.195428
v 0.828479 -0.557898 0.195428
v -0.807695 -0.557898 -0.242833
v 0.828479 -0.577376 0.195428
v -0.807695 -0.577376 -0.242833
v 0.828479 -0.577376 -0.242833
v -0.807695 -0.577376 0.195428
v -0.788217 0.552363 0.195428
v -0.788217 -0.557898 -0.223355
v -0.788217 -0.557898 0.195428
v -0.788217 0.552363 -0.223355
v -0.30126 0.552363 -0.223355
v -0.30126 -0.557898 -0.242833
v -0.30126 -0.557898 -0.223355
v -0.30126 0.552363 -0.242833
v -0.184391 -0.557898 -0.223355
v -0.184391 0.552363 -0.242833
v -0.184391 0.552363 -0.223355
v -0.184391 -0.557898 -0.242833
v 0.115088 -0.511888 0.300732
v 0.115088 -0.511888 0.311689
v 0.115088 -0.51042 0.306211
v 0.115088 -0.515898 0.296722
v 0.704305 -0.51042 0.306211
v 0.704305 -0.511888 0.300732
v 0.704305 -0.515898 0.296722
v 0.115088 -0.515898 0.315699
v 0.704305 -0.511888 0.311689
v 0.115088 -0.521376 0.295254
v 0.704305 -0.515898 0.315699
v 0.704305 -0.521376 0.295254
v 0.115088 -0.521376 0.317167
v 0.704305 -0.521376 0.317167
v 0.115088 -0.526855 0.296722
v 0.704305 -0.526855 0.296722
v 0.115088 -0.526855 0.315699
v 0.704305 -0.526855 0.315699
v 0.115088 -0.530865 0.300732
v 0.704305 -0.530865 0.300732
v 0.115088 -0.530865 0.311689
v 0.704305 -0.532333 0.306211
v 0.115088 -0.532333 0.306211
v 0.704305 -0.530865 0.311689
v -0.004217 0.552363 0.195428
v -0.004217 -0.557898 -0.208746
v -0.004217 -0.557898 0.195428
v -0.004217 0.552363 -0.208746
v 0.025001 -0.557898 0.195428
v 0.025001 0.552363 -0.208746
v 0.025001 0.552363 0.195428
v 0.025001 -0.557898 -0.208746
v -0.807695 0.552363 -0.223355
v -0.807695 -0.557898 -0.242833
v -0.807695 -0.557898 -0.223355
v -0.807695 0.552363 -0.242833
v -0.690825 -0.557898 -0.223355
v -0.690825 0.552363 -0.242833
v -0.690825 0.552363 -0.223355
v -0.690825 -0.557898 -0.242833
v -0.74926 0.36732 0.224645
v 0.770044 0.055667 0.224645
v 0.770044 0.36732 0.224645
v -0.74926 0.055667 0.224645
v 0.770044 0.36732 0.195428
v -0.74926 0.055667 0.195428
v -0.74926 0.36732 0.195428
v 0.770044 0.055667 0.195428
v 0.704305 -0.529622 0.29949
v 0.668727 -0.529622 0.253863
v 0.704305 -0.529622 0.253863
v 0.668727 -0.529622 0.29949
v 0.704305 -0.51313 0.253863
v 0.704305 -0.526855 0.296722
v 0.668727 -0.526855 0.296722
v 0.668727 -0.51313 0.253863
v 0.704305 -0.515898 0.296722
v 0.704305 -0.521376 0.295254
v 0.668727 -0.521376 0.295254
v 0.668727 -0.515898 0.296722
v 0.668727 -0.51313 0.29949
v 0.704305 -0.51313 0.29949
v 0.205175 0.552363 -0.223355
v 0.205175 -0.557898 -0.242833
v 0.205175 -0.557898 -0.223355
v 0.205175 0.552363 -0.242833
v 0.322044 -0.557898 -0.223355
v 0.322044 0.552363 -0.242833
v 0.322044 0.552363 -0.223355
v 0.322044 -0.557898 -0.242833
v -0.807695 -0.587115 0.195428
v 0.828479 -0.528681 0.195428
v 0.828479 -0.587115 0.195428
v -0.807695 -0.528681 0.195428
v 0.828479 -0.587115 0.224645
v -0.807695 -0.528681 0.224645
v 0.828479 -0.528681 0.224645
v -0.807695 -0.587115 0.224645
v 0.828479 0.58158 0.195428
v 0.828479 0.523146 0.195428
v -0.807695 0.58158 0.195428
v 0.828479 0.58158 0.224645
v -0.807695 0.523146 0.195428
v 0.828479 0.523146 0.224645
v -0.807695 0.523146 0.224645
v -0.807695 0.58158 0.224645
v -0.401086 0.552363 0.195428
v -0.401086 -0.557898 -0.208746
v -0.401086 -0.557898 0.195428
v -0.401086 0.552363 -0.208746
v -0.371869 -0.557898 0.195428
v -0.371869 0.552363 -0.208746
v -0.371869 0.552363 0.195428
v -0.371869 -0.557898 -0.208746
v 0.828479 0.552363 0.195428
v -0.807695 0.552363 0.195428
v 0.828479 0.552363 -0.242833
v -0.807695 0.552363 -0.242833
v 0.828479 0.571841 0.195428
v -0.807695 0.571841 -0.242833
v 0.828479 0.571841 -0.242833
v -0.807695 0.571841 0.195428
v 0.115088 -0.51313 0.253863
v 0.115088 -0.515898 0.296722
v 0.115088 -0.51313 0.29949
v 0.115088 -0.529622 0.253863
v 0.150666 -0.51313 0.253863
v 0.115088 -0.521376 0.295254
v 0.150666 -0.51313 0.29949
v 0.150666 -0.529622 0.253863
v 0.115088 -0.526855 0.296722
v 0.150666 -0.515898 0.296722
v 0.150666 -0.529622 0.29949
v 0.115088 -0.529622 0.29949
v 0.150666 -0.521376 0.295254
v 0.150666 -0.526855 0.296722
v -0.800391 -0.579811 0.224645
v 0.821175 -0.579811 0.253863
v -0.800391 -0.579811 0.253863
v 0.821175 -0.579811 0.224645
v -0.800391 0.106798 0.253863
v 0.821175 0.106798 0.224645
v 0.821175 0.106798 0.253863
v -0.800391 0.106798 0.224645
v 0.770044 0.523146 0.224645
v 0.770044 -0.528681 0.195428
v 0.770044 -0.528681 0.224645
v 0.770044 0.523146 0.195428
v 0.828479 -0.528681 0.224645
v 0.828479 0.523146 0.195428
v 0.828479 0.523146 0.224645
v 0.828479 -0.528681 0.195428
v -0.768738 -0.557898 -0.223355
v 0.789523 0.552363 -0.223355
v 0.789523 -0.557898 -0.223355
v -0.768738 0.552363 -0.223355
v -0.807695 0.523146 0.224645
v -0.807695 -0.528681 0.195428
v -0.807695 -0.528681 0.224645
v -0.807695 0.523146 0.195428
v -0.74926 -0.528681 0.224645
v -0.74926 0.523146 0.195428
v -0.74926 0.523146 0.224645
v -0.74926 -0.528681 0.195428
v 0.392653 0.552363 0.195428
v 0.392653 -0.557898 -0.208746
v 0.392653 -0.557898 0.195428
v 0.392653 0.552363 -0.208746
v 0.42187 -0.557898 0.195428
v 0.42187 0.552363 -0.208746
v 0.42187 0.552363 0.195428
v 0.42187 -0.557898 -0.208746
vt -1.232882 -4.665964
vt -0.639132 -4.248866
vt -1.232882 -4.248866
vt -0.639132 -4.665964
vt -0.514067 -3.804456
vt -0.738026 -4.279948
vt -0.514067 -4.279948
vt -0.738025 -3.804456
vt -1.66005 -3.210727
vt -1.894425 -3.773227
vt -1.894425 -3.210727
vt -1.66005 -3.773227
vt -1.894425 -3.20031
vt -1.649633 -3.773227
vt -1.66005 -3.783644
vt -1.66005 -3.20031
vt -1.649633 -3.210727
vt -1.894425 -3.783644
vt 0.0 0.0
vt -0.234375 0.5625
vt -0.234375 0.0
vt 0.0 0.5625
vt -0.738026 -4.780467
vt -0.514067 -4.304974
vt -0.738026 -4.304974
vt -0.514067 -4.780467
vt -0.734277 -0.213443
vt -0.744693 -0.807193
vt -0.734277 -0.807193
vt -0.744693 -0.213443
vt -0.807193 -0.838443
vt -0.744693 -1.432193
vt -0.744693 -0.838443
vt -0.807193 -0.213443
vt -0.807193 -1.432193
vt -0.807193 -0.807193
vt -0.81761 -0.807193
vt -0.81761 -0.213443
vt -0.351314 9.471887
vt -0.332661 -0.625198
vt -0.329728 9.47188
vt -0.354248 -0.625191
vt -0.413223 -0.625174
vt -0.410289 9.471904
vt -0.490851 9.471928
vt -0.493785 -0.625151
vt -0.571413 9.471951
vt -0.574347 -0.625127
vt -0.630388 9.471969
vt -0.633322 -0.62511
vt -0.654909 -0.625104
vt -0.651975 9.471975
vt -0.738026 -4.780467
vt -0.52188 -4.304974
vt -0.738026 -4.304974
vt -0.52188 -4.780467
vt -0.750539 -4.304974
vt -0.509367 -4.780467
vt -0.750539 -4.780467
vt -0.509367 -4.304974
vt -0.738026 -4.279948
vt -0.52188 -3.804456
vt -0.738025 -3.804456
vt -0.52188 -4.279948
vt -0.734277 -0.213443
vt -0.744693 -0.807193
vt -0.734277 -0.807193
vt -0.744693 -0.213443
vt -0.807193 -0.838443
vt -0.744693 -1.432193
vt -0.744693 -0.838443
vt -0.807193 -0.213443
vt -0.807193 -1.432193
vt -0.807193 -0.807193
vt -0.81761 -0.807193
vt -0.81761 -0.213443
vt 0.0625 0.5
vt 0.0 0.0
vt 0.0625 0.0
vt 0.0 0.5
vt 0.015625 0.0
vt -0.015625 0.5
vt 0.015625 0.5
vt -0.015625 0.0
vt -0.0625 0.0
vt -0.0625 0.5
vt -0.734277 -0.213443
vt -0.744693 -0.807193
vt -0.734277 -0.807193
vt -0.744693 -0.213443
vt -0.807193 -0.838443
vt -0.744693 -1.432193
vt -0.744693 -0.838443
vt -0.807193 -0.213443
vt -0.807193 -1.432193
vt -0.807193 -0.807193
vt -0.81761 -0.807193
vt -0.81761 -0.213443
vt -1.41005 -3.773227
vt -1.4413 -3.32276
vt -1.41005 -3.32276
vt -1.4413 -3.773227
vt -1.41005 -3.307135
vt -1.4413 -3.788852
vt -1.4413 -3.307135
vt -1.41005 -3.788852
vt 0.0 0.0
vt -0.015625 0.5625
vt -0.015625 0.0
vt 0.0 0.5625
vt 0.015625 0.0
vt 0.015625 0.5625
vt 0.03125 0.5625
vt 0.03125 0.0
vt -1.41005 -3.32276
vt -1.4413 -3.32276
vt -1.41005 -3.773227
vt -1.41005 -3.307135
vt -1.4413 -3.773227
vt -1.4413 -3.307135
vt -1.4413 -3.788852
vt -1.41005 -3.788852
vt -0.015625 0.0
vt -0.015625 0.5625
vt 0.0 0.0
vt 0.015625 0.5625
vt 0.015625 0.0
vt 0.0 0.5625
vt 0.03125 0.0
vt 0.03125 0.5625
vt -0.738026 -4.780467
vt -0.52188 -4.304974
vt -0.738026 -4.304974
vt -0.52188 -4.780467
vt -0.750539 -4.304974
vt -0.509367 -4.780467
vt -0.750539 -4.780467
vt -0.509367 -4.304974
vt -0.738026 -4.279948
vt -0.52188 -3.804456
vt -0.738025 -3.804456
vt -0.52188 -4.279948
vt -1.894425 -3.210727
vt -1.894425 -3.773227
vt -1.66005 -3.210727
vt -1.66005 -3.773227
vt -1.894425 -3.20031
vt -1.649633 -3.773227
vt -1.66005 -3.783644
vt -1.66005 -3.20031
vt -1.649633 -3.210727
vt -1.894425 -3.783644
vt -0.234375 0.0
vt -0.234375 0.5625
vt 0.0 0.0
vt 0.0 0.5625
vt -0.495791 0.742188
vt -0.480166 0.0
vt -0.480166 0.742188
vt -0.495791 0.0
vt 0.392383 -0.105579
vt 0.392383 -0.847766
vt 0.376758 -0.105579
vt 0.376758 -0.847766
vt 0.887494 0.0
vt 1.227337 0.742188
vt 0.887494 0.742188
vt 1.760043 -0.105579
vt 2.099886 -0.105579
vt 1.760043 -0.847766
vt 1.227337 0.480166
vt 0.887494 0.495791
vt 0.887494 0.480166
vt 1.760043 -0.3676
vt 1.760043 -0.351975
vt 2.099886 -0.3676
vt -0.887494 0.742188
vt -1.227337 0.0
vt -0.887494 0.0
vt -0.014945 -0.847766
vt -0.354789 -0.847766
vt -0.014945 -0.105579
vt -1.227337 0.495791
vt -0.887494 0.480166
vt -0.887494 0.495791
vt -0.014945 -0.351975
vt -0.014945 -0.3676
vt -0.354789 -0.351975
vt 1.227337 0.0
vt 2.099886 -0.847766
vt 1.227337 0.495791
vt 2.099886 -0.351975
vt -1.227337 0.742188
vt -0.354789 -0.105579
vt -1.227337 0.480166
vt -0.354789 -0.3676
vt 0.495791 0.0
vt 0.480166 0.742188
vt 0.480166 0.0
vt 1.352715 -0.847766
vt 1.352715 -0.105579
vt 1.36834 -0.847766
vt 0.495791 0.742188
vt 1.36834 -0.105579
vt 0.5625 0.0
vt 0.0 0.015625
vt 0.0 0.0
vt 0.5625 0.015625
vt 0.5625 0.03125
vt 0.0 0.03125
vt -0.5625 0.015625
vt -0.5625 0.0
vt -1.06615 -3.816969
vt -1.0349 -4.267435
vt -1.0349 -3.816969
vt -1.06615 -4.267435
vt -0.607882 -4.665964
vt -0.014132 -4.248866
vt -0.607882 -4.248866
vt -0.014132 -4.665965
vt 0.5625 0.0
vt 0.0 0.015625
vt 0.0 0.0
vt 0.5625 0.015625
vt 0.5625 0.03125
vt 0.0 0.03125
vt -0.5625 0.015625
vt -0.5625 0.0
vt -1.06615 -3.816969
vt -1.0349 -4.267435
vt -1.0349 -3.816969
vt -1.06615 -4.267435
vt -0.738026 -4.780467
vt -0.52188 -4.304974
vt -0.738026 -4.304974
vt -0.52188 -4.780467
vt -0.750539 -4.304974
vt -0.509367 -4.780467
vt -0.750539 -4.780467
vt -0.509367 -4.304974
vt -0.738026 -4.279948
vt -0.52188 -3.804456
vt -0.738025 -3.804456
vt -0.52188 -4.279948
vn 0.0 0.0 1.0
vn 0.0 0.0 -1.0
vn 1.0 0.0 0.0
vn -1.0 0.0 0.0
vn 0.0 1.0 0.0
vn 1.0 0.0 0.0
vn 0.0 0.0 -1.0
vn -1.0 0.0 0.0
vn 0.0 -1.0 0.0
vn 0.0 0.0 1.0
vn -1.0 0.0 0.0
vn 1.0 0.0 0.0
vn -1.0 0.0 0.0
vn 0.0 0.0 1.0
vn 0.0 0.0 -1.0
vn 1.0 0.0 0.0
vn -1.0 0.0 0.0
vn 1.0 0.0 0.0
vn 0.0 -1.0 0.0
vn 0.0 -0.8660253028382762 -0.5000001748438417
vn 0.0 -0.8660253028382762 0.5000001748438417
vn 0.0 -0.5000001748438417 0.8660253028382762
vn 0.0 0.0 1.0
vn 0.0 -0.5000001748438417 -0.8660253028382762
vn 0.0 0.0 -1.0
vn 0.0 0.5000001748438417 0.8660253028382762
vn 0.0 0.5000001748438417 -0.8660253028382762
vn 0.0 0.8660253028382762 0.5000001748438417
vn 0.0 0.8660253028382762 -0.5000001748438417
vn 0.0 1.0 0.0
vn -1.0 0.0 0.0
vn 0.0 0.0 1.0
vn 0.0 0.0 -1.0
vn 1.0 0.0 0.0
vn -1.0 0.0 0.0
vn 0.0 0.0 1.0
vn 0.0 0.0 -1.0
vn 1.0 0.0 0.0
vn 0.0 0.0 1.0
vn 0.0 1.0 0.0
vn 0.0 -1.0 0.0
vn 0.0 0.0 -1.0
vn 0.0 -1.0 0.0
vn 0.0 0.0 -1.0
vn 1.0 0.0 0.0
vn -1.0 0.0 0.0
vn 0.0 1.0 0.0
vn 0.0 0.0 1.0
vn -1.0 0.0 0.0
vn 0.0 0.0 1.0
vn 0.0 0.0 -1.0
vn 1.0 0.0 0.0
vn 0.0 0.0 -1.0
vn 1.0 0.0 0.0
vn -1.0 0.0 0.0
vn 0.0 0.0 1.0
vn 0.0 1.0 0.0
vn 0.0 -1.0 0.0
vn 0.0 0.0 -1.0
vn 1.0 0.0 0.0
vn -1.0 0.0 0.0
vn 0.0 0.0 1.0
vn 0.0 -1.0 0.0
vn 0.0 1.0 0.0
vn -1.0 0.0 0.0
vn 0.0 0.0 1.0
vn 0.0 0.0 -1.0
vn 1.0 0.0 0.0
vn 0.0 -1.0 0.0
vn 1.0 0.0 0.0
vn 0.0 0.0 -1.0
vn -1.0 0.0 0.0
vn 0.0 1.0 0.0
vn 0.0 0.0 1.0
vn -1.0 0.0 0.0
vn 0.0 1.0 0.0
vn 0.0 0.0 -1.0
vn 1.0 0.0 0.0
vn 0.0 -1.0 0.0
vn 0.0 0.0 1.0
vn 0.0 -1.0 0.0
vn 0.0 1.0 0.0
vn 0.0 0.0 1.0
vn 0.0 0.0 -1.0
vn -1.0 0.0 0.0
vn 1.0 0.0 0.0
vn -1.0 0.0 0.0
vn 0.0 0.0 1.0
vn 1.0 0.0 0.0
vn 0.0 0.0 -1.0
vn 0.0 0.0 -1.0
vn 0.0 0.0 1.0
vn -1.0 0.0 0.0
vn 0.0 0.0 1.0
vn 1.0 0.0 0.0
vn 0.0 0.0 -1.0
vn -1.0 0.0 0.0
vn 0.0 0.0 1.0
vn 0.0 0.0 -1.0
vn 1.0 0.0 0.0
usemtl base_geom
f 1/1/1 2/2/1 3/3/1
f 2/2/1 1/1/1 4/4/1
f 3//2 2//2 1//2
f 4//2 1//2 2//2
f 5/5/3 6/6/3 7/7/3
f 6/6/3 5/5/3 8/8/3
f 7//4 6//4 5//4
f 8//4 5//4 6//4
f 9/9/5 10/10/5 11/11/5
f 10/10/5 9/9/5 12/12/5
f 13/13/6 9/9/6 11/11/6
f 14/15/8 10/10/8 12/12/8
f 9/9/6 13/13/6 15/16/6
f 10/10/8 14/15/8 16/18/8
f 11//9 10//9 9//9
f 12//9 9//9 10//9
f 11//8 9//8 13//8
f 12//10 14//10 9//10
f 12//6 10//6 14//6
f 15//8 13//8 9//8
f 15//10 9//10 14//10
f 16//6 14//6 10//6
f 15//5 14//5 13//5
f 16//5 13//5 14//5
f 13/19/9 14/20/9 15/21/9
f 14/20/9 13/19/9 16/22/9
f 17/23/11 18/24/11 19/25/11
f 18/24/11 17/23/11 20/26/11
f 19//12 18//12 17//12
f 20//12 17//12 18//12
f 21/27/13 22/28/13 23/29/13
f 26/34/15 22/28/15 24/30/15
f 22/28/15 26/34/15 28/36/15
f 25/37/16 26/34/16 27/38/16
f 23//16 22//16 21//16
f 24//16 21//16 22//16
f 24//14 22//14 26//14
f 28//14 26//14 22//14
f 27//13 26//13 25//13
f 28//13 25//13 26//13
f 30//17 29//17 32//17
f 30//17 32//17 36//17
f 36//17 32//17 38//17
f 34//18 39//18 35//18
f 36//17 38//17 41//17
f 34//18 37//18 39//18
f 35//18 39//18 40//18
f 41//17 38//17 43//17
f 40//18 39//18 42//18
f 40//18 42//18 44//18
f 45//17 43//17 47//17
f 44//18 42//18 46//18
f 44//18 46//18 48//18
f 31//19 33//19 30//20
f 29//21 34//21 31//19
f 32//22 35//22 29//21
f 36//18 32//18 30//18
f 37//20 30//20 33//19
f 33//19 31//19 34//21
f 34//21 29//21 35//22
f 32//22 38//23 35//22
f 38//18 32//18 36//18
f 36//24 30//20 39//24
f 37//20 39//24 30//20
f 33//17 34//17 37//17
f 40//23 35//22 38//23
f 41//18 38//18 36//18
f 39//24 42//25 36//24
f 40//17 39//17 35//17
f 38//23 43//26 40//23
f 41//25 36//24 42//25
f 42//17 39//17 40//17
f 44//26 40//23 43//26
f 45//18 43//18 41//18
f 42//25 46//27 41//25
f 44//17 42//17 40//17
f 43//26 47//28 44//26
f 47//18 43//18 45//18
f 45//27 41//25 46//27
f 46//17 42//17 44//17
f 48//28 44//26 47//28
f 49//18 47//18 45//18
f 45//27 46//27 49//29
f 48//17 46//17 44//17
f 48//28 47//28 50//30
f 51//18 47//18 49//18
f 52//29 49//29 46//27
f 52//17 46//17 48//17
f 51//30 50//30 47//28
f 49//29 52//29 51//30
f 50//30 51//30 52//29
f 30/39/28 33/40/30 31/41/30
f 31/41/30 34/42/29 29/39/29
f 29/39/29 35/43/27 32/44/27
f 33/40/30 30/39/28 37/42/28
f 34/42/29 31/41/30 33/40/30
f 35/43/27 29/39/29 34/42/29
f 35/43/27 38/45/25 32/44/27
f 39/43/26 30/39/28 36/44/26
f 30/39/28 39/43/26 37/42/28
f 38/45/25 35/43/27 40/46/25
f 36/44/26 42/46/23 39/43/26
f 40/46/25 43/47/24 38/45/25
f 42/46/23 36/44/26 41/45/23
f 43/47/24 40/46/25 44/48/24
f 41/45/23 46/48/22 42/46/23
f 44/48/24 47/49/20 43/47/24
f 46/48/22 41/45/23 45/47/22
f 47/49/20 44/48/24 48/50/20
f 49/49/21 46/48/22 45/47/22
f 50/51/19 47/49/20 48/50/20
f 46/48/22 49/49/21 52/50/21
f 47/49/20 50/51/19 51/52/19
f 51/52/19 52/50/21 49/49/21
f 52/50/21 51/52/19 50/51/19
f 53/53/31 54/54/31 55/55/31
f 54/54/31 53/53/31 56/56/31
f 57/57/32 53/53/32 55/55/32
f 53/53/32 57/57/32 59/59/32
f 57/61/34 58/62/34 59/63/34
f 55//34 54//34 53//34
f 56//34 53//34 54//34
f 55//33 53//33 57//33
f 59//33 57//33 53//33
f 59//31 58//31 57//31
f 61/65/35 62/66/35 63/67/35
f 62/66/35 61/65/35 64/68/35
f 65/69/36 61/70/36 63/71/36
f 66/72/37 62/66/37 64/68/37
f 61/70/36 65/69/36 67/73/36
f 62/66/37 66/72/37 68/74/37
f 65/75/38 66/72/38 67/76/38
f 66/72/38 65/75/38 68/74/38
f 63//38 62//38 61//38
f 64//38 61//38 62//38
f 63//37 61//37 65//37
f 64//36 62//36 66//36
f 67//37 65//37 61//37
f 68//36 66//36 62//36
f 67//35 66//35 65//35
f 68//35 65//35 66//35
f 69/77/39 70/78/39 71/79/39
f 70/78/39 69/77/39 72/80/39
f 73/81/40 69/80/40 71/78/40
f 69/80/40 73/81/40 75/83/40
f 71//42 70//42 69//42
f 72//42 69//42 70//42
f 71//41 69//41 73//41
f 75//41 73//41 69//41
f 77//43 78//43 79//43
f 78//43 77//43 80//43
f 79//45 82//45 77//45
f 81//45 85//45 79//45
f 79//45 86//45 82//45
f 88//46 84//46 78//46
f 89//47 81//47 84//47
f 85//45 81//45 90//45
f 81//47 89//47 90//47
f 79//47 78//47 77//47
f 80//47 77//47 78//47
f 77//46 82//46 79//46
f 80//45 78//45 83//45
f 79//46 85//46 81//46
f 82//46 86//46 79//46
f 83//45 78//45 87//45
f 84//43 81//43 89//43
f 90//46 81//46 85//46
f 86//46 85//46 79//46
f 87//45 78//45 88//45
f 89//45 88//45 84//45
f 90//43 89//43 81//43
f 92/88/49 91/87/49 94/90/49
f 96/94/51 92/88/51 94/90/51
f 92/88/51 96/94/51 98/96/51
f 95/97/52 96/94/52 97/98/52
f 96/94/52 95/97/52 98/96/52
f 93//52 92//52 91//52
f 94//52 91//52 92//52
f 94//50 92//50 96//50
f 98//50 96//50 92//50
f 97//49 96//49 95//49
f 98//49 95//49 96//49
f 99/99/53 100/100/53 101/101/53
f 100/100/53 99/99/53 102/102/53
f 100/100/54 103/103/54 101/101/54
f 99/99/55 104/104/55 102/102/55
f 103/103/54 100/100/54 105/105/54
f 104/104/55 99/99/55 106/106/55
f 101//56 100//56 99//56
f 102//56 99//56 100//56
f 101//57 99//57 103//57
f 102//54 104//54 99//54
f 105//55 100//55 103//55
f 106//57 103//57 99//57
f 106//54 99//54 104//54
f 105//53 103//53 104//53
f 106//53 104//53 103//53
f 103/107/58 99/108/58 101/109/58
f 99/108/58 103/107/58 106/110/58
f 104/113/56 103/107/56 105/114/56
f 103/107/56 104/113/56 106/110/56
f 107/115/59 108/116/59 109/117/59
f 107/115/60 110/118/60 108/116/60
f 111/119/59 109/117/59 108/116/59
f 112/120/60 108/116/60 110/118/60
f 111/119/61 113/121/61 109/117/61
f 114/122/61 109/117/61 113/121/61
f 109//62 108//62 107//62
f 108//61 110//61 107//61
f 108//62 109//62 111//62
f 110//63 109//63 107//63
f 110//61 108//61 112//61
f 109//60 113//60 111//60
f 113//64 108//64 111//64
f 109//63 110//63 114//63
f 108//64 113//64 112//64
f 113//59 110//59 112//59
f 113//60 109//60 114//60
f 110//59 113//59 114//59
f 107/123/64 109/124/64 110/125/64
f 111/126/63 108/127/63 113/128/63
f 114/128/64 110/125/64 109/124/64
f 112/125/63 113/128/63 108/127/63
f 112/129/62 110/125/62 113/130/62
f 114/128/62 113/130/62 110/125/62
f 115/131/65 116/132/65 117/133/65
f 116/132/65 115/131/65 118/134/65
f 119/135/66 115/131/66 117/133/66
f 119/139/68 120/140/68 121/141/68
f 117//68 116//68 115//68
f 118//68 115//68 116//68
f 117//67 115//67 119//67
f 121//67 119//67 115//67
f 121//65 120//65 119//65
f 123/143/69 124/144/69 125/145/69
f 126/146/69 125/145/69 124/144/69
f 123/143/70 125/145/70 127/147/70
f 126/146/71 128/148/71 125/145/71
f 126/146/72 124/144/72 128/149/72
f 129/150/70 127/147/70 125/145/70
f 129/151/71 125/145/71 128/148/71
f 130/152/72 128/149/72 124/144/72
f 125//73 124//73 123//73
f 124//73 125//73 126//73
f 127//72 125//72 123//72
f 128//70 124//70 126//70
f 125//72 127//72 129//72
f 128//74 125//74 129//74
f 124//70 128//70 130//70
f 127//69 128//69 129//69
f 128//69 127//69 130//69
f 129/153/73 128/154/73 127/155/73
f 130/156/73 127/155/73 128/154/73
f 132//75 131//75 134//75
f 133//76 135//76 131//76
f 132//75 134//75 136//75
f 135//76 133//76 137//76
f 136//75 134//75 139//75
f 140//78 135//78 137//78
f 135//78 140//78 138//78
f 141//79 134//79 138//79
f 139//75 134//75 142//75
f 138//78 140//78 143//78
f 134//79 141//79 142//79
f 138//78 144//78 141//78
f 138//78 143//78 144//78
f 133//78 132//78 131//78
f 134//78 131//78 132//78
f 131//79 135//79 133//79
f 136//78 134//78 132//78
f 137//79 133//79 135//79
f 139//78 134//78 136//78
f 137//75 135//75 140//75
f 138//75 140//75 135//75
f 138//76 134//76 141//76
f 142//78 134//78 139//78
f 143//75 140//75 138//75
f 142//76 141//76 134//76
f 141//75 144//75 138//75
f 144//75 143//75 138//75
f 145/157/81 146/158/81 147/159/81
f 146/158/81 145/157/81 148/160/81
f 147/161/82 146/162/82 145/163/82
f 148/164/82 145/163/82 146/162/82
f 146/165/83 149/166/83 147/167/83
f 147/168/84 149/169/84 146/170/84
f 149/171/85 145/172/85 147/173/85
f 147/174/86 145/175/86 149/176/86
f 150/183/86 146/184/86 148/185/86
f 148/186/85 146/187/85 150/188/85
f 149/166/83 146/165/83 151/189/83
f 151/190/84 146/170/84 149/169/84
f 145/172/85 149/171/85 152/191/85
f 152/192/86 149/176/86 145/175/86
f 146/184/86 150/183/86 151/195/86
f 151/196/85 150/188/85 146/187/85
f 150/197/82 149/198/82 151/199/82
f 151/200/81 149/201/81 150/202/81
f 149/198/82 150/197/82 152/203/82
f 152/204/81 150/202/81 149/201/81
f 154/206/87 153/205/87 156/208/87
f 157/207/88 153/209/88 155/210/88
f 153/209/88 157/207/88 159/205/88
f 157/207/89 158/211/89 159/212/89
f 158/211/89 157/207/89 160/206/89
f 155//89 154//89 153//89
f 156//89 153//89 154//89
f 155//90 153//90 157//90
f 156//88 154//88 158//88
f 159//90 157//90 153//90
f 160//88 158//88 154//88
f 159//87 158//87 157//87
f 160//87 157//87 158//87
f 158/213/90 154/214/90 156/215/90
f 154/214/90 158/213/90 160/216/90
f 161/217/91 162/218/91 163/219/91
f 162/218/91 161/217/91 164/220/91
f 163//92 162//92 161//92
f 164//92 161//92 162//92
f 165/221/93 166/222/93 167/223/93
f 166/222/93 165/221/93 168/224/93
f 169/223/94 165/225/94 167/226/94
f 165/225/94 169/223/94 171/221/94
f 169/223/95 170/227/95 171/228/95
f 167//95 166//95 165//95
f 168//95 165//95 166//95
f 167//96 165//96 169//96
f 168//94 166//94 170//94
f 171//96 169//96 165//96
f 172//94 170//94 166//94
f 171//93 170//93 169//93
f 172//93 169//93 170//93
f 170/229/96 166/230/96 168/231/96
f 166/230/96 170/229/96 172/232/96
f 173/233/97 174/234/97 175/235/97
f 174/234/97 173/233/97 176/236/97
f 177/237/98 173/233/98 175/235/98
f 173/233/98 177/237/98 179/239/98
f 177/241/100 178/242/100 179/243/100
f 175//100 174//100 173//100
f 176//100 173//100 174//100
f 175//99 173//99 177//99
f 179//99 177//99 173//99
f 179//97 178//97 177//97
