# Merged(arrow/base_geom)

v -0.159693 0.670158 0.48821
v -0.168479 0.685119 0.48821
v -0.168479 0.67364 0.48821
v -0.167935 0.685119 0.48821
v -0.164862 0.682834 0.48821
v -0.160156 0.680223 0.48821
v -0.154416 0.678101 0.48821
v -0.154192 0.668934 0.48821
v -0.147915 0.677176 0.48821
v -0.148296 0.668526 0.48821
v -0.142618 0.66888 0.48821
v -0.142692 0.677747 0.48821
v -0.138558 0.679189 0.48821
v -0.137987 0.669941 0.48821
v -0.135811 0.681855 0.48821
v -0.13409 0.671681 0.48821
v -0.134967 0.686098 0.48821
v -0.167418 0.708138 0.48821
v -0.16782 0.717597 0.48821
v -0.168207 0.71368 0.48821
v -0.166657 0.721133 0.48821
v -0.165052 0.70348 0.48821
v -0.164719 0.724289 0.48821
v -0.160945 0.699814 0.48821
v -0.162005 0.727063 0.48821
v -0.158649 0.729324 0.48821
v -0.157762 0.71504 0.48821
v -0.157245 0.711715 0.48821
v -0.154933 0.697251 0.48821
v -0.155695 0.709355 0.48821
v -0.153002 0.707648 0.48821
v -0.149112 0.695836 0.48821
v -0.149058 0.706282 0.48821
v -0.143998 0.694694 0.48821
v -0.143971 0.705112 0.48821
v -0.139707 0.693293 0.48821
v -0.138068 0.703779 0.48821
v -0.136953 0.691593 0.48821
v -0.132159 0.701535 0.48821
v -0.135464 0.689294 0.48821
v -0.130615 0.674075 0.48821
v -0.127922 0.698176 0.48821
v -0.127983 0.676829 0.48821
v -0.126072 0.680087 0.48821
v -0.125372 0.693551 0.48821
v -0.12491 0.683698 0.48821
v -0.124522 0.687513 0.48821
v -0.154783 0.73094 0.48821
v -0.156892 0.718794 0.48821
v -0.15428 0.72146 0.48821
v -0.150407 0.731909 0.48821
v -0.150404 0.723051 0.48821
v -0.145521 0.732232 0.48821
v -0.145739 0.723582 0.48821
v -0.140863 0.723133 0.48821
v -0.135348 0.73098 0.48821
v -0.136028 0.721786 0.48821
v -0.131438 0.719665 0.48821
v -0.126753 0.727825 0.48821
v -0.127297 0.71689 0.48821
v -0.126753 0.71689 0.48821
v -0.067236 0.669995 0.48821
v -0.077464 0.704595 0.48821
v -0.077464 0.669995 0.48821
v -0.07507 0.729129 0.48821
v -0.072295 0.726547 0.48821
v -0.070082 0.723264 0.48821
v -0.068501 0.719318 0.48821
v -0.067552 0.714709 0.48821
v -0.067236 0.709437 0.48821
v -0.096858 0.720671 0.48821
v -0.104774 0.724017 0.48821
v -0.104774 0.715367 0.48821
v -0.100231 0.727621 0.48821
v -0.095743 0.730273 0.48821
v -0.092866 0.722201 0.48821
v -0.09116 0.731905 0.48821
v -0.088997 0.722711 0.48821
v -0.086331 0.732449 0.48821
v -0.085543 0.722432 0.48821
v -0.082088 0.73208 0.48821
v -0.082904 0.721596 0.48821
v -0.080918 0.720188 0.48821
v -0.078334 0.730974 0.48821
v -0.079422 0.718196 0.48821
v -0.077872 0.712402 0.48821
v -0.104774 0.669995 0.48821
v -0.115002 0.754645 0.48821
v -0.115002 0.669995 0.48821
v -0.104774 0.754645 0.48821
v 0.27278 0.716237 0.48821
v 0.269027 0.721732 0.48821
v 0.269027 0.713136 0.48821
v 0.274269 0.725955 0.48821
v 0.276752 0.718468 0.48821
v 0.278792 0.728723 0.48821
v 0.280846 0.719814 0.48821
v 0.282892 0.730253 0.48821
v 0.284967 0.720263 0.48821
v 0.286871 0.730763 0.48821
v 0.28804 0.720181 0.48821
v 0.289237 0.730681 0.48821
v 0.290461 0.719773 0.48821
v 0.291005 0.730436 0.48821
v 0.291005 0.719773 0.48821
v 0.269027 0.669995 0.48821
v 0.258799 0.730763 0.48821
v 0.258799 0.669995 0.48821
v 0.269027 0.730763 0.48821
v 0.529551 -0.539049 0.40472
v -0.482559 -0.539049 0.48821
v -0.482559 -0.539049 0.40472
v 0.529551 -0.539049 0.48821
v 0.529551 0.764427 0.48821
v -0.482559 -0.539049 0.48821
v 0.529551 -0.539049 0.48821
v -0.482559 0.764427 0.48821
v -0.482559 0.764427 0.40472
v -0.482559 -0.539049 0.48821
v -0.482559 0.764427 0.48821
v -0.482559 -0.539049 0.40472
v -0.482559 0.764427 0.40472
v 0.529551 -0.539049 0.40472
v -0.482559 -0.539049 0.40472
v 0.529551 0.764427 0.40472
v 0.529551 -0.539049 0.40472
v 0.529551 0.764427 0.48821
v 0.529551 -0.539049 0.48821
v 0.529551 0.764427 0.40472
v 0.529551 0.764427 0.48821
v -0.482559 0.764427 0.40472
v -0.482559 0.764427 0.48821
v 0.529551 0.764427 0.40472
v 0.534663 -0.709438 -0.44501
v -0.487671 -0.709438 0.40472
v -0.487671 -0.709438 -0.44501
v 0.534663 -0.709438 0.40472
v -0.487671 0.772947 -0.44501
v 0.534663 -0.709438 -0.44501
v -0.487671 -0.709438 -0.44501
v 0.534663 0.772947 -0.44501
v 0.534663 -0.709438 -0.44501
v 0.534663 0.772947 0.40472
v 0.534663 -0.709438 0.40472
v 0.534663 0.772947 -0.44501
v 0.534663 -0.709438 0.40472
v 0.449468 -0.539049 0.40472
v -0.487671 -0.709438 0.40472
v 0.534663 0.772947 0.40472
v 0.449468 0.687752 0.40472
v -0.402477 0.687752 0.40472
v -0.402477 -0.539049 0.40472
v -0.487671 0.772947 0.40472
v -0.487671 0.772947 -0.44501
v -0.487671 -0.709438 0.40472
v -0.487671 0.772947 0.40472
v -0.487671 -0.709438 -0.44501
v 0.534663 0.772947 0.40472
v -0.487671 0.772947 -0.44501
v -0.487671 0.772947 0.40472
v 0.534663 0.772947 -0.44501
v 0.449468 0.687752 -0.53242
v -0.402477 -0.539049 -0.53242
v 0.449468 -0.539049 -0.53242
v -0.402477 0.687752 -0.53242
v 0.449468 -0.539049 0.40472
v -0.402477 -0.539049 -0.53242
v -0.402477 -0.539049 0.40472
v 0.449468 -0.539049 -0.53242
v 0.449468 0.687752 -0.53242
v 0.449468 -0.539049 0.40472
v 0.449468 0.687752 0.40472
v 0.449468 -0.539049 -0.53242
v 0.449468 0.687752 -0.53242
v -0.402477 0.687752 0.40472
v -0.402477 0.687752 -0.53242
v 0.449468 0.687752 0.40472
v -0.402477 -0.539049 -0.53242
v -0.402477 0.687752 0.40472
v -0.402477 -0.539049 0.40472
v -0.402477 0.687752 -0.53242
v 0.534663 -0.709438 0.40472
v 0.449468 -0.539049 0.40472
v -0.487671 -0.709438 0.40472
v -0.402477 -0.539049 0.40472
v 0.185791 0.669995 0.48821
v 0.175563 0.704595 0.48821
v 0.175563 0.669995 0.48821
v 0.177957 0.729129 0.48821
v 0.180731 0.726547 0.48821
v 0.182945 0.723264 0.48821
v 0.184526 0.719318 0.48821
v 0.185474 0.714709 0.48821
v 0.185791 0.709437 0.48821
v 0.156168 0.720671 0.48821
v 0.148253 0.724017 0.48821
v 0.148253 0.715367 0.48821
v 0.152795 0.727621 0.48821
v 0.157284 0.730273 0.48821
v 0.16016 0.722201 0.48821
v 0.161867 0.731905 0.48821
v 0.164029 0.722711 0.48821
v 0.166695 0.732449 0.48821
v 0.167484 0.722432 0.48821
v 0.170939 0.73208 0.48821
v 0.170122 0.721596 0.48821
v 0.172108 0.720188 0.48821
v 0.174692 0.730974 0.48821
v 0.173604 0.718196 0.48821
v 0.175155 0.712402 0.48821
v 0.148253 0.669995 0.48821
v 0.138025 0.754645 0.48821
v 0.138025 0.669995 0.48821
v 0.148253 0.754645 0.48821
v 0.093333 0.670158 0.48821
v 0.084547 0.685119 0.48821
v 0.084547 0.67364 0.48821
v 0.085091 0.685119 0.48821
v 0.088165 0.682834 0.48821
v 0.092871 0.680223 0.48821
v 0.09861 0.678101 0.48821
v 0.098835 0.668934 0.48821
v 0.105111 0.677176 0.48821
v 0.104731 0.668526 0.48821
v 0.110409 0.66888 0.48821
v 0.110334 0.677747 0.48821
v 0.114469 0.679189 0.48821
v 0.11504 0.669941 0.48821
v 0.117216 0.681855 0.48821
v 0.118937 0.671681 0.48821
v 0.118059 0.686098 0.48821
v 0.085608 0.708138 0.48821
v 0.085207 0.717597 0.48821
v 0.084819 0.71368 0.48821
v 0.08637 0.721133 0.48821
v 0.087975 0.70348 0.48821
v 0.088308 0.724289 0.48821
v 0.092082 0.699814 0.48821
v 0.091021 0.727063 0.48821
v 0.094377 0.729324 0.48821
v 0.095265 0.71504 0.48821
v 0.095781 0.711715 0.48821
v 0.098094 0.697251 0.48821
v 0.097332 0.709355 0.48821
v 0.100025 0.707648 0.48821
v 0.103915 0.695836 0.48821
v 0.103969 0.706282 0.48821
v 0.109028 0.694694 0.48821
v 0.109056 0.705112 0.48821
v 0.113319 0.693293 0.48821
v 0.114958 0.703779 0.48821
v 0.116074 0.691593 0.48821
v 0.120868 0.701535 0.48821
v 0.117563 0.689294 0.48821
v 0.122412 0.674075 0.48821
v 0.125104 0.698176 0.48821
v 0.125043 0.676829 0.48821
v 0.126954 0.680087 0.48821
v 0.127655 0.693551 0.48821
v 0.128117 0.683698 0.48821
v 0.128505 0.687513 0.48821
v 0.098243 0.73094 0.48821
v 0.096135 0.718794 0.48821
v 0.098746 0.72146 0.48821
v 0.102619 0.731909 0.48821
v 0.102623 0.723051 0.48821
v 0.107505 0.732232 0.48821
v 0.107288 0.723582 0.48821
v 0.112163 0.723133 0.48821
v 0.117678 0.73098 0.48821
v 0.116998 0.721786 0.48821
v 0.121589 0.719665 0.48821
v 0.126274 0.727825 0.48821
v 0.12573 0.71689 0.48821
v 0.126274 0.71689 0.48821
v -0.043081 0.669995 0.48821
v -0.047978 0.730763 0.48821
v -0.05864 0.730763 0.48821
v -0.03726 0.683704 0.48821
v -0.03367 0.669995 0.48821
v -0.022844 0.730763 0.48821
v -0.018927 0.716836 0.48821
v -0.014411 0.730763 0.48821
v -0.004075 0.669995 0.48821
v 0.000386 0.683704 0.48821
v 0.005391 0.669995 0.48821
v 0.010505 0.730763 0.48821
v 0.020787 0.730763 0.48821
v 0.073939 0.669995 0.48821
v 0.063765 0.676469 0.48821
v 0.063765 0.669995 0.48821
v 0.063765 0.684956 0.48821
v 0.063765 0.701821 0.48821
v 0.063765 0.709981 0.48821
v 0.063765 0.711939 0.48821
v 0.067356 0.727716 0.48821
v 0.070253 0.724846 0.48821
v 0.072307 0.721242 0.48821
v 0.073531 0.716836 0.48821
v 0.073939 0.711559 0.48821
v 0.031124 0.719066 0.48821
v 0.030525 0.729457 0.48821
v 0.030525 0.719066 0.48821
v 0.038631 0.731252 0.48821
v 0.040699 0.72214 0.48821
v 0.049077 0.732232 0.48821
v 0.049022 0.723201 0.48821
v 0.054843 0.722793 0.48821
v 0.059631 0.731252 0.48821
v 0.059631 0.721133 0.48821
v 0.061372 0.719685 0.48821
v 0.063711 0.729879 0.48821
v 0.062677 0.717733 0.48821
v 0.063493 0.715183 0.48821
v 0.025942 0.683643 0.48821
v 0.026241 0.693463 0.48821
v 0.025575 0.687621 0.48821
v 0.027044 0.679869 0.48821
v 0.028241 0.698366 0.48821
v 0.028757 0.676489 0.48821
v 0.031682 0.702344 0.48821
v 0.030961 0.673694 0.48821
v 0.033722 0.671423 0.48821
v 0.036673 0.705411 0.48821
v 0.036129 0.688274 0.48821
v 0.036795 0.692388 0.48821
v 0.042249 0.70739 0.48821
v 0.038795 0.695483 0.48821
v 0.041814 0.697734 0.48821
v 0.045541 0.699318 0.48821
v 0.04875 0.708648 0.48821
v 0.054544 0.700923 0.48821
v 0.036891 0.669723 0.48821
v 0.036863 0.683691 0.48821
v 0.039067 0.680386 0.48821
v 0.040359 0.668662 0.48821
v 0.042684 0.678387 0.48821
v 0.044017 0.668309 0.48821
v 0.047662 0.67772 0.48821
v 0.051117 0.66907 0.48821
v 0.052273 0.678244 0.48821
v 0.056367 0.671246 0.48821
v 0.056421 0.679815 0.48821
v 0.06042 0.673885 0.48821
v -0.179033 0.740936 0.48821
v -0.190676 0.751545 0.48821
v -0.190676 0.740936 0.48821
v -0.179033 0.751545 0.48821
v -0.264935 0.669995 0.48821
v -0.254163 0.679243 0.48821
v -0.264935 0.751001 0.48821
v -0.246275 0.669995 0.48821
v -0.245949 0.679243 0.48821
v -0.237305 0.670321 0.48821
v -0.239216 0.679529 0.48821
v -0.233382 0.680386 0.48821
v -0.23009 0.671301 0.48821
v -0.228227 0.682018 0.48821
v -0.2238 0.673246 0.48821
v -0.223535 0.684629 0.48821
v -0.217605 0.676469 0.48821
v -0.218625 0.68907 0.48821
v -0.215102 0.694775 0.48821
v -0.210811 0.682453 0.48821
v -0.212981 0.701895 0.48821
v -0.212273 0.710579 0.48821
v -0.254163 0.741752 0.48821
v -0.246493 0.751001 0.48821
v -0.245949 0.741752 0.48821
v -0.236299 0.750572 0.48821
v -0.239257 0.741466 0.48821
v -0.233762 0.74061 0.48821
v -0.228567 0.749287 0.48821
v -0.229016 0.7391 0.48821
v -0.224568 0.736856 0.48821
v -0.222549 0.747254 0.48821
v -0.219223 0.732429 0.48821
v -0.217496 0.744581 0.48821
v -0.215374 0.726547 0.48821
v -0.210546 0.738563 0.48821
v -0.213049 0.71925 0.48821
v -0.205555 0.690396 0.48821
v -0.205364 0.730844 0.48821
v -0.202189 0.699862 0.48821
v -0.203484 0.726354 0.48821
v -0.202141 0.721453 0.48821
v -0.201067 0.710416 0.48821
v -0.179741 0.669995 0.48821
v -0.189968 0.730763 0.48821
v -0.189968 0.669995 0.48821
v -0.179741 0.730763 0.48821
v 0.203988 0.676768 0.48821
v 0.206688 0.694327 0.48821
v 0.206355 0.699318 0.48821
v 0.208407 0.673186 0.48821
v 0.207688 0.689961 0.48821
v 0.209354 0.686221 0.48821
v 0.213638 0.670627 0.48821
v 0.211686 0.683106 0.48821
v 0.214607 0.680655 0.48821
v 0.219682 0.669092 0.48821
v 0.218038 0.678903 0.48821
v 0.221979 0.677853 0.48821
v 0.226538 0.668581 0.48821
v 0.226429 0.677503 0.48821
v 0.233039 0.678264 0.48821
v 0.232659 0.669016 0.48821
v 0.238071 0.670267 0.48821
v 0.238888 0.680223 0.48821
v 0.242859 0.671926 0.48821
v 0.243566 0.682644 0.48821
v 0.24732 0.673694 0.48821
v 0.246722 0.684847 0.48821
v 0.24732 0.684847 0.48821
v 0.248462 0.699318 0.48821
v 0.206355 0.707152 0.48821
v 0.238507 0.707152 0.48821
v 0.241716 0.725703 0.48821
v 0.2446 0.721834 0.48821
v 0.246722 0.717189 0.48821
v 0.248027 0.711593 0.48821
v 0.248462 0.704867 0.48821
v 0.196465 0.692921 0.48821
v 0.19645 0.707072 0.48821
v 0.195964 0.700025 0.48821
v 0.197909 0.713361 0.48821
v 0.19797 0.686676 0.48821
v 0.20034 0.718891 0.48821
v 0.200477 0.681292 0.48821
v 0.203744 0.723663 0.48821
v 0.207933 0.727507 0.48821
v 0.207878 0.713925 0.48821
v 0.21136 0.719229 0.48821
v 0.21272 0.730253 0.48821
v 0.216555 0.722793 0.48821
v 0.218106 0.7319 0.48821
v 0.219717 0.723711 0.48821
v 0.22409 0.732449 0.48821
v 0.223492 0.724017 0.48821
v 0.227293 0.723718 0.48821
v 0.229421 0.732041 0.48821
v 0.230428 0.72282 0.48821
v 0.2341 0.730817 0.48821
v 0.232978 0.721351 0.48821
v 0.235025 0.719338 0.48821
v 0.23818 0.728723 0.48821
v 0.237527 0.714279 0.48821
vn 0.0 -1.4900830347386318e-08 1.0
vn 0.0 -1.4900830347386318e-08 1.0
vn 0.0 -1.4900830347386318e-08 1.0
vn 0.0 -1.0 0.0
vn 0.0 0.0 1.0
vn -1.0 0.0 0.0
vn 0.0 0.0 -1.0
vn 1.0 0.0 0.0
vn 0.0 1.0 0.0
vn 0.0 -1.0 0.0
vn 0.0 0.0 -1.0
vn 1.0 0.0 0.0
vn 0.0 0.0 1.0
vn -1.0 0.0 0.0
vn 0.0 1.0 0.0
vn 0.0 0.0 1.0
vn 0.0 1.0 0.0
vn -1.0 0.0 0.0
vn 0.0 -1.0 0.0
vn 1.0 0.0 0.0
vn 0.0 0.0 1.0
vn 0.0 -1.4900830347386318e-08 1.0
vn 0.0 -1.4900830347386318e-08 1.0
vn 0.0 -1.4900830347386318e-08 1.0
vn 0.0 -1.4900830347386318e-08 1.0
vn 0.0 -1.4900830347386318e-08 1.0
vn 0.0 -1.4900830347386318e-08 1.0
vn 0.0 -1.4900830347386318e-08 1.0
vn 0.0 -1.4900830347386318e-08 1.0
usemtl base_geom
f 1//1 2//1 3//1
f 4//1 1//1 5//1
f 5//1 1//1 6//1
f 6//1 1//1 7//1
f 7//1 1//1 8//1
f 7//1 8//1 9//1
f 9//1 8//1 10//1
f 9//1 10//1 11//1
f 9//1 11//1 12//1
f 13//1 11//1 14//1
f 15//1 16//1 17//1
f 21//1 18//1 22//1
f 21//1 22//1 23//1
f 23//1 22//1 24//1
f 23//1 24//1 25//1
f 25//1 24//1 26//1
f 26//1 24//1 27//1
f 28//1 24//1 29//1
f 28//1 29//1 30//1
f 31//1 29//1 32//1
f 31//1 32//1 33//1
f 33//1 32//1 34//1
f 33//1 34//1 35//1
f 35//1 36//1 37//1
f 37//1 38//1 39//1
f 39//1 40//1 17//1
f 39//1 17//1 16//1
f 39//1 16//1 41//1
f 39//1 41//1 42//1
f 42//1 43//1 44//1
f 42//1 44//1 45//1
f 27//1 48//1 26//1
f 48//1 50//1 51//1
f 51//1 50//1 52//1
f 51//1 52//1 53//1
f 53//1 54//1 55//1
f 53//1 55//1 56//1
f 56//1 55//1 57//1
f 56//1 57//1 58//1
f 59//1 58//1 60//1
f 62//2 63//2 64//2
f 63//2 62//2 65//2
f 65//2 62//2 66//2
f 66//2 62//2 67//2
f 67//2 62//2 68//2
f 68//2 62//2 69//2
f 71//2 72//2 73//2
f 72//2 71//2 74//2
f 75//2 76//2 77//2
f 77//2 76//2 78//2
f 79//2 78//2 80//2
f 79//2 80//2 81//2
f 81//2 80//2 82//2
f 81//2 83//2 84//2
f 84//2 86//2 65//2
f 87//2 88//2 89//2
f 88//2 87//2 90//2
f 92//3 91//3 94//3
f 94//3 91//3 95//3
f 94//3 95//3 96//3
f 96//3 95//3 97//3
f 98//3 97//3 99//3
f 98//3 99//3 100//3
f 102//3 103//3 104//3
f 104//3 103//3 105//3
f 106//3 107//3 108//3
f 107//3 106//3 109//3
f 110//4 111//4 112//4
f 111//4 110//4 113//4
f 114//5 115//5 116//5
f 115//5 114//5 117//5
f 118//6 119//6 120//6
f 119//6 118//6 121//6
f 126//8 127//8 128//8
f 127//8 126//8 129//8
f 130//9 131//9 132//9
f 131//9 130//9 133//9
f 134//10 135//10 136//10
f 135//10 134//10 137//10
f 138//11 139//11 140//11
f 139//11 138//11 141//11
f 142//12 143//12 144//12
f 143//12 142//12 145//12
f 147//13 146//13 149//13
f 147//13 149//13 150//13
f 150//13 149//13 151//13
f 148//13 152//13 153//13
f 153//13 152//13 151//13
f 153//13 151//13 149//13
f 154//14 155//14 156//14
f 155//14 154//14 157//14
f 158//15 159//15 160//15
f 159//15 158//15 161//15
f 162//16 163//16 164//16
f 163//16 162//16 165//16
f 166//17 167//17 168//17
f 167//17 166//17 169//17
f 170//18 171//18 172//18
f 171//18 170//18 173//18
f 174//19 175//19 176//19
f 175//19 174//19 177//19
f 178//20 179//20 180//20
f 179//20 178//20 181//20
f 182//21 183//21 184//21
f 185//21 184//21 183//21
f 186//22 187//22 188//22
f 187//22 186//22 189//22
f 189//22 186//22 190//22
f 190//22 186//22 191//22
f 191//22 186//22 192//22
f 195//22 196//22 197//22
f 196//22 195//22 198//22
f 199//22 195//22 200//22
f 199//22 200//22 201//22
f 201//22 200//22 202//22
f 201//22 202//22 203//22
f 203//22 202//22 204//22
f 203//22 204//22 205//22
f 205//22 204//22 206//22
f 208//22 207//22 209//22
f 208//22 209//22 210//22
f 211//22 212//22 213//22
f 212//22 211//22 214//22
f 215//23 216//23 217//23
f 216//23 215//23 218//23
f 218//23 215//23 219//23
f 219//23 215//23 220//23
f 220//23 215//23 221//23
f 221//23 222//23 223//23
f 223//23 222//23 224//23
f 223//23 224//23 225//23
f 223//23 225//23 226//23
f 226//23 225//23 227//23
f 227//23 228//23 229//23
f 229//23 228//23 230//23
f 235//23 232//23 236//23
f 235//23 236//23 237//23
f 237//23 236//23 238//23
f 237//23 238//23 239//23
f 239//23 238//23 240//23
f 240//23 238//23 241//23
f 242//23 238//23 243//23
f 244//23 243//23 245//23
f 245//23 243//23 246//23
f 245//23 246//23 247//23
f 247//23 246//23 248//23
f 249//23 248//23 250//23
f 251//23 250//23 252//23
f 251//23 252//23 253//23
f 253//23 230//23 255//23
f 253//23 255//23 256//23
f 256//23 255//23 257//23
f 256//23 257//23 258//23
f 259//23 260//23 261//23
f 241//23 262//23 240//23
f 262//23 264//23 265//23
f 265//23 264//23 266//23
f 265//23 266//23 267//23
f 267//23 266//23 268//23
f 267//23 268//23 269//23
f 267//23 269//23 270//23
f 270//23 269//23 271//23
f 270//23 271//23 272//23
f 270//23 272//23 273//23
f 273//23 272//23 274//23
f 276//24 277//24 278//24
f 277//24 276//24 279//24
f 279//24 276//24 280//24
f 279//24 280//24 281//24
f 281//24 280//24 282//24
f 281//24 282//24 283//24
f 283//24 282//24 284//24
f 283//24 284//24 285//24
f 285//24 284//24 286//24
f 285//24 286//24 287//24
f 287//24 286//24 288//24
f 289//25 290//25 291//25
f 290//25 289//25 292//25
f 292//25 289//25 293//25
f 293//25 289//25 294//25
f 295//25 289//25 296//25
f 296//25 289//25 297//25
f 297//25 289//25 298//25
f 298//25 289//25 299//25
f 302//25 301//25 304//25
f 304//25 301//25 305//25
f 304//25 305//25 306//25
f 306//25 305//25 307//25
f 306//25 307//25 308//25
f 306//25 308//25 309//25
f 309//25 308//25 310//25
f 309//25 311//25 312//25
f 312//25 314//25 295//25
f 312//25 295//25 296//25
f 319//25 318//25 320//25
f 319//25 320//25 321//25
f 321//25 320//25 322//25
f 321//25 322//25 323//25
f 321//25 323//25 324//25
f 324//25 323//25 325//25
f 324//25 326//25 327//25
f 327//25 328//25 329//25
f 327//25 330//25 331//25
f 331//25 330//25 332//25
f 331//25 332//25 294//25
f 333//25 325//25 323//25
f 334//25 333//25 335//25
f 335//25 336//25 337//25
f 337//25 336//25 338//25
f 337//25 338//25 339//25
f 339//25 338//25 340//25
f 339//25 340//25 341//25
f 341//25 340//25 342//25
f 341//25 342//25 343//25
f 343//25 344//25 292//25
f 345//26 346//26 347//26
f 346//26 345//26 348//26
f 349//27 350//27 351//27
f 350//27 349//27 352//27
f 350//27 352//27 353//27
f 353//27 352//27 354//27
f 353//27 354//27 355//27
f 355//27 354//27 356//27
f 356//27 354//27 357//27
f 356//27 357//27 358//27
f 358//27 357//27 359//27
f 358//27 359//27 360//27
f 360//27 359//27 361//27
f 360//27 361//27 362//27
f 363//27 361//27 364//27
f 363//27 364//27 365//27
f 365//27 364//27 366//27
f 351//27 367//27 368//27
f 367//27 351//27 350//27
f 368//27 367//27 369//27
f 368//27 369//27 370//27
f 370//27 369//27 371//27
f 370//27 371//27 372//27
f 373//27 372//27 374//27
f 373//27 374//27 375//27
f 373//27 375//27 376//27
f 376//27 375//27 377//27
f 376//27 377//27 378//27
f 378//27 377//27 379//27
f 378//27 379//27 380//27
f 380//27 364//27 382//27
f 380//27 382//27 383//27
f 383//27 382//27 384//27
f 383//27 384//27 385//27
f 385//27 384//27 386//27
f 388//28 389//28 390//28
f 389//28 388//28 391//28
f 393//29 392//29 395//29
f 397//29 395//29 398//29
f 399//29 398//29 400//29
f 400//29 398//29 401//29
f 402//29 401//29 403//29
f 403//29 401//29 404//29
f 405//29 404//29 406//29
f 406//29 404//29 407//29
f 406//29 407//29 408//29
f 406//29 408//29 409//29
f 409//29 408//29 410//29
f 409//29 410//29 411//29
f 411//29 410//29 412//29
f 411//29 412//29 413//29
f 415//29 416//29 394//29
f 416//29 415//29 417//29
f 417//29 415//29 418//29
f 418//29 415//29 419//29
f 419//29 415//29 420//29
f 426//29 423//29 427//29
f 426//29 427//29 428//29
f 428//29 427//29 429//29
f 428//29 429//29 430//29
f 430//29 429//29 392//29
f 430//29 392//29 431//29
f 431//29 432//29 433//29
f 434//29 433//29 435//29
f 434//29 435//29 436//29
f 436//29 437//29 438//29
f 438//29 439//29 440//29
f 438//29 440//29 441//29
f 441//29 440//29 442//29
f 441//29 442//29 443//29
f 443//29 442//29 444//29
f 443//29 445//29 446//29
f 446//29 445//29 447//29
f 446//29 417//29 418//29
