# Merged(arrow/base_geom)

v 0.291509 0.760993 0.224156
v 0.274481 -0.703597 0.224156
v 0.291509 -0.703597 0.224156
v 0.274481 0.760993 0.224156
v 0.274481 -0.703597 0.241184
v 0.291509 0.760993 0.258212
v 0.274481 -0.465005 0.207128
v 0.291509 -0.703597 0.258212
v 0.274481 -0.720421 0.207128
v 0.274481 -0.209589 0.207128
v 0.274481 -0.720421 0.241184
v -0.270407 0.760993 0.224156
v 0.291509 -0.465005 0.207128
v 0.274481 0.045827 0.207128
v 0.291509 -0.209589 0.207128
v 0.291509 -0.720421 0.207128
v -0.270407 -0.703393 0.224156
v 0.274481 0.760993 0.207128
v -0.270407 -0.465005 0.207128
v 0.274481 0.301244 0.207128
v 0.291509 0.045827 0.207128
v -0.270407 -0.209589 0.207128
v 0.291509 -0.720421 0.258212
v -0.270407 -0.720421 0.207128
v -0.270407 0.760993 0.207128
v 0.274481 0.55666 0.207128
v 0.291509 -0.720421 -0.244107
v -0.287434 -0.465005 -0.244107
v 0.291509 -0.465005 -0.244107
v 0.291509 0.301244 0.207128
v -0.270407 0.045827 0.207128
v -0.287434 -0.209589 -0.244107
v 0.291509 -0.209589 -0.244107
v -0.287434 -0.720421 -0.244107
v -0.287434 -0.720421 0.207128
v -0.287434 -0.720421 0.258212
v -0.270407 0.55666 0.207128
v -0.287434 0.778021 0.207128
v 0.291509 0.778021 0.207128
v -0.244865 -0.720421 -0.244107
v -0.287434 -0.465005 0.207128
v -0.244865 -0.465005 -0.244107
v 0.291509 0.55666 0.207128
v -0.270407 0.301244 0.207128
v -0.287434 0.045827 -0.244107
v 0.291509 0.045827 -0.244107
v -0.287434 -0.209589 0.207128
v -0.244865 -0.209589 -0.244107
v -0.287434 0.55666 0.207128
v 0.24894 -0.465005 -0.244107
v 0.24894 -0.720421 -0.244107
v 0.24894 -0.209589 -0.244107
v 0.291509 0.301244 -0.244107
v -0.287434 0.301244 -0.244107
v -0.287434 0.045827 0.207128
v -0.244865 0.045827 -0.244107
v 0.24894 0.045827 -0.244107
v -0.287434 0.301244 0.207128
v -0.287434 0.55666 -0.244107
v -0.287434 0.778021 -0.244107
v 0.291509 0.55666 -0.244107
v -0.244865 -0.720421 -0.286676
v -0.244865 0.301244 -0.244107
v 0.24894 0.301244 -0.244107
v 0.291509 0.778021 -0.244107
v -0.244865 0.55666 -0.244107
v 0.24894 -0.720421 -0.286676
v 0.24894 0.55666 -0.244107
v -0.244865 0.692882 -0.286676
v 0.24894 0.692882 -0.286676
v 0.274481 -0.703597 0.241184
v 0.274481 -0.720421 0.207128
v 0.274481 -0.720421 0.241184
v 0.291509 -0.720421 0.207128
v -0.270407 -0.720421 0.241184
v 0.291509 -0.720421 0.258212
v -0.270407 -0.720421 0.207128
v 0.291509 -0.720421 -0.244107
v -0.287434 -0.720421 -0.244107
v -0.287434 -0.720421 0.207128
v -0.244865 -0.720421 -0.244107
v -0.244865 -0.703408 0.258212
v -0.287434 0.692882 0.258212
v -0.219323 0.692882 0.258212
v -0.287434 -0.635467 0.258212
v -0.27892 0.692882 0.258212
v -0.287434 -0.635467 0.283753
v -0.27892 0.692882 0.275239
v -0.27892 -0.635467 0.258212
v -0.287434 0.692882 0.283753
v -0.27892 -0.635467 0.275239
v -0.244865 0.692882 0.283753
v -0.244865 -0.635467 0.275239
v -0.244865 0.692882 0.275239
v -0.244865 -0.635467 0.283753
v 0.274481 -0.703597 0.224156
v 0.274481 -0.703597 0.241184
v 0.274481 -0.720421 0.207128
v 0.274481 -0.720421 0.241184
v 0.291509 -0.720421 0.207128
v -0.270407 -0.720421 0.241184
v -0.270407 -0.703393 0.224156
v -0.244865 -0.703408 0.241184
v 0.291509 -0.720421 0.258212
v -0.270407 -0.720421 0.207128
v 0.291509 -0.720421 -0.244107
v -0.287434 -0.720421 -0.244107
v -0.287434 -0.720421 0.258212
v -0.270407 -0.703393 0.241184
v -0.244865 -0.720421 -0.244107
v 0.291509 -0.924754 -0.244107
v -0.287434 -0.924754 0.258212
v 0.24894 -0.720421 -0.244107
v 0.291509 -0.924754 0.258212
v -0.244865 -0.924754 -0.244107
v 0.24894 -0.924754 -0.244107
v -0.287434 -0.924754 -0.244107
v 0.274481 -0.465005 0.207128
v 0.274481 -0.209589 0.207128
v 0.274481 -0.703597 0.258212
v 0.291509 -0.465005 0.207128
v 0.274481 0.045827 0.207128
v 0.291509 -0.209589 0.207128
v -0.244865 -0.703408 0.258212
v 0.223398 0.692882 0.258212
v -0.270407 -0.465005 0.207128
v 0.274481 0.301244 0.207128
v 0.291509 0.045827 0.207128
v -0.270407 -0.209589 0.207128
v 0.223398 -0.635467 0.258212
v -0.219323 0.692882 0.258212
v 0.274481 0.55666 0.207128
v -0.270407 -0.465005 0.241184
v 0.291509 0.301244 0.207128
v -0.270407 0.045827 0.207128
v -0.270407 -0.209589 0.241184
v -0.219323 -0.635467 0.258212
v -0.270407 0.55666 0.207128
v 0.274481 -0.465005 0.241184
v 0.291509 0.55666 0.207128
v -0.270407 0.301244 0.207128
v -0.270407 0.045827 0.241184
v 0.274481 -0.209589 0.241184
v -0.270407 0.301244 0.241184
v 0.274481 0.045827 0.241184
v -0.270407 0.55666 0.241184
v 0.274481 0.301244 0.241184
v 0.274481 0.55666 0.241184
v 0.274481 0.760993 0.224156
v 0.274481 -0.703597 0.241184
v 0.291509 0.760993 0.258212
v 0.291509 -0.703597 0.258212
v -0.287434 0.760993 0.224156
v 0.274481 -0.703597 0.258212
v -0.287434 0.760993 0.258212
v -0.270407 0.760993 0.224156
v -0.244865 -0.703408 0.258212
v -0.270407 -0.720421 0.241184
v 0.223398 0.692882 0.258212
v -0.287434 0.692882 0.258212
v -0.270407 -0.703393 0.224156
v -0.244865 -0.703408 0.241184
v 0.223398 -0.635467 0.258212
v 0.291509 -0.720421 0.258212
v -0.219323 0.692882 0.258212
v -0.287434 -0.635467 0.258212
v -0.27892 0.692882 0.258212
v -0.287434 -0.703393 0.224156
v -0.270407 -0.703393 0.258212
v -0.219323 -0.635467 0.258212
v -0.287434 -0.720421 0.207128
v -0.287434 -0.720421 0.258212
v -0.270407 -0.703393 0.241184
v -0.287434 -0.703393 0.258212
v -0.287434 -0.635467 0.283753
v -0.27892 0.692882 0.275239
v -0.27892 -0.635467 0.258212
v -0.287434 0.692882 0.283753
v -0.27892 -0.635467 0.275239
vt -0.246063 0.098425
vt -0.442913 0.0
vt -0.147638 0.0
vt -0.442913 1.181102
vt -0.147638 1.181102
vt -3.051181 1.181102
vt 0.442913 1.181102
vt 3.051181 1.181102
vt 0.147638 1.181102
vt -0.642857 0.0
vt -0.642857 6.637714
vt -4.428571 6.838857
vt -4.428571 0.0
vt -4.428571 6.336
vt -0.642857 6.838857
vt -4.428571 0.502857
vt -0.246063 0.098425
vt -0.147638 0.0
vt -0.246063 3.248031
vt -0.442913 3.248031
vt -0.442913 3.346457
vt -0.357143 0.201143
vt -0.642857 0.201143
vt -0.357143 6.637714
vt -0.642857 0.0
vt -0.642857 6.637714
vt -4.428571 6.838857
vt -4.428571 0.0
vt -4.428571 6.336
vt 0.0 3.344319
vt 0.295276 18.700787
vt 0.0 18.700787
vt 6.692913 18.700787
vt 6.692913 3.344319
vt 6.200787 18.700787
vt 6.200787 3.344319
vt -0.442913 0.098425
vt -0.246063 0.098425
vt -0.442913 0.0
vt -0.147638 0.0
vt -0.147638 1.181102
vt -3.051181 1.181102
vt -3.051181 0.0
vt 3.346457 1.181102
vt 3.346457 0.0
vt 0.0 1.181102
vt 3.051181 1.181102
vt 0.147638 1.181102
vt 0.0 0.0
vt 0.147638 0.0
vt 3.051181 0.0
vt -0.357143 0.201143
vt -0.642857 0.201143
vt -0.357143 6.637714
vt -0.642857 0.0
vt -0.642857 6.637714
vt -0.147638 0.0
vt -0.246063 3.248031
vt -0.442913 3.346457
vt -0.147638 3.346457
vt 0.295276 3.344319
vt 0.0 3.344319
vt 0.295276 18.700787
vn 0.0 0.0 1.0
vn 0.0 0.0 -1.0
vn 0.0 1.0 0.0
vn 0.0 -1.0 0.0
vn -1.0 0.0 0.0
vn 1.0 0.0 0.0
vn 0.0 0.0 1.0
vn 0.0 0.0 -1.0
vn 0.0 1.0 0.0
vn 0.0 -1.0 0.0
vn 0.0 0.0 1.0
vn 0.0 0.0 -1.0
vn 0.0 1.0 0.0
vn 0.0 -1.0 0.0
vn -1.0 0.0 0.0
vn 1.0 0.0 0.0
vn 0.0 0.0 1.0
vn 0.0 0.0 -1.0
vn 0.0 1.0 0.0
vn 0.0 -1.0 0.0
vn -1.0 0.0 0.0
vn 1.0 0.0 0.0
vn 0.0 0.0 1.0
vn 0.0 0.0 -1.0
vn 0.0 1.0 0.0
vn 0.0 -1.0 0.0
vn 0.0 0.0 1.0
vn 0.0 0.0 -1.0
vn 0.0 1.0 0.0
vn 0.0 -1.0 0.0
vn -1.0 0.0 0.0
vn 0.000363 1.0 0.0
vn -0.000363 -1.0 0.0
vn 1.0 0.0 0.0
vn 0.000586 1.0 0.0
vn -0.000586 -1.0 0.0
usemtl base_geom
f 3//2 2//2 1//2
f 4//2 1//2 2//2
f 3//5 6//5 1//5
f 7//5 2//5 4//5
f 5//3 8//3 3//3
f 6//5 3//5 8//5
f 9//5 2//5 7//5
f 7//5 4//5 10//5
f 10//5 4//5 14//5
f 15//2 7//2 10//2
f 9//2 13//2 16//2
f 7//2 15//2 13//2
f 14//5 4//5 20//5
f 21//2 10//2 14//2
f 10//2 21//2 15//2
f 11//4 16//4 23//4
f 17//6 19//6 12//6
f 18//4 12//4 25//4
f 26//5 4//5 18//5
f 13//5 27//5 16//5
f 15//5 29//5 13//5
f 20//5 4//5 26//5
f 30//2 14//2 20//2
f 14//2 30//2 21//2
f 21//5 33//5 15//5
f 17//6 24//6 19//6
f 12//6 19//6 22//6
f 12//6 37//6 25//6
f 38//2 18//2 25//2
f 39//2 26//2 18//2
f 27//5 13//5 29//5
f 29//5 15//5 33//5
f 43//2 20//2 26//2
f 20//2 43//2 30//2
f 30//5 46//5 21//5
f 33//5 21//5 46//5
f 34//4 24//4 35//4
f 35//2 19//2 24//2
f 41//2 22//2 19//2
f 12//6 22//6 31//6
f 12//6 44//6 37//6
f 49//2 25//2 37//2
f 39//2 18//2 38//2
f 38//2 25//2 49//2
f 26//2 39//2 43//2
f 29//2 27//2 50//2
f 19//2 35//2 41//2
f 35//6 28//6 41//6
f 28//6 47//6 41//6
f 28//2 32//2 42//2
f 28//2 42//2 40//2
f 33//2 29//2 52//2
f 43//5 53//5 30//5
f 46//5 30//5 53//5
f 47//2 31//2 22//2
f 22//2 41//2 47//2
f 47//6 28//6 32//6
f 32//6 55//6 47//6
f 32//2 45//2 48//2
f 32//2 48//2 42//2
f 46//2 33//2 57//2
f 28//6 35//6 34//6
f 34//2 28//2 40//2
f 12//6 31//6 44//6
f 58//2 37//2 44//2
f 37//2 58//2 49//2
f 60//4 39//4 38//4
f 59//6 38//6 49//6
f 39//5 61//5 43//5
f 51//2 50//2 27//2
f 50//2 52//2 29//2
f 51//3 62//3 40//3
f 40//4 62//4 51//4
f 40//2 42//2 51//2
f 52//2 57//2 33//2
f 42//2 48//2 50//2
f 42//2 50//2 51//2
f 53//5 43//5 61//5
f 31//2 47//2 55//2
f 55//2 44//2 31//2
f 45//6 58//6 55//6
f 55//6 32//6 45//6
f 45//2 56//2 48//2
f 45//2 54//2 56//2
f 53//2 46//2 64//2
f 57//2 64//2 46//2
f 48//2 56//2 52//2
f 48//2 52//2 50//2
f 44//2 55//2 58//2
f 49//6 54//6 59//6
f 54//6 49//6 58//6
f 39//4 60//4 65//4
f 38//6 59//6 60//6
f 61//5 39//5 65//5
f 62//3 51//3 67//3
f 67//4 51//4 62//4
f 56//2 57//2 52//2
f 61//2 53//2 68//2
f 58//6 45//6 54//6
f 54//2 63//2 56//2
f 54//2 59//2 63//2
f 64//2 68//2 53//2
f 56//2 63//2 57//2
f 63//2 64//2 57//2
f 65//2 61//2 60//2
f 59//2 60//2 66//2
f 67//1 69//1 62//1
f 59//2 66//2 63//2
f 68//2 60//2 61//2
f 63//2 66//2 64//2
f 66//2 68//2 64//2
f 66//2 60//2 68//2
f 69//1 67//1 70//1
f 1//6 6//6 3//6
f 4//3 6//3 1//3
f 8//6 3//6 6//6
f 7//1 9//1 13//1
f 10//1 7//1 15//1
f 16//1 13//1 9//1
f 13//1 15//1 7//1
f 14//1 10//1 21//1
f 15//1 21//1 10//1
f 16//6 27//6 13//6
f 13//6 29//6 15//6
f 21//1 30//1 14//1
f 15//6 33//6 21//6
f 25//1 18//1 38//1
f 18//1 26//1 39//1
f 29//6 13//6 27//6
f 33//6 15//6 29//6
f 26//1 20//1 43//1
f 30//1 43//1 20//1
f 21//6 46//6 30//6
f 46//6 21//6 33//6
f 24//1 19//1 35//1
f 19//1 22//1 41//1
f 37//1 25//1 49//1
f 38//1 18//1 39//1
f 49//1 25//1 38//1
f 43//1 39//1 26//1
f 41//1 35//1 19//1
f 41//5 28//5 35//5
f 41//5 47//5 28//5
f 30//6 53//6 43//6
f 53//6 30//6 46//6
f 22//1 31//1 47//1
f 47//1 41//1 22//1
f 32//5 28//5 47//5
f 47//5 55//5 32//5
f 34//5 35//5 28//5
f 44//1 37//1 58//1
f 49//1 58//1 37//1
f 38//3 39//3 60//3
f 49//5 38//5 59//5
f 43//6 61//6 39//6
f 61//6 43//6 53//6
f 55//1 47//1 31//1
f 31//1 44//1 55//1
f 55//5 58//5 45//5
f 45//5 32//5 55//5
f 58//1 55//1 44//1
f 59//5 54//5 49//5
f 58//5 49//5 54//5
f 65//3 60//3 39//3
f 60//5 59//5 38//5
f 65//6 39//6 61//6
f 54//5 45//5 58//5
f 4//6 2//6 7//6
f 7//6 2//6 9//6
f 10//6 4//6 7//6
f 14//6 4//6 10//6
f 4//3 18//3 12//3
f 20//6 4//6 14//6
f 12//5 19//5 17//5
f 25//3 12//3 18//3
f 18//6 4//6 26//6
f 26//6 4//6 20//6
f 19//5 24//5 17//5
f 22//5 19//5 12//5
f 25//5 37//5 12//5
f 31//5 22//5 12//5
f 37//5 44//5 12//5
f 50//1 27//1 29//1
f 42//1 32//1 28//1
f 40//1 42//1 28//1
f 52//1 29//1 33//1
f 48//1 45//1 32//1
f 42//1 48//1 32//1
f 57//1 33//1 46//1
f 40//1 28//1 34//1
f 44//5 31//5 12//5
f 27//1 50//1 51//1
f 29//1 52//1 50//1
f 51//1 42//1 40//1
f 33//1 57//1 52//1
f 50//1 48//1 42//1
f 51//1 50//1 42//1
f 48//1 56//1 45//1
f 56//1 54//1 45//1
f 64//1 46//1 53//1
f 46//1 64//1 57//1
f 52//1 56//1 48//1
f 50//1 52//1 48//1
f 52//1 57//1 56//1
f 68//1 53//1 61//1
f 56//1 63//1 54//1
f 63//1 59//1 54//1
f 53//1 68//1 64//1
f 57//1 63//1 56//1
f 57//1 64//1 63//1
f 60//1 61//1 65//1
f 66//1 60//1 59//1
f 62//2 69//2 67//2
f 63//1 66//1 59//1
f 61//1 60//1 68//1
f 64//1 66//1 63//1
f 64//1 68//1 66//1
f 68//1 60//1 66//1
f 70//2 67//2 69//2
f 23/3/3 16/2/3 11/1/3
f 35/15/3 24/11/3 34/12/3
f 75//10 72//10 73//10
f 73//7 71//7 75//7
f 72//10 75//10 77//10
f 76//10 75//10 73//10
f 77//10 79//10 74//10
f 75//10 80//10 77//10
f 81//10 78//10 74//10
f 74//10 79//10 81//10
f 73/17/9 75/19/9 76/18/9
f 77/20/9 80/21/9 75/19/9
f 73/22/9 72/23/9 75/24/9
f 77/26/9 75/24/9 72/23/9
f 74/25/9 79/27/9 77/26/9
f 74/25/9 78/28/9 81/29/9
f 81/29/9 79/27/9 74/25/9
f 86//12 84//12 82//12
f 87//16 83//16 90//16
f 87//13 91//13 85//13
f 85//14 91//14 87//14
f 85//13 91//13 89//13
f 89//14 91//14 85//14
f 92//12 87//12 90//12
f 87//13 93//13 91//13
f 88//13 90//13 94//13
f 87//12 92//12 95//12
f 90//14 94//14 92//14
f 92//13 94//13 90//13
f 93//13 87//13 95//13
f 95//14 87//14 93//14
f 93//11 88//11 91//11
f 94//12 93//12 88//12
f 95//16 93//16 92//16
f 94//16 92//16 93//16
f 82//11 84//11 86//11
f 90/32/15 83/31/15 87/30/15
f 90/33/11 87/34/11 92/35/11
f 95/36/11 92/35/11 87/34/11
f 98//21 97//21 96//21
f 97//21 98//21 99//21
f 105//22 102//22 101//22
f 103//18 101//18 109//18
f 109//17 101//17 103//17
f 111//21 104//21 106//21
f 104//18 112//18 108//18
f 104//21 111//21 114//21
f 113//17 111//17 106//17
f 106//18 111//18 113//18
f 115//17 110//17 107//17
f 107//18 110//18 115//18
f 112//18 104//18 114//18
f 112//22 107//22 108//22
f 116//17 113//17 110//17
f 110//18 113//18 116//18
f 111//17 113//17 116//17
f 116//18 113//18 111//18
f 116//17 110//17 115//17
f 115//18 110//18 116//18
f 115//17 107//17 117//17
f 117//18 107//18 115//18
f 107//22 112//22 117//22
f 99//22 98//22 97//22
f 101//21 102//21 105//21
f 98/37/19 99/38/19 100/39/19
f 106/42/22 104/41/22 111/43/22
f 108/44/17 112/45/17 104/46/17
f 114/40/22 111/43/22 104/41/22
f 114/49/17 104/46/17 112/45/17
f 108/48/21 107/47/21 112/50/21
f 117/51/21 112/50/21 107/47/21
f 125//24 120//24 130//24
f 137//24 124//24 131//24
f 130//23 120//23 125//23
f 131//23 124//23 137//23
f 137//24 125//24 130//24
f 130//23 125//23 137//23
f 125//24 137//24 131//24
f 131//23 137//23 125//23
f 151//30 153//30 149//30
f 154//30 150//30 152//30
f 154//28 151//28 152//28
f 153//30 151//30 155//30
f 150//32 157//32 154//32
f 154//33 157//33 150//33
f 151//28 154//28 159//28
f 151//28 159//28 155//28
f 160//34 153//34 155//34
f 153//27 161//27 156//27
f 156//28 161//28 153//28
f 157//32 150//32 162//32
f 162//33 150//33 157//33
f 157//28 163//28 154//28
f 162//27 158//27 150//27
f 155//28 159//28 165//28
f 166//34 153//34 160//34
f 155//28 167//28 160//28
f 161//27 153//27 168//27
f 168//28 153//28 161//28
f 162//35 169//35 157//35
f 163//28 157//28 170//28
f 172//30 158//30 164//30
f 155//28 165//28 167//28
f 174//34 153//34 166//34
f 160//34 175//34 166//34
f 167//29 160//29 176//29
f 153//34 174//34 168//34
f 169//35 162//35 173//35
f 167//28 157//28 169//28
f 173//34 158//34 161//34
f 158//30 172//30 171//30
f 177//28 174//28 166//28
f 176//30 178//30 160//30
f 160//29 178//29 176//29
f 177//31 176//31 167//31
f 167//34 176//34 177//34
f 174//29 173//29 168//29
f 168//30 173//30 174//30
f 173//29 174//29 169//29
f 174//28 177//28 169//28
f 179//34 177//34 176//34
f 149//29 153//29 151//29
f 152//27 151//27 154//27
f 155//29 151//29 153//29
f 159//27 154//27 151//27
f 155//27 159//27 151//27
f 155//31 153//31 160//31
f 154//27 163//27 157//27
f 165//27 159//27 155//27
f 160//31 153//31 166//31
f 160//27 167//27 155//27
f 170//27 157//27 163//27
f 167//27 165//27 155//27
f 166//31 153//31 174//31
f 168//31 174//31 153//31
f 169//27 157//27 167//27
f 166//27 174//27 177//27
f 177//27 169//27 167//27
f 169//27 177//27 174//27
f 164/57/29 158/58/29 172/60/29
f 171/59/29 172/60/29 158/58/29
f 166/61/31 175/62/31 160/63/31
