# Merged(arrow/base_geom)

v 0.274481 -0.703597 0.241184
v 0.274481 -0.720421 0.207128
v 0.274481 -0.720421 0.241184
v 0.291509 -0.720421 0.207128
v -0.270407 -0.720421 0.241184
v 0.291509 -0.720421 0.258212
v -0.270407 -0.720421 0.207128
v 0.291509 -0.720421 -0.244107
v -0.287434 -0.720421 -0.244107
v -0.287434 -0.720421 0.207128
v -0.244865 -0.720421 -0.244107
v 0.274481 0.760993 0.224156
v 0.274481 -0.703597 0.241184
v 0.291509 0.760993 0.258212
v 0.291509 -0.703597 0.258212
v -0.287434 0.760993 0.224156
v 0.274481 -0.703597 0.258212
v -0.287434 0.760993 0.258212
v -0.270407 0.760993 0.224156
v -0.244865 -0.703408 0.258212
v -0.270407 -0.720421 0.241184
v 0.223398 0.692882 0.258212
v -0.287434 0.692882 0.258212
v -0.270407 -0.703393 0.224156
v -0.244865 -0.703408 0.241184
v 0.223398 -0.635467 0.258212
v 0.291509 -0.720421 0.258212
v -0.219323 0.692882 0.258212
v -0.287434 -0.635467 0.258212
v -0.27892 0.692882 0.258212
v -0.287434 -0.703393 0.224156
v -0.270407 -0.703393 0.258212
v -0.219323 -0.635467 0.258212
v -0.287434 -0.720421 0.207128
v -0.287434 -0.720421 0.258212
v -0.270407 -0.703393 0.241184
v -0.287434 -0.703393 0.258212
v -0.287434 -0.635467 0.283753
v -0.27892 0.692882 0.275239
v -0.27892 -0.635467 0.258212
v -0.287434 0.692882 0.283753
v -0.27892 -0.635467 0.275239
v 0.274481 -0.465005 0.207128
v 0.274481 -0.209589 0.207128
v 0.274481 -0.703597 0.258212
v 0.291509 -0.465005 0.207128
v 0.274481 0.045827 0.207128
v 0.291509 -0.209589 0.207128
v -0.244865 -0.703408 0.258212
v 0.223398 0.692882 0.258212
v -0.270407 -0.465005 0.207128
v 0.274481 0.301244 0.207128
v 0.291509 0.045827 0.207128
v -0.270407 -0.209589 0.207128
v 0.223398 -0.635467 0.258212
v -0.219323 0.692882 0.258212
v 0.274481 0.55666 0.207128
v -0.270407 -0.465005 0.241184
v 0.291509 0.301244 0.207128
v -0.270407 0.045827 0.207128
v -0.270407 -0.209589 0.241184
v -0.219323 -0.635467 0.258212
v -0.270407 0.55666 0.207128
v 0.274481 -0.465005 0.241184
v 0.291509 0.55666 0.207128
v -0.270407 0.301244 0.207128
v -0.270407 0.045827 0.241184
v 0.274481 -0.209589 0.241184
v -0.270407 0.301244 0.241184
v 0.274481 0.045827 0.241184
v -0.270407 0.55666 0.241184
v 0.274481 0.301244 0.241184
v 0.274481 0.55666 0.241184
v 0.291509 0.760993 0.224156
v 0.274481 -0.703597 0.224156
v 0.291509 -0.703597 0.224156
v 0.274481 0.760993 0.224156
v 0.274481 -0.703597 0.241184
v 0.291509 0.760993 0.258212
v 0.274481 -0.465005 0.207128
v 0.291509 -0.703597 0.258212
v 0.274481 -0.720421 0.207128
v 0.274481 -0.209589 0.207128
v 0.274481 -0.720421 0.241184
v -0.270407 0.760993 0.224156
v 0.291509 -0.465005 0.207128
v 0.274481 0.045827 0.207128
v 0.291509 -0.209589 0.207128
v 0.291509 -0.720421 0.207128
v -0.270407 -0.703393 0.224156
v 0.274481 0.760993 0.207128
v -0.270407 -0.465005 0.207128
v 0.274481 0.301244 0.207128
v 0.291509 0.045827 0.207128
v -0.270407 -0.209589 0.207128
v 0.291509 -0.720421 0.258212
v -0.270407 -0.720421 0.207128
v -0.270407 0.760993 0.207128
v 0.274481 0.55666 0.207128
v 0.291509 -0.720421 -0.244107
v -0.287434 -0.465005 -0.244107
v 0.291509 -0.465005 -0.244107
v 0.291509 0.301244 0.207128
v -0.270407 0.045827 0.207128
v -0.287434 -0.209589 -0.244107
v 0.291509 -0.209589 -0.244107
v -0.287434 -0.720421 -0.244107
v -0.287434 -0.720421 0.207128
v -0.287434 -0.720421 0.258212
v -0.270407 0.55666 0.207128
v -0.287434 0.778021 0.207128
v 0.291509 0.778021 0.207128
v -0.244865 -0.720421 -0.244107
v -0.287434 -0.465005 0.207128
v -0.244865 -0.465005 -0.244107
v 0.291509 0.55666 0.207128
v -0.270407 0.301244 0.207128
v -0.287434 0.045827 -0.244107
v 0.291509 0.045827 -0.244107
v -0.287434 -0.209589 0.207128
v -0.244865 -0.209589 -0.244107
v -0.287434 0.55666 0.207128
v 0.24894 -0.465005 -0.244107
v 0.24894 -0.720421 -0.244107
v 0.24894 -0.209589 -0.244107
v 0.291509 0.301244 -0.244107
v -0.287434 0.301244 -0.244107
v -0.287434 0.045827 0.207128
v -0.244865 0.045827 -0.244107
v 0.24894 0.045827 -0.244107
v -0.287434 0.301244 0.207128
v -0.287434 0.55666 -0.244107
v -0.287434 0.778021 -0.244107
v 0.291509 0.55666 -0.244107
v -0.244865 -0.720421 -0.286676
v -0.244865 0.301244 -0.244107
v 0.24894 0.301244 -0.244107
v 0.291509 0.778021 -0.244107
v -0.244865 0.55666 -0.244107
v 0.24894 -0.720421 -0.286676
v 0.24894 0.55666 -0.244107
v -0.244865 0.692882 -0.286676
v 0.24894 0.692882 -0.286676
v -0.244865 -0.703408 0.258212
v -0.287434 0.692882 0.258212
v -0.219323 0.692882 0.258212
v -0.287434 -0.635467 0.258212
v -0.27892 0.692882 0.258212
v -0.287434 -0.635467 0.283753
v -0.27892 0.692882 0.275239
v -0.27892 -0.635467 0.258212
v -0.287434 0.692882 0.283753
v -0.27892 -0.635467 0.275239
v -0.244865 0.692882 0.283753
v -0.244865 -0.635467 0.275239
v -0.244865 0.692882 0.275239
v -0.244865 -0.635467 0.283753
v 0.274481 -0.703597 0.224156
v 0.274481 -0.703597 0.241184
v 0.274481 -0.720421 0.207128
v 0.274481 -0.720421 0.241184
v 0.291509 -0.720421 0.207128
v -0.270407 -0.720421 0.241184
v -0.270407 -0.703393 0.224156
v -0.244865 -0.703408 0.241184
v 0.291509 -0.720421 0.258212
v -0.270407 -0.720421 0.207128
v 0.291509 -0.720421 -0.244107
v -0.287434 -0.720421 -0.244107
v -0.287434 -0.720421 0.258212
v -0.270407 -0.703393 0.241184
v -0.244865 -0.720421 -0.244107
v 0.291509 -0.924754 -0.244107
v -0.287434 -0.924754 0.258212
v 0.24894 -0.720421 -0.244107
v 0.291509 -0.924754 0.258212
v -0.244865 -0.924754 -0.244107
v 0.24894 -0.924754 -0.244107
v -0.287434 -0.924754 -0.244107
vt -0.246063 0.098425
vt -0.147638 0.0
vt -0.246063 3.248031
vt -0.442913 3.248031
vt -0.442913 3.346457
vt -0.357143 0.201143
vt -0.642857 0.201143
vt -0.357143 6.637714
vt -0.642857 0.0
vt -0.642857 6.637714
vt -4.428571 6.838857
vt -4.428571 0.0
vt -4.428571 6.336
vt -0.147638 0.0
vt -0.246063 3.248031
vt -0.442913 3.346457
vt -0.147638 3.346457
vt 0.295276 3.344319
vt 0.0 3.344319
vt 0.295276 18.700787
vt -0.357143 0.201143
vt -0.642857 0.201143
vt -0.357143 6.637714
vt -0.642857 0.0
vt -0.642857 6.637714
vt -0.246063 0.098425
vt -0.442913 0.0
vt -0.147638 0.0
vt -0.442913 1.181102
vt -0.147638 1.181102
vt -3.051181 1.181102
vt 0.442913 1.181102
vt 3.051181 1.181102
vt 0.147638 1.181102
vt -0.642857 0.0
vt -0.642857 6.637714
vt -4.428571 6.838857
vt -4.428571 0.0
vt -4.428571 6.336
vt -0.642857 6.838857
vt -4.428571 0.502857
vt 0.0 3.344319
vt 0.295276 18.700787
vt 0.0 18.700787
vt 6.692913 18.700787
vt 6.692913 3.344319
vt 6.200787 18.700787
vt 6.200787 3.344319
vt -0.442913 0.098425
vt -0.246063 0.098425
vt -0.442913 0.0
vt -0.147638 0.0
vt -0.147638 1.181102
vt -3.051181 1.181102
vt -3.051181 0.0
vt 3.346457 1.181102
vt 3.346457 0.0
vt 0.0 1.181102
vt 3.051181 1.181102
vt 0.147638 1.181102
vt 0.0 0.0
vt 0.147638 0.0
vt 3.051181 0.0
vn 0.0 0.0 1.0
vn 0.0 0.0 -1.0
vn 0.0 1.0 0.0
vn 0.0 -1.0 0.0
vn 0.0 0.0 1.0
vn 0.0 0.0 -1.0
vn 0.0 1.0 0.0
vn 0.0 -1.0 0.0
vn -1.0 0.0 0.0
vn 0.000363 1.0 0.0
vn -0.000363 -1.0 0.0
vn 1.0 0.0 0.0
vn 0.000586 1.0 0.0
vn -0.000586 -1.0 0.0
vn 0.0 0.0 1.0
vn 0.0 0.0 -1.0
vn 0.0 1.0 0.0
vn 0.0 -1.0 0.0
vn 0.0 0.0 1.0
vn 0.0 0.0 -1.0
vn 0.0 1.0 0.0
vn 0.0 -1.0 0.0
vn -1.0 0.0 0.0
vn 1.0 0.0 0.0
vn 0.0 0.0 1.0
vn 0.0 0.0 -1.0
vn 0.0 1.0 0.0
vn 0.0 -1.0 0.0
vn -1.0 0.0 0.0
vn 1.0 0.0 0.0
vn 0.0 0.0 1.0
vn 0.0 0.0 -1.0
vn 0.0 1.0 0.0
vn 0.0 -1.0 0.0
vn -1.0 0.0 0.0
vn 1.0 0.0 0.0
usemtl base_geom
f 5//4 2//4 3//4
f 5//2 1//2 3//2
f 3//1 1//1 5//1
# UNHIT_FACE f 2//4 7//4 4//4
f 2//4 5//4 7//4
f 6//4 5//4 3//4
f 7//4 9//4 4//4
# UNHIT_FACE f 5//4 10//4 7//4
f 11//4 8//4 4//4
f 4//4 9//4 11//4
f 3/1/3 5/3/3 6/2/3
f 7/4/3 10/5/3 5/3/3
f 3/6/3 2/7/3 5/8/3
# UNHIT_FACE f 4/9/3 7/10/3 2/7/3
f 7/10/3 5/8/3 2/7/3
f 4/9/3 9/11/3 7/10/3
f 4/9/3 8/12/3 11/13/3
f 11/13/3 9/11/3 4/9/3
f 14//8 16//8 12//8
f 15//7 13//7 17//7
f 17//8 13//8 15//8
f 17//6 14//6 15//6
f 16//8 14//8 18//8
# UNHIT_FACE f 12//8 16//8 19//8
f 13//10 20//10 17//10
f 17//11 20//11 13//11
f 14//6 17//6 22//6
f 14//6 22//6 18//6
f 23//12 16//12 18//12
f 16//5 24//5 19//5
f 19//6 24//6 16//6
f 20//10 13//10 25//10
f 25//11 13//11 20//11
f 20//6 26//6 17//6
# UNHIT_FACE f 13//6 21//6 25//6
f 25//5 21//5 13//5
f 18//6 22//6 28//6
f 29//12 16//12 23//12
f 18//6 30//6 23//6
f 24//5 16//5 31//5
f 31//6 16//6 24//6
f 25//13 32//13 20//13
# UNHIT_FACE f 20//14 32//14 25//14
f 26//6 20//6 33//6
f 35//8 21//8 27//8
f 18//6 28//6 30//6
f 37//12 16//12 29//12
f 23//12 38//12 29//12
# UNHIT_FACE f 30//6 29//6 23//6
# UNHIT_FACE f 23//5 29//5 30//5
# UNHIT_FACE f 39//8 23//8 30//8
f 30//7 23//7 39//7
f 16//12 37//12 31//12
# UNHIT_FACE f 31//7 36//7 24//7
# UNHIT_FACE f 24//8 36//8 31//8
# UNHIT_FACE f 32//13 25//13 36//13
f 36//14 25//14 32//14
f 30//6 20//6 32//6
f 36//12 21//12 24//12
f 21//8 35//8 34//8
f 40//6 37//6 29//6
# UNHIT_FACE f 29//6 30//6 40//6
# UNHIT_FACE f 40//5 30//5 29//5
f 39//8 41//8 23//8
f 23//7 41//7 39//7
f 40//9 39//9 30//9
f 30//12 39//12 40//12
# UNHIT_FACE f 37//7 36//7 31//7
f 31//8 36//8 37//8
f 36//7 37//7 32//7
# UNHIT_FACE f 32//8 37//8 36//8
# UNHIT_FACE f 30//6 32//6 40//6
f 37//6 40//6 32//6
f 39//9 40//9 42//9
f 42//12 40//12 39//12
f 12//7 16//7 14//7
f 15//5 14//5 17//5
f 18//7 14//7 16//7
# UNHIT_FACE f 19//7 16//7 12//7
f 22//5 17//5 14//5
f 18//5 22//5 14//5
f 18//9 16//9 23//9
f 17//5 26//5 20//5
f 28//5 22//5 18//5
f 23//9 16//9 29//9
f 23//5 30//5 18//5
f 33//5 20//5 26//5
f 30//5 28//5 18//5
f 29//9 16//9 37//9
f 31//9 37//9 16//9
f 32//5 20//5 30//5
# UNHIT_FACE f 29//5 37//5 40//5
f 40//5 32//5 30//5
f 32//5 40//5 37//5
f 24//9 21//9 36//9
f 27/14/7 21/15/7 35/17/7
f 34/16/7 35/17/7 21/15/7
f 29/18/9 38/19/9 23/20/9
# UNHIT_FACE f 43//18 51//18 46//18
# UNHIT_FACE f 44//18 54//18 48//18
f 50//16 45//16 55//16
# UNHIT_FACE f 43//18 58//18 51//18
# UNHIT_FACE f 47//18 60//18 53//18
# UNHIT_FACE f 44//18 61//18 54//18
# UNHIT_FACE f 58//18 43//18 64//18
# UNHIT_FACE f 52//18 66//18 59//18
# UNHIT_FACE f 47//18 67//18 60//18
# UNHIT_FACE f 61//18 44//18 68//18
f 62//16 49//16 56//16
# UNHIT_FACE f 57//18 63//18 65//18
# UNHIT_FACE f 52//18 69//18 66//18
# UNHIT_FACE f 67//18 47//18 70//18
# UNHIT_FACE f 57//18 71//18 63//18
# UNHIT_FACE f 69//18 52//18 72//18
# UNHIT_FACE f 71//18 57//18 73//18
f 55//15 45//15 50//15
f 56//15 49//15 62//15
# UNHIT_FACE f 46/24/17 51/25/17 43/22/17
# UNHIT_FACE f 48/24/17 54/25/17 44/22/17
# UNHIT_FACE f 51/25/17 58/23/17 43/22/17
# UNHIT_FACE f 53/24/17 60/25/17 47/22/17
# UNHIT_FACE f 54/25/17 61/23/17 44/22/17
# UNHIT_FACE f 64/21/17 43/22/17 58/23/17
# UNHIT_FACE f 59/24/17 66/25/17 52/22/17
# UNHIT_FACE f 60/25/17 67/23/17 47/22/17
# UNHIT_FACE f 68/21/17 44/22/17 61/23/17
# UNHIT_FACE f 65/24/17 63/25/17 57/22/17
# UNHIT_FACE f 66/25/17 69/23/17 52/22/17
# UNHIT_FACE f 70/21/17 47/22/17 67/23/17
# UNHIT_FACE f 63/25/17 71/23/17 57/22/17
# UNHIT_FACE f 72/21/17 52/22/17 69/23/17
# UNHIT_FACE f 73/21/17 57/22/17 71/23/17
f 62//16 50//16 55//16
f 55//15 50//15 62//15
f 50//16 62//16 56//16
f 56//15 62//15 50//15
f 74//19 75//19 76//19
# UNHIT_FACE f 75//19 74//19 77//19
f 76//20 75//20 74//20
f 77//20 74//20 75//20
# UNHIT_FACE f 78//21 76//21 75//21
# UNHIT_FACE f 75//22 76//22 78//22
f 76//23 79//23 74//23
# UNHIT_FACE f 74//22 79//22 77//22
f 80//23 75//23 77//23
f 78//21 81//21 76//21
# UNHIT_FACE f 76//22 81//22 78//22
f 79//23 76//23 81//23
f 82//23 75//23 80//23
f 80//23 77//23 83//23
f 86//20 82//20 80//20
f 83//23 77//23 87//23
f 88//20 80//20 83//20
f 85//22 91//22 77//22
f 82//20 86//20 89//20
f 80//20 88//20 86//20
f 87//23 77//23 93//23
f 94//20 83//20 87//20
f 83//20 94//20 88//20
f 84//22 89//22 96//22
f 90//24 92//24 85//24
f 91//22 85//22 98//22
# UNHIT_FACE f 99//23 77//23 91//23
f 86//23 100//23 89//23
# UNHIT_FACE f 92//22 101//22 86//22
f 88//23 102//23 86//23
f 93//23 77//23 99//23
f 103//20 87//20 93//20
f 87//20 103//20 94//20
# UNHIT_FACE f 95//22 105//22 88//22
f 94//23 106//23 88//23
# UNHIT_FACE f 100//23 96//23 89//23
f 90//24 97//24 92//24
f 85//24 92//24 95//24
f 85//24 110//24 98//24
f 111//20 91//20 98//20
f 112//20 99//20 91//20
f 100//23 86//23 102//23
# UNHIT_FACE f 101//22 92//22 114//22
# UNHIT_FACE f 86//22 101//22 115//22
f 102//23 88//23 106//23
# UNHIT_FACE f 115//22 102//22 86//22
f 116//20 93//20 99//20
f 93//20 116//20 103//20
# UNHIT_FACE f 104//22 118//22 94//22
f 103//23 119//23 94//23
# UNHIT_FACE f 105//22 95//22 120//22
# UNHIT_FACE f 88//22 105//22 121//22
f 106//23 94//23 119//23
# UNHIT_FACE f 121//22 106//22 88//22
f 107//22 97//22 108//22
f 108//20 92//20 97//20
f 114//20 95//20 92//20
f 85//24 95//24 104//24
f 85//24 117//24 110//24
f 122//20 98//20 110//20
f 112//20 91//20 111//20
f 111//20 98//20 122//20
f 99//20 112//20 116//20
f 102//20 100//20 123//20
# UNHIT_FACE f 100//22 113//22 124//22
f 92//20 108//20 114//20
f 108//24 101//24 114//24
f 101//24 120//24 114//24
f 101//20 105//20 115//20
f 101//20 115//20 113//20
f 106//20 102//20 125//20
# UNHIT_FACE f 102//22 115//22 123//22
f 116//23 126//23 103//23
# UNHIT_FACE f 117//22 127//22 103//22
# UNHIT_FACE f 118//22 104//22 128//22
# UNHIT_FACE f 94//22 118//22 129//22
f 119//23 103//23 126//23
# UNHIT_FACE f 129//22 119//22 94//22
f 120//20 104//20 95//20
f 95//20 114//20 120//20
f 120//24 101//24 105//24
f 105//24 128//24 120//24
f 105//20 118//20 121//20
f 105//20 121//20 115//20
f 119//20 106//20 130//20
# UNHIT_FACE f 106//22 121//22 125//22
# UNHIT_FACE f 109//24 107//24 108//24
f 101//24 108//24 107//24
f 107//20 101//20 113//20
f 85//24 104//24 117//24
f 131//20 110//20 117//20
# UNHIT_FACE f 132//22 110//22 122//22
f 110//20 131//20 122//20
f 133//22 112//22 111//22
f 132//24 111//24 122//24
f 112//23 134//23 116//23
f 124//20 123//20 100//20
f 123//20 125//20 102//20
f 124//21 135//21 113//21
f 113//22 135//22 124//22
f 113//20 115//20 124//20
f 125//20 130//20 106//20
f 115//20 121//20 123//20
f 115//20 123//20 124//20
# UNHIT_FACE f 110//22 132//22 116//22
f 126//23 116//23 134//23
# UNHIT_FACE f 136//22 126//22 103//22
# UNHIT_FACE f 127//22 117//22 131//22
# UNHIT_FACE f 103//22 127//22 136//22
f 104//20 120//20 128//20
f 128//20 117//20 104//20
f 118//24 131//24 128//24
f 128//24 105//24 118//24
f 118//20 129//20 121//20
f 118//20 127//20 129//20
f 126//20 119//20 137//20
# UNHIT_FACE f 119//22 129//22 130//22
f 130//20 137//20 119//20
f 121//20 129//20 125//20
f 121//20 125//20 123//20
f 117//20 128//20 131//20
f 122//24 127//24 132//24
f 127//24 122//24 131//24
f 112//22 133//22 138//22
f 111//24 132//24 133//24
f 134//23 112//23 138//23
# UNHIT_FACE f 139//22 134//22 116//22
f 135//21 124//21 140//21
f 140//22 124//22 135//22
f 129//20 130//20 125//20
# UNHIT_FACE f 116//22 132//22 139//22
f 134//20 126//20 141//20
# UNHIT_FACE f 126//22 136//22 137//22
f 131//24 118//24 127//24
f 127//20 136//20 129//20
f 127//20 132//20 136//20
f 137//20 141//20 126//20
f 129//20 136//20 130//20
f 136//20 137//20 130//20
f 138//20 134//20 133//20
f 132//20 133//20 139//20
# UNHIT_FACE f 134//22 139//22 141//22
f 140//19 142//19 135//19
f 132//20 139//20 136//20
f 141//20 133//20 134//20
f 136//20 139//20 137//20
f 139//20 141//20 137//20
f 139//20 133//20 141//20
f 142//19 140//19 143//19
f 74//24 79//24 76//24
f 77//21 79//21 74//21
f 81//24 76//24 79//24
# UNHIT_FACE f 80//19 82//19 86//19
f 83//19 80//19 88//19
f 89//19 86//19 82//19
f 86//19 88//19 80//19
f 87//19 83//19 94//19
f 88//19 94//19 83//19
f 89//24 100//24 86//24
f 86//24 102//24 88//24
f 93//19 87//19 103//19
f 94//19 103//19 87//19
f 88//24 106//24 94//24
f 98//19 91//19 111//19
f 91//19 99//19 112//19
f 102//24 86//24 100//24
f 106//24 88//24 102//24
f 99//19 93//19 116//19
f 103//19 116//19 93//19
f 94//24 119//24 103//24
f 119//24 94//24 106//24
f 97//19 92//19 108//19
f 92//19 95//19 114//19
f 110//19 98//19 122//19
f 111//19 91//19 112//19
f 122//19 98//19 111//19
f 116//19 112//19 99//19
f 114//19 108//19 92//19
f 114//23 101//23 108//23
f 114//23 120//23 101//23
f 103//24 126//24 116//24
f 126//24 103//24 119//24
f 95//19 104//19 120//19
f 120//19 114//19 95//19
f 105//23 101//23 120//23
f 120//23 128//23 105//23
f 107//23 108//23 101//23
f 117//19 110//19 131//19
f 122//19 131//19 110//19
f 111//21 112//21 133//21
f 122//23 111//23 132//23
f 116//24 134//24 112//24
f 134//24 116//24 126//24
f 128//19 120//19 104//19
f 104//19 117//19 128//19
f 128//23 131//23 118//23
f 118//23 105//23 128//23
f 131//19 128//19 117//19
f 132//23 127//23 122//23
f 131//23 122//23 127//23
f 138//21 133//21 112//21
f 133//23 132//23 111//23
f 138//24 112//24 134//24
f 127//23 118//23 131//23
f 77//24 75//24 80//24
f 80//24 75//24 82//24
f 83//24 77//24 80//24
f 87//24 77//24 83//24
f 77//21 91//21 85//21
f 93//24 77//24 87//24
f 85//23 92//23 90//23
f 98//21 85//21 91//21
f 91//24 77//24 99//24
f 99//24 77//24 93//24
f 92//23 97//23 90//23
f 95//23 92//23 85//23
f 98//23 110//23 85//23
f 104//23 95//23 85//23
f 110//23 117//23 85//23
f 123//19 100//19 102//19
f 115//19 105//19 101//19
f 113//19 115//19 101//19
f 125//19 102//19 106//19
f 121//19 118//19 105//19
f 115//19 121//19 105//19
f 130//19 106//19 119//19
f 113//19 101//19 107//19
f 117//23 104//23 85//23
f 100//19 123//19 124//19
f 102//19 125//19 123//19
f 124//19 115//19 113//19
f 106//19 130//19 125//19
f 123//19 121//19 115//19
f 124//19 123//19 115//19
f 121//19 129//19 118//19
f 129//19 127//19 118//19
f 137//19 119//19 126//19
f 119//19 137//19 130//19
f 125//19 129//19 121//19
f 123//19 125//19 121//19
f 125//19 130//19 129//19
f 141//19 126//19 134//19
f 129//19 136//19 127//19
f 136//19 132//19 127//19
f 126//19 141//19 137//19
f 130//19 136//19 129//19
f 130//19 137//19 136//19
f 133//19 134//19 138//19
f 139//19 133//19 132//19
f 135//20 142//20 140//20
f 136//19 139//19 132//19
f 134//19 133//19 141//19
f 137//19 139//19 136//19
f 137//19 141//19 139//19
f 141//19 133//19 139//19
f 143//20 140//20 142//20
f 96/28/21 89/27/21 84/26/21
# UNHIT_FACE f 89/29/24 96/30/24 100/31/24
# UNHIT_FACE f 108/32/23 107/33/23 109/34/23
# UNHIT_FACE f 86/35/21 101/37/21 92/36/21
# UNHIT_FACE f 88/35/21 105/37/21 95/36/21
# UNHIT_FACE f 114/40/21 92/36/21 101/37/21
# UNHIT_FACE f 115/39/21 101/37/21 86/35/21
# UNHIT_FACE f 86/35/21 102/38/21 115/39/21
# UNHIT_FACE f 94/35/21 118/37/21 104/36/21
# UNHIT_FACE f 120/40/21 95/36/21 105/37/21
# UNHIT_FACE f 121/39/21 105/37/21 88/35/21
# UNHIT_FACE f 88/35/21 106/38/21 121/39/21
f 108/40/21 97/36/21 107/37/21
# UNHIT_FACE f 124/41/21 113/39/21 100/38/21
# UNHIT_FACE f 123/41/21 115/39/21 102/38/21
# UNHIT_FACE f 103/35/21 127/37/21 117/36/21
# UNHIT_FACE f 128/40/21 104/36/21 118/37/21
# UNHIT_FACE f 129/39/21 118/37/21 94/35/21
# UNHIT_FACE f 94/35/21 119/38/21 129/39/21
# UNHIT_FACE f 125/41/21 121/39/21 106/38/21
# UNHIT_FACE f 122/40/21 110/36/21 132/37/21
# UNHIT_FACE f 116/35/21 132/37/21 110/36/21
# UNHIT_FACE f 103/35/21 126/38/21 136/39/21
# UNHIT_FACE f 131/40/21 117/36/21 127/37/21
# UNHIT_FACE f 136/39/21 127/37/21 103/35/21
# UNHIT_FACE f 130/41/21 129/39/21 119/38/21
# UNHIT_FACE f 116/35/21 134/38/21 139/39/21
# UNHIT_FACE f 139/39/21 132/37/21 116/35/21
# UNHIT_FACE f 137/41/21 136/39/21 126/38/21
# UNHIT_FACE f 141/41/21 139/39/21 134/38/21
f 148//26 146//26 144//26
f 149//30 145//30 152//30
f 149//27 153//27 147//27
f 147//28 153//28 149//28
f 147//27 153//27 151//27
f 151//28 153//28 147//28
f 154//26 149//26 152//26
f 149//27 155//27 153//27
# UNHIT_FACE f 153//28 155//28 149//28
f 156//28 152//28 150//28
f 150//27 152//27 156//27
f 149//26 154//26 157//26
f 152//28 156//28 154//28
f 154//27 156//27 152//27
f 155//27 149//27 157//27
f 157//28 149//28 155//28
# UNHIT_FACE f 155//25 150//25 153//25
f 153//26 150//26 155//26
# UNHIT_FACE f 150//25 155//25 156//25
f 156//26 155//26 150//26
# UNHIT_FACE f 154//29 155//29 157//29
f 157//30 155//30 154//30
# UNHIT_FACE f 155//29 154//29 156//29
f 156//30 154//30 155//30
f 144//25 146//25 148//25
f 152/44/29 145/43/29 149/42/29
f 152/45/25 149/46/25 154/47/25
f 157/48/25 154/47/25 149/46/25
f 160//35 159//35 158//35
f 159//35 160//35 161//35
f 162//34 161//34 160//34
f 167//36 164//36 163//36
f 165//32 163//32 171//32
f 171//31 163//31 165//31
f 173//35 166//35 168//35
f 166//32 174//32 170//32
f 166//35 173//35 176//35
f 175//31 173//31 168//31
f 168//32 173//32 175//32
f 177//31 172//31 169//31
f 169//32 172//32 177//32
f 174//32 166//32 176//32
f 174//36 169//36 170//36
f 178//31 175//31 172//31
f 172//32 175//32 178//32
f 173//31 175//31 178//31
f 178//32 175//32 173//32
f 178//31 172//31 177//31
f 177//32 172//32 178//32
f 177//31 169//31 179//31
f 179//32 169//32 177//32
f 169//36 174//36 179//36
f 158//36 159//36 160//36
f 161//36 160//36 159//36
f 163//35 164//35 167//35
f 160/49/33 161/50/33 162/51/33
f 168/54/36 166/53/36 173/55/36
f 170/56/31 174/57/31 166/58/31
f 176/52/36 173/55/36 166/53/36
f 176/61/31 166/58/31 174/57/31
f 170/60/35 169/59/35 174/62/35
f 179/63/35 174/62/35 169/59/35
