# Merged(arrow/base_geom)

v -0.812513 0.523426 -0.197726
v 0.820533 -0.488353 -0.197726
v 0.820533 0.523426 -0.197726
v -0.812513 -0.488353 -0.197726
v 0.838284 0.523426 -0.211039
v 0.838284 -0.488353 0.170597
v 0.838284 -0.488353 -0.211039
v 0.838284 0.523426 0.170597
v 0.820533 0.523426 0.170597
v 0.820533 -0.488353 -0.211039
v 0.820533 -0.488353 0.170597
v 0.820533 0.523426 -0.211039
v -0.841357 0.117383 0.223849
v -0.841357 0.01088 0.197223
v -0.841357 0.01088 0.223849
v -0.841357 0.117383 0.197223
v 0.849378 0.01088 0.223849
v 0.849378 0.117383 0.197223
v 0.849378 0.01088 0.197223
v 0.849378 0.117383 0.223849
v -0.120243 -0.168844 -0.211039
v -0.120243 -0.488353 -0.211039
v -0.217694 -0.168844 -0.211039
v -0.217694 -0.488353 -0.211039
v 0.856034 -0.488353 -0.228789
v -0.848014 -0.488353 0.170597
v 0.856034 -0.488353 0.170597
v -0.848014 -0.488353 -0.228789
v 0.856034 -0.506103 0.170597
v -0.848014 -0.506103 -0.228789
v 0.856034 -0.506103 -0.228789
v -0.848014 -0.506103 0.170597
v -0.830264 0.523426 0.170597
v -0.830264 -0.488353 -0.211039
v -0.830264 -0.488353 0.170597
v -0.830264 0.523426 -0.211039
v -0.734855 -0.401819 0.197223
v 0.742875 0.01088 0.197223
v 0.742875 -0.401819 0.197223
v -0.734855 0.01088 0.197223
v 0.11717 -0.447556 0.223849
v 0.11717 -0.450078 0.262906
v 0.11717 -0.447556 0.265428
v 0.11717 -0.462585 0.223849
v 0.149592 -0.447556 0.223849
v 0.11717 -0.455071 0.261568
v 0.149592 -0.447556 0.265428
v 0.149592 -0.462585 0.223849
v 0.11717 -0.460063 0.262906
v 0.149592 -0.450078 0.262906
v 0.149592 -0.462585 0.265428
v 0.11717 -0.462585 0.265428
v 0.149592 -0.455071 0.261568
v 0.149592 -0.460063 0.262906
v -0.315499 0.523426 -0.211039
v -0.315499 -0.488353 -0.228789
v -0.315499 -0.488353 -0.211039
v -0.315499 0.523426 -0.228789
v -0.208996 -0.488353 -0.211039
v -0.208996 0.523426 -0.228789
v -0.208996 0.523426 -0.211039
v -0.208996 -0.488353 -0.228789
v -0.841358 0.01088 0.197223
v -0.734855 -0.401819 0.197223
v -0.841358 -0.401819 0.197223
v -0.734855 0.01088 0.197223
v -0.841358 -0.401819 0.223849
v -0.734855 0.01088 0.223849
v -0.841358 0.01088 0.223849
v -0.734855 -0.401819 0.223849
v -0.009303 0.523426 0.170597
v -0.009303 -0.488353 -0.197726
v -0.009303 -0.488353 0.170597
v -0.009303 0.523426 -0.197726
v 0.017323 -0.488353 0.170597
v 0.017323 0.523426 -0.197726
v 0.017323 0.523426 0.170597
v 0.017323 -0.488353 -0.197726
v -0.848014 0.523426 -0.211039
v -0.848014 -0.488353 -0.228789
v -0.848014 -0.488353 -0.211039
v -0.848014 0.523426 -0.228789
v -0.741511 -0.488353 -0.211039
v -0.741511 0.523426 -0.228789
v -0.741511 0.523426 -0.211039
v -0.741511 -0.488353 -0.228789
v -0.794763 0.354796 0.197223
v 0.802783 0.070788 0.197223
v 0.802783 0.354796 0.197223
v -0.794763 0.070788 0.197223
v 0.802783 0.354796 0.170597
v -0.794763 0.070788 0.170597
v -0.794763 0.354796 0.170597
v 0.802783 0.070788 0.170597
v 0.11717 -0.446424 0.266561
v 0.11717 -0.446424 0.276545
v 0.11717 -0.445086 0.271553
v 0.11717 -0.450078 0.262906
v 0.742875 -0.445086 0.271553
v 0.742875 -0.446424 0.266561
v 0.742875 -0.450078 0.262906
v 0.11717 -0.450078 0.2802
v 0.742875 -0.446424 0.276545
v 0.11717 -0.455071 0.261568
v 0.742875 -0.450078 0.2802
v 0.742875 -0.455071 0.261568
v 0.11717 -0.455071 0.281538
v 0.742875 -0.455071 0.281538
v 0.11717 -0.460063 0.262906
v 0.742875 -0.460063 0.262906
v 0.11717 -0.460063 0.2802
v 0.742875 -0.460063 0.2802
v 0.11717 -0.463718 0.266561
v 0.742875 -0.463718 0.266561
v 0.11717 -0.463718 0.276545
v 0.742875 -0.465055 0.271553
v 0.11717 -0.465055 0.271553
v 0.742875 -0.463718 0.276545
v 0.742875 0.01088 0.197223
v 0.849378 -0.401819 0.197223
v 0.742875 -0.401819 0.197223
v 0.849378 0.01088 0.197223
v 0.742875 -0.401819 0.223849
v 0.849378 0.01088 0.223849
v 0.742875 0.01088 0.223849
v 0.849378 -0.401819 0.223849
v -0.812513 0.523426 -0.211039
v -0.812513 -0.488353 0.170597
v -0.812513 -0.488353 -0.211039
v -0.812513 0.523426 0.170597
v 0.217016 0.523426 -0.211039
v 0.217016 -0.488353 -0.228789
v 0.217016 -0.488353 -0.211039
v 0.217016 0.523426 -0.228789
v 0.323519 -0.488353 -0.211039
v 0.323519 0.523426 -0.228789
v 0.323519 0.523426 -0.211039
v 0.323519 -0.488353 -0.228789
v -0.848014 -0.514979 0.170597
v 0.856034 -0.461727 0.170597
v 0.856034 -0.514979 0.170597
v -0.848014 -0.461727 0.170597
v 0.856034 -0.514979 0.197223
v -0.848014 -0.461727 0.197223
v 0.856034 -0.461727 0.197223
v -0.848014 -0.514979 0.197223
v 0.856034 0.550052 0.170597
v 0.856034 0.4968 0.170597
v -0.848014 0.550052 0.170597
v 0.856034 0.550052 0.197223
v -0.848014 0.4968 0.170597
v 0.856034 0.4968 0.197223
v -0.848014 0.4968 0.197223
v -0.848014 0.550052 0.197223
v -0.734855 0.01088 0.214973
v 0.742875 -0.401819 0.214973
v 0.742875 0.01088 0.214973
v -0.734855 -0.401819 0.214973
v -0.424221 0.523426 0.170597
v -0.424221 -0.488353 -0.197726
v -0.424221 -0.488353 0.170597
v -0.424221 0.523426 -0.197726
v -0.397595 -0.488353 0.170597
v -0.397595 0.523426 -0.197726
v -0.397595 0.523426 0.170597
v -0.397595 -0.488353 -0.197726
v 0.856034 0.523426 0.170597
v -0.848014 0.523426 0.170597
v 0.856034 0.523426 -0.228789
v -0.848014 0.523426 -0.228789
v 0.856034 0.541176 0.170597
v -0.848014 0.541176 -0.228789
v 0.856034 0.541176 -0.228789
v -0.848014 0.541176 0.170597
v -0.841357 -0.401819 0.223849
v -0.841357 -0.508322 0.197223
v -0.841357 -0.508322 0.223849
v -0.841357 -0.401819 0.197223
v 0.849378 -0.508322 0.223849
v 0.849378 -0.401819 0.197223
v 0.849378 -0.508322 0.197223
v 0.849378 -0.401819 0.223849
v 0.742875 -0.462585 0.265428
v 0.710452 -0.462585 0.223849
v 0.742875 -0.462585 0.223849
v 0.710452 -0.462585 0.265428
v 0.742875 -0.447556 0.223849
v 0.742875 -0.460063 0.262906
v 0.710452 -0.460063 0.262906
v 0.710452 -0.447556 0.223849
v 0.742875 -0.450078 0.262906
v 0.742875 -0.455071 0.261568
v 0.710452 -0.455071 0.261568
v 0.710452 -0.450078 0.262906
v 0.710452 -0.447556 0.265428
v 0.742875 -0.447556 0.265428
v 0.802783 0.4968 0.197223
v 0.802783 -0.461727 0.170597
v 0.802783 -0.461727 0.197223
v 0.802783 0.4968 0.170597
v 0.856034 -0.461727 0.197223
v 0.856034 0.4968 0.170597
v 0.856034 0.4968 0.197223
v 0.856034 -0.461727 0.170597
v -0.812513 -0.488353 -0.211039
v 0.820533 0.523426 -0.211039
v 0.820533 -0.488353 -0.211039
v -0.812513 0.523426 -0.211039
v -0.848014 0.4968 0.197223
v -0.848014 -0.461727 0.170597
v -0.848014 -0.461727 0.197223
v -0.848014 0.4968 0.170597
v -0.794763 -0.461727 0.197223
v -0.794763 0.4968 0.170597
v -0.794763 0.4968 0.197223
v -0.794763 -0.461727 0.170597
v 0.405615 0.523426 0.170597
v 0.405615 -0.488353 -0.197726
v 0.405615 -0.488353 0.170597
v 0.405615 0.523426 -0.197726
v 0.432241 -0.488353 0.170597
v 0.432241 0.523426 -0.197726
v 0.432241 0.523426 0.170597
v 0.432241 -0.488353 -0.197726
vt -1.232882 -4.665964
vt -0.639132 -4.248866
vt -1.232882 -4.248866
vt -0.639132 -4.665964
vt -0.514067 -3.804456
vt -0.738026 -4.279948
vt -0.514067 -4.279948
vt -0.738025 -3.804456
vt -0.738026 -4.780467
vt -0.514067 -4.304974
vt -0.738026 -4.304974
vt -0.514067 -4.780467
vt 0.0 0.0
vt 1.0 0.0
vt 0.0 1.0
vt 1.0 1.0
vt -1.66005 -3.210727
vt -1.894425 -3.773227
vt -1.894425 -3.210727
vt -1.66005 -3.773227
vt -1.894425 -3.20031
vt -1.649633 -3.773227
vt -1.66005 -3.783644
vt -1.66005 -3.20031
vt -1.649633 -3.210727
vt -1.894425 -3.783644
vt -0.738026 -4.780467
vt -0.514067 -4.304974
vt -0.738026 -4.304974
vt -0.514067 -4.780467
vt -0.734277 -0.213443
vt -0.744693 -0.807193
vt -0.734277 -0.807193
vt -0.744693 -0.213443
vt -0.807193 -0.838443
vt -0.744693 -1.432193
vt -0.744693 -0.838443
vt -0.807193 -0.213443
vt -0.807193 -1.432193
vt -0.807193 -0.807193
vt -0.81761 -0.807193
vt -0.81761 -0.213443
vt -0.738026 -4.780467
vt -0.52188 -4.304974
vt -0.738026 -4.304974
vt -0.52188 -4.780467
vt -0.750539 -4.304974
vt -0.509367 -4.780467
vt -0.750539 -4.780467
vt -0.509367 -4.304974
vt -0.738026 -4.279948
vt -0.52188 -3.804456
vt -0.738025 -3.804456
vt -0.52188 -4.279948
vt -0.734277 -0.213443
vt -0.744693 -0.807193
vt -0.734277 -0.807193
vt -0.744693 -0.213443
vt -0.807193 -0.838443
vt -0.744693 -1.432193
vt -0.744693 -0.838443
vt -0.807193 -0.213443
vt -0.807193 -1.432193
vt -0.807193 -0.807193
vt -0.81761 -0.807193
vt -0.81761 -0.213443
vt -0.0625 0.0
vt 0.0 0.5
vt -0.0625 0.5
vt 0.0 0.0
vt -0.351314 9.471887
vt -0.332661 -0.625198
vt -0.329728 9.47188
vt -0.354248 -0.625191
vt -0.413223 -0.625174
vt -0.410289 9.471904
vt -0.490851 9.471928
vt -0.493785 -0.625151
vt -0.571413 9.471951
vt -0.574347 -0.625127
vt -0.630388 9.471969
vt -0.633322 -0.62511
vt -0.654909 -0.625104
vt -0.651975 9.471975
vt -0.514067 -3.804456
vt -0.738026 -4.279948
vt -0.514067 -4.279948
vt -0.738025 -3.804456
vt -0.734277 -0.213443
vt -0.744693 -0.807193
vt -0.734277 -0.807193
vt -0.744693 -0.213443
vt -0.807193 -0.838443
vt -0.744693 -1.432193
vt -0.744693 -0.838443
vt -0.807193 -0.213443
vt -0.807193 -1.432193
vt -0.807193 -0.807193
vt -0.81761 -0.807193
vt -0.81761 -0.213443
vt -1.41005 -3.773227
vt -1.4413 -3.32276
vt -1.41005 -3.32276
vt -1.4413 -3.773227
vt -1.41005 -3.307135
vt -1.4413 -3.788852
vt -1.4413 -3.307135
vt -1.41005 -3.788852
vt -1.41005 -3.32276
vt -1.4413 -3.32276
vt -1.41005 -3.773227
vt -1.41005 -3.307135
vt -1.4413 -3.773227
vt -1.4413 -3.307135
vt -1.4413 -3.788852
vt -1.41005 -3.788852
vt -0.738026 -4.780467
vt -0.52188 -4.304974
vt -0.738026 -4.304974
vt -0.52188 -4.780467
vt -0.750539 -4.304974
vt -0.509367 -4.780467
vt -0.750539 -4.780467
vt -0.509367 -4.304974
vt -0.738026 -4.279948
vt -0.52188 -3.804456
vt -0.738025 -3.804456
vt -0.52188 -4.279948
vt -1.894425 -3.210727
vt -1.894425 -3.773227
vt -1.66005 -3.210727
vt -1.66005 -3.773227
vt -1.894425 -3.20031
vt -1.649633 -3.773227
vt -1.66005 -3.783644
vt -1.66005 -3.20031
vt -1.649633 -3.210727
vt -1.894425 -3.783644
vt -1.06615 -3.816969
vt -1.0349 -4.267435
vt -1.0349 -3.816969
vt -1.06615 -4.267435
vt -0.607882 -4.665964
vt -0.014132 -4.248866
vt -0.607882 -4.248866
vt -0.014132 -4.665965
vt -1.06615 -3.816969
vt -1.0349 -4.267435
vt -1.0349 -3.816969
vt -1.06615 -4.267435
vt -0.738026 -4.780467
vt -0.52188 -4.304974
vt -0.738026 -4.304974
vt -0.52188 -4.780467
vt -0.750539 -4.304974
vt -0.509367 -4.780467
vt -0.750539 -4.780467
vt -0.509367 -4.304974
vt -0.738026 -4.279948
vt -0.52188 -3.804456
vt -0.738025 -3.804456
vt -0.52188 -4.279948
vn 0.0 0.0 1.0
vn 0.0 0.0 -1.0
vn 1.0 0.0 0.0
vn -1.0 0.0 0.0
vn -1.0 0.0 0.0
vn 1.0 0.0 0.0
vn -1.0 0.0 0.0
vn 0.0 -1.0 0.0
vn 0.0 0.0 1.0
vn 0.0 1.0 0.0
vn 0.0 0.0 -1.0
vn 1.0 0.0 0.0
vn 0.0 0.0 -1.0
vn 0.0 0.0 1.0
vn 0.0 1.0 0.0
vn 1.0 0.0 0.0
vn 0.0 0.0 -1.0
vn -1.0 0.0 0.0
vn 0.0 -1.0 0.0
vn 0.0 0.0 1.0
vn -1.0 0.0 0.0
vn 1.0 0.0 0.0
vn 0.0 0.0 -1.0
vn 0.0 0.0 1.0
vn -1.0 0.0 0.0
vn 0.0 1.0 0.0
vn 0.0 0.0 -1.0
vn 1.0 0.0 0.0
vn 0.0 -1.0 0.0
vn 0.0 0.0 1.0
vn -1.0 0.0 0.0
vn 0.0 0.0 1.0
vn 0.0 0.0 -1.0
vn 1.0 0.0 0.0
vn 0.0 0.0 -1.0
vn -1.0 0.0 0.0
vn 1.0 0.0 0.0
vn 0.0 0.0 1.0
vn -1.0 0.0 0.0
vn 0.0 0.0 1.0
vn 0.0 0.0 -1.0
vn 1.0 0.0 0.0
vn -1.0 0.0 0.0
vn 0.0 0.0 1.0
vn 0.0 0.0 -1.0
vn 1.0 0.0 0.0
vn 0.0 0.0 1.0
vn 0.0 1.0 0.0
vn 0.0 -1.0 0.0
vn 0.0 0.0 -1.0
vn -1.0 0.0 0.0
vn 1.0 0.0 0.0
vn 0.0 -1.0 0.0
vn 0.0 -0.8660253028382762 -0.5000001748438417
vn 0.0 -0.8660253028382762 0.5000001748438417
vn 0.0 -0.5000001748438417 0.8660253028382762
vn 0.0 0.0 1.0
vn 0.0 -0.5000001748438417 -0.8660253028382762
vn 0.0 0.0 -1.0
vn 0.0 0.5000001748438417 0.8660253028382762
vn 0.0 0.5000001748438417 -0.8660253028382762
vn 0.0 0.8660253028382762 0.5000001748438417
vn 0.0 0.8660253028382762 -0.5000001748438417
vn 0.0 1.0 0.0
vn 0.0 0.0 -1.0
vn -1.0 0.0 0.0
vn 1.0 0.0 0.0
vn 0.0 0.0 1.0
vn 1.0 0.0 0.0
vn -1.0 0.0 0.0
vn -1.0 0.0 0.0
vn 0.0 0.0 1.0
vn 0.0 0.0 -1.0
vn 1.0 0.0 0.0
vn 0.0 0.0 -1.0
vn 1.0 0.0 0.0
vn -1.0 0.0 0.0
vn 0.0 0.0 1.0
vn 0.0 1.0 0.0
vn 0.0 -1.0 0.0
vn 0.0 0.0 -1.0
vn 1.0 0.0 0.0
vn -1.0 0.0 0.0
vn 0.0 0.0 1.0
vn 0.0 -1.0 0.0
vn 0.0 1.0 0.0
vn 0.0 0.0 1.0
vn 0.0 0.0 -1.0
vn -1.0 0.0 0.0
vn 0.0 0.0 1.0
vn 0.0 0.0 -1.0
vn 1.0 0.0 0.0
vn 0.0 -1.0 0.0
vn 1.0 0.0 0.0
vn 0.0 0.0 -1.0
vn -1.0 0.0 0.0
vn 0.0 1.0 0.0
vn 0.0 0.0 1.0
vn -1.0 0.0 0.0
vn 0.0 -1.0 0.0
vn 0.0 0.0 1.0
vn 0.0 1.0 0.0
vn 0.0 0.0 -1.0
vn 1.0 0.0 0.0
vn 0.0 -1.0 0.0
vn 0.0 0.0 -1.0
vn 1.0 0.0 0.0
vn -1.0 0.0 0.0
vn 0.0 1.0 0.0
vn 0.0 0.0 1.0
vn -1.0 0.0 0.0
vn 0.0 0.0 1.0
vn 1.0 0.0 0.0
vn 0.0 0.0 -1.0
vn 0.0 0.0 -1.0
vn 0.0 0.0 1.0
vn -1.0 0.0 0.0
vn 0.0 0.0 1.0
vn 1.0 0.0 0.0
vn 0.0 0.0 -1.0
vn -1.0 0.0 0.0
vn 0.0 0.0 1.0
vn 0.0 0.0 -1.0
vn 1.0 0.0 0.0
usemtl base_geom
f 1/1/1 2/2/1 3/3/1
f 2/2/1 1/1/1 4/4/1
f 3//2 2//2 1//2
f 4//2 1//2 2//2
f 5/5/3 6/6/3 7/7/3
f 6/6/3 5/5/3 8/8/3
f 7//4 6//4 5//4
f 8//4 5//4 6//4
f 9/9/5 10/10/5 11/11/5
f 10/10/5 9/9/5 12/12/5
f 11//6 10//6 9//6
f 12//6 9//6 10//6
f 13//7 14//7 15//7
f 14//7 13//7 16//7
f 14//8 17//8 15//8
f 17//9 13//9 15//9
f 13//10 18//10 16//10
f 17//8 14//8 19//8
f 13//9 17//9 20//9
f 18//10 13//10 20//10
f 18//12 17//12 19//12
f 17//12 18//12 20//12
f 15//12 14//12 13//12
f 16//12 13//12 14//12
f 15//10 17//10 14//10
f 15//11 13//11 17//11
f 16//8 18//8 13//8
f 19//10 14//10 17//10
f 20//11 17//11 13//11
f 20//8 13//8 18//8
f 19//7 17//7 18//7
f 20//7 18//7 17//7
f 21/13/13 22/14/13 23/15/13
f 23/15/14 22/14/14 21/13/14
f 21/13/14 23/15/14 22/14/14
f 24/16/13 23/15/13 22/14/13
f 22/14/14 23/15/14 24/16/14
f 25/17/15 26/18/15 27/19/15
f 26/18/15 25/17/15 28/20/15
f 25/17/17 30/22/17 28/20/17
f 30/23/18 26/18/18 28/20/18
f 30/22/17 25/17/17 31/25/17
f 26/18/18 30/23/18 32/26/18
f 27//19 26//19 25//19
f 28//19 25//19 26//19
f 27//18 25//18 29//18
f 28//20 30//20 25//20
f 28//16 26//16 30//16
f 31//18 29//18 25//18
f 31//20 25//20 30//20
f 32//16 30//16 26//16
f 31//15 30//15 29//15
f 32//15 29//15 30//15
f 29//19 30//19 31//19
f 30//19 29//19 32//19
f 33/27/21 34/28/21 35/29/21
f 34/28/21 33/27/21 36/30/21
f 35//22 34//22 33//22
f 36//22 33//22 34//22
f 41//25 42//25 43//25
f 42//25 41//25 44//25
f 43//26 45//26 41//26
f 42//25 44//25 46//25
f 46//25 44//25 49//25
f 50//28 45//28 47//28
f 45//28 50//28 48//28
f 51//29 44//29 48//29
f 49//25 44//25 52//25
f 48//28 50//28 53//28
f 44//29 51//29 52//29
f 43//28 42//28 41//28
f 44//28 41//28 42//28
f 41//29 45//29 43//29
f 47//29 43//29 45//29
f 49//28 44//28 46//28
f 47//25 45//25 50//25
f 48//25 50//25 45//25
f 48//26 44//26 51//26
f 52//28 44//28 49//28
f 53//25 50//25 48//25
f 52//26 51//26 44//26
f 51//25 54//25 48//25
f 54//25 53//25 48//25
f 56/32/31 55/31/31 58/34/31
f 60/38/33 56/32/33 58/34/33
f 56/32/33 60/38/33 62/40/33
f 57//34 56//34 55//34
f 58//34 55//34 56//34
f 58//32 56//32 60//32
f 62//32 60//32 56//32
f 61//31 60//31 59//31
f 62//31 59//31 60//31
f 67//36 63//36 65//36
f 68//37 64//37 66//37
f 63//36 67//36 69//36
f 64//37 68//37 70//37
f 67//38 68//38 69//38
f 68//38 67//38 70//38
f 65//37 63//37 67//37
f 66//36 64//36 68//36
f 69//37 67//37 63//37
f 70//36 68//36 64//36
f 69//35 68//35 67//35
f 70//35 67//35 68//35
f 71/43/39 72/44/39 73/45/39
f 72/44/39 71/43/39 74/46/39
f 71/43/40 75/47/40 77/49/40
f 75/51/42 76/52/42 77/53/42
f 73//42 72//42 71//42
f 74//42 71//42 72//42
f 73//41 71//41 75//41
f 77//41 75//41 71//41
f 77//39 76//39 75//39
f 79/55/43 80/56/43 81/57/43
f 80/56/43 79/55/43 82/58/43
f 83/59/44 79/60/44 81/61/44
f 84/62/45 80/56/45 82/58/45
f 79/60/44 83/59/44 85/63/44
f 80/56/45 84/62/45 86/64/45
f 83/65/46 84/62/46 85/66/46
f 84/62/46 83/65/46 86/64/46
f 81//46 80//46 79//46
f 82//46 79//46 80//46
f 81//45 79//45 83//45
f 82//44 80//44 84//44
f 85//45 83//45 79//45
f 86//44 84//44 80//44
f 85//43 84//43 83//43
f 86//43 83//43 84//43
f 87//47 88//47 89//47
f 88//47 87//47 90//47
f 91//48 87//48 89//48
f 87//48 91//48 93//48
f 89//50 88//50 87//50
f 90//50 87//50 88//50
f 89//49 87//49 91//49
f 93//49 91//49 87//49
f 96//51 98//51 102//51
f 102//51 98//51 104//51
f 102//51 104//51 107//51
f 101//52 105//52 106//52
f 106//52 105//52 108//52
f 107//51 109//51 111//51
f 106//52 108//52 110//52
f 111//51 109//51 113//51
f 110//52 108//52 112//52
f 111//51 113//51 115//51
f 110//52 112//52 114//52
f 114//52 112//52 118//52
f 98//52 95//52 96//52
f 97//53 99//53 96//54
f 95//55 100//55 97//53
f 98//56 101//56 95//55
f 102//52 98//52 96//52
f 103//54 96//54 99//53
f 99//53 97//53 100//55
f 100//55 95//55 101//56
f 98//56 104//57 101//56
f 104//52 98//52 102//52
f 102//58 96//54 105//58
f 103//54 105//58 96//54
f 99//51 100//51 103//51
f 101//51 105//51 100//51
f 106//57 101//56 104//57
f 105//58 108//59 102//58
f 106//51 105//51 101//51
f 104//57 109//60 106//57
f 109//52 104//52 107//52
f 107//59 102//58 108//59
f 108//51 105//51 106//51
f 110//60 106//57 109//60
f 111//52 109//52 107//52
f 108//59 112//61 107//59
f 110//51 108//51 106//51
f 109//60 113//62 110//60
f 111//61 107//59 112//61
f 112//51 108//51 110//51
f 114//62 110//60 113//62
f 111//61 112//61 115//63
f 114//62 113//62 116//64
f 118//63 115//63 112//61
f 117//64 116//64 113//62
f 116//51 118//51 114//51
f 115//63 118//63 117//64
f 116//64 117//64 118//63
f 96/71/62 99/72/64 97/73/64
f 97/73/64 100/74/63 95/71/63
f 95/71/63 101/75/61 98/76/61
f 99/72/64 96/71/62 103/74/62
f 100/74/63 97/73/64 99/72/64
f 101/75/61 95/71/63 100/74/63
f 101/75/61 104/77/59 98/76/61
f 105/75/60 96/71/62 102/76/60
f 96/71/62 105/75/60 103/74/62
f 104/77/59 101/75/61 106/78/59
f 102/76/60 108/78/57 105/75/60
f 106/78/59 109/79/58 104/77/59
f 108/78/57 102/76/60 107/77/57
f 109/79/58 106/78/59 110/80/58
f 107/77/57 112/80/56 108/78/57
f 112/80/56 107/77/57 111/79/56
f 115/81/55 112/80/56 111/79/56
f 116/83/53 113/81/54 114/82/54
f 112/80/56 115/81/55 118/82/55
f 113/81/54 116/83/53 117/84/53
f 117/84/53 118/82/55 115/81/55
f 118/82/55 117/84/53 116/83/53
f 123//66 119//66 121//66
f 124//67 120//67 122//67
f 119//66 123//66 125//66
f 120//67 124//67 126//67
f 123//68 124//68 125//68
f 124//68 123//68 126//68
f 121//67 119//67 123//67
f 122//66 120//66 124//66
f 125//67 123//67 119//67
f 126//66 124//66 120//66
f 125//65 124//65 123//65
f 126//65 123//65 124//65
f 128/86/69 127/85/69 130/88/69
f 130//70 127//70 128//70
f 131/89/71 132/90/71 133/91/71
f 132/90/71 131/89/71 134/92/71
f 136/96/73 132/90/73 134/92/73
f 132/90/73 136/96/73 138/98/73
f 135/99/74 136/96/74 137/100/74
f 136/96/74 135/99/74 138/98/74
f 133//74 132//74 131//74
f 134//74 131//74 132//74
f 134//72 132//72 136//72
f 138//72 136//72 132//72
f 137//71 136//71 135//71
f 138//71 135//71 136//71
f 139/101/75 140/102/75 141/103/75
f 140/102/76 143/105/76 141/103/76
f 139/101/77 144/106/77 142/104/77
f 143/105/76 140/102/76 145/107/76
f 144/106/77 139/101/77 146/108/77
f 141//78 140//78 139//78
f 142//78 139//78 140//78
f 141//77 143//77 140//77
f 141//79 139//79 143//79
f 142//76 144//76 139//76
f 145//77 140//77 143//77
f 146//79 143//79 139//79
f 146//76 139//76 144//76
f 145//75 143//75 144//75
f 146//75 144//75 143//75
f 143//80 139//80 141//80
f 139//80 143//80 146//80
f 144//78 143//78 145//78
f 147/109/81 148/110/81 149/111/81
f 147/109/82 150/112/82 148/110/82
f 151/113/81 149/111/81 148/110/81
f 152/114/82 148/110/82 150/112/82
f 151/113/83 153/115/83 149/111/83
f 154/116/83 149/111/83 153/115/83
f 149//84 148//84 147//84
f 148//83 150//83 147//83
f 148//84 149//84 151//84
f 150//85 149//85 147//85
f 150//83 148//83 152//83
f 149//82 153//82 151//82
f 153//86 148//86 151//86
f 149//85 150//85 154//85
f 148//86 153//86 152//86
f 153//81 150//81 152//81
f 153//82 149//82 154//82
f 150//81 153//81 154//81
f 147//86 149//86 150//86
f 151//85 148//85 153//85
f 154//86 150//86 149//86
f 152//85 153//85 148//85
f 152//84 150//84 153//84
f 154//84 153//84 150//84
f 155//87 156//87 157//87
f 156//87 155//87 158//87
f 157//88 156//88 155//88
f 158//88 155//88 156//88
f 159/117/89 160/118/89 161/119/89
f 163/121/90 159/117/90 161/119/90
f 159/117/90 163/121/90 165/123/90
f 163/125/92 164/126/92 165/127/92
f 161//92 160//92 159//92
f 162//92 159//92 160//92
f 161//91 159//91 163//91
f 165//91 163//91 159//91
f 165//89 164//89 163//89
f 167/129/93 168/130/93 169/131/93
f 170/132/93 169/131/93 168/130/93
f 170/132/95 172/134/95 169/131/95
f 170/132/96 168/130/96 172/135/96
f 173/137/95 169/131/95 172/134/95
f 174/138/96 172/135/96 168/130/96
f 169//97 168//97 167//97
f 168//97 169//97 170//97
f 171//96 169//96 167//96
f 172//94 168//94 170//94
f 169//96 171//96 173//96
f 168//94 172//94 174//94
f 171//93 172//93 173//93
f 172//93 171//93 174//93
f 173//97 172//97 171//97
f 174//97 171//97 172//97
f 175//99 176//99 177//99
f 176//99 175//99 178//99
f 176//100 179//100 177//100
f 179//101 175//101 177//101
f 179//100 176//100 181//100
f 175//101 179//101 182//101
f 180//102 175//102 182//102
f 180//104 179//104 181//104
f 179//104 180//104 182//104
f 177//104 176//104 175//104
f 178//104 175//104 176//104
f 177//102 179//102 176//102
f 177//103 175//103 179//103
f 178//100 180//100 175//100
f 181//102 176//102 179//102
f 182//103 179//103 175//103
f 182//100 175//100 180//100
f 181//99 179//99 180//99
f 182//99 180//99 179//99
f 183//105 184//105 185//105
f 184//105 183//105 186//105
f 185//107 188//107 183//107
f 189//108 184//108 186//108
f 187//107 191//107 185//107
f 185//107 192//107 188//107
f 193//108 184//108 189//108
f 194//108 190//108 184//108
f 195//109 187//109 190//109
f 191//107 187//107 196//107
f 185//107 191//107 192//107
f 194//108 184//108 193//108
f 187//109 195//109 196//109
f 185//109 184//109 183//109
f 186//109 183//109 184//109
f 186//107 184//107 189//107
f 184//107 190//107 194//107
f 192//108 191//108 185//108
f 193//107 184//107 194//107
f 195//107 194//107 190//107
f 196//105 195//105 187//105
f 198//111 197//111 200//111
f 201//112 197//112 199//112
f 197//112 201//112 203//112
f 201//113 202//113 203//113
f 202//113 201//113 204//113
f 199//113 198//113 197//113
f 200//113 197//113 198//113
f 199//114 197//114 201//114
f 200//112 198//112 202//112
f 203//114 201//114 197//114
f 204//112 202//112 198//112
f 203//111 202//111 201//111
f 204//111 201//111 202//111
f 202/139/114 198/140/114 200/141/114
f 198/140/114 202/139/114 204/142/114
f 205/143/115 206/144/115 207/145/115
f 206/144/115 205/143/115 208/146/115
f 207//116 206//116 205//116
f 208//116 205//116 206//116
f 209//117 210//117 211//117
f 210//117 209//117 212//117
f 213//118 209//118 211//118
f 209//118 213//118 215//118
f 213//119 214//119 215//119
f 211//119 210//119 209//119
f 212//119 209//119 210//119
f 211//120 209//120 213//120
f 212//118 210//118 214//118
f 215//120 213//120 209//120
f 216//118 214//118 210//118
f 215//117 214//117 213//117
f 216//117 213//117 214//117
f 214/147/120 210/148/120 212/149/120
f 210/148/120 214/147/120 216/150/120
f 217/151/121 218/152/121 219/153/121
f 218/152/121 217/151/121 220/154/121
f 221/155/122 217/151/122 219/153/122
f 217/151/122 221/155/122 223/157/122
f 221/159/124 222/160/124 223/161/124
f 219//124 218//124 217//124
f 220//124 217//124 218//124
f 223//123 221//123 217//123
f 223//121 222//121 221//121
