# Merged(arrow/base_geom)

v -0.234086 0.299671 0.301455
v -0.246401 0.299671 0.387664
v -0.234086 0.299671 0.387664
v -0.246401 0.299671 0.301455
v -0.234086 0.287355 0.387664
v -0.234086 0.287355 0.301455
v -0.246401 0.287355 0.301455
v -0.246401 0.287355 0.387664
v 0.302336 -0.889797 0.340692
v 0.339282 0.871329 0.340692
v 0.302336 0.871329 0.340692
v 0.339282 -0.889797 0.340692
v 0.339282 0.871329 -0.324349
v 0.302336 -0.889797 -0.324349
v 0.302336 0.871329 -0.324349
v 0.339282 -0.889797 -0.324349
v -0.0491 -0.889797 0.376608
v 0.062624 -0.889797 0.376608
v 0.006762 -0.889797 0.377638
v -0.104887 -0.889797 0.373518
v 0.006762 0.4526 0.377638
v -0.0491 0.4526 0.376608
v -0.104887 0.4526 0.373518
v 0.118411 -0.889797 0.373518
v 0.062624 0.4526 0.376608
v -0.160521 0.4526 0.368373
v -0.160521 -0.889797 0.368373
v 0.118411 0.4526 0.373518
v 0.174045 0.4526 0.368373
v 0.174045 -0.889797 0.368373
v -0.215928 0.4526 0.36118
v 0.229452 0.4526 0.36118
v 0.229452 -0.889797 0.36118
v -0.215928 -0.889797 0.36118
v -0.271032 0.4526 0.351949
v 0.284556 0.4526 0.351949
v 0.284556 -0.889797 0.351949
v -0.271032 -0.889797 0.351949
v -0.325758 0.4526 0.340692
v 0.339282 0.4526 0.340692
v 0.339282 -0.889797 0.340692
v -0.325758 -0.889797 0.340692
v -0.325758 -0.889797 -0.361296
v -0.325758 0.871329 -0.324349
v -0.325758 0.871329 -0.361296
v -0.325758 -0.889797 -0.324349
v 0.339282 0.871329 -0.324349
v 0.339282 -0.889797 -0.361296
v 0.339282 0.871329 -0.361296
v 0.339282 -0.889797 -0.324349
v -0.0491 0.4526 0.376608
v 0.062624 0.4526 0.376608
v 0.006762 0.4526 0.377638
v -0.104887 0.4526 0.373518
v 0.006762 0.871329 0.377638
v -0.0491 0.871329 0.376608
v -0.104887 0.871329 0.373518
v 0.118411 0.4526 0.373518
v 0.062624 0.871329 0.376608
v -0.160521 0.871329 0.368373
v -0.160521 0.4526 0.368373
v 0.118411 0.871329 0.373518
v 0.174045 0.871329 0.368373
v 0.174045 0.4526 0.368373
v -0.215928 0.871329 0.36118
v 0.229452 0.871329 0.36118
v -0.215928 0.4526 0.36118
v 0.229452 0.4526 0.36118
v -0.271032 0.871329 0.351949
v 0.284556 0.871329 0.351949
v 0.284556 0.4526 0.351949
v -0.271032 0.4526 0.351949
v -0.325758 0.871329 0.340692
v 0.339282 0.871329 0.340692
v 0.339282 0.4526 0.340692
v -0.325758 0.4526 0.340692
v -0.325758 -0.889797 0.340692
v -0.288812 0.871329 0.340692
v -0.325758 0.871329 0.340692
v -0.288812 -0.889797 0.340692
v -0.288812 0.871329 -0.324349
v -0.325758 -0.889797 -0.324349
v -0.325758 0.871329 -0.324349
v -0.288812 -0.889797 -0.324349
v 0.302336 -0.889797 0.340692
v -0.288812 -0.889797 -0.324349
v 0.302336 -0.889797 -0.324349
v -0.288812 -0.889797 0.340692
v 0.302336 -0.852851 -0.324349
v -0.288812 -0.852851 0.340692
v -0.288812 -0.852851 -0.324349
v 0.302336 -0.852851 0.340692
v -0.234086 0.592945 0.301455
v -0.246401 0.592945 0.387664
v -0.234086 0.592945 0.387664
v -0.246401 0.592945 0.301455
v -0.234086 0.580629 0.387664
v -0.234086 0.580629 0.301455
v -0.246401 0.580629 0.301455
v -0.246401 0.580629 0.387664
v -0.252559 0.753047 0.412295
v -0.227928 0.568313 0.412295
v -0.227928 0.753047 0.412295
v -0.252559 0.568313 0.412295
v -0.227928 0.753047 0.387664
v -0.252559 0.568313 0.387664
v -0.227928 0.568313 0.387664
v -0.252559 0.753047 0.387664
v 0.302336 0.834382 0.340692
v -0.288812 0.834382 -0.324349
v 0.302336 0.834382 -0.324349
v -0.288812 0.834382 0.340692
v 0.302336 0.871329 -0.324349
v -0.288812 0.871329 0.340692
v -0.288812 0.871329 -0.324349
v 0.302336 0.871329 0.340692
v -0.252559 0.311987 0.412295
v -0.227928 0.127253 0.412295
v -0.227928 0.311987 0.412295
v -0.252559 0.127253 0.412295
v -0.227928 0.311987 0.387664
v -0.252559 0.127253 0.387664
v -0.227928 0.127253 0.387664
v -0.252559 0.311987 0.387664
v -0.234086 0.740731 0.301455
v -0.246401 0.740731 0.387664
v -0.234086 0.740731 0.387664
v -0.246401 0.740731 0.301455
v -0.234086 0.728416 0.387664
v -0.234086 0.728416 0.301455
v -0.246401 0.728416 0.301455
v -0.246401 0.728416 0.387664
v -0.234086 0.151884 0.301455
v -0.246401 0.151884 0.387664
v -0.234086 0.151884 0.387664
v -0.246401 0.151884 0.301455
v -0.234086 0.139569 0.387664
v -0.234086 0.139569 0.301455
v -0.246401 0.139569 0.301455
v -0.246401 0.139569 0.387664
v 0.302336 0.4526 0.340692
v -0.288812 0.4526 -0.324349
v 0.302336 0.4526 -0.324349
v -0.288812 0.4526 0.340692
v 0.302336 0.489546 -0.324349
v -0.288812 0.489546 0.340692
v -0.288812 0.489546 -0.324349
v 0.302336 0.489546 0.340692
vn 0.0 1.0 0.0
vn 0.0 -1.0 0.0
vn 0.0 0.0 1.0
vn 0.0 0.0 -1.0
vn 1.0 0.0 0.0
vn -1.0 0.0 0.0
vn 0.0 0.0 1.0
vn 0.0 0.0 -1.0
vn 0.0 1.0 0.0
vn 0.0 -1.0 0.0
vn -1.0 0.0 0.0
vn 1.0 0.0 0.0
vn 0.0 -1.0 0.0
vn 0.0 1.0 0.0
vn 0.03687699307581049 0.0 0.9993198123632328
vn 0.0 0.0 1.0
vn 0.0 0.0 -1.0
vn -0.03687699307581049 0.0 -0.9993198123632328
vn -0.03687699307581049 0.0 0.9993198123632328
vn 0.03687699307581049 0.0 -0.9993198123632328
vn -0.07370500643352604 0.0 0.9972800870500894
vn 0.07370500643352604 0.0 -0.9972800870500894
vn -0.11043196509908727 0.0 0.9938836858930497
vn 0.11043196509908727 0.0 -0.9938836858930497
vn 0.07370500643352604 0.0 0.9972800870500894
vn -0.07370500643352604 0.0 -0.9972800870500894
vn -0.14700804408117715 0.0 0.9891352965977033
vn 0.14700804408117715 0.0 -0.9891352965977033
vn 0.11043196509908727 0.0 0.9938836858930497
vn -0.11043196509908727 0.0 -0.9938836858930497
vn 0.14700804408117715 0.0 0.9891352965977033
vn -0.14700804408117715 0.0 -0.9891352965977033
vn -0.18338503063392175 0.0 0.983041164214091
vn 0.18338503063392175 0.0 -0.983041164214091
vn 0.18338503063392175 0.0 0.983041164214091
vn -0.18338503063392175 0.0 -0.983041164214091
vn -0.20148300228149277 0.0 0.9794920110912778
vn 0.20148300228149277 0.0 -0.9794920110912778
vn 0.20148300228149277 0.0 0.9794920110912778
vn -0.20148300228149277 0.0 -0.9794920110912778
vn -1.0 0.0 0.0
vn 1.0 0.0 0.0
vn 0.0 1.0 0.0
vn 0.0 -1.0 0.0
vn 0.0 0.0 -1.0
vn 0.0 0.0 1.0
vn 0.0 -1.0 0.0
vn 0.0 1.0 0.0
vn 0.03687699307581049 0.0 0.9993198123632328
vn 0.0 0.0 1.0
vn 0.0 0.0 -1.0
vn -0.03687699307581049 0.0 -0.9993198123632328
vn -0.03687699307581049 0.0 0.9993198123632328
vn 0.03687699307581049 0.0 -0.9993198123632328
vn -0.07370500643352604 0.0 0.9972800870500894
vn 0.07370500643352604 0.0 -0.9972800870500894
vn -0.11043196509908727 0.0 0.9938836858930497
vn 0.11043196509908727 0.0 -0.9938836858930497
vn 0.07370500643352604 0.0 0.9972800870500894
vn -0.07370500643352604 0.0 -0.9972800870500894
vn -0.14700804408117715 0.0 0.9891352965977033
vn 0.14700804408117715 0.0 -0.9891352965977033
vn 0.11043196509908727 0.0 0.9938836858930497
vn -0.11043196509908727 0.0 -0.9938836858930497
vn 0.14700804408117715 0.0 0.9891352965977033
vn -0.14700804408117715 0.0 -0.9891352965977033
vn -0.18338503063392175 0.0 0.983041164214091
vn 0.18338503063392175 0.0 -0.983041164214091
vn 0.18338503063392175 0.0 0.983041164214091
vn -0.18338503063392175 0.0 -0.983041164214091
vn -0.20148300228149277 0.0 0.9794920110912778
vn 0.20148300228149277 0.0 -0.9794920110912778
vn 0.20148300228149277 0.0 0.9794920110912778
vn -0.20148300228149277 0.0 -0.9794920110912778
vn 0.0 0.0 1.0
vn 0.0 0.0 -1.0
vn 0.0 1.0 0.0
vn 0.0 -1.0 0.0
vn -1.0 0.0 0.0
vn 1.0 0.0 0.0
vn 0.0 -1.0 0.0
vn 0.0 1.0 0.0
vn 0.0 0.0 -1.0
vn 0.0 0.0 1.0
vn 1.0 0.0 0.0
vn -1.0 0.0 0.0
vn 0.0 1.0 0.0
vn 0.0 -1.0 0.0
vn 0.0 0.0 1.0
vn 0.0 0.0 -1.0
vn 1.0 0.0 0.0
vn -1.0 0.0 0.0
vn 0.0 0.0 1.0
vn 0.0 0.0 -1.0
vn 1.0 0.0 0.0
vn -1.0 0.0 0.0
vn 0.0 1.0 0.0
vn 0.0 -1.0 0.0
vn 0.0 -1.0 0.0
vn 0.0 1.0 0.0
vn 0.0 0.0 -1.0
vn 0.0 0.0 1.0
vn 1.0 0.0 0.0
vn -1.0 0.0 0.0
vn 0.0 0.0 1.0
vn 0.0 0.0 -1.0
vn 1.0 0.0 0.0
vn -1.0 0.0 0.0
vn 0.0 1.0 0.0
vn 0.0 -1.0 0.0
vn 0.0 1.0 0.0
vn 0.0 -1.0 0.0
vn 0.0 0.0 1.0
vn 0.0 0.0 -1.0
vn 1.0 0.0 0.0
vn -1.0 0.0 0.0
vn 0.0 1.0 0.0
vn 0.0 -1.0 0.0
vn 0.0 0.0 1.0
vn 0.0 0.0 -1.0
vn 1.0 0.0 0.0
vn -1.0 0.0 0.0
vn 0.0 -1.0 0.0
vn 0.0 1.0 0.0
vn 0.0 0.0 -1.0
vn 0.0 0.0 1.0
vn 1.0 0.0 0.0
vn -1.0 0.0 0.0
usemtl base_geom
f 1//1 2//1 3//1
f 3//2 2//2 1//2
f 4//2 1//2 2//2
f 7//6 2//6 4//6
f 6//5 3//5 5//5
f 5//6 3//6 6//6
f 2//6 7//6 8//6
f 8//5 7//5 2//5
f 7//2 5//2 8//2
f 8//1 5//1 7//1
f 6//1 7//1 5//1
f 13//9 11//9 10//9
f 10//10 11//10 13//10
f 14//10 12//10 9//10
f 9//9 12//9 14//9
f 12//12 13//12 10//12
f 10//11 13//11 12//11
f 15//10 13//10 11//10
f 12//10 14//10 16//10
f 16//9 14//9 12//9
f 13//12 12//12 16//12
f 16//11 12//11 13//11
f 17//13 18//13 19//13
f 18//13 17//13 20//13
f 19//14 18//14 17//14
f 20//14 17//14 18//14
f 18//15 21//16 19//16
f 19//17 21//17 18//18
f 19//16 22//19 17//19
f 17//20 22//20 19//17
f 17//19 23//21 20//21
f 20//22 23//22 17//20
f 18//13 20//13 24//13
f 24//14 20//14 18//14
f 21//16 18//15 25//15
f 25//18 18//18 21//17
f 22//19 19//16 21//16
f 21//17 19//17 22//20
f 23//21 17//19 22//19
f 22//20 17//20 23//22
f 26//23 20//21 23//21
f 23//22 20//22 26//24
f 24//13 20//13 27//13
f 27//14 20//14 24//14
f 24//25 25//15 18//15
f 18//18 25//18 24//26
f 20//21 26//23 27//23
f 27//24 26//24 20//22
f 24//13 27//13 30//13
f 30//14 27//14 24//14
f 25//15 24//25 28//25
f 28//26 24//26 25//18
f 31//27 27//23 26//23
f 26//24 27//24 31//28
f 30//13 27//13 33//13
f 33//14 27//14 30//14
f 30//29 28//25 24//25
f 24//26 28//26 30//30
f 28//25 30//29 29//29
f 29//30 30//30 28//26
f 27//23 31//27 34//27
f 34//28 31//28 27//24
f 29//29 33//31 32//31
f 32//32 33//32 29//30
f 33//13 27//13 34//13
f 34//14 27//14 33//14
f 33//31 29//29 30//29
f 30//30 29//30 33//32
f 35//33 34//27 31//27
f 31//28 34//28 35//34
f 37//35 32//31 33//31
f 33//32 32//32 37//36
f 33//13 34//13 38//13
f 38//14 34//14 33//14
f 34//27 35//33 38//33
f 38//34 35//34 34//28
f 32//31 37//35 36//35
f 36//36 37//36 32//32
f 33//13 38//13 37//13
f 37//14 38//14 33//14
f 39//37 38//33 35//33
f 35//34 38//34 39//38
f 41//39 36//35 37//35
f 37//36 36//36 41//40
f 37//13 38//13 42//13
f 42//14 38//14 37//14
f 38//33 39//37 42//37
f 42//38 39//38 38//34
f 36//35 41//39 40//39
f 40//40 41//40 36//36
f 37//13 42//13 41//13
f 41//14 42//14 37//14
f 43//41 44//41 45//41
f 44//41 43//41 46//41
f 45//42 44//42 43//42
f 46//42 43//42 44//42
f 47//43 45//43 44//43
f 44//44 45//44 47//44
f 45//45 48//45 43//45
f 43//46 48//46 45//46
f 48//44 46//44 43//44
f 43//43 46//43 48//43
f 45//43 47//43 49//43
f 49//44 47//44 45//44
f 48//45 45//45 49//45
f 49//46 45//46 48//46
f 46//44 48//44 50//44
f 50//43 48//43 46//43
f 47//42 48//42 49//42
f 49//41 48//41 47//41
f 48//42 47//42 50//42
f 50//41 47//41 48//41
f 52//49 55//50 53//50
f 53//51 55//51 52//52
f 53//50 56//53 51//53
f 51//54 56//54 53//51
f 51//53 57//55 54//55
f 54//56 57//56 51//54
f 55//50 52//49 59//49
f 59//52 52//52 55//51
f 56//53 53//50 55//50
f 55//51 53//51 56//54
f 57//55 51//53 56//53
f 56//54 51//54 57//56
f 60//57 54//55 57//55
f 57//56 54//56 60//58
f 58//59 59//49 52//49
f 52//52 59//52 58//60
f 59//48 56//48 55//48
f 55//47 56//47 59//47
f 56//48 62//48 57//48
f 57//47 62//47 56//47
f 54//55 60//57 61//57
f 61//58 60//58 54//56
f 57//48 63//48 60//48
f 60//47 63//47 57//47
f 59//49 58//59 62//59
f 62//60 58//60 59//52
f 56//48 59//48 62//48
f 62//47 59//47 56//47
f 57//48 62//48 63//48
f 63//47 62//47 57//47
f 65//61 61//57 60//57
f 60//58 61//58 65//62
f 60//48 63//48 66//48
f 66//47 63//47 60//47
f 64//63 62//59 58//59
f 58//60 62//60 64//64
f 62//59 64//63 63//63
f 63//64 64//64 62//60
f 61//57 65//61 67//61
f 67//62 65//62 61//58
f 60//48 66//48 65//48
f 65//47 66//47 60//47
f 63//63 68//65 66//65
f 66//66 68//66 63//64
f 68//65 63//63 64//63
f 64//64 63//64 68//66
f 69//67 67//61 65//61
f 65//62 67//62 69//68
f 65//48 66//48 70//48
f 70//47 66//47 65//47
f 71//69 66//65 68//65
f 68//66 66//66 71//70
f 67//61 69//67 72//67
f 72//68 69//68 67//62
f 65//48 70//48 69//48
f 69//47 70//47 65//47
f 66//65 71//69 70//69
f 70//70 71//70 66//66
f 73//71 72//67 69//67
f 69//68 72//68 73//72
f 69//48 70//48 74//48
f 74//47 70//47 69//47
f 75//73 70//69 71//69
f 71//70 70//70 75//74
f 72//67 73//71 76//71
f 76//72 73//72 72//68
f 69//48 74//48 73//48
f 73//47 74//47 69//47
f 70//69 75//73 74//73
f 74//74 75//74 70//70
f 81//77 79//77 78//77
f 78//78 79//78 81//78
f 79//79 82//79 77//79
f 77//80 82//80 79//80
f 82//78 80//78 77//78
f 77//77 80//77 82//77
f 79//77 81//77 83//77
f 83//78 81//78 79//78
f 82//79 79//79 83//79
f 83//80 79//80 82//80
f 80//78 82//78 84//78
f 84//77 82//77 80//77
f 81//80 80//80 84//80
f 85//81 86//81 87//81
f 86//81 85//81 88//81
f 87//82 86//82 85//82
f 88//82 85//82 86//82
f 89//85 85//85 87//85
f 93//87 94//87 95//87
f 95//88 94//88 93//88
f 95//91 98//91 93//91
f 99//92 94//92 96//92
f 96//91 94//91 99//91
f 98//91 95//91 97//91
f 97//92 95//92 98//92
f 94//92 99//92 100//92
f 100//91 99//91 94//91
f 99//88 97//88 100//88
f 100//87 97//87 99//87
f 97//88 99//88 98//88
f 98//87 99//87 97//87
f 101//93 102//93 103//93
f 102//93 101//93 104//93
f 103//94 102//94 101//94
f 104//94 101//94 102//94
f 102//95 105//95 103//95
f 103//96 105//96 102//96
f 105//97 101//97 103//97
f 103//98 101//98 105//98
f 101//96 106//96 104//96
f 104//95 106//95 101//95
f 106//98 102//98 104//98
f 104//97 102//97 106//97
f 105//95 102//95 107//95
f 107//96 102//96 105//96
f 101//97 105//97 108//97
f 108//98 105//98 101//98
f 106//96 101//96 108//96
f 108//95 101//95 106//95
f 102//98 106//98 107//98
f 114//100 113//100 115//100
f 115//99 113//99 114//99
f 113//100 114//100 116//100
f 116//99 114//99 113//99
f 117//105 118//105 119//105
f 118//105 117//105 120//105
f 119//106 118//106 117//106
f 120//106 117//106 118//106
f 118//107 121//107 119//107
f 119//108 121//108 118//108
f 121//109 117//109 119//109
f 117//108 122//108 120//108
f 120//107 122//107 117//107
f 122//110 118//110 120//110
f 120//109 118//109 122//109
f 121//107 118//107 123//107
f 123//108 118//108 121//108
f 117//109 121//109 124//109
f 124//110 121//110 117//110
f 122//108 117//108 124//108
f 124//107 117//107 122//107
f 118//110 122//110 123//110
f 123//109 122//109 118//109
f 125//111 126//111 127//111
f 127//112 126//112 125//112
f 128//112 125//112 126//112
f 125//116 130//116 127//116
f 128//115 126//115 131//115
f 130//115 127//115 129//115
f 129//116 127//116 130//116
f 126//116 131//116 132//116
f 132//115 131//115 126//115
f 132//111 129//111 131//111
f 135//118 134//118 133//118
f 136//118 133//118 134//118
f 133//122 138//122 135//122
f 136//121 134//121 139//121
f 138//121 135//121 137//121
f 137//122 135//122 138//122
f 134//122 139//122 140//122
f 140//117 137//117 139//117
f 138//117 139//117 137//117
